G04 #@! TF.GenerationSoftware,KiCad,Pcbnew,8.0.5*
G04 #@! TF.CreationDate,2024-10-13T23:25:24-04:00*
G04 #@! TF.ProjectId,table-2,7461626c-652d-4322-9e6b-696361645f70,1.2*
G04 #@! TF.SameCoordinates,Original*
G04 #@! TF.FileFunction,Copper,L2,Inr*
G04 #@! TF.FilePolarity,Positive*
%FSLAX46Y46*%
G04 Gerber Fmt 4.6, Leading zero omitted, Abs format (unit mm)*
G04 Created by KiCad (PCBNEW 8.0.5) date 2024-10-13 23:25:24*
%MOMM*%
%LPD*%
G01*
G04 APERTURE LIST*
G04 Aperture macros list*
%AMOutline4P*
0 Free polygon, 4 corners , with rotation*
0 The origin of the aperture is its center*
0 number of corners: always 4*
0 $1 to $8 corner X, Y*
0 $9 Rotation angle, in degrees counterclockwise*
0 create outline with 4 corners*
4,1,4,$1,$2,$3,$4,$5,$6,$7,$8,$1,$2,$9*%
G04 Aperture macros list end*
G04 #@! TA.AperFunction,ComponentPad*
%ADD10C,1.800000*%
G04 #@! TD*
G04 #@! TA.AperFunction,ComponentPad*
%ADD11R,1.500000X1.500000*%
G04 #@! TD*
G04 #@! TA.AperFunction,ComponentPad*
%ADD12C,1.500000*%
G04 #@! TD*
G04 #@! TA.AperFunction,ComponentPad*
%ADD13C,3.500000*%
G04 #@! TD*
G04 #@! TA.AperFunction,ComponentPad*
%ADD14C,2.200000*%
G04 #@! TD*
G04 #@! TA.AperFunction,ComponentPad*
%ADD15C,1.700000*%
G04 #@! TD*
G04 #@! TA.AperFunction,ComponentPad*
%ADD16O,1.100000X1.700000*%
G04 #@! TD*
G04 #@! TA.AperFunction,ComponentPad*
%ADD17C,1.676400*%
G04 #@! TD*
G04 #@! TA.AperFunction,ComponentPad*
%ADD18Outline4P,-0.838200X-0.838200X0.838200X-0.838200X0.838200X0.838200X-0.838200X0.838200X0.000000*%
G04 #@! TD*
G04 #@! TA.AperFunction,ComponentPad*
%ADD19R,1.676400X1.676400*%
G04 #@! TD*
G04 #@! TA.AperFunction,ComponentPad*
%ADD20R,1.700000X1.700000*%
G04 #@! TD*
G04 #@! TA.AperFunction,ComponentPad*
%ADD21O,1.700000X1.700000*%
G04 #@! TD*
G04 #@! TA.AperFunction,ComponentPad*
%ADD22R,2.540000X2.540000*%
G04 #@! TD*
G04 #@! TA.AperFunction,ComponentPad*
%ADD23C,2.540000*%
G04 #@! TD*
G04 #@! TA.AperFunction,ViaPad*
%ADD24C,0.800000*%
G04 #@! TD*
G04 APERTURE END LIST*
D10*
X93500000Y-112575000D03*
X93500000Y-110035000D03*
X93500000Y-107495000D03*
D11*
X154710000Y-107430000D03*
D12*
X157210000Y-107430000D03*
X159210000Y-107430000D03*
X161710000Y-107430000D03*
X154710000Y-104810000D03*
X157210000Y-104810000D03*
X159210000Y-104810000D03*
X161710000Y-104810000D03*
D13*
X151640000Y-110140000D03*
X164780000Y-110140000D03*
X151640000Y-104460000D03*
X164780000Y-104460000D03*
D14*
X146680000Y-115345000D03*
X139680000Y-115345000D03*
D15*
X145430000Y-117845000D03*
X140930000Y-117845000D03*
D16*
X169360000Y-114000000D03*
X169360000Y-117800000D03*
X178000000Y-114000000D03*
X178000000Y-117800000D03*
D14*
X125180000Y-115345000D03*
X118180000Y-115345000D03*
D15*
X123930000Y-117845000D03*
X119430000Y-117845000D03*
D14*
X114180000Y-115345000D03*
X107180000Y-115345000D03*
D15*
X112930000Y-117845000D03*
X108430000Y-117845000D03*
D17*
X89162000Y-58258975D03*
X89162000Y-60798975D03*
X89162000Y-63338975D03*
X89162000Y-65878975D03*
X89162000Y-68418975D03*
X89162000Y-70958975D03*
X89162000Y-73498975D03*
X89162000Y-76038975D03*
X89162000Y-78578975D03*
X89162000Y-81118975D03*
X89162000Y-83658975D03*
X89162000Y-86198975D03*
X89162000Y-88738975D03*
D18*
X89162000Y-91278975D03*
D17*
X89162000Y-93818975D03*
X114562000Y-58258975D03*
X114562000Y-60798975D03*
X114562000Y-63338975D03*
X114562000Y-65878975D03*
X114562000Y-68418975D03*
X114562000Y-70958975D03*
X114562000Y-73498975D03*
X114562000Y-76038975D03*
X114562000Y-78578975D03*
X114562000Y-81118975D03*
X114562000Y-83658975D03*
X114562000Y-86198975D03*
X114562000Y-88738975D03*
D19*
X114562000Y-91278975D03*
D17*
X114562000Y-93818975D03*
D14*
X135930000Y-115345000D03*
X128930000Y-115345000D03*
D15*
X134680000Y-117845000D03*
X130180000Y-117845000D03*
D20*
X124500000Y-69260000D03*
D21*
X124500000Y-71800000D03*
X124500000Y-74340000D03*
X124500000Y-76880000D03*
X124500000Y-79420000D03*
X124500000Y-81960000D03*
X124500000Y-84500000D03*
X124500000Y-87040000D03*
X124500000Y-89580000D03*
X124500000Y-92120000D03*
X124500000Y-63000000D03*
D20*
X127040000Y-63000000D03*
D21*
X129580000Y-63000000D03*
X132120000Y-63000000D03*
X134660000Y-63000000D03*
X137200000Y-63000000D03*
X139740000Y-63000000D03*
X142280000Y-63000000D03*
X124425000Y-47500000D03*
X126965000Y-47500000D03*
X129505000Y-47500000D03*
X132045000Y-47500000D03*
D20*
X134585000Y-47500000D03*
D21*
X153960000Y-77500000D03*
X151420000Y-77500000D03*
D20*
X148880000Y-77500000D03*
D22*
X150190000Y-50050000D03*
D23*
X157810000Y-50050000D03*
D22*
X169500000Y-50000000D03*
D23*
X177120000Y-50000000D03*
D20*
X151420000Y-63000000D03*
D21*
X153960000Y-63000000D03*
X156500000Y-63000000D03*
X159040000Y-63000000D03*
D24*
X184500000Y-85500000D03*
X184500000Y-84500000D03*
X184500000Y-83500000D03*
X184500000Y-82500000D03*
X184500000Y-81500000D03*
X184500000Y-80500000D03*
X184500000Y-79500000D03*
X184500000Y-78500000D03*
X184500000Y-77500000D03*
X184500000Y-76500000D03*
X184500000Y-75500000D03*
X184500000Y-74500000D03*
X184500000Y-73500000D03*
X184500000Y-72500000D03*
X184500000Y-71500000D03*
X184500000Y-70500000D03*
X184500000Y-69500000D03*
X184500000Y-68500000D03*
X184500000Y-67500000D03*
X184500000Y-66500000D03*
X182500000Y-86500000D03*
X181500000Y-87000000D03*
X180500000Y-87500000D03*
X181500000Y-86000000D03*
X180500000Y-86500000D03*
X180500000Y-85500000D03*
X179500000Y-85500000D03*
X179500000Y-86500000D03*
X179500000Y-87500000D03*
X178500000Y-87500000D03*
X178500000Y-86500000D03*
X178500000Y-85500000D03*
X177500000Y-85500000D03*
X177500000Y-86500000D03*
X177500000Y-87500000D03*
X176500000Y-87500000D03*
X176500000Y-86500000D03*
X176500000Y-85500000D03*
X175500000Y-85500000D03*
X175500000Y-86500000D03*
X175500000Y-87500000D03*
X174500000Y-87500000D03*
X174500000Y-86500000D03*
X173500000Y-86500000D03*
X173500000Y-87500000D03*
X172500000Y-87500000D03*
X172500000Y-86500000D03*
X171500000Y-86500000D03*
X171500000Y-87500000D03*
X170500000Y-87500000D03*
X169500000Y-87500000D03*
X170500000Y-86500000D03*
X169500000Y-86500000D03*
X169500000Y-85500000D03*
X170500000Y-85500000D03*
X171500000Y-85500000D03*
X172500000Y-85500000D03*
X173500000Y-85500000D03*
X174500000Y-85500000D03*
X174500000Y-84500000D03*
X175500000Y-84500000D03*
X176500000Y-84500000D03*
X177500000Y-84500000D03*
X178500000Y-84500000D03*
X179500000Y-84500000D03*
X182500000Y-85500000D03*
X180500000Y-84500000D03*
X181500000Y-85000000D03*
X182500000Y-84500000D03*
X181500000Y-84000000D03*
X180500000Y-83500000D03*
X169500000Y-64500000D03*
X170500000Y-64500000D03*
X171500000Y-64500000D03*
X172500000Y-64500000D03*
X173500000Y-64500000D03*
X174500000Y-64500000D03*
X175500000Y-64500000D03*
X176500000Y-64500000D03*
X177500000Y-64500000D03*
X178500000Y-64500000D03*
X179500000Y-64500000D03*
X180500000Y-64500000D03*
X181500000Y-65000000D03*
X182500000Y-65500000D03*
X182500000Y-66500000D03*
X181500000Y-66000000D03*
X180500000Y-65500000D03*
X179500000Y-65500000D03*
X178500000Y-65500000D03*
X177500000Y-65500000D03*
X176500000Y-65500000D03*
X175500000Y-65500000D03*
X174500000Y-65500000D03*
X173500000Y-65500000D03*
X172500000Y-65500000D03*
X171500000Y-65500000D03*
X170500000Y-65500000D03*
X169500000Y-65500000D03*
X169500000Y-66500000D03*
X170500000Y-66500000D03*
X171500000Y-66500000D03*
X172500000Y-66500000D03*
X173500000Y-66500000D03*
X174500000Y-66500000D03*
X175500000Y-66500000D03*
X176500000Y-66500000D03*
X177500000Y-66500000D03*
X178500000Y-66500000D03*
X179500000Y-66500000D03*
X180500000Y-66500000D03*
X181500000Y-67000000D03*
X169500000Y-68500000D03*
X169500000Y-67500000D03*
X170500000Y-67500000D03*
X171500000Y-67500000D03*
X172500000Y-67500000D03*
X173500000Y-67500000D03*
X174500000Y-67500000D03*
X175500000Y-67500000D03*
X176500000Y-67500000D03*
X177500000Y-67500000D03*
X178500000Y-67500000D03*
X179500000Y-67500000D03*
X180500000Y-67500000D03*
X166000000Y-75000000D03*
X166000000Y-78000000D03*
X166000000Y-77000000D03*
X166000000Y-76000000D03*
X167000000Y-77000000D03*
X167000000Y-76000000D03*
X168000000Y-77000000D03*
X168000000Y-76000000D03*
X169000000Y-77000000D03*
X169000000Y-76000000D03*
X182500000Y-83500000D03*
X182500000Y-82500000D03*
X182500000Y-81500000D03*
X182500000Y-80500000D03*
X182500000Y-79500000D03*
X182500000Y-78500000D03*
X182500000Y-77500000D03*
X182500000Y-76500000D03*
X182500000Y-75500000D03*
X182500000Y-74500000D03*
X182500000Y-73500000D03*
X182500000Y-72500000D03*
X182500000Y-71500000D03*
X182500000Y-70500000D03*
X182500000Y-69500000D03*
X182500000Y-67500000D03*
X182500000Y-68500000D03*
X181500000Y-83000000D03*
X181500000Y-82000000D03*
X181500000Y-81000000D03*
X181500000Y-80000000D03*
X181500000Y-79000000D03*
X181500000Y-78000000D03*
X181500000Y-77000000D03*
X181500000Y-76000000D03*
X181500000Y-75000000D03*
X181500000Y-74000000D03*
X181500000Y-73000000D03*
X181500000Y-72000000D03*
X181500000Y-71000000D03*
X181500000Y-70000000D03*
X181500000Y-69000000D03*
X181500000Y-68000000D03*
X180500000Y-68500000D03*
X180500000Y-69500000D03*
X180500000Y-70500000D03*
X180500000Y-71500000D03*
X180500000Y-72500000D03*
X180500000Y-73500000D03*
X180500000Y-74500000D03*
X180500000Y-75500000D03*
X180500000Y-76500000D03*
X180500000Y-77500000D03*
X180500000Y-78500000D03*
X180500000Y-79500000D03*
X180500000Y-80500000D03*
X180500000Y-81500000D03*
X180500000Y-82500000D03*
X84500000Y-114000000D03*
X172000000Y-106000000D03*
X107000000Y-106500000D03*
X176000000Y-106000000D03*
X139500000Y-106500000D03*
X166000000Y-69500000D03*
X118000000Y-106500000D03*
X101500000Y-114000000D03*
X165500000Y-81500000D03*
X129000000Y-106500000D03*
X163500000Y-101500000D03*
X125000000Y-106500000D03*
X136000000Y-106500000D03*
X101500000Y-106500000D03*
X114000000Y-106500000D03*
X84500000Y-106500000D03*
X146500000Y-106500000D03*
G04 #@! TA.AperFunction,Conductor*
G36*
X82575126Y-40988152D02*
G01*
X82693256Y-41000000D01*
X84000000Y-41000000D01*
X183500000Y-41000000D01*
X186831954Y-41000000D01*
X188998473Y-41000000D01*
X189001509Y-41000037D01*
X189007232Y-41000177D01*
X189087583Y-41002145D01*
X189108728Y-41004490D01*
X189279013Y-41038362D01*
X189302261Y-41045413D01*
X189461257Y-41111272D01*
X189482689Y-41122728D01*
X189625775Y-41218335D01*
X189644565Y-41233756D01*
X189766243Y-41355434D01*
X189781664Y-41374224D01*
X189877269Y-41517307D01*
X189888728Y-41538745D01*
X189954583Y-41697731D01*
X189961639Y-41720993D01*
X189995508Y-41891266D01*
X189997854Y-41912419D01*
X189999963Y-41998488D01*
X190000000Y-42001526D01*
X190000000Y-119498791D01*
X189999976Y-119501223D01*
X189997855Y-119609337D01*
X189996352Y-119626303D01*
X189962336Y-119841068D01*
X189957794Y-119859988D01*
X189890978Y-120065629D01*
X189883532Y-120083606D01*
X189785368Y-120276264D01*
X189775201Y-120292855D01*
X189648105Y-120467786D01*
X189635468Y-120482581D01*
X189482581Y-120635468D01*
X189467786Y-120648105D01*
X189292855Y-120775201D01*
X189276264Y-120785368D01*
X189083606Y-120883532D01*
X189065629Y-120890978D01*
X188859988Y-120957794D01*
X188841068Y-120962336D01*
X188626303Y-120996352D01*
X188609337Y-120997855D01*
X188503480Y-120999931D01*
X188501887Y-120999963D01*
X188501224Y-120999976D01*
X188498792Y-121000000D01*
X186831954Y-121000000D01*
X82001527Y-121000000D01*
X81998490Y-120999963D01*
X81912420Y-120997854D01*
X81891266Y-120995508D01*
X81720993Y-120961639D01*
X81697731Y-120954583D01*
X81538745Y-120888728D01*
X81517307Y-120877269D01*
X81374224Y-120781664D01*
X81355434Y-120766243D01*
X81233756Y-120644565D01*
X81218335Y-120625775D01*
X81122730Y-120482692D01*
X81111271Y-120461254D01*
X81045413Y-120302261D01*
X81038362Y-120279013D01*
X81004490Y-120108728D01*
X81002145Y-120087578D01*
X81001607Y-120065629D01*
X81000037Y-120001509D01*
X81000000Y-119998473D01*
X81000000Y-117355067D01*
X82502473Y-117355067D01*
X82502473Y-117644933D01*
X82535950Y-117888501D01*
X82541943Y-117932099D01*
X82541944Y-117932105D01*
X82620149Y-118211220D01*
X82735630Y-118477083D01*
X82735629Y-118477083D01*
X82886238Y-118724749D01*
X82886240Y-118724751D01*
X82886241Y-118724753D01*
X83069172Y-118949605D01*
X83210041Y-119081168D01*
X83281010Y-119147449D01*
X83281012Y-119147450D01*
X83281016Y-119147454D01*
X83517827Y-119314614D01*
X83517826Y-119314614D01*
X83517828Y-119314615D01*
X83775196Y-119447972D01*
X83925031Y-119501223D01*
X84048320Y-119545040D01*
X84048336Y-119545045D01*
X84249825Y-119586914D01*
X84332127Y-119604016D01*
X84332128Y-119604017D01*
X84350643Y-119605283D01*
X84621320Y-119623799D01*
X84910511Y-119604017D01*
X85038227Y-119577477D01*
X85194303Y-119545045D01*
X85194309Y-119545042D01*
X85194314Y-119545042D01*
X85467444Y-119447972D01*
X85724812Y-119314615D01*
X85961624Y-119147454D01*
X86173468Y-118949605D01*
X86356399Y-118724753D01*
X86507009Y-118477085D01*
X86622492Y-118211217D01*
X86700697Y-117932100D01*
X86740167Y-117644933D01*
X86741341Y-117576153D01*
X92699500Y-117576153D01*
X92699500Y-117733846D01*
X92730261Y-117888489D01*
X92730264Y-117888501D01*
X92790602Y-118034172D01*
X92790609Y-118034185D01*
X92878210Y-118165288D01*
X92878213Y-118165292D01*
X92989707Y-118276786D01*
X92989711Y-118276789D01*
X93120814Y-118364390D01*
X93120827Y-118364397D01*
X93266498Y-118424735D01*
X93266503Y-118424737D01*
X93421153Y-118455499D01*
X93421156Y-118455500D01*
X93421158Y-118455500D01*
X93578844Y-118455500D01*
X93578845Y-118455499D01*
X93733497Y-118424737D01*
X93879179Y-118364394D01*
X94010289Y-118276789D01*
X94121789Y-118165289D01*
X94209394Y-118034179D01*
X94269737Y-117888497D01*
X94300500Y-117733842D01*
X94300500Y-117576158D01*
X94300500Y-117576155D01*
X94300499Y-117576153D01*
X94269738Y-117421510D01*
X94269737Y-117421503D01*
X94242219Y-117355067D01*
X94209397Y-117275827D01*
X94209390Y-117275814D01*
X94121789Y-117144711D01*
X94121786Y-117144707D01*
X94010292Y-117033213D01*
X94010288Y-117033210D01*
X93879185Y-116945609D01*
X93879172Y-116945602D01*
X93733501Y-116885264D01*
X93733489Y-116885261D01*
X93578845Y-116854500D01*
X93578842Y-116854500D01*
X93421158Y-116854500D01*
X93421155Y-116854500D01*
X93266510Y-116885261D01*
X93266498Y-116885264D01*
X93120827Y-116945602D01*
X93120814Y-116945609D01*
X92989711Y-117033210D01*
X92989707Y-117033213D01*
X92878213Y-117144707D01*
X92878210Y-117144711D01*
X92790609Y-117275814D01*
X92790602Y-117275827D01*
X92730264Y-117421498D01*
X92730261Y-117421510D01*
X92699500Y-117576153D01*
X86741341Y-117576153D01*
X86742640Y-117500000D01*
X86740167Y-117355067D01*
X86700697Y-117067900D01*
X86622492Y-116788783D01*
X86507009Y-116522916D01*
X86507010Y-116522916D01*
X86356401Y-116275250D01*
X86257698Y-116153927D01*
X86173468Y-116050395D01*
X86040364Y-115926084D01*
X85961629Y-115852550D01*
X85961626Y-115852547D01*
X85961624Y-115852546D01*
X85724812Y-115685385D01*
X85724813Y-115685385D01*
X85467442Y-115552027D01*
X85194319Y-115454959D01*
X85194303Y-115454954D01*
X84910513Y-115395983D01*
X84910511Y-115395982D01*
X84621320Y-115376202D01*
X84332128Y-115395982D01*
X84332126Y-115395983D01*
X84048336Y-115454954D01*
X84048320Y-115454959D01*
X83775197Y-115552027D01*
X83517827Y-115685385D01*
X83375738Y-115785683D01*
X83281016Y-115852546D01*
X83281013Y-115852547D01*
X83281011Y-115852550D01*
X83281010Y-115852550D01*
X83069169Y-116050398D01*
X82886238Y-116275250D01*
X82735629Y-116522916D01*
X82620149Y-116788779D01*
X82541944Y-117067894D01*
X82541943Y-117067900D01*
X82502473Y-117355067D01*
X81000000Y-117355067D01*
X81000000Y-115345000D01*
X105574551Y-115345000D01*
X105594317Y-115596151D01*
X105653126Y-115841110D01*
X105749533Y-116073859D01*
X105881160Y-116288653D01*
X105881161Y-116288656D01*
X105932308Y-116348541D01*
X106044776Y-116480224D01*
X106151171Y-116571094D01*
X106236343Y-116643838D01*
X106236346Y-116643839D01*
X106451140Y-116775466D01*
X106583631Y-116830345D01*
X106683889Y-116871873D01*
X106928852Y-116930683D01*
X107179536Y-116950412D01*
X107244824Y-116975296D01*
X107286294Y-117031527D01*
X107290781Y-117101253D01*
X107271382Y-117145151D01*
X107255968Y-117167165D01*
X107255964Y-117167171D01*
X107156098Y-117381335D01*
X107156094Y-117381344D01*
X107094938Y-117609586D01*
X107094936Y-117609596D01*
X107074341Y-117844999D01*
X107074341Y-117845000D01*
X107094936Y-118080403D01*
X107094938Y-118080413D01*
X107156094Y-118308655D01*
X107156096Y-118308659D01*
X107156097Y-118308663D01*
X107234633Y-118477083D01*
X107255965Y-118522830D01*
X107255967Y-118522834D01*
X107364281Y-118677521D01*
X107391505Y-118716401D01*
X107558599Y-118883495D01*
X107604988Y-118915977D01*
X107752165Y-119019032D01*
X107752167Y-119019033D01*
X107752170Y-119019035D01*
X107966337Y-119118903D01*
X108194592Y-119180063D01*
X108382918Y-119196539D01*
X108429999Y-119200659D01*
X108430000Y-119200659D01*
X108430001Y-119200659D01*
X108469234Y-119197226D01*
X108665408Y-119180063D01*
X108893663Y-119118903D01*
X109107830Y-119019035D01*
X109301401Y-118883495D01*
X109468495Y-118716401D01*
X109604035Y-118522830D01*
X109703903Y-118308663D01*
X109765063Y-118080408D01*
X109785659Y-117845000D01*
X109785659Y-117844999D01*
X111574341Y-117844999D01*
X111574341Y-117845000D01*
X111594936Y-118080403D01*
X111594938Y-118080413D01*
X111656094Y-118308655D01*
X111656096Y-118308659D01*
X111656097Y-118308663D01*
X111734633Y-118477083D01*
X111755965Y-118522830D01*
X111755967Y-118522834D01*
X111864281Y-118677521D01*
X111891505Y-118716401D01*
X112058599Y-118883495D01*
X112104988Y-118915977D01*
X112252165Y-119019032D01*
X112252167Y-119019033D01*
X112252170Y-119019035D01*
X112466337Y-119118903D01*
X112694592Y-119180063D01*
X112882918Y-119196539D01*
X112929999Y-119200659D01*
X112930000Y-119200659D01*
X112930001Y-119200659D01*
X112969234Y-119197226D01*
X113165408Y-119180063D01*
X113393663Y-119118903D01*
X113607830Y-119019035D01*
X113801401Y-118883495D01*
X113968495Y-118716401D01*
X114104035Y-118522830D01*
X114203903Y-118308663D01*
X114265063Y-118080408D01*
X114285659Y-117845000D01*
X114265063Y-117609592D01*
X114203903Y-117381337D01*
X114104035Y-117167171D01*
X114088617Y-117145152D01*
X114066291Y-117078948D01*
X114083301Y-117011180D01*
X114134249Y-116963367D01*
X114180461Y-116950412D01*
X114431148Y-116930683D01*
X114676111Y-116871873D01*
X114908859Y-116775466D01*
X115123659Y-116643836D01*
X115315224Y-116480224D01*
X115478836Y-116288659D01*
X115610466Y-116073859D01*
X115706873Y-115841111D01*
X115765683Y-115596148D01*
X115785449Y-115345000D01*
X116574551Y-115345000D01*
X116594317Y-115596151D01*
X116653126Y-115841110D01*
X116749533Y-116073859D01*
X116881160Y-116288653D01*
X116881161Y-116288656D01*
X116932308Y-116348541D01*
X117044776Y-116480224D01*
X117151171Y-116571094D01*
X117236343Y-116643838D01*
X117236346Y-116643839D01*
X117451140Y-116775466D01*
X117583631Y-116830345D01*
X117683889Y-116871873D01*
X117928852Y-116930683D01*
X118179536Y-116950412D01*
X118244824Y-116975296D01*
X118286294Y-117031527D01*
X118290781Y-117101253D01*
X118271382Y-117145151D01*
X118255968Y-117167165D01*
X118255964Y-117167171D01*
X118156098Y-117381335D01*
X118156094Y-117381344D01*
X118094938Y-117609586D01*
X118094936Y-117609596D01*
X118074341Y-117844999D01*
X118074341Y-117845000D01*
X118094936Y-118080403D01*
X118094938Y-118080413D01*
X118156094Y-118308655D01*
X118156096Y-118308659D01*
X118156097Y-118308663D01*
X118234633Y-118477083D01*
X118255965Y-118522830D01*
X118255967Y-118522834D01*
X118364281Y-118677521D01*
X118391505Y-118716401D01*
X118558599Y-118883495D01*
X118604988Y-118915977D01*
X118752165Y-119019032D01*
X118752167Y-119019033D01*
X118752170Y-119019035D01*
X118966337Y-119118903D01*
X119194592Y-119180063D01*
X119382918Y-119196539D01*
X119429999Y-119200659D01*
X119430000Y-119200659D01*
X119430001Y-119200659D01*
X119469234Y-119197226D01*
X119665408Y-119180063D01*
X119893663Y-119118903D01*
X120107830Y-119019035D01*
X120301401Y-118883495D01*
X120468495Y-118716401D01*
X120604035Y-118522830D01*
X120703903Y-118308663D01*
X120765063Y-118080408D01*
X120785659Y-117845000D01*
X120785659Y-117844999D01*
X122574341Y-117844999D01*
X122574341Y-117845000D01*
X122594936Y-118080403D01*
X122594938Y-118080413D01*
X122656094Y-118308655D01*
X122656096Y-118308659D01*
X122656097Y-118308663D01*
X122734633Y-118477083D01*
X122755965Y-118522830D01*
X122755967Y-118522834D01*
X122864281Y-118677521D01*
X122891505Y-118716401D01*
X123058599Y-118883495D01*
X123104988Y-118915977D01*
X123252165Y-119019032D01*
X123252167Y-119019033D01*
X123252170Y-119019035D01*
X123466337Y-119118903D01*
X123694592Y-119180063D01*
X123882918Y-119196539D01*
X123929999Y-119200659D01*
X123930000Y-119200659D01*
X123930001Y-119200659D01*
X123969234Y-119197226D01*
X124165408Y-119180063D01*
X124393663Y-119118903D01*
X124607830Y-119019035D01*
X124801401Y-118883495D01*
X124968495Y-118716401D01*
X125104035Y-118522830D01*
X125203903Y-118308663D01*
X125265063Y-118080408D01*
X125285659Y-117845000D01*
X125265063Y-117609592D01*
X125203903Y-117381337D01*
X125104035Y-117167171D01*
X125088617Y-117145152D01*
X125066291Y-117078948D01*
X125083301Y-117011180D01*
X125134249Y-116963367D01*
X125180461Y-116950412D01*
X125431148Y-116930683D01*
X125676111Y-116871873D01*
X125908859Y-116775466D01*
X126123659Y-116643836D01*
X126315224Y-116480224D01*
X126478836Y-116288659D01*
X126610466Y-116073859D01*
X126706873Y-115841111D01*
X126765683Y-115596148D01*
X126785449Y-115345000D01*
X127324551Y-115345000D01*
X127344317Y-115596151D01*
X127403126Y-115841110D01*
X127499533Y-116073859D01*
X127631160Y-116288653D01*
X127631161Y-116288656D01*
X127682308Y-116348541D01*
X127794776Y-116480224D01*
X127901171Y-116571094D01*
X127986343Y-116643838D01*
X127986346Y-116643839D01*
X128201140Y-116775466D01*
X128333631Y-116830345D01*
X128433889Y-116871873D01*
X128678852Y-116930683D01*
X128929536Y-116950412D01*
X128994824Y-116975296D01*
X129036294Y-117031527D01*
X129040781Y-117101253D01*
X129021382Y-117145151D01*
X129005968Y-117167165D01*
X129005964Y-117167171D01*
X128906098Y-117381335D01*
X128906094Y-117381344D01*
X128844938Y-117609586D01*
X128844936Y-117609596D01*
X128824341Y-117844999D01*
X128824341Y-117845000D01*
X128844936Y-118080403D01*
X128844938Y-118080413D01*
X128906094Y-118308655D01*
X128906096Y-118308659D01*
X128906097Y-118308663D01*
X128984633Y-118477083D01*
X129005965Y-118522830D01*
X129005967Y-118522834D01*
X129114281Y-118677521D01*
X129141505Y-118716401D01*
X129308599Y-118883495D01*
X129354988Y-118915977D01*
X129502165Y-119019032D01*
X129502167Y-119019033D01*
X129502170Y-119019035D01*
X129716337Y-119118903D01*
X129944592Y-119180063D01*
X130132918Y-119196539D01*
X130179999Y-119200659D01*
X130180000Y-119200659D01*
X130180001Y-119200659D01*
X130219234Y-119197226D01*
X130415408Y-119180063D01*
X130643663Y-119118903D01*
X130857830Y-119019035D01*
X131051401Y-118883495D01*
X131218495Y-118716401D01*
X131354035Y-118522830D01*
X131453903Y-118308663D01*
X131515063Y-118080408D01*
X131535659Y-117845000D01*
X131535659Y-117844999D01*
X133324341Y-117844999D01*
X133324341Y-117845000D01*
X133344936Y-118080403D01*
X133344938Y-118080413D01*
X133406094Y-118308655D01*
X133406096Y-118308659D01*
X133406097Y-118308663D01*
X133484633Y-118477083D01*
X133505965Y-118522830D01*
X133505967Y-118522834D01*
X133614281Y-118677521D01*
X133641505Y-118716401D01*
X133808599Y-118883495D01*
X133854988Y-118915977D01*
X134002165Y-119019032D01*
X134002167Y-119019033D01*
X134002170Y-119019035D01*
X134216337Y-119118903D01*
X134444592Y-119180063D01*
X134632918Y-119196539D01*
X134679999Y-119200659D01*
X134680000Y-119200659D01*
X134680001Y-119200659D01*
X134719234Y-119197226D01*
X134915408Y-119180063D01*
X135143663Y-119118903D01*
X135357830Y-119019035D01*
X135551401Y-118883495D01*
X135718495Y-118716401D01*
X135854035Y-118522830D01*
X135953903Y-118308663D01*
X136015063Y-118080408D01*
X136035659Y-117845000D01*
X136015063Y-117609592D01*
X135953903Y-117381337D01*
X135854035Y-117167171D01*
X135838617Y-117145152D01*
X135816291Y-117078948D01*
X135833301Y-117011180D01*
X135884249Y-116963367D01*
X135930461Y-116950412D01*
X136181148Y-116930683D01*
X136426111Y-116871873D01*
X136658859Y-116775466D01*
X136873659Y-116643836D01*
X137065224Y-116480224D01*
X137228836Y-116288659D01*
X137360466Y-116073859D01*
X137456873Y-115841111D01*
X137515683Y-115596148D01*
X137535449Y-115345000D01*
X138074551Y-115345000D01*
X138094317Y-115596151D01*
X138153126Y-115841110D01*
X138249533Y-116073859D01*
X138381160Y-116288653D01*
X138381161Y-116288656D01*
X138432308Y-116348541D01*
X138544776Y-116480224D01*
X138651171Y-116571094D01*
X138736343Y-116643838D01*
X138736346Y-116643839D01*
X138951140Y-116775466D01*
X139083631Y-116830345D01*
X139183889Y-116871873D01*
X139428852Y-116930683D01*
X139679536Y-116950412D01*
X139744824Y-116975296D01*
X139786294Y-117031527D01*
X139790781Y-117101253D01*
X139771382Y-117145151D01*
X139755968Y-117167165D01*
X139755964Y-117167171D01*
X139656098Y-117381335D01*
X139656094Y-117381344D01*
X139594938Y-117609586D01*
X139594936Y-117609596D01*
X139574341Y-117844999D01*
X139574341Y-117845000D01*
X139594936Y-118080403D01*
X139594938Y-118080413D01*
X139656094Y-118308655D01*
X139656096Y-118308659D01*
X139656097Y-118308663D01*
X139734633Y-118477083D01*
X139755965Y-118522830D01*
X139755967Y-118522834D01*
X139864281Y-118677521D01*
X139891505Y-118716401D01*
X140058599Y-118883495D01*
X140104988Y-118915977D01*
X140252165Y-119019032D01*
X140252167Y-119019033D01*
X140252170Y-119019035D01*
X140466337Y-119118903D01*
X140694592Y-119180063D01*
X140882918Y-119196539D01*
X140929999Y-119200659D01*
X140930000Y-119200659D01*
X140930001Y-119200659D01*
X140969234Y-119197226D01*
X141165408Y-119180063D01*
X141393663Y-119118903D01*
X141607830Y-119019035D01*
X141801401Y-118883495D01*
X141968495Y-118716401D01*
X142104035Y-118522830D01*
X142203903Y-118308663D01*
X142265063Y-118080408D01*
X142285659Y-117845000D01*
X142285659Y-117844999D01*
X144074341Y-117844999D01*
X144074341Y-117845000D01*
X144094936Y-118080403D01*
X144094938Y-118080413D01*
X144156094Y-118308655D01*
X144156096Y-118308659D01*
X144156097Y-118308663D01*
X144234633Y-118477083D01*
X144255965Y-118522830D01*
X144255967Y-118522834D01*
X144364281Y-118677521D01*
X144391505Y-118716401D01*
X144558599Y-118883495D01*
X144604988Y-118915977D01*
X144752165Y-119019032D01*
X144752167Y-119019033D01*
X144752170Y-119019035D01*
X144966337Y-119118903D01*
X145194592Y-119180063D01*
X145382918Y-119196539D01*
X145429999Y-119200659D01*
X145430000Y-119200659D01*
X145430001Y-119200659D01*
X145469234Y-119197226D01*
X145665408Y-119180063D01*
X145893663Y-119118903D01*
X146107830Y-119019035D01*
X146301401Y-118883495D01*
X146468495Y-118716401D01*
X146604035Y-118522830D01*
X146703903Y-118308663D01*
X146765063Y-118080408D01*
X146785659Y-117845000D01*
X146765063Y-117609592D01*
X146707974Y-117396530D01*
X168309500Y-117396530D01*
X168309500Y-118203469D01*
X168349868Y-118406412D01*
X168349870Y-118406420D01*
X168398090Y-118522834D01*
X168429059Y-118597598D01*
X168432958Y-118603433D01*
X168544024Y-118769657D01*
X168690342Y-118915975D01*
X168690345Y-118915977D01*
X168862402Y-119030941D01*
X169053580Y-119110130D01*
X169241202Y-119147450D01*
X169256530Y-119150499D01*
X169256534Y-119150500D01*
X169256535Y-119150500D01*
X169463466Y-119150500D01*
X169463467Y-119150499D01*
X169666420Y-119110130D01*
X169857598Y-119030941D01*
X170029655Y-118915977D01*
X170175977Y-118769655D01*
X170290941Y-118597598D01*
X170370130Y-118406420D01*
X170410500Y-118203465D01*
X170410500Y-117396535D01*
X170410499Y-117396530D01*
X176949500Y-117396530D01*
X176949500Y-118203469D01*
X176989868Y-118406412D01*
X176989870Y-118406420D01*
X177038090Y-118522834D01*
X177069059Y-118597598D01*
X177072958Y-118603433D01*
X177184024Y-118769657D01*
X177330342Y-118915975D01*
X177330345Y-118915977D01*
X177502402Y-119030941D01*
X177693580Y-119110130D01*
X177881202Y-119147450D01*
X177896530Y-119150499D01*
X177896534Y-119150500D01*
X177896535Y-119150500D01*
X178103466Y-119150500D01*
X178103467Y-119150499D01*
X178306420Y-119110130D01*
X178497598Y-119030941D01*
X178669655Y-118915977D01*
X178815977Y-118769655D01*
X178930941Y-118597598D01*
X179010130Y-118406420D01*
X179050500Y-118203465D01*
X179050500Y-117396535D01*
X179018120Y-117233747D01*
X184381153Y-117233747D01*
X184381153Y-117523613D01*
X184410048Y-117733844D01*
X184420623Y-117810779D01*
X184420624Y-117810785D01*
X184498829Y-118089900D01*
X184614310Y-118355763D01*
X184614309Y-118355763D01*
X184764918Y-118603429D01*
X184764920Y-118603431D01*
X184764921Y-118603433D01*
X184947852Y-118828285D01*
X185006971Y-118883498D01*
X185159690Y-119026129D01*
X185159692Y-119026130D01*
X185159696Y-119026134D01*
X185396507Y-119193294D01*
X185396506Y-119193294D01*
X185396508Y-119193295D01*
X185653876Y-119326652D01*
X185852871Y-119397374D01*
X185927000Y-119423720D01*
X185927016Y-119423725D01*
X186128505Y-119465594D01*
X186210807Y-119482696D01*
X186210808Y-119482697D01*
X186229323Y-119483963D01*
X186500000Y-119502479D01*
X186789191Y-119482697D01*
X186916907Y-119456157D01*
X187072983Y-119423725D01*
X187072989Y-119423722D01*
X187072994Y-119423722D01*
X187346124Y-119326652D01*
X187603492Y-119193295D01*
X187840304Y-119026134D01*
X188052148Y-118828285D01*
X188235079Y-118603433D01*
X188385689Y-118355765D01*
X188501172Y-118089897D01*
X188579377Y-117810780D01*
X188618847Y-117523613D01*
X188621320Y-117378680D01*
X188618847Y-117233747D01*
X188579377Y-116946580D01*
X188501172Y-116667463D01*
X188385689Y-116401596D01*
X188385690Y-116401596D01*
X188235081Y-116153930D01*
X188169939Y-116073859D01*
X188052148Y-115929075D01*
X187919044Y-115804764D01*
X187840309Y-115731230D01*
X187840306Y-115731227D01*
X187840304Y-115731226D01*
X187603492Y-115564065D01*
X187603493Y-115564065D01*
X187346122Y-115430707D01*
X187072999Y-115333639D01*
X187072983Y-115333634D01*
X186789193Y-115274663D01*
X186789191Y-115274662D01*
X186500000Y-115254882D01*
X186210808Y-115274662D01*
X186210806Y-115274663D01*
X185927016Y-115333634D01*
X185927000Y-115333639D01*
X185653877Y-115430707D01*
X185396507Y-115564065D01*
X185254418Y-115664363D01*
X185159696Y-115731226D01*
X185159693Y-115731227D01*
X185159691Y-115731230D01*
X185159690Y-115731230D01*
X184947849Y-115929078D01*
X184764918Y-116153930D01*
X184614309Y-116401596D01*
X184498829Y-116667459D01*
X184420624Y-116946574D01*
X184420623Y-116946580D01*
X184402430Y-117078948D01*
X184381153Y-117233747D01*
X179018120Y-117233747D01*
X179010130Y-117193580D01*
X178930941Y-117002402D01*
X178815977Y-116830345D01*
X178815975Y-116830342D01*
X178669657Y-116684024D01*
X178583626Y-116626541D01*
X178497598Y-116569059D01*
X178306420Y-116489870D01*
X178306412Y-116489868D01*
X178103469Y-116449500D01*
X178103465Y-116449500D01*
X177896535Y-116449500D01*
X177896530Y-116449500D01*
X177693587Y-116489868D01*
X177693579Y-116489870D01*
X177502403Y-116569058D01*
X177330342Y-116684024D01*
X177184024Y-116830342D01*
X177069058Y-117002403D01*
X176989870Y-117193579D01*
X176989868Y-117193587D01*
X176949500Y-117396530D01*
X170410499Y-117396530D01*
X170370130Y-117193580D01*
X170290941Y-117002402D01*
X170175977Y-116830345D01*
X170175975Y-116830342D01*
X170029657Y-116684024D01*
X169943626Y-116626541D01*
X169857598Y-116569059D01*
X169666420Y-116489870D01*
X169666412Y-116489868D01*
X169463469Y-116449500D01*
X169463465Y-116449500D01*
X169256535Y-116449500D01*
X169256530Y-116449500D01*
X169053587Y-116489868D01*
X169053579Y-116489870D01*
X168862403Y-116569058D01*
X168690342Y-116684024D01*
X168544024Y-116830342D01*
X168429058Y-117002403D01*
X168349870Y-117193579D01*
X168349868Y-117193587D01*
X168309500Y-117396530D01*
X146707974Y-117396530D01*
X146703903Y-117381337D01*
X146604035Y-117167171D01*
X146588617Y-117145152D01*
X146566291Y-117078948D01*
X146583301Y-117011180D01*
X146634249Y-116963367D01*
X146680461Y-116950412D01*
X146931148Y-116930683D01*
X147176111Y-116871873D01*
X147408859Y-116775466D01*
X147623659Y-116643836D01*
X147815224Y-116480224D01*
X147978836Y-116288659D01*
X148110466Y-116073859D01*
X148206873Y-115841111D01*
X148265683Y-115596148D01*
X148285449Y-115345000D01*
X148265683Y-115093852D01*
X148206873Y-114848889D01*
X148180057Y-114784148D01*
X148110466Y-114616140D01*
X147978839Y-114401346D01*
X147978838Y-114401343D01*
X147941875Y-114358066D01*
X147815224Y-114209776D01*
X147688571Y-114101604D01*
X147623656Y-114046161D01*
X147623653Y-114046160D01*
X147408859Y-113914533D01*
X147176110Y-113818126D01*
X146931151Y-113759317D01*
X146680000Y-113739551D01*
X146428848Y-113759317D01*
X146183889Y-113818126D01*
X145951140Y-113914533D01*
X145736346Y-114046160D01*
X145736343Y-114046161D01*
X145544776Y-114209776D01*
X145381161Y-114401343D01*
X145381160Y-114401346D01*
X145249533Y-114616140D01*
X145153126Y-114848889D01*
X145094317Y-115093848D01*
X145074551Y-115345000D01*
X145094317Y-115596151D01*
X145153126Y-115841110D01*
X145249533Y-116073859D01*
X145381160Y-116288653D01*
X145381160Y-116288654D01*
X145381162Y-116288656D01*
X145381164Y-116288659D01*
X145387676Y-116296284D01*
X145387681Y-116296289D01*
X145416250Y-116360051D01*
X145405812Y-116429136D01*
X145359680Y-116481611D01*
X145304197Y-116500347D01*
X145194596Y-116509936D01*
X145194586Y-116509938D01*
X144966344Y-116571094D01*
X144966335Y-116571098D01*
X144752171Y-116670964D01*
X144752169Y-116670965D01*
X144558597Y-116806505D01*
X144391505Y-116973597D01*
X144255965Y-117167169D01*
X144255964Y-117167171D01*
X144156098Y-117381335D01*
X144156094Y-117381344D01*
X144094938Y-117609586D01*
X144094936Y-117609596D01*
X144074341Y-117844999D01*
X142285659Y-117844999D01*
X142265063Y-117609592D01*
X142203903Y-117381337D01*
X142104035Y-117167171D01*
X142088617Y-117145151D01*
X141968494Y-116973597D01*
X141801402Y-116806506D01*
X141801395Y-116806501D01*
X141607834Y-116670967D01*
X141607830Y-116670965D01*
X141549652Y-116643836D01*
X141393663Y-116571097D01*
X141393659Y-116571096D01*
X141393655Y-116571094D01*
X141165413Y-116509938D01*
X141165403Y-116509936D01*
X141055802Y-116500347D01*
X140990733Y-116474894D01*
X140949755Y-116418303D01*
X140945877Y-116348541D01*
X140972322Y-116296285D01*
X140978836Y-116288659D01*
X141110466Y-116073859D01*
X141206873Y-115841111D01*
X141265683Y-115596148D01*
X141285449Y-115345000D01*
X141265683Y-115093852D01*
X141206873Y-114848889D01*
X141180057Y-114784148D01*
X141110466Y-114616140D01*
X140978839Y-114401346D01*
X140978838Y-114401343D01*
X140941875Y-114358066D01*
X140815224Y-114209776D01*
X140688571Y-114101604D01*
X140623656Y-114046161D01*
X140623653Y-114046160D01*
X140408859Y-113914533D01*
X140176110Y-113818126D01*
X139931151Y-113759317D01*
X139680000Y-113739551D01*
X139428848Y-113759317D01*
X139183889Y-113818126D01*
X138951140Y-113914533D01*
X138736346Y-114046160D01*
X138736343Y-114046161D01*
X138544776Y-114209776D01*
X138381161Y-114401343D01*
X138381160Y-114401346D01*
X138249533Y-114616140D01*
X138153126Y-114848889D01*
X138094317Y-115093848D01*
X138074551Y-115345000D01*
X137535449Y-115345000D01*
X137515683Y-115093852D01*
X137456873Y-114848889D01*
X137430057Y-114784148D01*
X137360466Y-114616140D01*
X137228839Y-114401346D01*
X137228838Y-114401343D01*
X137191875Y-114358066D01*
X137065224Y-114209776D01*
X136938571Y-114101604D01*
X136873656Y-114046161D01*
X136873653Y-114046160D01*
X136658859Y-113914533D01*
X136426110Y-113818126D01*
X136181151Y-113759317D01*
X135930000Y-113739551D01*
X135678848Y-113759317D01*
X135433889Y-113818126D01*
X135201140Y-113914533D01*
X134986346Y-114046160D01*
X134986343Y-114046161D01*
X134794776Y-114209776D01*
X134631161Y-114401343D01*
X134631160Y-114401346D01*
X134499533Y-114616140D01*
X134403126Y-114848889D01*
X134344317Y-115093848D01*
X134324551Y-115345000D01*
X134344317Y-115596151D01*
X134403126Y-115841110D01*
X134499533Y-116073859D01*
X134631160Y-116288653D01*
X134631160Y-116288654D01*
X134631162Y-116288656D01*
X134631164Y-116288659D01*
X134637676Y-116296284D01*
X134637681Y-116296289D01*
X134666250Y-116360051D01*
X134655812Y-116429136D01*
X134609680Y-116481611D01*
X134554197Y-116500347D01*
X134444596Y-116509936D01*
X134444586Y-116509938D01*
X134216344Y-116571094D01*
X134216335Y-116571098D01*
X134002171Y-116670964D01*
X134002169Y-116670965D01*
X133808597Y-116806505D01*
X133641505Y-116973597D01*
X133505965Y-117167169D01*
X133505964Y-117167171D01*
X133406098Y-117381335D01*
X133406094Y-117381344D01*
X133344938Y-117609586D01*
X133344936Y-117609596D01*
X133324341Y-117844999D01*
X131535659Y-117844999D01*
X131515063Y-117609592D01*
X131453903Y-117381337D01*
X131354035Y-117167171D01*
X131338617Y-117145151D01*
X131218494Y-116973597D01*
X131051402Y-116806506D01*
X131051395Y-116806501D01*
X130857834Y-116670967D01*
X130857830Y-116670965D01*
X130799652Y-116643836D01*
X130643663Y-116571097D01*
X130643659Y-116571096D01*
X130643655Y-116571094D01*
X130415413Y-116509938D01*
X130415403Y-116509936D01*
X130305802Y-116500347D01*
X130240733Y-116474894D01*
X130199755Y-116418303D01*
X130195877Y-116348541D01*
X130222322Y-116296285D01*
X130228836Y-116288659D01*
X130360466Y-116073859D01*
X130456873Y-115841111D01*
X130515683Y-115596148D01*
X130535449Y-115345000D01*
X130515683Y-115093852D01*
X130456873Y-114848889D01*
X130430057Y-114784148D01*
X130360466Y-114616140D01*
X130228839Y-114401346D01*
X130228838Y-114401343D01*
X130191875Y-114358066D01*
X130065224Y-114209776D01*
X129938571Y-114101604D01*
X129873656Y-114046161D01*
X129873653Y-114046160D01*
X129658859Y-113914533D01*
X129426110Y-113818126D01*
X129181151Y-113759317D01*
X128930000Y-113739551D01*
X128678848Y-113759317D01*
X128433889Y-113818126D01*
X128201140Y-113914533D01*
X127986346Y-114046160D01*
X127986343Y-114046161D01*
X127794776Y-114209776D01*
X127631161Y-114401343D01*
X127631160Y-114401346D01*
X127499533Y-114616140D01*
X127403126Y-114848889D01*
X127344317Y-115093848D01*
X127324551Y-115345000D01*
X126785449Y-115345000D01*
X126765683Y-115093852D01*
X126706873Y-114848889D01*
X126680057Y-114784148D01*
X126610466Y-114616140D01*
X126478839Y-114401346D01*
X126478838Y-114401343D01*
X126441875Y-114358066D01*
X126315224Y-114209776D01*
X126188571Y-114101604D01*
X126123656Y-114046161D01*
X126123653Y-114046160D01*
X125908859Y-113914533D01*
X125676110Y-113818126D01*
X125431151Y-113759317D01*
X125180000Y-113739551D01*
X124928848Y-113759317D01*
X124683889Y-113818126D01*
X124451140Y-113914533D01*
X124236346Y-114046160D01*
X124236343Y-114046161D01*
X124044776Y-114209776D01*
X123881161Y-114401343D01*
X123881160Y-114401346D01*
X123749533Y-114616140D01*
X123653126Y-114848889D01*
X123594317Y-115093848D01*
X123574551Y-115345000D01*
X123594317Y-115596151D01*
X123653126Y-115841110D01*
X123749533Y-116073859D01*
X123881160Y-116288653D01*
X123881160Y-116288654D01*
X123881162Y-116288656D01*
X123881164Y-116288659D01*
X123887676Y-116296284D01*
X123887681Y-116296289D01*
X123916250Y-116360051D01*
X123905812Y-116429136D01*
X123859680Y-116481611D01*
X123804197Y-116500347D01*
X123694596Y-116509936D01*
X123694586Y-116509938D01*
X123466344Y-116571094D01*
X123466335Y-116571098D01*
X123252171Y-116670964D01*
X123252169Y-116670965D01*
X123058597Y-116806505D01*
X122891505Y-116973597D01*
X122755965Y-117167169D01*
X122755964Y-117167171D01*
X122656098Y-117381335D01*
X122656094Y-117381344D01*
X122594938Y-117609586D01*
X122594936Y-117609596D01*
X122574341Y-117844999D01*
X120785659Y-117844999D01*
X120765063Y-117609592D01*
X120703903Y-117381337D01*
X120604035Y-117167171D01*
X120588617Y-117145151D01*
X120468494Y-116973597D01*
X120301402Y-116806506D01*
X120301395Y-116806501D01*
X120107834Y-116670967D01*
X120107830Y-116670965D01*
X120049652Y-116643836D01*
X119893663Y-116571097D01*
X119893659Y-116571096D01*
X119893655Y-116571094D01*
X119665413Y-116509938D01*
X119665403Y-116509936D01*
X119555802Y-116500347D01*
X119490733Y-116474894D01*
X119449755Y-116418303D01*
X119445877Y-116348541D01*
X119472322Y-116296285D01*
X119478836Y-116288659D01*
X119610466Y-116073859D01*
X119706873Y-115841111D01*
X119765683Y-115596148D01*
X119785449Y-115345000D01*
X119765683Y-115093852D01*
X119706873Y-114848889D01*
X119680057Y-114784148D01*
X119610466Y-114616140D01*
X119478839Y-114401346D01*
X119478838Y-114401343D01*
X119441875Y-114358066D01*
X119315224Y-114209776D01*
X119188571Y-114101604D01*
X119123656Y-114046161D01*
X119123653Y-114046160D01*
X118908859Y-113914533D01*
X118676110Y-113818126D01*
X118431151Y-113759317D01*
X118180000Y-113739551D01*
X117928848Y-113759317D01*
X117683889Y-113818126D01*
X117451140Y-113914533D01*
X117236346Y-114046160D01*
X117236343Y-114046161D01*
X117044776Y-114209776D01*
X116881161Y-114401343D01*
X116881160Y-114401346D01*
X116749533Y-114616140D01*
X116653126Y-114848889D01*
X116594317Y-115093848D01*
X116574551Y-115345000D01*
X115785449Y-115345000D01*
X115765683Y-115093852D01*
X115706873Y-114848889D01*
X115680057Y-114784148D01*
X115610466Y-114616140D01*
X115478839Y-114401346D01*
X115478838Y-114401343D01*
X115441875Y-114358066D01*
X115315224Y-114209776D01*
X115188571Y-114101604D01*
X115123656Y-114046161D01*
X115123653Y-114046160D01*
X114908859Y-113914533D01*
X114676110Y-113818126D01*
X114431151Y-113759317D01*
X114180000Y-113739551D01*
X113928848Y-113759317D01*
X113683889Y-113818126D01*
X113451140Y-113914533D01*
X113236346Y-114046160D01*
X113236343Y-114046161D01*
X113044776Y-114209776D01*
X112881161Y-114401343D01*
X112881160Y-114401346D01*
X112749533Y-114616140D01*
X112653126Y-114848889D01*
X112594317Y-115093848D01*
X112574551Y-115345000D01*
X112594317Y-115596151D01*
X112653126Y-115841110D01*
X112749533Y-116073859D01*
X112881160Y-116288653D01*
X112881160Y-116288654D01*
X112881162Y-116288656D01*
X112881164Y-116288659D01*
X112887676Y-116296284D01*
X112887681Y-116296289D01*
X112916250Y-116360051D01*
X112905812Y-116429136D01*
X112859680Y-116481611D01*
X112804197Y-116500347D01*
X112694596Y-116509936D01*
X112694586Y-116509938D01*
X112466344Y-116571094D01*
X112466335Y-116571098D01*
X112252171Y-116670964D01*
X112252169Y-116670965D01*
X112058597Y-116806505D01*
X111891505Y-116973597D01*
X111755965Y-117167169D01*
X111755964Y-117167171D01*
X111656098Y-117381335D01*
X111656094Y-117381344D01*
X111594938Y-117609586D01*
X111594936Y-117609596D01*
X111574341Y-117844999D01*
X109785659Y-117844999D01*
X109765063Y-117609592D01*
X109703903Y-117381337D01*
X109604035Y-117167171D01*
X109588617Y-117145151D01*
X109468494Y-116973597D01*
X109301402Y-116806506D01*
X109301395Y-116806501D01*
X109107834Y-116670967D01*
X109107830Y-116670965D01*
X109049652Y-116643836D01*
X108893663Y-116571097D01*
X108893659Y-116571096D01*
X108893655Y-116571094D01*
X108665413Y-116509938D01*
X108665403Y-116509936D01*
X108555802Y-116500347D01*
X108490733Y-116474894D01*
X108449755Y-116418303D01*
X108445877Y-116348541D01*
X108472322Y-116296285D01*
X108478836Y-116288659D01*
X108610466Y-116073859D01*
X108706873Y-115841111D01*
X108765683Y-115596148D01*
X108785449Y-115345000D01*
X108765683Y-115093852D01*
X108706873Y-114848889D01*
X108680057Y-114784148D01*
X108610466Y-114616140D01*
X108478839Y-114401346D01*
X108478838Y-114401343D01*
X108441875Y-114358066D01*
X108315224Y-114209776D01*
X108188571Y-114101604D01*
X108123656Y-114046161D01*
X108123653Y-114046160D01*
X107908859Y-113914533D01*
X107676110Y-113818126D01*
X107431151Y-113759317D01*
X107180000Y-113739551D01*
X106928848Y-113759317D01*
X106683889Y-113818126D01*
X106451140Y-113914533D01*
X106236346Y-114046160D01*
X106236343Y-114046161D01*
X106044776Y-114209776D01*
X105881161Y-114401343D01*
X105881160Y-114401346D01*
X105749533Y-114616140D01*
X105653126Y-114848889D01*
X105594317Y-115093848D01*
X105574551Y-115345000D01*
X81000000Y-115345000D01*
X81000000Y-114000000D01*
X83594540Y-114000000D01*
X83614326Y-114188256D01*
X83614327Y-114188259D01*
X83672818Y-114368277D01*
X83672821Y-114368284D01*
X83767467Y-114532216D01*
X83834274Y-114606412D01*
X83894129Y-114672888D01*
X84047265Y-114784148D01*
X84047270Y-114784151D01*
X84220192Y-114861142D01*
X84220197Y-114861144D01*
X84405354Y-114900500D01*
X84405355Y-114900500D01*
X84594644Y-114900500D01*
X84594646Y-114900500D01*
X84779803Y-114861144D01*
X84952730Y-114784151D01*
X85105871Y-114672888D01*
X85232533Y-114532216D01*
X85327179Y-114368284D01*
X85385674Y-114188256D01*
X85405460Y-114000000D01*
X100594540Y-114000000D01*
X100614326Y-114188256D01*
X100614327Y-114188259D01*
X100672818Y-114368277D01*
X100672821Y-114368284D01*
X100767467Y-114532216D01*
X100834274Y-114606412D01*
X100894129Y-114672888D01*
X101047265Y-114784148D01*
X101047270Y-114784151D01*
X101220192Y-114861142D01*
X101220197Y-114861144D01*
X101405354Y-114900500D01*
X101405355Y-114900500D01*
X101594644Y-114900500D01*
X101594646Y-114900500D01*
X101779803Y-114861144D01*
X101952730Y-114784151D01*
X102105871Y-114672888D01*
X102232533Y-114532216D01*
X102327179Y-114368284D01*
X102385674Y-114188256D01*
X102405460Y-114000000D01*
X102385674Y-113811744D01*
X102327179Y-113631716D01*
X102306864Y-113596530D01*
X168309500Y-113596530D01*
X168309500Y-114403469D01*
X168349868Y-114606412D01*
X168349870Y-114606420D01*
X168429059Y-114797598D01*
X168471519Y-114861144D01*
X168544024Y-114969657D01*
X168690342Y-115115975D01*
X168690345Y-115115977D01*
X168862402Y-115230941D01*
X169053580Y-115310130D01*
X169256530Y-115350499D01*
X169256534Y-115350500D01*
X169256535Y-115350500D01*
X169463466Y-115350500D01*
X169463467Y-115350499D01*
X169666420Y-115310130D01*
X169857598Y-115230941D01*
X170029655Y-115115977D01*
X170175977Y-114969655D01*
X170290941Y-114797598D01*
X170370130Y-114606420D01*
X170410500Y-114403465D01*
X170410500Y-113596535D01*
X170410499Y-113596530D01*
X176949500Y-113596530D01*
X176949500Y-114403469D01*
X176989868Y-114606412D01*
X176989870Y-114606420D01*
X177069059Y-114797598D01*
X177111519Y-114861144D01*
X177184024Y-114969657D01*
X177330342Y-115115975D01*
X177330345Y-115115977D01*
X177502402Y-115230941D01*
X177693580Y-115310130D01*
X177896530Y-115350499D01*
X177896534Y-115350500D01*
X177896535Y-115350500D01*
X178103466Y-115350500D01*
X178103467Y-115350499D01*
X178306420Y-115310130D01*
X178497598Y-115230941D01*
X178669655Y-115115977D01*
X178815977Y-114969655D01*
X178930941Y-114797598D01*
X179010130Y-114606420D01*
X179050500Y-114403465D01*
X179050500Y-113596535D01*
X179010130Y-113393580D01*
X178930941Y-113202402D01*
X178815977Y-113030345D01*
X178815975Y-113030342D01*
X178669657Y-112884024D01*
X178553329Y-112806297D01*
X178497598Y-112769059D01*
X178306420Y-112689870D01*
X178306412Y-112689868D01*
X178103469Y-112649500D01*
X178103465Y-112649500D01*
X177896535Y-112649500D01*
X177896530Y-112649500D01*
X177693587Y-112689868D01*
X177693579Y-112689870D01*
X177502403Y-112769058D01*
X177330342Y-112884024D01*
X177184024Y-113030342D01*
X177069058Y-113202403D01*
X176989870Y-113393579D01*
X176989868Y-113393587D01*
X176949500Y-113596530D01*
X170410499Y-113596530D01*
X170370130Y-113393580D01*
X170290941Y-113202402D01*
X170175977Y-113030345D01*
X170175975Y-113030342D01*
X170029657Y-112884024D01*
X169913329Y-112806297D01*
X169857598Y-112769059D01*
X169666420Y-112689870D01*
X169666412Y-112689868D01*
X169463469Y-112649500D01*
X169463465Y-112649500D01*
X169256535Y-112649500D01*
X169256530Y-112649500D01*
X169053587Y-112689868D01*
X169053579Y-112689870D01*
X168862403Y-112769058D01*
X168690342Y-112884024D01*
X168544024Y-113030342D01*
X168429058Y-113202403D01*
X168349870Y-113393579D01*
X168349868Y-113393587D01*
X168309500Y-113596530D01*
X102306864Y-113596530D01*
X102232533Y-113467784D01*
X102105871Y-113327112D01*
X102105870Y-113327111D01*
X101952734Y-113215851D01*
X101952729Y-113215848D01*
X101779807Y-113138857D01*
X101779802Y-113138855D01*
X101634001Y-113107865D01*
X101594646Y-113099500D01*
X101405354Y-113099500D01*
X101372897Y-113106398D01*
X101220197Y-113138855D01*
X101220192Y-113138857D01*
X101047270Y-113215848D01*
X101047265Y-113215851D01*
X100894129Y-113327111D01*
X100767466Y-113467785D01*
X100672821Y-113631715D01*
X100672818Y-113631722D01*
X100614327Y-113811740D01*
X100614326Y-113811744D01*
X100594540Y-114000000D01*
X85405460Y-114000000D01*
X85385674Y-113811744D01*
X85327179Y-113631716D01*
X85232533Y-113467784D01*
X85105871Y-113327112D01*
X85105870Y-113327111D01*
X84952734Y-113215851D01*
X84952729Y-113215848D01*
X84779807Y-113138857D01*
X84779802Y-113138855D01*
X84634001Y-113107865D01*
X84594646Y-113099500D01*
X84405354Y-113099500D01*
X84372897Y-113106398D01*
X84220197Y-113138855D01*
X84220192Y-113138857D01*
X84047270Y-113215848D01*
X84047265Y-113215851D01*
X83894129Y-113327111D01*
X83767466Y-113467785D01*
X83672821Y-113631715D01*
X83672818Y-113631722D01*
X83614327Y-113811740D01*
X83614326Y-113811744D01*
X83594540Y-114000000D01*
X81000000Y-114000000D01*
X81000000Y-107494993D01*
X92094700Y-107494993D01*
X92094700Y-107495006D01*
X92113864Y-107726297D01*
X92113866Y-107726308D01*
X92170842Y-107951300D01*
X92264075Y-108163848D01*
X92391016Y-108358147D01*
X92391019Y-108358151D01*
X92391021Y-108358153D01*
X92548216Y-108528913D01*
X92548219Y-108528915D01*
X92548222Y-108528918D01*
X92725818Y-108667147D01*
X92766631Y-108723857D01*
X92770306Y-108793630D01*
X92735674Y-108854313D01*
X92725818Y-108862853D01*
X92548222Y-109001081D01*
X92548219Y-109001084D01*
X92548216Y-109001086D01*
X92548216Y-109001087D01*
X92537861Y-109012336D01*
X92391016Y-109171852D01*
X92264075Y-109366151D01*
X92170842Y-109578699D01*
X92113866Y-109803691D01*
X92113864Y-109803702D01*
X92094700Y-110034993D01*
X92094700Y-110035006D01*
X92113864Y-110266297D01*
X92113866Y-110266308D01*
X92170842Y-110491300D01*
X92264075Y-110703848D01*
X92391016Y-110898147D01*
X92391019Y-110898151D01*
X92391021Y-110898153D01*
X92548216Y-111068913D01*
X92548219Y-111068915D01*
X92548222Y-111068918D01*
X92725818Y-111207147D01*
X92766631Y-111263857D01*
X92770306Y-111333630D01*
X92735674Y-111394313D01*
X92725818Y-111402853D01*
X92548222Y-111541081D01*
X92548219Y-111541084D01*
X92391016Y-111711852D01*
X92264075Y-111906151D01*
X92170842Y-112118699D01*
X92113866Y-112343691D01*
X92113864Y-112343702D01*
X92094700Y-112574993D01*
X92094700Y-112575006D01*
X92113864Y-112806297D01*
X92113866Y-112806308D01*
X92170842Y-113031300D01*
X92264075Y-113243848D01*
X92391016Y-113438147D01*
X92391019Y-113438151D01*
X92391021Y-113438153D01*
X92548216Y-113608913D01*
X92548219Y-113608915D01*
X92548222Y-113608918D01*
X92731365Y-113751464D01*
X92731371Y-113751468D01*
X92731374Y-113751470D01*
X92935497Y-113861936D01*
X93049487Y-113901068D01*
X93155015Y-113937297D01*
X93155017Y-113937297D01*
X93155019Y-113937298D01*
X93383951Y-113975500D01*
X93383952Y-113975500D01*
X93616048Y-113975500D01*
X93616049Y-113975500D01*
X93844981Y-113937298D01*
X94064503Y-113861936D01*
X94268626Y-113751470D01*
X94451784Y-113608913D01*
X94608979Y-113438153D01*
X94735924Y-113243849D01*
X94829157Y-113031300D01*
X94886134Y-112806305D01*
X94886135Y-112806297D01*
X94905300Y-112575006D01*
X94905300Y-112574993D01*
X94886135Y-112343702D01*
X94886133Y-112343691D01*
X94829157Y-112118699D01*
X94735924Y-111906151D01*
X94608983Y-111711852D01*
X94608980Y-111711849D01*
X94608979Y-111711847D01*
X94451784Y-111541087D01*
X94274180Y-111402853D01*
X94233368Y-111346143D01*
X94229693Y-111276370D01*
X94264324Y-111215687D01*
X94274181Y-111207146D01*
X94451784Y-111068913D01*
X94608979Y-110898153D01*
X94735924Y-110703849D01*
X94829157Y-110491300D01*
X94886134Y-110266305D01*
X94886135Y-110266297D01*
X94896601Y-110139992D01*
X149384671Y-110139992D01*
X149384671Y-110140007D01*
X149403964Y-110434363D01*
X149403965Y-110434373D01*
X149403966Y-110434380D01*
X149403968Y-110434390D01*
X149461518Y-110723716D01*
X149461521Y-110723730D01*
X149556349Y-111003080D01*
X149686825Y-111267660D01*
X149686829Y-111267667D01*
X149850725Y-111512955D01*
X150045241Y-111734758D01*
X150267043Y-111929273D01*
X150512335Y-112093172D01*
X150776923Y-112223652D01*
X151056278Y-112318481D01*
X151345620Y-112376034D01*
X151373888Y-112377886D01*
X151639993Y-112395329D01*
X151640000Y-112395329D01*
X151640007Y-112395329D01*
X151875675Y-112379881D01*
X151934380Y-112376034D01*
X152223722Y-112318481D01*
X152503077Y-112223652D01*
X152767665Y-112093172D01*
X153012957Y-111929273D01*
X153234758Y-111734758D01*
X153429273Y-111512957D01*
X153593172Y-111267665D01*
X153723652Y-111003077D01*
X153818481Y-110723722D01*
X153876034Y-110434380D01*
X153887050Y-110266308D01*
X153895329Y-110140007D01*
X153895329Y-110139992D01*
X162524671Y-110139992D01*
X162524671Y-110140007D01*
X162543964Y-110434363D01*
X162543965Y-110434373D01*
X162543966Y-110434380D01*
X162543968Y-110434390D01*
X162601518Y-110723716D01*
X162601521Y-110723730D01*
X162696349Y-111003080D01*
X162826825Y-111267660D01*
X162826829Y-111267667D01*
X162990725Y-111512955D01*
X163185241Y-111734758D01*
X163407043Y-111929273D01*
X163652335Y-112093172D01*
X163916923Y-112223652D01*
X164196278Y-112318481D01*
X164485620Y-112376034D01*
X164513888Y-112377886D01*
X164779993Y-112395329D01*
X164780000Y-112395329D01*
X164780007Y-112395329D01*
X165015675Y-112379881D01*
X165074380Y-112376034D01*
X165363722Y-112318481D01*
X165643077Y-112223652D01*
X165907665Y-112093172D01*
X166152957Y-111929273D01*
X166374758Y-111734758D01*
X166569273Y-111512957D01*
X166733172Y-111267665D01*
X166863652Y-111003077D01*
X166958481Y-110723722D01*
X167016034Y-110434380D01*
X167027050Y-110266308D01*
X167035329Y-110140007D01*
X167035329Y-110139992D01*
X167016035Y-109845636D01*
X167016034Y-109845620D01*
X166958481Y-109556278D01*
X166863652Y-109276923D01*
X166733172Y-109012336D01*
X166569273Y-108767043D01*
X166487756Y-108674091D01*
X166374758Y-108545241D01*
X166152955Y-108350725D01*
X165907667Y-108186829D01*
X165907660Y-108186825D01*
X165643080Y-108056349D01*
X165363730Y-107961521D01*
X165363724Y-107961519D01*
X165363722Y-107961519D01*
X165074380Y-107903966D01*
X165074373Y-107903965D01*
X165074363Y-107903964D01*
X164780007Y-107884671D01*
X164779993Y-107884671D01*
X164485636Y-107903964D01*
X164485624Y-107903965D01*
X164485620Y-107903966D01*
X164485612Y-107903967D01*
X164485609Y-107903968D01*
X164196283Y-107961518D01*
X164196269Y-107961521D01*
X163916919Y-108056349D01*
X163652334Y-108186828D01*
X163407041Y-108350728D01*
X163185241Y-108545241D01*
X162990728Y-108767041D01*
X162826828Y-109012334D01*
X162696349Y-109276919D01*
X162601521Y-109556269D01*
X162601518Y-109556283D01*
X162543968Y-109845609D01*
X162543964Y-109845636D01*
X162524671Y-110139992D01*
X153895329Y-110139992D01*
X153876035Y-109845636D01*
X153876034Y-109845620D01*
X153818481Y-109556278D01*
X153723652Y-109276923D01*
X153593172Y-109012336D01*
X153429273Y-108767043D01*
X153347756Y-108674091D01*
X153234758Y-108545241D01*
X153012955Y-108350725D01*
X152767667Y-108186829D01*
X152767660Y-108186825D01*
X152503080Y-108056349D01*
X152223730Y-107961521D01*
X152223724Y-107961519D01*
X152223722Y-107961519D01*
X151934380Y-107903966D01*
X151934373Y-107903965D01*
X151934363Y-107903964D01*
X151640007Y-107884671D01*
X151639993Y-107884671D01*
X151345636Y-107903964D01*
X151345624Y-107903965D01*
X151345620Y-107903966D01*
X151345612Y-107903967D01*
X151345609Y-107903968D01*
X151056283Y-107961518D01*
X151056269Y-107961521D01*
X150776919Y-108056349D01*
X150512334Y-108186828D01*
X150267041Y-108350728D01*
X150045241Y-108545241D01*
X149850728Y-108767041D01*
X149686828Y-109012334D01*
X149556349Y-109276919D01*
X149461521Y-109556269D01*
X149461518Y-109556283D01*
X149403968Y-109845609D01*
X149403964Y-109845636D01*
X149384671Y-110139992D01*
X94896601Y-110139992D01*
X94905300Y-110035006D01*
X94905300Y-110034993D01*
X94886135Y-109803702D01*
X94886133Y-109803691D01*
X94829157Y-109578699D01*
X94735924Y-109366151D01*
X94608983Y-109171852D01*
X94608980Y-109171849D01*
X94608979Y-109171847D01*
X94451784Y-109001087D01*
X94274180Y-108862853D01*
X94233368Y-108806143D01*
X94229693Y-108736370D01*
X94264324Y-108675687D01*
X94274181Y-108667146D01*
X94451784Y-108528913D01*
X94608979Y-108358153D01*
X94735924Y-108163849D01*
X94829157Y-107951300D01*
X94886134Y-107726305D01*
X94886135Y-107726297D01*
X94905300Y-107495006D01*
X94905300Y-107494993D01*
X94886135Y-107263702D01*
X94886133Y-107263691D01*
X94829157Y-107038699D01*
X94735924Y-106826151D01*
X94608983Y-106631852D01*
X94608980Y-106631849D01*
X94608979Y-106631847D01*
X94487606Y-106500000D01*
X106094540Y-106500000D01*
X106114326Y-106688256D01*
X106114327Y-106688259D01*
X106172818Y-106868277D01*
X106172821Y-106868284D01*
X106267467Y-107032216D01*
X106394129Y-107172888D01*
X106547265Y-107284148D01*
X106547270Y-107284151D01*
X106720192Y-107361142D01*
X106720197Y-107361144D01*
X106905354Y-107400500D01*
X106905355Y-107400500D01*
X107094644Y-107400500D01*
X107094646Y-107400500D01*
X107279803Y-107361144D01*
X107452730Y-107284151D01*
X107605871Y-107172888D01*
X107732533Y-107032216D01*
X107827179Y-106868284D01*
X107885674Y-106688256D01*
X107905460Y-106500000D01*
X117094540Y-106500000D01*
X117114326Y-106688256D01*
X117114327Y-106688259D01*
X117172818Y-106868277D01*
X117172821Y-106868284D01*
X117267467Y-107032216D01*
X117394129Y-107172888D01*
X117547265Y-107284148D01*
X117547270Y-107284151D01*
X117720192Y-107361142D01*
X117720197Y-107361144D01*
X117905354Y-107400500D01*
X117905355Y-107400500D01*
X118094644Y-107400500D01*
X118094646Y-107400500D01*
X118279803Y-107361144D01*
X118452730Y-107284151D01*
X118605871Y-107172888D01*
X118732533Y-107032216D01*
X118827179Y-106868284D01*
X118885674Y-106688256D01*
X118905460Y-106500000D01*
X128094540Y-106500000D01*
X128114326Y-106688256D01*
X128114327Y-106688259D01*
X128172818Y-106868277D01*
X128172821Y-106868284D01*
X128267467Y-107032216D01*
X128394129Y-107172888D01*
X128547265Y-107284148D01*
X128547270Y-107284151D01*
X128720192Y-107361142D01*
X128720197Y-107361144D01*
X128905354Y-107400500D01*
X128905355Y-107400500D01*
X129094644Y-107400500D01*
X129094646Y-107400500D01*
X129279803Y-107361144D01*
X129452730Y-107284151D01*
X129605871Y-107172888D01*
X129732533Y-107032216D01*
X129827179Y-106868284D01*
X129885674Y-106688256D01*
X129905460Y-106500000D01*
X138594540Y-106500000D01*
X138614326Y-106688256D01*
X138614327Y-106688259D01*
X138672818Y-106868277D01*
X138672821Y-106868284D01*
X138767467Y-107032216D01*
X138894129Y-107172888D01*
X139047265Y-107284148D01*
X139047270Y-107284151D01*
X139220192Y-107361142D01*
X139220197Y-107361144D01*
X139405354Y-107400500D01*
X139405355Y-107400500D01*
X139594644Y-107400500D01*
X139594646Y-107400500D01*
X139779803Y-107361144D01*
X139952730Y-107284151D01*
X140105871Y-107172888D01*
X140232533Y-107032216D01*
X140327179Y-106868284D01*
X140385674Y-106688256D01*
X140405460Y-106500000D01*
X140385674Y-106311744D01*
X140327179Y-106131716D01*
X140232533Y-105967784D01*
X140105871Y-105827112D01*
X140084719Y-105811744D01*
X139952734Y-105715851D01*
X139952729Y-105715848D01*
X139779807Y-105638857D01*
X139779802Y-105638855D01*
X139634001Y-105607865D01*
X139594646Y-105599500D01*
X139405354Y-105599500D01*
X139372897Y-105606398D01*
X139220197Y-105638855D01*
X139220192Y-105638857D01*
X139047270Y-105715848D01*
X139047265Y-105715851D01*
X138894129Y-105827111D01*
X138767466Y-105967785D01*
X138672821Y-106131715D01*
X138672818Y-106131722D01*
X138614327Y-106311740D01*
X138614326Y-106311744D01*
X138594540Y-106500000D01*
X129905460Y-106500000D01*
X129885674Y-106311744D01*
X129827179Y-106131716D01*
X129732533Y-105967784D01*
X129605871Y-105827112D01*
X129584719Y-105811744D01*
X129452734Y-105715851D01*
X129452729Y-105715848D01*
X129279807Y-105638857D01*
X129279802Y-105638855D01*
X129134001Y-105607865D01*
X129094646Y-105599500D01*
X128905354Y-105599500D01*
X128872897Y-105606398D01*
X128720197Y-105638855D01*
X128720192Y-105638857D01*
X128547270Y-105715848D01*
X128547265Y-105715851D01*
X128394129Y-105827111D01*
X128267466Y-105967785D01*
X128172821Y-106131715D01*
X128172818Y-106131722D01*
X128114327Y-106311740D01*
X128114326Y-106311744D01*
X128094540Y-106500000D01*
X118905460Y-106500000D01*
X118885674Y-106311744D01*
X118827179Y-106131716D01*
X118732533Y-105967784D01*
X118605871Y-105827112D01*
X118584719Y-105811744D01*
X118452734Y-105715851D01*
X118452729Y-105715848D01*
X118279807Y-105638857D01*
X118279802Y-105638855D01*
X118134001Y-105607865D01*
X118094646Y-105599500D01*
X117905354Y-105599500D01*
X117872897Y-105606398D01*
X117720197Y-105638855D01*
X117720192Y-105638857D01*
X117547270Y-105715848D01*
X117547265Y-105715851D01*
X117394129Y-105827111D01*
X117267466Y-105967785D01*
X117172821Y-106131715D01*
X117172818Y-106131722D01*
X117114327Y-106311740D01*
X117114326Y-106311744D01*
X117094540Y-106500000D01*
X107905460Y-106500000D01*
X107885674Y-106311744D01*
X107827179Y-106131716D01*
X107732533Y-105967784D01*
X107605871Y-105827112D01*
X107584719Y-105811744D01*
X107452734Y-105715851D01*
X107452729Y-105715848D01*
X107279807Y-105638857D01*
X107279802Y-105638855D01*
X107134001Y-105607865D01*
X107094646Y-105599500D01*
X106905354Y-105599500D01*
X106872897Y-105606398D01*
X106720197Y-105638855D01*
X106720192Y-105638857D01*
X106547270Y-105715848D01*
X106547265Y-105715851D01*
X106394129Y-105827111D01*
X106267466Y-105967785D01*
X106172821Y-106131715D01*
X106172818Y-106131722D01*
X106114327Y-106311740D01*
X106114326Y-106311744D01*
X106094540Y-106500000D01*
X94487606Y-106500000D01*
X94451784Y-106461087D01*
X94451779Y-106461083D01*
X94451777Y-106461081D01*
X94268634Y-106318535D01*
X94268628Y-106318531D01*
X94064504Y-106208064D01*
X94064495Y-106208061D01*
X93844984Y-106132702D01*
X93673282Y-106104050D01*
X93616049Y-106094500D01*
X93383951Y-106094500D01*
X93338164Y-106102140D01*
X93155015Y-106132702D01*
X92935504Y-106208061D01*
X92935495Y-106208064D01*
X92731371Y-106318531D01*
X92731365Y-106318535D01*
X92548222Y-106461081D01*
X92548219Y-106461084D01*
X92548216Y-106461086D01*
X92548216Y-106461087D01*
X92512394Y-106500000D01*
X92391016Y-106631852D01*
X92264075Y-106826151D01*
X92170842Y-107038699D01*
X92113866Y-107263691D01*
X92113864Y-107263702D01*
X92094700Y-107494993D01*
X81000000Y-107494993D01*
X81000000Y-104459992D01*
X149384671Y-104459992D01*
X149384671Y-104460007D01*
X149403964Y-104754363D01*
X149403965Y-104754373D01*
X149403966Y-104754380D01*
X149403968Y-104754390D01*
X149461518Y-105043716D01*
X149461521Y-105043730D01*
X149556349Y-105323080D01*
X149686825Y-105587660D01*
X149686829Y-105587667D01*
X149850725Y-105832955D01*
X150045241Y-106054758D01*
X150267044Y-106249274D01*
X150445145Y-106368277D01*
X150512335Y-106413172D01*
X150776923Y-106543652D01*
X151056278Y-106638481D01*
X151345620Y-106696034D01*
X151373888Y-106697886D01*
X151639993Y-106715329D01*
X151640000Y-106715329D01*
X151640007Y-106715329D01*
X151875675Y-106699881D01*
X151934380Y-106696034D01*
X152223722Y-106638481D01*
X152503077Y-106543652D01*
X152767665Y-106413172D01*
X153012957Y-106249273D01*
X153234758Y-106054758D01*
X153429273Y-105832957D01*
X153559704Y-105637752D01*
X153613316Y-105592947D01*
X153682641Y-105584240D01*
X153745668Y-105614394D01*
X153750487Y-105618962D01*
X153903123Y-105771598D01*
X154082361Y-105897102D01*
X154181043Y-105943118D01*
X154233483Y-105989290D01*
X154252635Y-106056483D01*
X154232420Y-106123365D01*
X154179254Y-106168699D01*
X154128640Y-106179500D01*
X153912130Y-106179500D01*
X153912123Y-106179501D01*
X153852516Y-106185908D01*
X153717671Y-106236202D01*
X153717664Y-106236206D01*
X153602455Y-106322452D01*
X153602452Y-106322455D01*
X153516206Y-106437664D01*
X153516202Y-106437671D01*
X153465908Y-106572517D01*
X153459501Y-106632116D01*
X153459501Y-106632123D01*
X153459500Y-106632135D01*
X153459500Y-108227870D01*
X153459501Y-108227876D01*
X153465908Y-108287483D01*
X153516202Y-108422328D01*
X153516206Y-108422335D01*
X153602452Y-108537544D01*
X153602455Y-108537547D01*
X153717664Y-108623793D01*
X153717671Y-108623797D01*
X153852517Y-108674091D01*
X153852516Y-108674091D01*
X153859444Y-108674835D01*
X153912127Y-108680500D01*
X155507872Y-108680499D01*
X155567483Y-108674091D01*
X155702331Y-108623796D01*
X155817546Y-108537546D01*
X155903796Y-108422331D01*
X155954091Y-108287483D01*
X155960500Y-108227873D01*
X155960499Y-108218993D01*
X155980178Y-108151956D01*
X156032978Y-108106197D01*
X156102136Y-108096248D01*
X156165694Y-108125267D01*
X156186073Y-108147863D01*
X156213355Y-108186825D01*
X156248402Y-108236877D01*
X156403123Y-108391598D01*
X156582361Y-108517102D01*
X156780670Y-108609575D01*
X156992023Y-108666207D01*
X157174926Y-108682208D01*
X157209998Y-108685277D01*
X157210000Y-108685277D01*
X157210002Y-108685277D01*
X157238254Y-108682805D01*
X157427977Y-108666207D01*
X157639330Y-108609575D01*
X157837639Y-108517102D01*
X158016877Y-108391598D01*
X158122319Y-108286156D01*
X158183642Y-108252671D01*
X158253334Y-108257655D01*
X158297681Y-108286156D01*
X158403123Y-108391598D01*
X158582361Y-108517102D01*
X158780670Y-108609575D01*
X158992023Y-108666207D01*
X159174926Y-108682208D01*
X159209998Y-108685277D01*
X159210000Y-108685277D01*
X159210002Y-108685277D01*
X159238254Y-108682805D01*
X159427977Y-108666207D01*
X159639330Y-108609575D01*
X159837639Y-108517102D01*
X160016877Y-108391598D01*
X160171598Y-108236877D01*
X160297102Y-108057639D01*
X160347618Y-107949306D01*
X160393790Y-107896867D01*
X160460984Y-107877715D01*
X160527865Y-107897931D01*
X160572381Y-107949306D01*
X160622898Y-108057639D01*
X160748402Y-108236877D01*
X160903123Y-108391598D01*
X161082361Y-108517102D01*
X161280670Y-108609575D01*
X161492023Y-108666207D01*
X161674926Y-108682208D01*
X161709998Y-108685277D01*
X161710000Y-108685277D01*
X161710002Y-108685277D01*
X161738254Y-108682805D01*
X161927977Y-108666207D01*
X162139330Y-108609575D01*
X162337639Y-108517102D01*
X162516877Y-108391598D01*
X162671598Y-108236877D01*
X162797102Y-108057639D01*
X162889575Y-107859330D01*
X162946207Y-107647977D01*
X162965277Y-107430000D01*
X162946207Y-107212023D01*
X162889575Y-107000670D01*
X162797102Y-106802362D01*
X162797100Y-106802359D01*
X162797099Y-106802357D01*
X162671599Y-106623124D01*
X162620991Y-106572516D01*
X162516877Y-106468402D01*
X162337639Y-106342898D01*
X162337640Y-106342898D01*
X162337638Y-106342897D01*
X162238484Y-106296661D01*
X162139330Y-106250425D01*
X162139326Y-106250424D01*
X162139322Y-106250422D01*
X162099584Y-106239775D01*
X162039924Y-106203410D01*
X162009394Y-106140564D01*
X162017688Y-106071188D01*
X162062173Y-106017310D01*
X162099584Y-106000225D01*
X162112114Y-105996867D01*
X162139330Y-105989575D01*
X162337639Y-105897102D01*
X162516877Y-105771598D01*
X162669512Y-105618963D01*
X162730835Y-105585478D01*
X162800527Y-105590462D01*
X162856460Y-105632334D01*
X162860295Y-105637753D01*
X162990727Y-105832958D01*
X163185241Y-106054758D01*
X163407044Y-106249274D01*
X163585145Y-106368277D01*
X163652335Y-106413172D01*
X163916923Y-106543652D01*
X164196278Y-106638481D01*
X164485620Y-106696034D01*
X164513888Y-106697886D01*
X164779993Y-106715329D01*
X164780000Y-106715329D01*
X164780007Y-106715329D01*
X165015675Y-106699881D01*
X165074380Y-106696034D01*
X165363722Y-106638481D01*
X165643077Y-106543652D01*
X165907665Y-106413172D01*
X166152957Y-106249273D01*
X166374758Y-106054758D01*
X166422780Y-106000000D01*
X171094540Y-106000000D01*
X171114326Y-106188256D01*
X171114327Y-106188259D01*
X171172818Y-106368277D01*
X171172821Y-106368284D01*
X171267467Y-106532216D01*
X171357435Y-106632135D01*
X171394129Y-106672888D01*
X171547265Y-106784148D01*
X171547270Y-106784151D01*
X171720192Y-106861142D01*
X171720197Y-106861144D01*
X171905354Y-106900500D01*
X171905355Y-106900500D01*
X172094644Y-106900500D01*
X172094646Y-106900500D01*
X172279803Y-106861144D01*
X172452730Y-106784151D01*
X172605871Y-106672888D01*
X172732533Y-106532216D01*
X172827179Y-106368284D01*
X172885674Y-106188256D01*
X172905460Y-106000000D01*
X175094540Y-106000000D01*
X175114326Y-106188256D01*
X175114327Y-106188259D01*
X175172818Y-106368277D01*
X175172821Y-106368284D01*
X175267467Y-106532216D01*
X175357435Y-106632135D01*
X175394129Y-106672888D01*
X175547265Y-106784148D01*
X175547270Y-106784151D01*
X175720192Y-106861142D01*
X175720197Y-106861144D01*
X175905354Y-106900500D01*
X175905355Y-106900500D01*
X176094644Y-106900500D01*
X176094646Y-106900500D01*
X176279803Y-106861144D01*
X176452730Y-106784151D01*
X176605871Y-106672888D01*
X176732533Y-106532216D01*
X176827179Y-106368284D01*
X176885674Y-106188256D01*
X176905460Y-106000000D01*
X176885674Y-105811744D01*
X176827179Y-105631716D01*
X176732533Y-105467784D01*
X176605871Y-105327112D01*
X176605870Y-105327111D01*
X176452734Y-105215851D01*
X176452729Y-105215848D01*
X176279807Y-105138857D01*
X176279802Y-105138855D01*
X176134001Y-105107865D01*
X176094646Y-105099500D01*
X175905354Y-105099500D01*
X175872897Y-105106398D01*
X175720197Y-105138855D01*
X175720192Y-105138857D01*
X175547270Y-105215848D01*
X175547265Y-105215851D01*
X175394129Y-105327111D01*
X175267466Y-105467785D01*
X175172821Y-105631715D01*
X175172818Y-105631722D01*
X175127370Y-105771598D01*
X175114326Y-105811744D01*
X175094540Y-106000000D01*
X172905460Y-106000000D01*
X172885674Y-105811744D01*
X172827179Y-105631716D01*
X172732533Y-105467784D01*
X172605871Y-105327112D01*
X172605870Y-105327111D01*
X172452734Y-105215851D01*
X172452729Y-105215848D01*
X172279807Y-105138857D01*
X172279802Y-105138855D01*
X172134001Y-105107865D01*
X172094646Y-105099500D01*
X171905354Y-105099500D01*
X171872897Y-105106398D01*
X171720197Y-105138855D01*
X171720192Y-105138857D01*
X171547270Y-105215848D01*
X171547265Y-105215851D01*
X171394129Y-105327111D01*
X171267466Y-105467785D01*
X171172821Y-105631715D01*
X171172818Y-105631722D01*
X171127370Y-105771598D01*
X171114326Y-105811744D01*
X171094540Y-106000000D01*
X166422780Y-106000000D01*
X166569273Y-105832957D01*
X166733172Y-105587665D01*
X166863652Y-105323077D01*
X166958481Y-105043722D01*
X167016034Y-104754380D01*
X167035329Y-104460000D01*
X167035329Y-104459992D01*
X167016035Y-104165636D01*
X167016034Y-104165620D01*
X166958481Y-103876278D01*
X166863652Y-103596923D01*
X166733172Y-103332336D01*
X166569273Y-103087043D01*
X166526655Y-103038447D01*
X166374758Y-102865241D01*
X166152955Y-102670725D01*
X165907667Y-102506829D01*
X165907660Y-102506825D01*
X165643080Y-102376349D01*
X165363730Y-102281521D01*
X165363724Y-102281519D01*
X165363722Y-102281519D01*
X165074380Y-102223966D01*
X165074373Y-102223965D01*
X165074363Y-102223964D01*
X164780007Y-102204671D01*
X164779993Y-102204671D01*
X164485636Y-102223964D01*
X164485623Y-102223965D01*
X164485620Y-102223966D01*
X164485614Y-102223967D01*
X164485608Y-102223968D01*
X164333121Y-102254299D01*
X164263529Y-102248072D01*
X164208352Y-102205208D01*
X164185108Y-102139318D01*
X164201176Y-102071322D01*
X164216779Y-102049712D01*
X164232533Y-102032216D01*
X164327179Y-101868284D01*
X164385674Y-101688256D01*
X164405460Y-101500000D01*
X164385674Y-101311744D01*
X164327179Y-101131716D01*
X164232533Y-100967784D01*
X164105871Y-100827112D01*
X164105870Y-100827111D01*
X163952734Y-100715851D01*
X163952729Y-100715848D01*
X163779807Y-100638857D01*
X163779802Y-100638855D01*
X163634001Y-100607865D01*
X163594646Y-100599500D01*
X163405354Y-100599500D01*
X163372897Y-100606398D01*
X163220197Y-100638855D01*
X163220192Y-100638857D01*
X163047270Y-100715848D01*
X163047265Y-100715851D01*
X162894129Y-100827111D01*
X162767466Y-100967785D01*
X162672821Y-101131715D01*
X162672818Y-101131722D01*
X162614327Y-101311740D01*
X162614326Y-101311744D01*
X162594540Y-101500000D01*
X162614326Y-101688256D01*
X162614327Y-101688259D01*
X162672818Y-101868277D01*
X162672821Y-101868284D01*
X162767467Y-102032216D01*
X162894129Y-102172888D01*
X163047265Y-102284148D01*
X163047270Y-102284151D01*
X163220192Y-102361142D01*
X163220197Y-102361144D01*
X163405354Y-102400500D01*
X163405355Y-102400500D01*
X163411822Y-102401180D01*
X163411617Y-102403120D01*
X163469732Y-102420185D01*
X163515487Y-102472989D01*
X163525431Y-102542147D01*
X163496406Y-102605703D01*
X163471584Y-102627602D01*
X163407041Y-102670728D01*
X163185241Y-102865241D01*
X162990728Y-103087041D01*
X162826828Y-103332334D01*
X162696349Y-103596919D01*
X162646044Y-103745111D01*
X162605855Y-103802265D01*
X162541145Y-103828618D01*
X162472461Y-103815803D01*
X162457506Y-103806830D01*
X162337639Y-103722898D01*
X162139330Y-103630425D01*
X162139326Y-103630424D01*
X162139322Y-103630422D01*
X161927977Y-103573793D01*
X161710002Y-103554723D01*
X161709998Y-103554723D01*
X161564682Y-103567436D01*
X161492023Y-103573793D01*
X161492020Y-103573793D01*
X161280677Y-103630422D01*
X161280668Y-103630426D01*
X161082361Y-103722898D01*
X161082357Y-103722900D01*
X160903121Y-103848402D01*
X160748402Y-104003121D01*
X160622900Y-104182357D01*
X160622898Y-104182362D01*
X160572382Y-104290693D01*
X160526209Y-104343132D01*
X160459016Y-104362284D01*
X160392135Y-104342068D01*
X160347618Y-104290693D01*
X160340156Y-104274692D01*
X160297102Y-104182362D01*
X160297099Y-104182358D01*
X160297099Y-104182357D01*
X160171599Y-104003124D01*
X160122318Y-103953843D01*
X160016877Y-103848402D01*
X159878978Y-103751844D01*
X159837638Y-103722897D01*
X159738484Y-103676661D01*
X159639330Y-103630425D01*
X159639326Y-103630424D01*
X159639322Y-103630422D01*
X159427977Y-103573793D01*
X159210002Y-103554723D01*
X159209998Y-103554723D01*
X159064682Y-103567436D01*
X158992023Y-103573793D01*
X158992020Y-103573793D01*
X158780677Y-103630422D01*
X158780668Y-103630426D01*
X158582361Y-103722898D01*
X158582357Y-103722900D01*
X158403124Y-103848400D01*
X158297680Y-103953844D01*
X158236357Y-103987328D01*
X158166665Y-103982344D01*
X158122318Y-103953843D01*
X158016881Y-103848406D01*
X158016877Y-103848402D01*
X157869362Y-103745111D01*
X157837638Y-103722897D01*
X157738484Y-103676661D01*
X157639330Y-103630425D01*
X157639326Y-103630424D01*
X157639322Y-103630422D01*
X157427977Y-103573793D01*
X157210002Y-103554723D01*
X157209998Y-103554723D01*
X157064682Y-103567436D01*
X156992023Y-103573793D01*
X156992020Y-103573793D01*
X156780677Y-103630422D01*
X156780668Y-103630426D01*
X156582361Y-103722898D01*
X156582357Y-103722900D01*
X156403121Y-103848402D01*
X156248402Y-104003121D01*
X156122900Y-104182357D01*
X156122898Y-104182362D01*
X156072382Y-104290693D01*
X156026209Y-104343132D01*
X155959016Y-104362284D01*
X155892135Y-104342068D01*
X155847618Y-104290693D01*
X155840156Y-104274692D01*
X155797102Y-104182362D01*
X155797099Y-104182358D01*
X155797099Y-104182357D01*
X155671599Y-104003124D01*
X155622318Y-103953843D01*
X155516877Y-103848402D01*
X155378978Y-103751844D01*
X155337638Y-103722897D01*
X155238484Y-103676661D01*
X155139330Y-103630425D01*
X155139326Y-103630424D01*
X155139322Y-103630422D01*
X154927977Y-103573793D01*
X154710002Y-103554723D01*
X154709998Y-103554723D01*
X154564682Y-103567436D01*
X154492023Y-103573793D01*
X154492020Y-103573793D01*
X154280677Y-103630422D01*
X154280668Y-103630426D01*
X154082361Y-103722898D01*
X154082357Y-103722901D01*
X153962497Y-103806827D01*
X153896291Y-103829154D01*
X153828523Y-103812144D01*
X153780711Y-103761195D01*
X153773955Y-103745111D01*
X153766416Y-103722901D01*
X153723652Y-103596923D01*
X153593172Y-103332336D01*
X153429273Y-103087043D01*
X153386655Y-103038447D01*
X153234758Y-102865241D01*
X153012955Y-102670725D01*
X152767667Y-102506829D01*
X152767660Y-102506825D01*
X152503080Y-102376349D01*
X152223730Y-102281521D01*
X152223724Y-102281519D01*
X152223722Y-102281519D01*
X151934380Y-102223966D01*
X151934373Y-102223965D01*
X151934363Y-102223964D01*
X151640007Y-102204671D01*
X151639993Y-102204671D01*
X151345636Y-102223964D01*
X151345624Y-102223965D01*
X151345620Y-102223966D01*
X151345612Y-102223967D01*
X151345609Y-102223968D01*
X151056283Y-102281518D01*
X151056269Y-102281521D01*
X150776919Y-102376349D01*
X150512334Y-102506828D01*
X150267041Y-102670728D01*
X150045241Y-102865241D01*
X149850728Y-103087041D01*
X149686828Y-103332334D01*
X149556349Y-103596919D01*
X149461521Y-103876269D01*
X149461518Y-103876283D01*
X149403968Y-104165609D01*
X149403964Y-104165636D01*
X149384671Y-104459992D01*
X81000000Y-104459992D01*
X81000000Y-58258974D01*
X87818186Y-58258974D01*
X87818186Y-58258975D01*
X87838601Y-58492321D01*
X87838603Y-58492331D01*
X87899225Y-58718578D01*
X87899227Y-58718582D01*
X87899228Y-58718586D01*
X87998223Y-58930882D01*
X88132579Y-59122762D01*
X88298213Y-59288396D01*
X88490093Y-59422752D01*
X88490094Y-59422752D01*
X88494528Y-59425857D01*
X88493521Y-59427294D01*
X88536297Y-59472165D01*
X88549513Y-59540773D01*
X88523540Y-59605635D01*
X88493953Y-59631272D01*
X88494528Y-59632093D01*
X88490094Y-59635197D01*
X88490093Y-59635198D01*
X88298213Y-59769554D01*
X88298211Y-59769555D01*
X88298208Y-59769558D01*
X88132583Y-59935183D01*
X87998223Y-60127068D01*
X87899229Y-60339362D01*
X87899225Y-60339371D01*
X87838603Y-60565618D01*
X87838601Y-60565628D01*
X87818186Y-60798974D01*
X87818186Y-60798975D01*
X87838601Y-61032321D01*
X87838603Y-61032331D01*
X87899225Y-61258578D01*
X87899227Y-61258582D01*
X87899228Y-61258586D01*
X87998223Y-61470882D01*
X88132579Y-61662762D01*
X88298213Y-61828396D01*
X88490093Y-61962752D01*
X88490094Y-61962752D01*
X88494528Y-61965857D01*
X88493521Y-61967294D01*
X88536297Y-62012165D01*
X88549513Y-62080773D01*
X88523540Y-62145635D01*
X88493953Y-62171272D01*
X88494528Y-62172093D01*
X88490094Y-62175197D01*
X88490093Y-62175198D01*
X88298213Y-62309554D01*
X88298211Y-62309555D01*
X88298208Y-62309558D01*
X88132583Y-62475183D01*
X88132580Y-62475186D01*
X88132579Y-62475188D01*
X88089762Y-62536337D01*
X87998223Y-62667068D01*
X87899229Y-62879362D01*
X87899225Y-62879371D01*
X87838603Y-63105618D01*
X87838601Y-63105628D01*
X87818186Y-63338974D01*
X87818186Y-63338975D01*
X87838601Y-63572321D01*
X87838603Y-63572331D01*
X87899225Y-63798578D01*
X87899227Y-63798582D01*
X87899228Y-63798586D01*
X87998223Y-64010882D01*
X88132579Y-64202762D01*
X88298213Y-64368396D01*
X88490093Y-64502752D01*
X88490094Y-64502752D01*
X88494528Y-64505857D01*
X88493521Y-64507294D01*
X88536297Y-64552165D01*
X88549513Y-64620773D01*
X88523540Y-64685635D01*
X88493953Y-64711272D01*
X88494528Y-64712093D01*
X88490094Y-64715197D01*
X88490093Y-64715198D01*
X88298213Y-64849554D01*
X88298211Y-64849555D01*
X88298208Y-64849558D01*
X88132583Y-65015183D01*
X87998223Y-65207068D01*
X87899229Y-65419362D01*
X87899225Y-65419371D01*
X87838603Y-65645618D01*
X87838601Y-65645628D01*
X87818186Y-65878974D01*
X87818186Y-65878975D01*
X87838601Y-66112321D01*
X87838603Y-66112331D01*
X87899225Y-66338578D01*
X87899227Y-66338582D01*
X87899228Y-66338586D01*
X87998223Y-66550882D01*
X88132579Y-66742762D01*
X88298213Y-66908396D01*
X88490093Y-67042752D01*
X88490094Y-67042752D01*
X88494528Y-67045857D01*
X88493521Y-67047294D01*
X88536297Y-67092165D01*
X88549513Y-67160773D01*
X88523540Y-67225635D01*
X88493953Y-67251272D01*
X88494528Y-67252093D01*
X88490094Y-67255197D01*
X88490093Y-67255198D01*
X88298213Y-67389554D01*
X88298211Y-67389555D01*
X88298208Y-67389558D01*
X88132583Y-67555183D01*
X88132580Y-67555186D01*
X88132579Y-67555188D01*
X88072020Y-67641675D01*
X87998223Y-67747068D01*
X87899229Y-67959362D01*
X87899225Y-67959371D01*
X87838603Y-68185618D01*
X87838601Y-68185628D01*
X87818186Y-68418974D01*
X87818186Y-68418975D01*
X87838601Y-68652321D01*
X87838603Y-68652331D01*
X87899225Y-68878578D01*
X87899227Y-68878582D01*
X87899228Y-68878586D01*
X87998223Y-69090882D01*
X88132579Y-69282762D01*
X88298213Y-69448396D01*
X88490093Y-69582752D01*
X88490094Y-69582752D01*
X88494528Y-69585857D01*
X88493521Y-69587294D01*
X88536297Y-69632165D01*
X88549513Y-69700773D01*
X88523540Y-69765635D01*
X88493953Y-69791272D01*
X88494528Y-69792093D01*
X88490094Y-69795197D01*
X88490093Y-69795198D01*
X88298213Y-69929554D01*
X88298211Y-69929555D01*
X88298208Y-69929558D01*
X88132583Y-70095183D01*
X88132580Y-70095186D01*
X88132579Y-70095188D01*
X88106998Y-70131722D01*
X87998223Y-70287068D01*
X87899229Y-70499362D01*
X87899225Y-70499371D01*
X87838603Y-70725618D01*
X87838601Y-70725628D01*
X87818186Y-70958974D01*
X87818186Y-70958975D01*
X87838601Y-71192321D01*
X87838603Y-71192331D01*
X87899225Y-71418578D01*
X87899227Y-71418582D01*
X87899228Y-71418586D01*
X87998223Y-71630882D01*
X88132579Y-71822762D01*
X88298213Y-71988396D01*
X88490093Y-72122752D01*
X88490094Y-72122752D01*
X88494528Y-72125857D01*
X88493521Y-72127294D01*
X88536297Y-72172165D01*
X88549513Y-72240773D01*
X88523540Y-72305635D01*
X88493953Y-72331272D01*
X88494528Y-72332093D01*
X88490094Y-72335197D01*
X88490093Y-72335198D01*
X88298213Y-72469554D01*
X88298211Y-72469555D01*
X88298208Y-72469558D01*
X88132583Y-72635183D01*
X88132580Y-72635186D01*
X88132579Y-72635188D01*
X88087652Y-72699351D01*
X87998223Y-72827068D01*
X87899229Y-73039362D01*
X87899225Y-73039371D01*
X87838603Y-73265618D01*
X87838601Y-73265628D01*
X87818186Y-73498974D01*
X87818186Y-73498975D01*
X87838601Y-73732321D01*
X87838603Y-73732331D01*
X87899225Y-73958578D01*
X87899227Y-73958582D01*
X87899228Y-73958586D01*
X87998223Y-74170882D01*
X88132579Y-74362762D01*
X88298213Y-74528396D01*
X88490093Y-74662752D01*
X88490094Y-74662752D01*
X88494528Y-74665857D01*
X88493521Y-74667294D01*
X88536297Y-74712165D01*
X88549513Y-74780773D01*
X88523540Y-74845635D01*
X88493953Y-74871272D01*
X88494528Y-74872093D01*
X88490094Y-74875197D01*
X88490093Y-74875198D01*
X88298213Y-75009554D01*
X88298211Y-75009555D01*
X88298208Y-75009558D01*
X88132583Y-75175183D01*
X88132580Y-75175186D01*
X88132579Y-75175188D01*
X87998223Y-75367068D01*
X87951259Y-75467784D01*
X87899229Y-75579362D01*
X87899225Y-75579371D01*
X87838603Y-75805618D01*
X87838601Y-75805628D01*
X87818186Y-76038974D01*
X87818186Y-76038975D01*
X87838601Y-76272321D01*
X87838603Y-76272331D01*
X87899225Y-76498578D01*
X87899227Y-76498582D01*
X87899228Y-76498586D01*
X87998223Y-76710882D01*
X88132579Y-76902762D01*
X88298213Y-77068396D01*
X88490093Y-77202752D01*
X88490094Y-77202752D01*
X88494528Y-77205857D01*
X88493521Y-77207294D01*
X88536297Y-77252165D01*
X88549513Y-77320773D01*
X88523540Y-77385635D01*
X88493953Y-77411272D01*
X88494528Y-77412093D01*
X88490094Y-77415197D01*
X88490093Y-77415198D01*
X88298213Y-77549554D01*
X88298211Y-77549555D01*
X88298208Y-77549558D01*
X88132583Y-77715183D01*
X88132580Y-77715186D01*
X88132579Y-77715188D01*
X88064970Y-77811744D01*
X87998223Y-77907068D01*
X87899229Y-78119362D01*
X87899225Y-78119371D01*
X87838603Y-78345618D01*
X87838601Y-78345628D01*
X87818186Y-78578974D01*
X87818186Y-78578975D01*
X87838601Y-78812321D01*
X87838603Y-78812331D01*
X87899225Y-79038578D01*
X87899227Y-79038582D01*
X87899228Y-79038586D01*
X87998223Y-79250882D01*
X88132579Y-79442762D01*
X88298213Y-79608396D01*
X88490093Y-79742752D01*
X88490094Y-79742752D01*
X88494528Y-79745857D01*
X88493521Y-79747294D01*
X88536297Y-79792165D01*
X88549513Y-79860773D01*
X88523540Y-79925635D01*
X88493953Y-79951272D01*
X88494528Y-79952093D01*
X88490094Y-79955197D01*
X88490093Y-79955198D01*
X88298213Y-80089554D01*
X88298211Y-80089555D01*
X88298208Y-80089558D01*
X88132583Y-80255183D01*
X88132580Y-80255186D01*
X88132579Y-80255188D01*
X87998223Y-80447068D01*
X87907477Y-80641675D01*
X87899229Y-80659362D01*
X87899225Y-80659371D01*
X87838603Y-80885618D01*
X87838601Y-80885628D01*
X87818186Y-81118974D01*
X87818186Y-81118975D01*
X87838601Y-81352321D01*
X87838603Y-81352331D01*
X87899225Y-81578578D01*
X87899227Y-81578582D01*
X87899228Y-81578586D01*
X87998223Y-81790882D01*
X88132579Y-81982762D01*
X88298213Y-82148396D01*
X88490093Y-82282752D01*
X88490094Y-82282752D01*
X88494528Y-82285857D01*
X88493521Y-82287294D01*
X88536297Y-82332165D01*
X88549513Y-82400773D01*
X88523540Y-82465635D01*
X88493953Y-82491272D01*
X88494528Y-82492093D01*
X88490094Y-82495197D01*
X88490093Y-82495198D01*
X88298213Y-82629554D01*
X88298211Y-82629555D01*
X88298208Y-82629558D01*
X88132583Y-82795183D01*
X88132580Y-82795186D01*
X88132579Y-82795188D01*
X88032582Y-82937999D01*
X87998223Y-82987068D01*
X87899229Y-83199362D01*
X87899225Y-83199371D01*
X87838603Y-83425618D01*
X87838601Y-83425628D01*
X87818186Y-83658974D01*
X87818186Y-83658975D01*
X87838601Y-83892321D01*
X87838603Y-83892331D01*
X87899225Y-84118578D01*
X87899227Y-84118582D01*
X87899228Y-84118586D01*
X87998223Y-84330882D01*
X88132579Y-84522762D01*
X88298213Y-84688396D01*
X88490093Y-84822752D01*
X88490094Y-84822752D01*
X88494528Y-84825857D01*
X88493521Y-84827294D01*
X88536297Y-84872165D01*
X88549513Y-84940773D01*
X88523540Y-85005635D01*
X88493953Y-85031272D01*
X88494528Y-85032093D01*
X88490094Y-85035197D01*
X88490093Y-85035198D01*
X88298213Y-85169554D01*
X88298211Y-85169555D01*
X88298208Y-85169558D01*
X88132583Y-85335183D01*
X88132580Y-85335186D01*
X88132579Y-85335188D01*
X88107222Y-85371402D01*
X87998223Y-85527068D01*
X87899229Y-85739362D01*
X87899225Y-85739371D01*
X87838603Y-85965618D01*
X87838601Y-85965628D01*
X87818186Y-86198974D01*
X87818186Y-86198975D01*
X87838601Y-86432321D01*
X87838603Y-86432331D01*
X87899225Y-86658578D01*
X87899227Y-86658582D01*
X87899228Y-86658586D01*
X87998223Y-86870882D01*
X88132579Y-87062762D01*
X88298213Y-87228396D01*
X88490093Y-87362752D01*
X88490094Y-87362752D01*
X88494528Y-87365857D01*
X88493521Y-87367294D01*
X88536297Y-87412165D01*
X88549513Y-87480773D01*
X88523540Y-87545635D01*
X88493953Y-87571272D01*
X88494528Y-87572093D01*
X88490094Y-87575197D01*
X88490093Y-87575198D01*
X88298213Y-87709554D01*
X88298211Y-87709555D01*
X88298208Y-87709558D01*
X88132583Y-87875183D01*
X88132580Y-87875186D01*
X88132579Y-87875188D01*
X88073053Y-87960200D01*
X87998223Y-88067068D01*
X87899229Y-88279362D01*
X87899225Y-88279371D01*
X87838603Y-88505618D01*
X87838601Y-88505628D01*
X87818186Y-88738974D01*
X87818186Y-88738975D01*
X87838601Y-88972321D01*
X87838603Y-88972331D01*
X87899225Y-89198578D01*
X87899227Y-89198582D01*
X87899228Y-89198586D01*
X87998223Y-89410882D01*
X88132579Y-89602762D01*
X88132583Y-89602766D01*
X88269545Y-89739728D01*
X88303030Y-89801051D01*
X88298046Y-89870743D01*
X88256174Y-89926676D01*
X88222934Y-89942228D01*
X88223585Y-89943973D01*
X88081471Y-89996977D01*
X88081464Y-89996981D01*
X87966255Y-90083227D01*
X87966252Y-90083230D01*
X87880006Y-90198439D01*
X87880002Y-90198446D01*
X87829708Y-90333292D01*
X87823301Y-90392891D01*
X87823301Y-90392898D01*
X87823300Y-90392910D01*
X87823300Y-92165045D01*
X87823301Y-92165051D01*
X87829708Y-92224658D01*
X87880002Y-92359503D01*
X87880006Y-92359510D01*
X87966252Y-92474719D01*
X87966255Y-92474722D01*
X88081464Y-92560968D01*
X88081471Y-92560972D01*
X88223585Y-92613977D01*
X88222537Y-92616785D01*
X88271100Y-92644442D01*
X88303482Y-92706354D01*
X88297252Y-92775945D01*
X88269546Y-92818221D01*
X88132579Y-92955188D01*
X88054936Y-93066074D01*
X87998223Y-93147068D01*
X87899229Y-93359362D01*
X87899225Y-93359371D01*
X87838603Y-93585618D01*
X87838601Y-93585628D01*
X87818186Y-93818974D01*
X87818186Y-93818975D01*
X87838601Y-94052321D01*
X87838603Y-94052331D01*
X87899225Y-94278578D01*
X87899227Y-94278582D01*
X87899228Y-94278586D01*
X87998223Y-94490882D01*
X88132579Y-94682762D01*
X88298213Y-94848396D01*
X88490093Y-94982752D01*
X88702389Y-95081747D01*
X88928649Y-95142373D01*
X89115329Y-95158705D01*
X89161999Y-95162789D01*
X89162000Y-95162789D01*
X89162001Y-95162789D01*
X89200891Y-95159386D01*
X89395351Y-95142373D01*
X89621611Y-95081747D01*
X89833907Y-94982752D01*
X90025787Y-94848396D01*
X90191421Y-94682762D01*
X90325777Y-94490882D01*
X90424772Y-94278586D01*
X90485398Y-94052326D01*
X90505814Y-93818975D01*
X90485398Y-93585624D01*
X90424772Y-93359364D01*
X90325777Y-93147068D01*
X90191421Y-92955188D01*
X90054454Y-92818221D01*
X90020969Y-92756898D01*
X90025953Y-92687206D01*
X90067825Y-92631273D01*
X90101069Y-92615732D01*
X90100415Y-92613977D01*
X90242528Y-92560972D01*
X90242527Y-92560972D01*
X90242531Y-92560971D01*
X90357746Y-92474721D01*
X90443996Y-92359506D01*
X90494291Y-92224658D01*
X90500700Y-92165048D01*
X90500699Y-90392903D01*
X90494291Y-90333292D01*
X90443996Y-90198444D01*
X90443995Y-90198443D01*
X90443993Y-90198439D01*
X90357747Y-90083230D01*
X90357744Y-90083227D01*
X90242535Y-89996981D01*
X90242528Y-89996977D01*
X90100415Y-89943973D01*
X90101459Y-89941173D01*
X90052860Y-89913467D01*
X90020506Y-89851540D01*
X90026768Y-89781952D01*
X90054450Y-89739732D01*
X90191421Y-89602762D01*
X90325777Y-89410882D01*
X90424772Y-89198586D01*
X90485398Y-88972326D01*
X90505814Y-88738975D01*
X90485398Y-88505624D01*
X90424772Y-88279364D01*
X90325777Y-88067068D01*
X90191421Y-87875188D01*
X90025787Y-87709554D01*
X89833907Y-87575198D01*
X89833905Y-87575197D01*
X89829472Y-87572093D01*
X89830481Y-87570651D01*
X89787712Y-87525803D01*
X89774484Y-87457197D01*
X89800447Y-87392330D01*
X89830048Y-87366680D01*
X89829472Y-87365857D01*
X89833905Y-87362752D01*
X89833907Y-87362752D01*
X90025787Y-87228396D01*
X90191421Y-87062762D01*
X90325777Y-86870882D01*
X90424772Y-86658586D01*
X90485398Y-86432326D01*
X90505814Y-86198975D01*
X90485398Y-85965624D01*
X90424772Y-85739364D01*
X90325777Y-85527068D01*
X90191421Y-85335188D01*
X90025787Y-85169554D01*
X89833907Y-85035198D01*
X89833905Y-85035197D01*
X89829472Y-85032093D01*
X89830481Y-85030651D01*
X89787712Y-84985803D01*
X89774484Y-84917197D01*
X89800447Y-84852330D01*
X89830048Y-84826680D01*
X89829472Y-84825857D01*
X89833905Y-84822752D01*
X89833907Y-84822752D01*
X90025787Y-84688396D01*
X90191421Y-84522762D01*
X90325777Y-84330882D01*
X90424772Y-84118586D01*
X90485398Y-83892326D01*
X90505814Y-83658975D01*
X90485398Y-83425624D01*
X90424772Y-83199364D01*
X90325777Y-82987068D01*
X90191421Y-82795188D01*
X90025787Y-82629554D01*
X89833907Y-82495198D01*
X89833905Y-82495197D01*
X89829472Y-82492093D01*
X89830481Y-82490651D01*
X89787712Y-82445803D01*
X89774484Y-82377197D01*
X89800447Y-82312330D01*
X89830048Y-82286680D01*
X89829472Y-82285857D01*
X89833905Y-82282752D01*
X89833907Y-82282752D01*
X90025787Y-82148396D01*
X90191421Y-81982762D01*
X90325777Y-81790882D01*
X90424772Y-81578586D01*
X90485398Y-81352326D01*
X90505814Y-81118975D01*
X90485398Y-80885624D01*
X90424772Y-80659364D01*
X90325777Y-80447068D01*
X90191421Y-80255188D01*
X90025787Y-80089554D01*
X89833907Y-79955198D01*
X89833905Y-79955197D01*
X89829472Y-79952093D01*
X89830481Y-79950651D01*
X89787712Y-79905803D01*
X89774484Y-79837197D01*
X89800447Y-79772330D01*
X89830048Y-79746680D01*
X89829472Y-79745857D01*
X89833905Y-79742752D01*
X89833907Y-79742752D01*
X90025787Y-79608396D01*
X90191421Y-79442762D01*
X90325777Y-79250882D01*
X90424772Y-79038586D01*
X90485398Y-78812326D01*
X90505814Y-78578975D01*
X90485398Y-78345624D01*
X90424772Y-78119364D01*
X90325777Y-77907068D01*
X90191421Y-77715188D01*
X90025787Y-77549554D01*
X89833907Y-77415198D01*
X89833905Y-77415197D01*
X89829472Y-77412093D01*
X89830481Y-77410651D01*
X89787712Y-77365803D01*
X89774484Y-77297197D01*
X89800447Y-77232330D01*
X89830048Y-77206680D01*
X89829472Y-77205857D01*
X89833905Y-77202752D01*
X89833907Y-77202752D01*
X90025787Y-77068396D01*
X90191421Y-76902762D01*
X90325777Y-76710882D01*
X90424772Y-76498586D01*
X90485398Y-76272326D01*
X90505814Y-76038975D01*
X90485398Y-75805624D01*
X90437373Y-75626392D01*
X90424774Y-75579371D01*
X90424773Y-75579370D01*
X90424772Y-75579364D01*
X90325777Y-75367068D01*
X90191421Y-75175188D01*
X90025787Y-75009554D01*
X89833907Y-74875198D01*
X89833905Y-74875197D01*
X89829472Y-74872093D01*
X89830481Y-74870651D01*
X89787712Y-74825803D01*
X89774484Y-74757197D01*
X89800447Y-74692330D01*
X89830048Y-74666680D01*
X89829472Y-74665857D01*
X89833905Y-74662752D01*
X89833907Y-74662752D01*
X90025787Y-74528396D01*
X90191421Y-74362762D01*
X90325777Y-74170882D01*
X90424772Y-73958586D01*
X90485398Y-73732326D01*
X90505814Y-73498975D01*
X90485398Y-73265624D01*
X90424772Y-73039364D01*
X90325777Y-72827068D01*
X90191421Y-72635188D01*
X90025787Y-72469554D01*
X89833907Y-72335198D01*
X89833905Y-72335197D01*
X89829472Y-72332093D01*
X89830481Y-72330651D01*
X89787712Y-72285803D01*
X89774484Y-72217197D01*
X89800447Y-72152330D01*
X89830048Y-72126680D01*
X89829472Y-72125857D01*
X89833905Y-72122752D01*
X89833907Y-72122752D01*
X90025787Y-71988396D01*
X90191421Y-71822762D01*
X90325777Y-71630882D01*
X90424772Y-71418586D01*
X90485398Y-71192326D01*
X90505814Y-70958975D01*
X90503156Y-70928600D01*
X90485398Y-70725628D01*
X90485398Y-70725624D01*
X90431935Y-70526097D01*
X90424774Y-70499371D01*
X90424773Y-70499370D01*
X90424772Y-70499364D01*
X90325777Y-70287068D01*
X90191421Y-70095188D01*
X90025787Y-69929554D01*
X89833907Y-69795198D01*
X89833905Y-69795197D01*
X89829472Y-69792093D01*
X89830481Y-69790651D01*
X89787712Y-69745803D01*
X89774484Y-69677197D01*
X89800447Y-69612330D01*
X89830048Y-69586680D01*
X89829472Y-69585857D01*
X89833905Y-69582752D01*
X89833907Y-69582752D01*
X90025787Y-69448396D01*
X90191421Y-69282762D01*
X90325777Y-69090882D01*
X90424772Y-68878586D01*
X90485398Y-68652326D01*
X90505814Y-68418975D01*
X90485398Y-68185624D01*
X90424772Y-67959364D01*
X90325777Y-67747068D01*
X90191421Y-67555188D01*
X90025787Y-67389554D01*
X89833907Y-67255198D01*
X89833905Y-67255197D01*
X89829472Y-67252093D01*
X89830481Y-67250651D01*
X89787712Y-67205803D01*
X89774484Y-67137197D01*
X89800447Y-67072330D01*
X89830048Y-67046680D01*
X89829472Y-67045857D01*
X89833905Y-67042752D01*
X89833907Y-67042752D01*
X90025787Y-66908396D01*
X90191421Y-66742762D01*
X90325777Y-66550882D01*
X90424772Y-66338586D01*
X90485398Y-66112326D01*
X90505814Y-65878975D01*
X90485398Y-65645624D01*
X90424772Y-65419364D01*
X90325777Y-65207068D01*
X90191421Y-65015188D01*
X90025787Y-64849554D01*
X89833907Y-64715198D01*
X89833905Y-64715197D01*
X89829472Y-64712093D01*
X89830481Y-64710651D01*
X89787712Y-64665803D01*
X89774484Y-64597197D01*
X89800447Y-64532330D01*
X89830048Y-64506680D01*
X89829472Y-64505857D01*
X89833905Y-64502752D01*
X89833907Y-64502752D01*
X90025787Y-64368396D01*
X90191421Y-64202762D01*
X90325777Y-64010882D01*
X90424772Y-63798586D01*
X90485398Y-63572326D01*
X90505814Y-63338975D01*
X90485398Y-63105624D01*
X90424772Y-62879364D01*
X90325777Y-62667068D01*
X90191421Y-62475188D01*
X90025787Y-62309554D01*
X89833907Y-62175198D01*
X89833905Y-62175197D01*
X89829472Y-62172093D01*
X89830481Y-62170651D01*
X89787712Y-62125803D01*
X89774484Y-62057197D01*
X89800447Y-61992330D01*
X89830048Y-61966680D01*
X89829472Y-61965857D01*
X89833905Y-61962752D01*
X89833907Y-61962752D01*
X90025787Y-61828396D01*
X90191421Y-61662762D01*
X90325777Y-61470882D01*
X90424772Y-61258586D01*
X90485398Y-61032326D01*
X90505814Y-60798975D01*
X90485398Y-60565624D01*
X90424772Y-60339364D01*
X90325777Y-60127068D01*
X90191421Y-59935188D01*
X90025787Y-59769554D01*
X89833907Y-59635198D01*
X89833905Y-59635197D01*
X89829472Y-59632093D01*
X89830481Y-59630651D01*
X89787712Y-59585803D01*
X89774484Y-59517197D01*
X89800447Y-59452330D01*
X89830048Y-59426680D01*
X89829472Y-59425857D01*
X89833905Y-59422752D01*
X89833907Y-59422752D01*
X90025787Y-59288396D01*
X90191421Y-59122762D01*
X90325777Y-58930882D01*
X90424772Y-58718586D01*
X90485398Y-58492326D01*
X90505814Y-58258975D01*
X90505814Y-58258974D01*
X113218186Y-58258974D01*
X113218186Y-58258975D01*
X113238601Y-58492321D01*
X113238603Y-58492331D01*
X113299225Y-58718578D01*
X113299227Y-58718582D01*
X113299228Y-58718586D01*
X113398223Y-58930882D01*
X113532579Y-59122762D01*
X113698213Y-59288396D01*
X113890093Y-59422752D01*
X113890094Y-59422752D01*
X113894528Y-59425857D01*
X113893521Y-59427294D01*
X113936297Y-59472165D01*
X113949513Y-59540773D01*
X113923540Y-59605635D01*
X113893953Y-59631272D01*
X113894528Y-59632093D01*
X113890094Y-59635197D01*
X113890093Y-59635198D01*
X113698213Y-59769554D01*
X113698211Y-59769555D01*
X113698208Y-59769558D01*
X113532583Y-59935183D01*
X113398223Y-60127068D01*
X113299229Y-60339362D01*
X113299225Y-60339371D01*
X113238603Y-60565618D01*
X113238601Y-60565628D01*
X113218186Y-60798974D01*
X113218186Y-60798975D01*
X113238601Y-61032321D01*
X113238603Y-61032331D01*
X113299225Y-61258578D01*
X113299227Y-61258582D01*
X113299228Y-61258586D01*
X113398223Y-61470882D01*
X113532579Y-61662762D01*
X113698213Y-61828396D01*
X113890093Y-61962752D01*
X113890094Y-61962752D01*
X113894528Y-61965857D01*
X113893521Y-61967294D01*
X113936297Y-62012165D01*
X113949513Y-62080773D01*
X113923540Y-62145635D01*
X113893953Y-62171272D01*
X113894528Y-62172093D01*
X113890094Y-62175197D01*
X113890093Y-62175198D01*
X113698213Y-62309554D01*
X113698211Y-62309555D01*
X113698208Y-62309558D01*
X113532583Y-62475183D01*
X113532580Y-62475186D01*
X113532579Y-62475188D01*
X113489762Y-62536337D01*
X113398223Y-62667068D01*
X113299229Y-62879362D01*
X113299225Y-62879371D01*
X113238603Y-63105618D01*
X113238601Y-63105628D01*
X113218186Y-63338974D01*
X113218186Y-63338975D01*
X113238601Y-63572321D01*
X113238603Y-63572331D01*
X113299225Y-63798578D01*
X113299227Y-63798582D01*
X113299228Y-63798586D01*
X113398223Y-64010882D01*
X113532579Y-64202762D01*
X113698213Y-64368396D01*
X113890093Y-64502752D01*
X113890094Y-64502752D01*
X113894528Y-64505857D01*
X113893521Y-64507294D01*
X113936297Y-64552165D01*
X113949513Y-64620773D01*
X113923540Y-64685635D01*
X113893953Y-64711272D01*
X113894528Y-64712093D01*
X113890094Y-64715197D01*
X113890093Y-64715198D01*
X113698213Y-64849554D01*
X113698211Y-64849555D01*
X113698208Y-64849558D01*
X113532583Y-65015183D01*
X113398223Y-65207068D01*
X113299229Y-65419362D01*
X113299225Y-65419371D01*
X113238603Y-65645618D01*
X113238601Y-65645628D01*
X113218186Y-65878974D01*
X113218186Y-65878975D01*
X113238601Y-66112321D01*
X113238603Y-66112331D01*
X113299225Y-66338578D01*
X113299227Y-66338582D01*
X113299228Y-66338586D01*
X113398223Y-66550882D01*
X113532579Y-66742762D01*
X113698213Y-66908396D01*
X113890093Y-67042752D01*
X113890094Y-67042752D01*
X113894528Y-67045857D01*
X113893521Y-67047294D01*
X113936297Y-67092165D01*
X113949513Y-67160773D01*
X113923540Y-67225635D01*
X113893953Y-67251272D01*
X113894528Y-67252093D01*
X113890094Y-67255197D01*
X113890093Y-67255198D01*
X113698213Y-67389554D01*
X113698211Y-67389555D01*
X113698208Y-67389558D01*
X113532583Y-67555183D01*
X113532580Y-67555186D01*
X113532579Y-67555188D01*
X113472020Y-67641675D01*
X113398223Y-67747068D01*
X113299229Y-67959362D01*
X113299225Y-67959371D01*
X113238603Y-68185618D01*
X113238601Y-68185628D01*
X113218186Y-68418974D01*
X113218186Y-68418975D01*
X113238601Y-68652321D01*
X113238603Y-68652331D01*
X113299225Y-68878578D01*
X113299227Y-68878582D01*
X113299228Y-68878586D01*
X113398223Y-69090882D01*
X113532579Y-69282762D01*
X113698213Y-69448396D01*
X113890093Y-69582752D01*
X113890094Y-69582752D01*
X113894528Y-69585857D01*
X113893521Y-69587294D01*
X113936297Y-69632165D01*
X113949513Y-69700773D01*
X113923540Y-69765635D01*
X113893953Y-69791272D01*
X113894528Y-69792093D01*
X113890094Y-69795197D01*
X113890093Y-69795198D01*
X113698213Y-69929554D01*
X113698211Y-69929555D01*
X113698208Y-69929558D01*
X113532583Y-70095183D01*
X113532580Y-70095186D01*
X113532579Y-70095188D01*
X113506998Y-70131722D01*
X113398223Y-70287068D01*
X113299229Y-70499362D01*
X113299225Y-70499371D01*
X113238603Y-70725618D01*
X113238601Y-70725628D01*
X113218186Y-70958974D01*
X113218186Y-70958975D01*
X113238601Y-71192321D01*
X113238603Y-71192331D01*
X113299225Y-71418578D01*
X113299227Y-71418582D01*
X113299228Y-71418586D01*
X113398223Y-71630882D01*
X113532579Y-71822762D01*
X113698213Y-71988396D01*
X113890093Y-72122752D01*
X113890094Y-72122752D01*
X113894528Y-72125857D01*
X113893521Y-72127294D01*
X113936297Y-72172165D01*
X113949513Y-72240773D01*
X113923540Y-72305635D01*
X113893953Y-72331272D01*
X113894528Y-72332093D01*
X113890094Y-72335197D01*
X113890093Y-72335198D01*
X113698213Y-72469554D01*
X113698211Y-72469555D01*
X113698208Y-72469558D01*
X113532583Y-72635183D01*
X113532580Y-72635186D01*
X113532579Y-72635188D01*
X113487652Y-72699351D01*
X113398223Y-72827068D01*
X113299229Y-73039362D01*
X113299225Y-73039371D01*
X113238603Y-73265618D01*
X113238601Y-73265628D01*
X113218186Y-73498974D01*
X113218186Y-73498975D01*
X113238601Y-73732321D01*
X113238603Y-73732331D01*
X113299225Y-73958578D01*
X113299227Y-73958582D01*
X113299228Y-73958586D01*
X113398223Y-74170882D01*
X113532579Y-74362762D01*
X113698213Y-74528396D01*
X113890093Y-74662752D01*
X113890094Y-74662752D01*
X113894528Y-74665857D01*
X113893521Y-74667294D01*
X113936297Y-74712165D01*
X113949513Y-74780773D01*
X113923540Y-74845635D01*
X113893953Y-74871272D01*
X113894528Y-74872093D01*
X113890094Y-74875197D01*
X113890093Y-74875198D01*
X113698213Y-75009554D01*
X113698211Y-75009555D01*
X113698208Y-75009558D01*
X113532583Y-75175183D01*
X113532580Y-75175186D01*
X113532579Y-75175188D01*
X113398223Y-75367068D01*
X113351259Y-75467784D01*
X113299229Y-75579362D01*
X113299225Y-75579371D01*
X113238603Y-75805618D01*
X113238601Y-75805628D01*
X113218186Y-76038974D01*
X113218186Y-76038975D01*
X113238601Y-76272321D01*
X113238603Y-76272331D01*
X113299225Y-76498578D01*
X113299227Y-76498582D01*
X113299228Y-76498586D01*
X113398223Y-76710882D01*
X113532579Y-76902762D01*
X113698213Y-77068396D01*
X113890093Y-77202752D01*
X113890094Y-77202752D01*
X113894528Y-77205857D01*
X113893521Y-77207294D01*
X113936297Y-77252165D01*
X113949513Y-77320773D01*
X113923540Y-77385635D01*
X113893953Y-77411272D01*
X113894528Y-77412093D01*
X113890094Y-77415197D01*
X113890093Y-77415198D01*
X113698213Y-77549554D01*
X113698211Y-77549555D01*
X113698208Y-77549558D01*
X113532583Y-77715183D01*
X113532580Y-77715186D01*
X113532579Y-77715188D01*
X113464970Y-77811744D01*
X113398223Y-77907068D01*
X113299229Y-78119362D01*
X113299225Y-78119371D01*
X113238603Y-78345618D01*
X113238601Y-78345628D01*
X113218186Y-78578974D01*
X113218186Y-78578975D01*
X113238601Y-78812321D01*
X113238603Y-78812331D01*
X113299225Y-79038578D01*
X113299227Y-79038582D01*
X113299228Y-79038586D01*
X113398223Y-79250882D01*
X113532579Y-79442762D01*
X113698213Y-79608396D01*
X113890093Y-79742752D01*
X113890094Y-79742752D01*
X113894528Y-79745857D01*
X113893521Y-79747294D01*
X113936297Y-79792165D01*
X113949513Y-79860773D01*
X113923540Y-79925635D01*
X113893953Y-79951272D01*
X113894528Y-79952093D01*
X113890094Y-79955197D01*
X113890093Y-79955198D01*
X113698213Y-80089554D01*
X113698211Y-80089555D01*
X113698208Y-80089558D01*
X113532583Y-80255183D01*
X113532580Y-80255186D01*
X113532579Y-80255188D01*
X113398223Y-80447068D01*
X113307477Y-80641675D01*
X113299229Y-80659362D01*
X113299225Y-80659371D01*
X113238603Y-80885618D01*
X113238601Y-80885628D01*
X113218186Y-81118974D01*
X113218186Y-81118975D01*
X113238601Y-81352321D01*
X113238603Y-81352331D01*
X113299225Y-81578578D01*
X113299227Y-81578582D01*
X113299228Y-81578586D01*
X113398223Y-81790882D01*
X113532579Y-81982762D01*
X113698213Y-82148396D01*
X113890093Y-82282752D01*
X113890094Y-82282752D01*
X113894528Y-82285857D01*
X113893521Y-82287294D01*
X113936297Y-82332165D01*
X113949513Y-82400773D01*
X113923540Y-82465635D01*
X113893953Y-82491272D01*
X113894528Y-82492093D01*
X113890094Y-82495197D01*
X113890093Y-82495198D01*
X113698213Y-82629554D01*
X113698211Y-82629555D01*
X113698208Y-82629558D01*
X113532583Y-82795183D01*
X113532580Y-82795186D01*
X113532579Y-82795188D01*
X113432582Y-82937999D01*
X113398223Y-82987068D01*
X113299229Y-83199362D01*
X113299225Y-83199371D01*
X113238603Y-83425618D01*
X113238601Y-83425628D01*
X113218186Y-83658974D01*
X113218186Y-83658975D01*
X113238601Y-83892321D01*
X113238603Y-83892331D01*
X113299225Y-84118578D01*
X113299227Y-84118582D01*
X113299228Y-84118586D01*
X113398223Y-84330882D01*
X113532579Y-84522762D01*
X113698213Y-84688396D01*
X113890093Y-84822752D01*
X113890094Y-84822752D01*
X113894528Y-84825857D01*
X113893521Y-84827294D01*
X113936297Y-84872165D01*
X113949513Y-84940773D01*
X113923540Y-85005635D01*
X113893953Y-85031272D01*
X113894528Y-85032093D01*
X113890094Y-85035197D01*
X113890093Y-85035198D01*
X113698213Y-85169554D01*
X113698211Y-85169555D01*
X113698208Y-85169558D01*
X113532583Y-85335183D01*
X113532580Y-85335186D01*
X113532579Y-85335188D01*
X113507222Y-85371402D01*
X113398223Y-85527068D01*
X113299229Y-85739362D01*
X113299225Y-85739371D01*
X113238603Y-85965618D01*
X113238601Y-85965628D01*
X113218186Y-86198974D01*
X113218186Y-86198975D01*
X113238601Y-86432321D01*
X113238603Y-86432331D01*
X113299225Y-86658578D01*
X113299227Y-86658582D01*
X113299228Y-86658586D01*
X113398223Y-86870882D01*
X113532579Y-87062762D01*
X113698213Y-87228396D01*
X113890093Y-87362752D01*
X113890094Y-87362752D01*
X113894528Y-87365857D01*
X113893521Y-87367294D01*
X113936297Y-87412165D01*
X113949513Y-87480773D01*
X113923540Y-87545635D01*
X113893953Y-87571272D01*
X113894528Y-87572093D01*
X113890094Y-87575197D01*
X113890093Y-87575198D01*
X113698213Y-87709554D01*
X113698211Y-87709555D01*
X113698208Y-87709558D01*
X113532583Y-87875183D01*
X113532580Y-87875186D01*
X113532579Y-87875188D01*
X113473053Y-87960200D01*
X113398223Y-88067068D01*
X113299229Y-88279362D01*
X113299225Y-88279371D01*
X113238603Y-88505618D01*
X113238601Y-88505628D01*
X113218186Y-88738974D01*
X113218186Y-88738975D01*
X113238601Y-88972321D01*
X113238603Y-88972331D01*
X113299225Y-89198578D01*
X113299227Y-89198582D01*
X113299228Y-89198586D01*
X113398223Y-89410882D01*
X113532579Y-89602762D01*
X113532583Y-89602766D01*
X113669545Y-89739728D01*
X113703030Y-89801051D01*
X113698046Y-89870743D01*
X113656174Y-89926676D01*
X113622934Y-89942228D01*
X113623585Y-89943973D01*
X113481471Y-89996977D01*
X113481464Y-89996981D01*
X113366255Y-90083227D01*
X113366252Y-90083230D01*
X113280006Y-90198439D01*
X113280002Y-90198446D01*
X113229708Y-90333292D01*
X113223301Y-90392891D01*
X113223301Y-90392898D01*
X113223300Y-90392910D01*
X113223300Y-92165045D01*
X113223301Y-92165051D01*
X113229708Y-92224658D01*
X113280002Y-92359503D01*
X113280006Y-92359510D01*
X113366252Y-92474719D01*
X113366255Y-92474722D01*
X113481464Y-92560968D01*
X113481471Y-92560972D01*
X113526418Y-92577736D01*
X113616317Y-92611266D01*
X113675927Y-92617675D01*
X113682064Y-92617674D01*
X113749102Y-92637351D01*
X113794863Y-92690151D01*
X113796556Y-92699978D01*
X114436428Y-93339849D01*
X114370821Y-93357429D01*
X114257879Y-93422636D01*
X114165661Y-93514854D01*
X114100454Y-93627796D01*
X114082874Y-93693402D01*
X113455545Y-93066073D01*
X113455544Y-93066074D01*
X113398659Y-93147316D01*
X113299701Y-93359533D01*
X113299697Y-93359542D01*
X113239097Y-93585706D01*
X113239095Y-93585716D01*
X113218688Y-93818973D01*
X113218688Y-93818976D01*
X113239095Y-94052233D01*
X113239097Y-94052243D01*
X113299697Y-94278407D01*
X113299701Y-94278416D01*
X113398657Y-94490629D01*
X113398658Y-94490631D01*
X113455545Y-94571874D01*
X113455546Y-94571875D01*
X114082874Y-93944546D01*
X114100454Y-94010154D01*
X114165661Y-94123096D01*
X114257879Y-94215314D01*
X114370821Y-94280521D01*
X114436427Y-94298100D01*
X113809098Y-94925428D01*
X113890343Y-94982316D01*
X113890345Y-94982317D01*
X114102558Y-95081273D01*
X114102567Y-95081277D01*
X114328731Y-95141877D01*
X114328741Y-95141879D01*
X114561998Y-95162287D01*
X114562002Y-95162287D01*
X114795258Y-95141879D01*
X114795268Y-95141877D01*
X115021432Y-95081277D01*
X115021441Y-95081273D01*
X115233655Y-94982317D01*
X115314900Y-94925428D01*
X114687572Y-94298100D01*
X114753179Y-94280521D01*
X114866121Y-94215314D01*
X114958339Y-94123096D01*
X115023546Y-94010154D01*
X115041125Y-93944547D01*
X115668453Y-94571875D01*
X115725342Y-94490630D01*
X115824298Y-94278416D01*
X115824302Y-94278407D01*
X115884902Y-94052243D01*
X115884904Y-94052233D01*
X115905312Y-93818976D01*
X115905312Y-93818973D01*
X115884904Y-93585716D01*
X115884902Y-93585706D01*
X115824302Y-93359542D01*
X115824298Y-93359533D01*
X115725342Y-93147320D01*
X115725341Y-93147318D01*
X115668453Y-93066074D01*
X115668453Y-93066073D01*
X115041124Y-93693401D01*
X115023546Y-93627796D01*
X114958339Y-93514854D01*
X114866121Y-93422636D01*
X114753179Y-93357429D01*
X114687571Y-93339849D01*
X115329325Y-92698095D01*
X115332161Y-92683985D01*
X115380774Y-92633800D01*
X115441923Y-92617674D01*
X115448072Y-92617674D01*
X115507683Y-92611266D01*
X115642531Y-92560971D01*
X115757746Y-92474721D01*
X115843996Y-92359506D01*
X115894291Y-92224658D01*
X115900700Y-92165048D01*
X115900699Y-90392903D01*
X115894291Y-90333292D01*
X115843996Y-90198444D01*
X115843995Y-90198443D01*
X115843993Y-90198439D01*
X115757747Y-90083230D01*
X115757744Y-90083227D01*
X115642535Y-89996981D01*
X115642528Y-89996977D01*
X115500415Y-89943973D01*
X115501459Y-89941173D01*
X115452860Y-89913467D01*
X115420506Y-89851540D01*
X115426768Y-89781952D01*
X115454450Y-89739732D01*
X115591421Y-89602762D01*
X115725777Y-89410882D01*
X115824772Y-89198586D01*
X115885398Y-88972326D01*
X115905814Y-88738975D01*
X115885398Y-88505624D01*
X115824772Y-88279364D01*
X115725777Y-88067068D01*
X115591421Y-87875188D01*
X115425787Y-87709554D01*
X115233907Y-87575198D01*
X115233905Y-87575197D01*
X115229472Y-87572093D01*
X115230481Y-87570651D01*
X115187712Y-87525803D01*
X115174484Y-87457197D01*
X115200447Y-87392330D01*
X115230048Y-87366680D01*
X115229472Y-87365857D01*
X115233905Y-87362752D01*
X115233907Y-87362752D01*
X115425787Y-87228396D01*
X115591421Y-87062762D01*
X115725777Y-86870882D01*
X115824772Y-86658586D01*
X115885398Y-86432326D01*
X115905814Y-86198975D01*
X115885398Y-85965624D01*
X115824772Y-85739364D01*
X115725777Y-85527068D01*
X115591421Y-85335188D01*
X115425787Y-85169554D01*
X115233907Y-85035198D01*
X115233905Y-85035197D01*
X115229472Y-85032093D01*
X115230481Y-85030651D01*
X115187712Y-84985803D01*
X115174484Y-84917197D01*
X115200447Y-84852330D01*
X115230048Y-84826680D01*
X115229472Y-84825857D01*
X115233905Y-84822752D01*
X115233907Y-84822752D01*
X115425787Y-84688396D01*
X115591421Y-84522762D01*
X115725777Y-84330882D01*
X115824772Y-84118586D01*
X115885398Y-83892326D01*
X115905814Y-83658975D01*
X115885398Y-83425624D01*
X115824772Y-83199364D01*
X115725777Y-82987068D01*
X115591421Y-82795188D01*
X115425787Y-82629554D01*
X115233907Y-82495198D01*
X115233905Y-82495197D01*
X115229472Y-82492093D01*
X115230481Y-82490651D01*
X115187712Y-82445803D01*
X115174484Y-82377197D01*
X115200447Y-82312330D01*
X115230048Y-82286680D01*
X115229472Y-82285857D01*
X115233905Y-82282752D01*
X115233907Y-82282752D01*
X115425787Y-82148396D01*
X115591421Y-81982762D01*
X115725777Y-81790882D01*
X115824772Y-81578586D01*
X115885398Y-81352326D01*
X115905814Y-81118975D01*
X115885398Y-80885624D01*
X115824772Y-80659364D01*
X115725777Y-80447068D01*
X115591421Y-80255188D01*
X115425787Y-80089554D01*
X115233907Y-79955198D01*
X115233905Y-79955197D01*
X115229472Y-79952093D01*
X115230481Y-79950651D01*
X115187712Y-79905803D01*
X115174484Y-79837197D01*
X115200447Y-79772330D01*
X115230048Y-79746680D01*
X115229472Y-79745857D01*
X115233905Y-79742752D01*
X115233907Y-79742752D01*
X115425787Y-79608396D01*
X115591421Y-79442762D01*
X115725777Y-79250882D01*
X115824772Y-79038586D01*
X115885398Y-78812326D01*
X115905814Y-78578975D01*
X115885398Y-78345624D01*
X115824772Y-78119364D01*
X115725777Y-77907068D01*
X115591421Y-77715188D01*
X115425787Y-77549554D01*
X115233907Y-77415198D01*
X115233905Y-77415197D01*
X115229472Y-77412093D01*
X115230481Y-77410651D01*
X115187712Y-77365803D01*
X115174484Y-77297197D01*
X115200447Y-77232330D01*
X115230048Y-77206680D01*
X115229472Y-77205857D01*
X115233905Y-77202752D01*
X115233907Y-77202752D01*
X115425787Y-77068396D01*
X115591421Y-76902762D01*
X115725777Y-76710882D01*
X115824772Y-76498586D01*
X115885398Y-76272326D01*
X115905814Y-76038975D01*
X115885398Y-75805624D01*
X115837373Y-75626392D01*
X115824774Y-75579371D01*
X115824773Y-75579370D01*
X115824772Y-75579364D01*
X115725777Y-75367068D01*
X115591421Y-75175188D01*
X115425787Y-75009554D01*
X115233907Y-74875198D01*
X115233905Y-74875197D01*
X115229472Y-74872093D01*
X115230481Y-74870651D01*
X115187712Y-74825803D01*
X115174484Y-74757197D01*
X115200447Y-74692330D01*
X115230048Y-74666680D01*
X115229472Y-74665857D01*
X115233905Y-74662752D01*
X115233907Y-74662752D01*
X115425787Y-74528396D01*
X115591421Y-74362762D01*
X115725777Y-74170882D01*
X115824772Y-73958586D01*
X115885398Y-73732326D01*
X115905814Y-73498975D01*
X115885398Y-73265624D01*
X115824772Y-73039364D01*
X115725777Y-72827068D01*
X115591421Y-72635188D01*
X115425787Y-72469554D01*
X115233907Y-72335198D01*
X115233905Y-72335197D01*
X115229472Y-72332093D01*
X115230481Y-72330651D01*
X115187712Y-72285803D01*
X115174484Y-72217197D01*
X115200447Y-72152330D01*
X115230048Y-72126680D01*
X115229472Y-72125857D01*
X115233905Y-72122752D01*
X115233907Y-72122752D01*
X115425787Y-71988396D01*
X115591421Y-71822762D01*
X115607360Y-71799999D01*
X123144341Y-71799999D01*
X123144341Y-71800000D01*
X123164936Y-72035403D01*
X123164938Y-72035413D01*
X123226094Y-72263655D01*
X123226096Y-72263659D01*
X123226097Y-72263663D01*
X123277365Y-72373607D01*
X123325965Y-72477830D01*
X123325967Y-72477834D01*
X123461501Y-72671395D01*
X123461506Y-72671402D01*
X123628597Y-72838493D01*
X123628603Y-72838498D01*
X123814158Y-72968425D01*
X123857783Y-73023002D01*
X123864977Y-73092500D01*
X123833454Y-73154855D01*
X123814158Y-73171575D01*
X123628597Y-73301505D01*
X123461505Y-73468597D01*
X123325965Y-73662169D01*
X123325964Y-73662171D01*
X123226098Y-73876335D01*
X123226094Y-73876344D01*
X123164938Y-74104586D01*
X123164936Y-74104596D01*
X123144341Y-74339999D01*
X123144341Y-74340000D01*
X123164936Y-74575403D01*
X123164938Y-74575413D01*
X123226094Y-74803655D01*
X123226096Y-74803659D01*
X123226097Y-74803663D01*
X123314900Y-74994101D01*
X123325965Y-75017830D01*
X123325967Y-75017834D01*
X123461501Y-75211395D01*
X123461506Y-75211402D01*
X123628597Y-75378493D01*
X123628603Y-75378498D01*
X123814158Y-75508425D01*
X123857783Y-75563002D01*
X123864977Y-75632500D01*
X123833454Y-75694855D01*
X123814158Y-75711575D01*
X123628597Y-75841505D01*
X123461505Y-76008597D01*
X123325965Y-76202169D01*
X123325964Y-76202171D01*
X123226098Y-76416335D01*
X123226094Y-76416344D01*
X123164938Y-76644586D01*
X123164936Y-76644596D01*
X123144341Y-76879999D01*
X123144341Y-76880000D01*
X123164936Y-77115403D01*
X123164938Y-77115413D01*
X123226094Y-77343655D01*
X123226096Y-77343659D01*
X123226097Y-77343663D01*
X123270088Y-77438001D01*
X123325965Y-77557830D01*
X123325967Y-77557834D01*
X123461501Y-77751395D01*
X123461506Y-77751402D01*
X123628597Y-77918493D01*
X123628603Y-77918498D01*
X123814158Y-78048425D01*
X123857783Y-78103002D01*
X123864977Y-78172500D01*
X123833454Y-78234855D01*
X123814158Y-78251575D01*
X123628597Y-78381505D01*
X123461505Y-78548597D01*
X123325965Y-78742169D01*
X123325964Y-78742171D01*
X123226098Y-78956335D01*
X123226094Y-78956344D01*
X123164938Y-79184586D01*
X123164936Y-79184596D01*
X123144341Y-79419999D01*
X123144341Y-79420000D01*
X123164936Y-79655403D01*
X123164938Y-79655413D01*
X123226094Y-79883655D01*
X123226096Y-79883659D01*
X123226097Y-79883663D01*
X123277595Y-79994101D01*
X123325965Y-80097830D01*
X123325967Y-80097834D01*
X123461501Y-80291395D01*
X123461506Y-80291402D01*
X123628597Y-80458493D01*
X123628603Y-80458498D01*
X123814158Y-80588425D01*
X123857783Y-80643002D01*
X123864977Y-80712500D01*
X123833454Y-80774855D01*
X123814158Y-80791575D01*
X123628597Y-80921505D01*
X123461505Y-81088597D01*
X123325965Y-81282169D01*
X123325964Y-81282171D01*
X123226098Y-81496335D01*
X123226094Y-81496344D01*
X123164938Y-81724586D01*
X123164936Y-81724596D01*
X123144341Y-81959999D01*
X123144341Y-81960000D01*
X123164936Y-82195403D01*
X123164938Y-82195413D01*
X123226094Y-82423655D01*
X123226096Y-82423659D01*
X123226097Y-82423663D01*
X123261694Y-82500000D01*
X123325965Y-82637830D01*
X123325967Y-82637834D01*
X123461501Y-82831395D01*
X123461506Y-82831402D01*
X123628597Y-82998493D01*
X123628603Y-82998498D01*
X123814158Y-83128425D01*
X123857783Y-83183002D01*
X123864977Y-83252500D01*
X123833454Y-83314855D01*
X123814158Y-83331575D01*
X123628597Y-83461505D01*
X123461505Y-83628597D01*
X123325965Y-83822169D01*
X123325964Y-83822171D01*
X123226098Y-84036335D01*
X123226094Y-84036344D01*
X123164938Y-84264586D01*
X123164936Y-84264596D01*
X123144341Y-84499999D01*
X123144341Y-84500000D01*
X123164936Y-84735403D01*
X123164938Y-84735413D01*
X123226094Y-84963655D01*
X123226096Y-84963659D01*
X123226097Y-84963663D01*
X123322106Y-85169554D01*
X123325965Y-85177830D01*
X123325967Y-85177834D01*
X123411963Y-85300648D01*
X123452348Y-85358324D01*
X123461501Y-85371395D01*
X123461506Y-85371402D01*
X123628597Y-85538493D01*
X123628603Y-85538498D01*
X123814158Y-85668425D01*
X123857783Y-85723002D01*
X123864977Y-85792500D01*
X123833454Y-85854855D01*
X123814158Y-85871575D01*
X123628597Y-86001505D01*
X123461505Y-86168597D01*
X123325965Y-86362169D01*
X123325964Y-86362171D01*
X123226098Y-86576335D01*
X123226094Y-86576344D01*
X123164938Y-86804586D01*
X123164936Y-86804596D01*
X123144341Y-87039999D01*
X123144341Y-87040000D01*
X123164936Y-87275403D01*
X123164938Y-87275413D01*
X123226094Y-87503655D01*
X123226096Y-87503659D01*
X123226097Y-87503663D01*
X123305008Y-87672888D01*
X123325965Y-87717830D01*
X123325967Y-87717834D01*
X123461501Y-87911395D01*
X123461506Y-87911402D01*
X123628597Y-88078493D01*
X123628603Y-88078498D01*
X123814158Y-88208425D01*
X123857783Y-88263002D01*
X123864977Y-88332500D01*
X123833454Y-88394855D01*
X123814158Y-88411575D01*
X123628597Y-88541505D01*
X123461505Y-88708597D01*
X123325965Y-88902169D01*
X123325964Y-88902171D01*
X123226098Y-89116335D01*
X123226094Y-89116344D01*
X123164938Y-89344586D01*
X123164936Y-89344596D01*
X123144341Y-89579999D01*
X123144341Y-89580000D01*
X123164936Y-89815403D01*
X123164938Y-89815413D01*
X123226094Y-90043655D01*
X123226096Y-90043659D01*
X123226097Y-90043663D01*
X123298273Y-90198444D01*
X123325965Y-90257830D01*
X123325967Y-90257834D01*
X123461501Y-90451395D01*
X123461506Y-90451402D01*
X123628597Y-90618493D01*
X123628603Y-90618498D01*
X123814158Y-90748425D01*
X123857783Y-90803002D01*
X123864977Y-90872500D01*
X123833454Y-90934855D01*
X123814158Y-90951575D01*
X123628597Y-91081505D01*
X123461505Y-91248597D01*
X123325965Y-91442169D01*
X123325964Y-91442171D01*
X123226098Y-91656335D01*
X123226094Y-91656344D01*
X123164938Y-91884586D01*
X123164936Y-91884596D01*
X123144341Y-92119999D01*
X123144341Y-92120000D01*
X123164936Y-92355403D01*
X123164938Y-92355413D01*
X123226094Y-92583655D01*
X123226096Y-92583659D01*
X123226097Y-92583663D01*
X123279458Y-92698095D01*
X123325965Y-92797830D01*
X123325967Y-92797834D01*
X123434281Y-92952521D01*
X123461505Y-92991401D01*
X123628599Y-93158495D01*
X123725384Y-93226265D01*
X123822165Y-93294032D01*
X123822167Y-93294033D01*
X123822170Y-93294035D01*
X124036337Y-93393903D01*
X124264592Y-93455063D01*
X124452918Y-93471539D01*
X124499999Y-93475659D01*
X124500000Y-93475659D01*
X124500001Y-93475659D01*
X124539234Y-93472226D01*
X124735408Y-93455063D01*
X124963663Y-93393903D01*
X125177830Y-93294035D01*
X125371401Y-93158495D01*
X125538495Y-92991401D01*
X125674035Y-92797830D01*
X125773903Y-92583663D01*
X125835063Y-92355408D01*
X125855659Y-92120000D01*
X125835063Y-91884592D01*
X125773903Y-91656337D01*
X125674035Y-91442171D01*
X125538495Y-91248599D01*
X125538494Y-91248597D01*
X125371402Y-91081506D01*
X125371396Y-91081501D01*
X125185842Y-90951575D01*
X125142217Y-90896998D01*
X125135023Y-90827500D01*
X125166546Y-90765145D01*
X125185842Y-90748425D01*
X125208026Y-90732891D01*
X125371401Y-90618495D01*
X125538495Y-90451401D01*
X125674035Y-90257830D01*
X125773903Y-90043663D01*
X125835063Y-89815408D01*
X125855659Y-89580000D01*
X125835063Y-89344592D01*
X125773903Y-89116337D01*
X125674035Y-88902171D01*
X125559765Y-88738975D01*
X125538494Y-88708597D01*
X125371402Y-88541506D01*
X125371396Y-88541501D01*
X125185842Y-88411575D01*
X125142217Y-88356998D01*
X125135023Y-88287500D01*
X125166546Y-88225145D01*
X125185842Y-88208425D01*
X125236594Y-88172888D01*
X125371401Y-88078495D01*
X125538495Y-87911401D01*
X125674035Y-87717830D01*
X125773903Y-87503663D01*
X125835063Y-87275408D01*
X125855659Y-87040000D01*
X125835063Y-86804592D01*
X125773903Y-86576337D01*
X125674035Y-86362171D01*
X125673315Y-86361142D01*
X125538494Y-86168597D01*
X125371402Y-86001506D01*
X125371396Y-86001501D01*
X125185842Y-85871575D01*
X125142217Y-85816998D01*
X125135023Y-85747500D01*
X125166546Y-85685145D01*
X125185842Y-85668425D01*
X125245871Y-85626392D01*
X125371401Y-85538495D01*
X125538495Y-85371401D01*
X125674035Y-85177830D01*
X125773903Y-84963663D01*
X125835063Y-84735408D01*
X125855659Y-84500000D01*
X125835063Y-84264592D01*
X125773903Y-84036337D01*
X125674035Y-83822171D01*
X125599590Y-83715851D01*
X125538494Y-83628597D01*
X125371402Y-83461506D01*
X125371396Y-83461501D01*
X125185842Y-83331575D01*
X125142217Y-83276998D01*
X125135023Y-83207500D01*
X125166546Y-83145145D01*
X125185842Y-83128425D01*
X125280708Y-83061999D01*
X125371401Y-82998495D01*
X125538495Y-82831401D01*
X125674035Y-82637830D01*
X125773903Y-82423663D01*
X125835063Y-82195408D01*
X125855659Y-81960000D01*
X125835063Y-81724592D01*
X125788626Y-81551285D01*
X125774885Y-81500000D01*
X164594540Y-81500000D01*
X164614326Y-81688256D01*
X164614327Y-81688259D01*
X164672818Y-81868277D01*
X164672820Y-81868281D01*
X164672821Y-81868284D01*
X164767467Y-82032216D01*
X164857059Y-82131718D01*
X164894129Y-82172888D01*
X165047265Y-82284148D01*
X165047270Y-82284151D01*
X165220192Y-82361142D01*
X165220197Y-82361144D01*
X165405354Y-82400500D01*
X165405355Y-82400500D01*
X165594644Y-82400500D01*
X165594646Y-82400500D01*
X165779803Y-82361144D01*
X165952730Y-82284151D01*
X166105871Y-82172888D01*
X166232533Y-82032216D01*
X166327179Y-81868284D01*
X166385674Y-81688256D01*
X166405460Y-81500000D01*
X166385674Y-81311744D01*
X166327179Y-81131716D01*
X166232533Y-80967784D01*
X166105871Y-80827112D01*
X166105870Y-80827111D01*
X165952734Y-80715851D01*
X165952729Y-80715848D01*
X165779807Y-80638857D01*
X165779802Y-80638855D01*
X165621204Y-80605145D01*
X165594646Y-80599500D01*
X165405354Y-80599500D01*
X165378796Y-80605145D01*
X165220197Y-80638855D01*
X165220192Y-80638857D01*
X165047270Y-80715848D01*
X165047265Y-80715851D01*
X164894129Y-80827111D01*
X164767466Y-80967785D01*
X164672821Y-81131715D01*
X164672818Y-81131722D01*
X164617931Y-81300648D01*
X164614326Y-81311744D01*
X164594540Y-81500000D01*
X125774885Y-81500000D01*
X125773905Y-81496344D01*
X125773904Y-81496343D01*
X125773903Y-81496337D01*
X125674035Y-81282171D01*
X125568688Y-81131718D01*
X125538494Y-81088597D01*
X125371402Y-80921506D01*
X125371396Y-80921501D01*
X125185842Y-80791575D01*
X125142217Y-80736998D01*
X125135023Y-80667500D01*
X125166546Y-80605145D01*
X125185842Y-80588425D01*
X125208026Y-80572891D01*
X125371401Y-80458495D01*
X125538495Y-80291401D01*
X125674035Y-80097830D01*
X125773903Y-79883663D01*
X125835063Y-79655408D01*
X125855659Y-79420000D01*
X125852642Y-79385522D01*
X125847467Y-79326363D01*
X125835063Y-79184592D01*
X125773903Y-78956337D01*
X125674035Y-78742171D01*
X125649792Y-78707547D01*
X125538494Y-78548597D01*
X125371402Y-78381506D01*
X125371396Y-78381501D01*
X125185842Y-78251575D01*
X125142217Y-78196998D01*
X125135023Y-78127500D01*
X125166546Y-78065145D01*
X125185842Y-78048425D01*
X125255000Y-78000000D01*
X125371401Y-77918495D01*
X125538495Y-77751401D01*
X125674035Y-77557830D01*
X125773903Y-77343663D01*
X125835063Y-77115408D01*
X125855659Y-76880000D01*
X125835063Y-76644592D01*
X125823687Y-76602135D01*
X147529500Y-76602135D01*
X147529500Y-78397870D01*
X147529501Y-78397876D01*
X147535908Y-78457483D01*
X147586202Y-78592328D01*
X147586206Y-78592335D01*
X147672452Y-78707544D01*
X147672455Y-78707547D01*
X147787664Y-78793793D01*
X147787671Y-78793797D01*
X147922517Y-78844091D01*
X147922516Y-78844091D01*
X147929444Y-78844835D01*
X147982127Y-78850500D01*
X149777872Y-78850499D01*
X149837483Y-78844091D01*
X149972331Y-78793796D01*
X150087546Y-78707546D01*
X150173796Y-78592331D01*
X150222810Y-78460916D01*
X150264681Y-78404984D01*
X150330145Y-78380566D01*
X150398418Y-78395417D01*
X150426673Y-78416569D01*
X150548599Y-78538495D01*
X150645384Y-78606265D01*
X150742165Y-78674032D01*
X150742167Y-78674033D01*
X150742170Y-78674035D01*
X150956337Y-78773903D01*
X150956343Y-78773904D01*
X150956344Y-78773905D01*
X151011285Y-78788626D01*
X151184592Y-78835063D01*
X151361034Y-78850500D01*
X151419999Y-78855659D01*
X151420000Y-78855659D01*
X151420001Y-78855659D01*
X151478966Y-78850500D01*
X151655408Y-78835063D01*
X151883663Y-78773903D01*
X152097830Y-78674035D01*
X152291401Y-78538495D01*
X152458495Y-78371401D01*
X152588425Y-78185842D01*
X152643002Y-78142217D01*
X152712500Y-78135023D01*
X152774855Y-78166546D01*
X152791575Y-78185842D01*
X152921500Y-78371395D01*
X152921505Y-78371401D01*
X153088599Y-78538495D01*
X153185384Y-78606265D01*
X153282165Y-78674032D01*
X153282167Y-78674033D01*
X153282170Y-78674035D01*
X153496337Y-78773903D01*
X153496343Y-78773904D01*
X153496344Y-78773905D01*
X153551285Y-78788626D01*
X153724592Y-78835063D01*
X153901034Y-78850500D01*
X153959999Y-78855659D01*
X153960000Y-78855659D01*
X153960001Y-78855659D01*
X154018966Y-78850500D01*
X154195408Y-78835063D01*
X154423663Y-78773903D01*
X154637830Y-78674035D01*
X154831401Y-78538495D01*
X154998495Y-78371401D01*
X155134035Y-78177830D01*
X155233903Y-77963663D01*
X155295063Y-77735408D01*
X155315659Y-77500000D01*
X155295063Y-77264592D01*
X155233903Y-77036337D01*
X155134035Y-76822171D01*
X155128425Y-76814158D01*
X154998494Y-76628597D01*
X154831402Y-76461506D01*
X154831395Y-76461501D01*
X154637834Y-76325967D01*
X154637830Y-76325965D01*
X154607324Y-76311740D01*
X154423663Y-76226097D01*
X154423659Y-76226096D01*
X154423655Y-76226094D01*
X154195413Y-76164938D01*
X154195403Y-76164936D01*
X153960001Y-76144341D01*
X153959999Y-76144341D01*
X153724596Y-76164936D01*
X153724586Y-76164938D01*
X153496344Y-76226094D01*
X153496335Y-76226098D01*
X153282171Y-76325964D01*
X153282169Y-76325965D01*
X153088597Y-76461505D01*
X152921505Y-76628597D01*
X152791575Y-76814158D01*
X152736998Y-76857783D01*
X152667500Y-76864977D01*
X152605145Y-76833454D01*
X152588425Y-76814158D01*
X152458494Y-76628597D01*
X152291402Y-76461506D01*
X152291395Y-76461501D01*
X152097834Y-76325967D01*
X152097830Y-76325965D01*
X152067324Y-76311740D01*
X151883663Y-76226097D01*
X151883659Y-76226096D01*
X151883655Y-76226094D01*
X151655413Y-76164938D01*
X151655403Y-76164936D01*
X151420001Y-76144341D01*
X151419999Y-76144341D01*
X151184596Y-76164936D01*
X151184586Y-76164938D01*
X150956344Y-76226094D01*
X150956335Y-76226098D01*
X150742171Y-76325964D01*
X150742169Y-76325965D01*
X150548600Y-76461503D01*
X150426673Y-76583430D01*
X150365350Y-76616914D01*
X150295658Y-76611930D01*
X150239725Y-76570058D01*
X150222810Y-76539081D01*
X150173797Y-76407671D01*
X150173793Y-76407664D01*
X150087547Y-76292455D01*
X150087544Y-76292452D01*
X149972335Y-76206206D01*
X149972328Y-76206202D01*
X149837482Y-76155908D01*
X149837483Y-76155908D01*
X149777883Y-76149501D01*
X149777881Y-76149500D01*
X149777873Y-76149500D01*
X149777864Y-76149500D01*
X147982129Y-76149500D01*
X147982123Y-76149501D01*
X147922516Y-76155908D01*
X147787671Y-76206202D01*
X147787664Y-76206206D01*
X147672455Y-76292452D01*
X147672452Y-76292455D01*
X147586206Y-76407664D01*
X147586202Y-76407671D01*
X147535908Y-76542517D01*
X147529501Y-76602116D01*
X147529500Y-76602135D01*
X125823687Y-76602135D01*
X125773903Y-76416337D01*
X125674035Y-76202171D01*
X125647965Y-76164938D01*
X125538494Y-76008597D01*
X125371402Y-75841506D01*
X125371396Y-75841501D01*
X125185842Y-75711575D01*
X125142217Y-75656998D01*
X125135023Y-75587500D01*
X125166546Y-75525145D01*
X125185842Y-75508425D01*
X125243883Y-75467784D01*
X125371401Y-75378495D01*
X125538495Y-75211401D01*
X125674035Y-75017830D01*
X125682349Y-75000000D01*
X165094540Y-75000000D01*
X165114326Y-75188256D01*
X165114327Y-75188259D01*
X165172818Y-75368277D01*
X165172820Y-75368281D01*
X165172821Y-75368284D01*
X165213072Y-75438001D01*
X165229543Y-75505901D01*
X165213072Y-75561998D01*
X165203048Y-75579362D01*
X165172820Y-75631718D01*
X165172818Y-75631722D01*
X165116313Y-75805628D01*
X165114326Y-75811744D01*
X165094540Y-76000000D01*
X165114326Y-76188256D01*
X165114327Y-76188259D01*
X165172818Y-76368277D01*
X165172820Y-76368281D01*
X165172821Y-76368284D01*
X165213071Y-76437999D01*
X165213072Y-76438001D01*
X165229543Y-76505901D01*
X165213072Y-76561998D01*
X165184245Y-76611930D01*
X165172820Y-76631718D01*
X165172818Y-76631722D01*
X165147098Y-76710882D01*
X165114326Y-76811744D01*
X165094540Y-77000000D01*
X165114326Y-77188256D01*
X165114327Y-77188259D01*
X165172818Y-77368277D01*
X165172820Y-77368281D01*
X165172821Y-77368284D01*
X165182839Y-77385635D01*
X165213072Y-77438001D01*
X165229543Y-77505901D01*
X165213072Y-77561999D01*
X165172820Y-77631718D01*
X165172818Y-77631722D01*
X165114327Y-77811740D01*
X165114326Y-77811744D01*
X165094540Y-78000000D01*
X165114326Y-78188256D01*
X165114327Y-78188259D01*
X165172818Y-78368277D01*
X165172821Y-78368284D01*
X165267467Y-78532216D01*
X165352264Y-78626392D01*
X165394129Y-78672888D01*
X165547265Y-78784148D01*
X165547270Y-78784151D01*
X165720192Y-78861142D01*
X165720197Y-78861144D01*
X165905354Y-78900500D01*
X165905355Y-78900500D01*
X166094644Y-78900500D01*
X166094646Y-78900500D01*
X166279803Y-78861144D01*
X166452730Y-78784151D01*
X166605871Y-78672888D01*
X166732533Y-78532216D01*
X166827179Y-78368284D01*
X166885674Y-78188256D01*
X166904247Y-78011536D01*
X166930832Y-77946924D01*
X166988129Y-77906939D01*
X167027568Y-77900500D01*
X167094644Y-77900500D01*
X167094646Y-77900500D01*
X167279803Y-77861144D01*
X167449566Y-77785559D01*
X167518813Y-77776275D01*
X167550430Y-77785557D01*
X167720197Y-77861144D01*
X167905354Y-77900500D01*
X167905355Y-77900500D01*
X168094644Y-77900500D01*
X168094646Y-77900500D01*
X168279803Y-77861144D01*
X168449566Y-77785559D01*
X168518813Y-77776275D01*
X168550430Y-77785557D01*
X168720197Y-77861144D01*
X168905354Y-77900500D01*
X168905355Y-77900500D01*
X169094644Y-77900500D01*
X169094646Y-77900500D01*
X169279803Y-77861144D01*
X169452730Y-77784151D01*
X169605871Y-77672888D01*
X169732533Y-77532216D01*
X169827179Y-77368284D01*
X169885674Y-77188256D01*
X169905460Y-77000000D01*
X169885674Y-76811744D01*
X169827179Y-76631716D01*
X169825379Y-76628599D01*
X169810089Y-76602116D01*
X169786927Y-76561999D01*
X169770454Y-76494101D01*
X169786927Y-76438001D01*
X169827179Y-76368284D01*
X169885674Y-76188256D01*
X169905460Y-76000000D01*
X169885674Y-75811744D01*
X169827179Y-75631716D01*
X169732533Y-75467784D01*
X169605871Y-75327112D01*
X169584719Y-75311744D01*
X169452734Y-75215851D01*
X169452729Y-75215848D01*
X169279807Y-75138857D01*
X169279802Y-75138855D01*
X169134001Y-75107865D01*
X169094646Y-75099500D01*
X168905354Y-75099500D01*
X168872897Y-75106398D01*
X168720197Y-75138855D01*
X168720192Y-75138857D01*
X168550436Y-75214439D01*
X168481186Y-75223724D01*
X168449564Y-75214439D01*
X168279807Y-75138857D01*
X168279802Y-75138855D01*
X168134001Y-75107865D01*
X168094646Y-75099500D01*
X167905354Y-75099500D01*
X167872897Y-75106398D01*
X167720197Y-75138855D01*
X167720192Y-75138857D01*
X167550436Y-75214439D01*
X167481186Y-75223724D01*
X167449564Y-75214439D01*
X167279807Y-75138857D01*
X167279802Y-75138855D01*
X167134001Y-75107865D01*
X167094646Y-75099500D01*
X167027568Y-75099500D01*
X166960529Y-75079815D01*
X166914774Y-75027011D01*
X166904247Y-74988462D01*
X166885674Y-74811744D01*
X166827179Y-74631716D01*
X166732533Y-74467784D01*
X166605871Y-74327112D01*
X166584719Y-74311744D01*
X166452734Y-74215851D01*
X166452729Y-74215848D01*
X166279807Y-74138857D01*
X166279802Y-74138855D01*
X166118574Y-74104586D01*
X166094646Y-74099500D01*
X165905354Y-74099500D01*
X165881426Y-74104586D01*
X165720197Y-74138855D01*
X165720192Y-74138857D01*
X165547270Y-74215848D01*
X165547265Y-74215851D01*
X165394129Y-74327111D01*
X165267466Y-74467785D01*
X165172821Y-74631715D01*
X165172818Y-74631722D01*
X165116951Y-74803664D01*
X165114326Y-74811744D01*
X165094540Y-75000000D01*
X125682349Y-75000000D01*
X125773903Y-74803663D01*
X125835063Y-74575408D01*
X125855659Y-74340000D01*
X125835063Y-74104592D01*
X125773903Y-73876337D01*
X125674035Y-73662171D01*
X125648983Y-73626392D01*
X125538494Y-73468597D01*
X125371402Y-73301506D01*
X125371396Y-73301501D01*
X125185842Y-73171575D01*
X125142217Y-73116998D01*
X125135023Y-73047500D01*
X125166546Y-72985145D01*
X125185842Y-72968425D01*
X125229295Y-72937999D01*
X125371401Y-72838495D01*
X125538495Y-72671401D01*
X125674035Y-72477830D01*
X125773903Y-72263663D01*
X125835063Y-72035408D01*
X125855659Y-71800000D01*
X125835063Y-71564592D01*
X125773903Y-71336337D01*
X125674035Y-71122171D01*
X125631902Y-71061999D01*
X125538496Y-70928600D01*
X125478173Y-70868277D01*
X125416179Y-70806283D01*
X125382696Y-70744963D01*
X125387680Y-70675271D01*
X125429551Y-70619337D01*
X125460529Y-70602422D01*
X125592086Y-70553354D01*
X125592093Y-70553350D01*
X125707187Y-70467190D01*
X125707190Y-70467187D01*
X125793350Y-70352093D01*
X125793354Y-70352086D01*
X125843596Y-70217379D01*
X125843598Y-70217372D01*
X125849999Y-70157844D01*
X125850000Y-70157827D01*
X125850000Y-69510000D01*
X124933012Y-69510000D01*
X124938786Y-69500000D01*
X165094540Y-69500000D01*
X165114326Y-69688256D01*
X165114327Y-69688259D01*
X165172818Y-69868277D01*
X165172820Y-69868281D01*
X165172821Y-69868284D01*
X165267467Y-70032216D01*
X165357059Y-70131718D01*
X165394129Y-70172888D01*
X165547265Y-70284148D01*
X165547270Y-70284151D01*
X165720192Y-70361142D01*
X165720197Y-70361144D01*
X165905354Y-70400500D01*
X165905355Y-70400500D01*
X166094644Y-70400500D01*
X166094646Y-70400500D01*
X166279803Y-70361144D01*
X166452730Y-70284151D01*
X166605871Y-70172888D01*
X166732533Y-70032216D01*
X166827179Y-69868284D01*
X166885674Y-69688256D01*
X166905460Y-69500000D01*
X166885674Y-69311744D01*
X166827179Y-69131716D01*
X166732533Y-68967784D01*
X166605871Y-68827112D01*
X166605870Y-68827111D01*
X166452734Y-68715851D01*
X166452729Y-68715848D01*
X166279807Y-68638857D01*
X166279802Y-68638855D01*
X166134001Y-68607865D01*
X166094646Y-68599500D01*
X165905354Y-68599500D01*
X165872897Y-68606398D01*
X165720197Y-68638855D01*
X165720192Y-68638857D01*
X165547270Y-68715848D01*
X165547265Y-68715851D01*
X165394129Y-68827111D01*
X165267466Y-68967785D01*
X165172821Y-69131715D01*
X165172818Y-69131722D01*
X165117931Y-69300648D01*
X165114326Y-69311744D01*
X165094540Y-69500000D01*
X124938786Y-69500000D01*
X124965925Y-69452993D01*
X125000000Y-69325826D01*
X125000000Y-69194174D01*
X124965925Y-69067007D01*
X124933012Y-69010000D01*
X125850000Y-69010000D01*
X125850000Y-68362172D01*
X125849999Y-68362155D01*
X125843598Y-68302627D01*
X125843596Y-68302620D01*
X125793354Y-68167913D01*
X125793350Y-68167906D01*
X125707190Y-68052812D01*
X125707187Y-68052809D01*
X125592093Y-67966649D01*
X125592086Y-67966645D01*
X125457379Y-67916403D01*
X125457372Y-67916401D01*
X125397844Y-67910000D01*
X124750000Y-67910000D01*
X124750000Y-68826988D01*
X124692993Y-68794075D01*
X124565826Y-68760000D01*
X124434174Y-68760000D01*
X124307007Y-68794075D01*
X124250000Y-68826988D01*
X124250000Y-67910000D01*
X123602155Y-67910000D01*
X123542627Y-67916401D01*
X123542620Y-67916403D01*
X123407913Y-67966645D01*
X123407906Y-67966649D01*
X123292812Y-68052809D01*
X123292809Y-68052812D01*
X123206649Y-68167906D01*
X123206645Y-68167913D01*
X123156403Y-68302620D01*
X123156401Y-68302627D01*
X123150000Y-68362155D01*
X123150000Y-69010000D01*
X124066988Y-69010000D01*
X124034075Y-69067007D01*
X124000000Y-69194174D01*
X124000000Y-69325826D01*
X124034075Y-69452993D01*
X124066988Y-69510000D01*
X123150000Y-69510000D01*
X123150000Y-70157844D01*
X123156401Y-70217372D01*
X123156403Y-70217379D01*
X123206645Y-70352086D01*
X123206649Y-70352093D01*
X123292809Y-70467187D01*
X123292812Y-70467190D01*
X123407906Y-70553350D01*
X123407913Y-70553354D01*
X123539470Y-70602421D01*
X123595403Y-70644292D01*
X123619821Y-70709756D01*
X123604970Y-70778029D01*
X123583819Y-70806284D01*
X123461503Y-70928600D01*
X123325965Y-71122169D01*
X123325964Y-71122171D01*
X123226098Y-71336335D01*
X123226094Y-71336344D01*
X123164938Y-71564586D01*
X123164936Y-71564596D01*
X123144341Y-71799999D01*
X115607360Y-71799999D01*
X115725777Y-71630882D01*
X115824772Y-71418586D01*
X115885398Y-71192326D01*
X115905814Y-70958975D01*
X115903156Y-70928600D01*
X115885398Y-70725628D01*
X115885398Y-70725624D01*
X115831935Y-70526097D01*
X115824774Y-70499371D01*
X115824773Y-70499370D01*
X115824772Y-70499364D01*
X115725777Y-70287068D01*
X115591421Y-70095188D01*
X115425787Y-69929554D01*
X115233907Y-69795198D01*
X115233905Y-69795197D01*
X115229472Y-69792093D01*
X115230481Y-69790651D01*
X115187712Y-69745803D01*
X115174484Y-69677197D01*
X115200447Y-69612330D01*
X115230048Y-69586680D01*
X115229472Y-69585857D01*
X115233905Y-69582752D01*
X115233907Y-69582752D01*
X115425787Y-69448396D01*
X115591421Y-69282762D01*
X115725777Y-69090882D01*
X115824772Y-68878586D01*
X115885398Y-68652326D01*
X115905814Y-68418975D01*
X115885398Y-68185624D01*
X115824772Y-67959364D01*
X115725777Y-67747068D01*
X115591421Y-67555188D01*
X115425787Y-67389554D01*
X115233907Y-67255198D01*
X115233905Y-67255197D01*
X115229472Y-67252093D01*
X115230481Y-67250651D01*
X115187712Y-67205803D01*
X115174484Y-67137197D01*
X115200447Y-67072330D01*
X115230048Y-67046680D01*
X115229472Y-67045857D01*
X115233905Y-67042752D01*
X115233907Y-67042752D01*
X115425787Y-66908396D01*
X115591421Y-66742762D01*
X115725777Y-66550882D01*
X115824772Y-66338586D01*
X115885398Y-66112326D01*
X115905814Y-65878975D01*
X115885398Y-65645624D01*
X115824772Y-65419364D01*
X115725777Y-65207068D01*
X115591421Y-65015188D01*
X115425787Y-64849554D01*
X115233907Y-64715198D01*
X115233905Y-64715197D01*
X115229472Y-64712093D01*
X115230481Y-64710651D01*
X115187712Y-64665803D01*
X115174484Y-64597197D01*
X115200447Y-64532330D01*
X115230048Y-64506680D01*
X115229472Y-64505857D01*
X115233905Y-64502752D01*
X115233907Y-64502752D01*
X115237837Y-64500000D01*
X168594540Y-64500000D01*
X168614326Y-64688256D01*
X168614327Y-64688259D01*
X168672818Y-64868277D01*
X168672820Y-64868281D01*
X168672821Y-64868284D01*
X168713072Y-64938001D01*
X168729543Y-65005901D01*
X168713072Y-65061999D01*
X168672820Y-65131718D01*
X168672818Y-65131722D01*
X168614327Y-65311740D01*
X168614326Y-65311744D01*
X168594540Y-65500000D01*
X168614326Y-65688256D01*
X168614327Y-65688259D01*
X168672818Y-65868277D01*
X168672820Y-65868281D01*
X168672821Y-65868284D01*
X168713071Y-65937999D01*
X168713072Y-65938001D01*
X168729543Y-66005901D01*
X168713072Y-66061999D01*
X168672820Y-66131718D01*
X168672818Y-66131722D01*
X168617931Y-66300648D01*
X168614326Y-66311744D01*
X168594540Y-66500000D01*
X168614326Y-66688256D01*
X168614327Y-66688259D01*
X168672818Y-66868277D01*
X168672820Y-66868281D01*
X168672821Y-66868284D01*
X168672823Y-66868287D01*
X168713072Y-66938001D01*
X168729543Y-67005901D01*
X168713072Y-67061999D01*
X168672820Y-67131718D01*
X168672818Y-67131722D01*
X168617931Y-67300648D01*
X168614326Y-67311744D01*
X168594540Y-67500000D01*
X168614326Y-67688256D01*
X168614327Y-67688259D01*
X168672818Y-67868277D01*
X168672820Y-67868281D01*
X168672821Y-67868284D01*
X168713071Y-67937999D01*
X168713072Y-67938001D01*
X168729543Y-68005901D01*
X168713072Y-68061999D01*
X168672820Y-68131718D01*
X168672818Y-68131722D01*
X168617288Y-68302627D01*
X168614326Y-68311744D01*
X168594540Y-68500000D01*
X168614326Y-68688256D01*
X168614327Y-68688259D01*
X168672818Y-68868277D01*
X168672820Y-68868281D01*
X168672821Y-68868284D01*
X168767467Y-69032216D01*
X168857059Y-69131718D01*
X168894129Y-69172888D01*
X169047265Y-69284148D01*
X169047270Y-69284151D01*
X169220192Y-69361142D01*
X169220197Y-69361144D01*
X169405354Y-69400500D01*
X169405355Y-69400500D01*
X169594644Y-69400500D01*
X169594646Y-69400500D01*
X169779803Y-69361144D01*
X169952730Y-69284151D01*
X170105871Y-69172888D01*
X170232533Y-69032216D01*
X170327179Y-68868284D01*
X170385674Y-68688256D01*
X170404247Y-68511536D01*
X170430832Y-68446924D01*
X170488129Y-68406939D01*
X170527568Y-68400500D01*
X170594644Y-68400500D01*
X170594646Y-68400500D01*
X170779803Y-68361144D01*
X170949566Y-68285559D01*
X171018813Y-68276275D01*
X171050430Y-68285557D01*
X171220197Y-68361144D01*
X171405354Y-68400500D01*
X171405355Y-68400500D01*
X171594644Y-68400500D01*
X171594646Y-68400500D01*
X171779803Y-68361144D01*
X171949566Y-68285559D01*
X172018813Y-68276275D01*
X172050430Y-68285557D01*
X172220197Y-68361144D01*
X172405354Y-68400500D01*
X172405355Y-68400500D01*
X172594644Y-68400500D01*
X172594646Y-68400500D01*
X172779803Y-68361144D01*
X172949566Y-68285559D01*
X173018813Y-68276275D01*
X173050430Y-68285557D01*
X173220197Y-68361144D01*
X173405354Y-68400500D01*
X173405355Y-68400500D01*
X173594644Y-68400500D01*
X173594646Y-68400500D01*
X173779803Y-68361144D01*
X173949566Y-68285559D01*
X174018813Y-68276275D01*
X174050430Y-68285557D01*
X174220197Y-68361144D01*
X174405354Y-68400500D01*
X174405355Y-68400500D01*
X174594644Y-68400500D01*
X174594646Y-68400500D01*
X174779803Y-68361144D01*
X174949566Y-68285559D01*
X175018813Y-68276275D01*
X175050430Y-68285557D01*
X175220197Y-68361144D01*
X175405354Y-68400500D01*
X175405355Y-68400500D01*
X175594644Y-68400500D01*
X175594646Y-68400500D01*
X175779803Y-68361144D01*
X175949566Y-68285559D01*
X176018813Y-68276275D01*
X176050430Y-68285557D01*
X176220197Y-68361144D01*
X176405354Y-68400500D01*
X176405355Y-68400500D01*
X176594644Y-68400500D01*
X176594646Y-68400500D01*
X176779803Y-68361144D01*
X176949566Y-68285559D01*
X177018813Y-68276275D01*
X177050430Y-68285557D01*
X177220197Y-68361144D01*
X177405354Y-68400500D01*
X177405355Y-68400500D01*
X177594644Y-68400500D01*
X177594646Y-68400500D01*
X177779803Y-68361144D01*
X177949566Y-68285559D01*
X178018813Y-68276275D01*
X178050430Y-68285557D01*
X178220197Y-68361144D01*
X178405354Y-68400500D01*
X178405355Y-68400500D01*
X178594644Y-68400500D01*
X178594646Y-68400500D01*
X178779803Y-68361144D01*
X178949566Y-68285559D01*
X179018813Y-68276275D01*
X179050430Y-68285557D01*
X179220197Y-68361144D01*
X179405354Y-68400500D01*
X179405355Y-68400500D01*
X179472432Y-68400500D01*
X179539471Y-68420185D01*
X179585226Y-68472989D01*
X179595752Y-68511535D01*
X179614326Y-68688256D01*
X179614327Y-68688259D01*
X179672818Y-68868277D01*
X179672820Y-68868281D01*
X179672821Y-68868284D01*
X179713071Y-68937999D01*
X179713072Y-68938001D01*
X179729543Y-69005901D01*
X179713072Y-69061998D01*
X179696397Y-69090882D01*
X179672820Y-69131718D01*
X179672818Y-69131722D01*
X179617931Y-69300648D01*
X179614326Y-69311744D01*
X179594540Y-69500000D01*
X179614326Y-69688256D01*
X179614327Y-69688259D01*
X179672818Y-69868277D01*
X179672820Y-69868281D01*
X179672821Y-69868284D01*
X179713071Y-69937999D01*
X179713072Y-69938001D01*
X179729543Y-70005901D01*
X179713072Y-70061999D01*
X179672820Y-70131718D01*
X179672818Y-70131722D01*
X179617931Y-70300648D01*
X179614326Y-70311744D01*
X179594540Y-70500000D01*
X179614326Y-70688256D01*
X179614327Y-70688259D01*
X179672818Y-70868277D01*
X179672820Y-70868281D01*
X179672821Y-70868284D01*
X179672823Y-70868287D01*
X179713072Y-70938001D01*
X179729543Y-71005901D01*
X179713072Y-71061999D01*
X179672820Y-71131718D01*
X179672818Y-71131722D01*
X179617931Y-71300648D01*
X179614326Y-71311744D01*
X179594540Y-71500000D01*
X179614326Y-71688256D01*
X179614327Y-71688259D01*
X179672818Y-71868277D01*
X179672820Y-71868281D01*
X179672821Y-71868284D01*
X179672823Y-71868287D01*
X179713072Y-71938001D01*
X179729543Y-72005901D01*
X179713072Y-72061999D01*
X179672820Y-72131718D01*
X179672818Y-72131722D01*
X179617931Y-72300648D01*
X179614326Y-72311744D01*
X179594540Y-72500000D01*
X179614326Y-72688256D01*
X179614327Y-72688259D01*
X179672818Y-72868277D01*
X179672820Y-72868281D01*
X179672821Y-72868284D01*
X179672823Y-72868287D01*
X179713072Y-72938001D01*
X179729543Y-73005901D01*
X179713072Y-73061998D01*
X179681319Y-73116998D01*
X179672820Y-73131718D01*
X179672818Y-73131722D01*
X179614327Y-73311740D01*
X179614326Y-73311744D01*
X179594540Y-73500000D01*
X179614326Y-73688256D01*
X179614327Y-73688259D01*
X179672818Y-73868277D01*
X179672820Y-73868281D01*
X179672821Y-73868284D01*
X179713071Y-73937999D01*
X179713072Y-73938001D01*
X179729543Y-74005901D01*
X179713072Y-74061998D01*
X179688485Y-74104586D01*
X179672820Y-74131718D01*
X179672818Y-74131722D01*
X179617931Y-74300648D01*
X179614326Y-74311744D01*
X179594540Y-74500000D01*
X179614326Y-74688256D01*
X179614327Y-74688259D01*
X179672818Y-74868277D01*
X179672820Y-74868281D01*
X179672821Y-74868284D01*
X179676813Y-74875198D01*
X179713072Y-74938001D01*
X179729543Y-75005901D01*
X179713072Y-75061999D01*
X179672820Y-75131718D01*
X179672818Y-75131722D01*
X179617931Y-75300648D01*
X179614326Y-75311744D01*
X179594540Y-75500000D01*
X179614326Y-75688256D01*
X179614327Y-75688259D01*
X179672818Y-75868277D01*
X179672820Y-75868281D01*
X179672821Y-75868284D01*
X179672823Y-75868287D01*
X179713072Y-75938001D01*
X179729543Y-76005901D01*
X179713072Y-76061999D01*
X179672820Y-76131718D01*
X179672818Y-76131722D01*
X179620593Y-76292455D01*
X179614326Y-76311744D01*
X179594540Y-76500000D01*
X179614326Y-76688256D01*
X179614327Y-76688259D01*
X179672818Y-76868277D01*
X179672820Y-76868281D01*
X179672821Y-76868284D01*
X179692727Y-76902762D01*
X179713072Y-76938001D01*
X179729543Y-77005901D01*
X179713072Y-77061998D01*
X179682237Y-77115408D01*
X179672820Y-77131718D01*
X179672818Y-77131722D01*
X179614327Y-77311740D01*
X179614326Y-77311744D01*
X179594540Y-77500000D01*
X179614326Y-77688256D01*
X179614327Y-77688259D01*
X179672818Y-77868277D01*
X179672820Y-77868281D01*
X179672821Y-77868284D01*
X179695213Y-77907068D01*
X179713072Y-77938001D01*
X179729543Y-78005901D01*
X179713072Y-78061998D01*
X179679953Y-78119364D01*
X179672820Y-78131718D01*
X179672818Y-78131722D01*
X179633876Y-78251575D01*
X179614326Y-78311744D01*
X179594540Y-78500000D01*
X179614326Y-78688256D01*
X179614327Y-78688259D01*
X179672818Y-78868277D01*
X179672820Y-78868281D01*
X179672821Y-78868284D01*
X179672823Y-78868287D01*
X179713072Y-78938001D01*
X179729543Y-79005901D01*
X179713072Y-79061999D01*
X179672820Y-79131718D01*
X179672818Y-79131722D01*
X179634101Y-79250882D01*
X179614326Y-79311744D01*
X179594540Y-79500000D01*
X179614326Y-79688256D01*
X179614327Y-79688259D01*
X179672818Y-79868277D01*
X179672820Y-79868281D01*
X179672821Y-79868284D01*
X179713071Y-79937999D01*
X179713072Y-79938001D01*
X179729543Y-80005901D01*
X179713072Y-80061999D01*
X179672820Y-80131718D01*
X179672818Y-80131722D01*
X179617931Y-80300648D01*
X179614326Y-80311744D01*
X179594540Y-80500000D01*
X179614326Y-80688256D01*
X179614327Y-80688259D01*
X179672818Y-80868277D01*
X179672820Y-80868281D01*
X179672821Y-80868284D01*
X179682835Y-80885628D01*
X179713072Y-80938001D01*
X179729543Y-81005901D01*
X179713072Y-81061999D01*
X179672820Y-81131718D01*
X179672818Y-81131722D01*
X179617931Y-81300648D01*
X179614326Y-81311744D01*
X179594540Y-81500000D01*
X179614326Y-81688256D01*
X179614327Y-81688259D01*
X179672818Y-81868277D01*
X179672820Y-81868281D01*
X179672821Y-81868284D01*
X179672823Y-81868287D01*
X179713072Y-81938001D01*
X179729543Y-82005901D01*
X179713072Y-82061999D01*
X179672820Y-82131718D01*
X179672818Y-82131722D01*
X179622270Y-82287294D01*
X179614326Y-82311744D01*
X179594540Y-82500000D01*
X179614326Y-82688256D01*
X179614327Y-82688259D01*
X179672818Y-82868277D01*
X179672820Y-82868281D01*
X179672821Y-82868284D01*
X179672823Y-82868287D01*
X179713072Y-82938001D01*
X179729543Y-83005901D01*
X179713072Y-83061999D01*
X179672820Y-83131718D01*
X179672818Y-83131722D01*
X179617931Y-83300648D01*
X179614326Y-83311744D01*
X179598586Y-83461505D01*
X179595753Y-83488462D01*
X179569168Y-83553076D01*
X179511871Y-83593061D01*
X179472432Y-83599500D01*
X179405354Y-83599500D01*
X179372897Y-83606398D01*
X179220197Y-83638855D01*
X179220192Y-83638857D01*
X179050436Y-83714439D01*
X178981186Y-83723724D01*
X178949564Y-83714439D01*
X178779807Y-83638857D01*
X178779802Y-83638855D01*
X178634001Y-83607865D01*
X178594646Y-83599500D01*
X178405354Y-83599500D01*
X178372897Y-83606398D01*
X178220197Y-83638855D01*
X178220192Y-83638857D01*
X178050436Y-83714439D01*
X177981186Y-83723724D01*
X177949564Y-83714439D01*
X177779807Y-83638857D01*
X177779802Y-83638855D01*
X177634001Y-83607865D01*
X177594646Y-83599500D01*
X177405354Y-83599500D01*
X177372897Y-83606398D01*
X177220197Y-83638855D01*
X177220192Y-83638857D01*
X177050436Y-83714439D01*
X176981186Y-83723724D01*
X176949564Y-83714439D01*
X176779807Y-83638857D01*
X176779802Y-83638855D01*
X176634001Y-83607865D01*
X176594646Y-83599500D01*
X176405354Y-83599500D01*
X176372897Y-83606398D01*
X176220197Y-83638855D01*
X176220192Y-83638857D01*
X176050436Y-83714439D01*
X175981186Y-83723724D01*
X175949564Y-83714439D01*
X175779807Y-83638857D01*
X175779802Y-83638855D01*
X175634001Y-83607865D01*
X175594646Y-83599500D01*
X175405354Y-83599500D01*
X175372897Y-83606398D01*
X175220197Y-83638855D01*
X175220192Y-83638857D01*
X175050436Y-83714439D01*
X174981186Y-83723724D01*
X174949564Y-83714439D01*
X174779807Y-83638857D01*
X174779802Y-83638855D01*
X174634001Y-83607865D01*
X174594646Y-83599500D01*
X174405354Y-83599500D01*
X174372897Y-83606398D01*
X174220197Y-83638855D01*
X174220192Y-83638857D01*
X174047270Y-83715848D01*
X174047265Y-83715851D01*
X173894129Y-83827111D01*
X173767466Y-83967785D01*
X173672821Y-84131715D01*
X173672818Y-84131722D01*
X173629645Y-84264596D01*
X173614326Y-84311744D01*
X173606572Y-84385522D01*
X173595753Y-84488462D01*
X173569168Y-84553076D01*
X173511871Y-84593061D01*
X173472432Y-84599500D01*
X173405354Y-84599500D01*
X173372897Y-84606398D01*
X173220197Y-84638855D01*
X173220192Y-84638857D01*
X173050436Y-84714439D01*
X172981186Y-84723724D01*
X172949564Y-84714439D01*
X172779807Y-84638857D01*
X172779802Y-84638855D01*
X172634001Y-84607865D01*
X172594646Y-84599500D01*
X172405354Y-84599500D01*
X172372897Y-84606398D01*
X172220197Y-84638855D01*
X172220192Y-84638857D01*
X172050436Y-84714439D01*
X171981186Y-84723724D01*
X171949564Y-84714439D01*
X171779807Y-84638857D01*
X171779802Y-84638855D01*
X171634001Y-84607865D01*
X171594646Y-84599500D01*
X171405354Y-84599500D01*
X171372897Y-84606398D01*
X171220197Y-84638855D01*
X171220192Y-84638857D01*
X171050436Y-84714439D01*
X170981186Y-84723724D01*
X170949564Y-84714439D01*
X170779807Y-84638857D01*
X170779802Y-84638855D01*
X170634001Y-84607865D01*
X170594646Y-84599500D01*
X170405354Y-84599500D01*
X170372897Y-84606398D01*
X170220197Y-84638855D01*
X170220192Y-84638857D01*
X170050436Y-84714439D01*
X169981186Y-84723724D01*
X169949564Y-84714439D01*
X169779807Y-84638857D01*
X169779802Y-84638855D01*
X169634001Y-84607865D01*
X169594646Y-84599500D01*
X169405354Y-84599500D01*
X169372897Y-84606398D01*
X169220197Y-84638855D01*
X169220192Y-84638857D01*
X169047270Y-84715848D01*
X169047265Y-84715851D01*
X168894129Y-84827111D01*
X168767466Y-84967785D01*
X168672821Y-85131715D01*
X168672818Y-85131722D01*
X168617931Y-85300648D01*
X168614326Y-85311744D01*
X168594540Y-85500000D01*
X168614326Y-85688256D01*
X168614327Y-85688259D01*
X168672818Y-85868277D01*
X168672820Y-85868281D01*
X168672821Y-85868284D01*
X168713071Y-85937999D01*
X168713072Y-85938001D01*
X168729543Y-86005901D01*
X168713072Y-86061999D01*
X168672820Y-86131718D01*
X168672818Y-86131722D01*
X168614327Y-86311740D01*
X168614326Y-86311744D01*
X168594540Y-86500000D01*
X168614326Y-86688256D01*
X168614327Y-86688259D01*
X168672818Y-86868277D01*
X168672820Y-86868281D01*
X168672821Y-86868284D01*
X168713072Y-86938001D01*
X168729543Y-87005901D01*
X168713072Y-87061999D01*
X168672820Y-87131718D01*
X168672818Y-87131722D01*
X168614327Y-87311740D01*
X168614326Y-87311744D01*
X168594540Y-87500000D01*
X168614326Y-87688256D01*
X168614327Y-87688259D01*
X168672818Y-87868277D01*
X168672821Y-87868284D01*
X168767467Y-88032216D01*
X168809137Y-88078495D01*
X168894129Y-88172888D01*
X169047265Y-88284148D01*
X169047270Y-88284151D01*
X169220192Y-88361142D01*
X169220197Y-88361144D01*
X169405354Y-88400500D01*
X169405355Y-88400500D01*
X169594644Y-88400500D01*
X169594646Y-88400500D01*
X169779803Y-88361144D01*
X169949566Y-88285559D01*
X170018813Y-88276275D01*
X170050430Y-88285557D01*
X170220197Y-88361144D01*
X170405354Y-88400500D01*
X170405355Y-88400500D01*
X170594644Y-88400500D01*
X170594646Y-88400500D01*
X170779803Y-88361144D01*
X170949566Y-88285559D01*
X171018813Y-88276275D01*
X171050430Y-88285557D01*
X171220197Y-88361144D01*
X171405354Y-88400500D01*
X171405355Y-88400500D01*
X171594644Y-88400500D01*
X171594646Y-88400500D01*
X171779803Y-88361144D01*
X171949566Y-88285559D01*
X172018813Y-88276275D01*
X172050430Y-88285557D01*
X172220197Y-88361144D01*
X172405354Y-88400500D01*
X172405355Y-88400500D01*
X172594644Y-88400500D01*
X172594646Y-88400500D01*
X172779803Y-88361144D01*
X172949566Y-88285559D01*
X173018813Y-88276275D01*
X173050430Y-88285557D01*
X173220197Y-88361144D01*
X173405354Y-88400500D01*
X173405355Y-88400500D01*
X173594644Y-88400500D01*
X173594646Y-88400500D01*
X173779803Y-88361144D01*
X173949566Y-88285559D01*
X174018813Y-88276275D01*
X174050430Y-88285557D01*
X174220197Y-88361144D01*
X174405354Y-88400500D01*
X174405355Y-88400500D01*
X174594644Y-88400500D01*
X174594646Y-88400500D01*
X174779803Y-88361144D01*
X174949566Y-88285559D01*
X175018813Y-88276275D01*
X175050430Y-88285557D01*
X175220197Y-88361144D01*
X175405354Y-88400500D01*
X175405355Y-88400500D01*
X175594644Y-88400500D01*
X175594646Y-88400500D01*
X175779803Y-88361144D01*
X175949566Y-88285559D01*
X176018813Y-88276275D01*
X176050430Y-88285557D01*
X176220197Y-88361144D01*
X176405354Y-88400500D01*
X176405355Y-88400500D01*
X176594644Y-88400500D01*
X176594646Y-88400500D01*
X176779803Y-88361144D01*
X176949566Y-88285559D01*
X177018813Y-88276275D01*
X177050430Y-88285557D01*
X177220197Y-88361144D01*
X177405354Y-88400500D01*
X177405355Y-88400500D01*
X177594644Y-88400500D01*
X177594646Y-88400500D01*
X177779803Y-88361144D01*
X177949566Y-88285559D01*
X178018813Y-88276275D01*
X178050430Y-88285557D01*
X178220197Y-88361144D01*
X178405354Y-88400500D01*
X178405355Y-88400500D01*
X178594644Y-88400500D01*
X178594646Y-88400500D01*
X178779803Y-88361144D01*
X178949566Y-88285559D01*
X179018813Y-88276275D01*
X179050430Y-88285557D01*
X179220197Y-88361144D01*
X179405354Y-88400500D01*
X179405355Y-88400500D01*
X179594644Y-88400500D01*
X179594646Y-88400500D01*
X179779803Y-88361144D01*
X179949566Y-88285559D01*
X180018813Y-88276275D01*
X180050430Y-88285557D01*
X180220197Y-88361144D01*
X180405354Y-88400500D01*
X180405355Y-88400500D01*
X180594644Y-88400500D01*
X180594646Y-88400500D01*
X180779803Y-88361144D01*
X180952730Y-88284151D01*
X181105871Y-88172888D01*
X181232533Y-88032216D01*
X181274112Y-87960197D01*
X181324676Y-87911984D01*
X181393283Y-87898760D01*
X181403006Y-87900253D01*
X181405353Y-87900500D01*
X181405354Y-87900500D01*
X181594644Y-87900500D01*
X181594646Y-87900500D01*
X181779803Y-87861144D01*
X181952730Y-87784151D01*
X182105871Y-87672888D01*
X182232533Y-87532216D01*
X182274112Y-87460197D01*
X182324676Y-87411984D01*
X182393283Y-87398760D01*
X182403006Y-87400253D01*
X182405353Y-87400500D01*
X182405354Y-87400500D01*
X182594644Y-87400500D01*
X182594646Y-87400500D01*
X182779803Y-87361144D01*
X182952730Y-87284151D01*
X183105871Y-87172888D01*
X183232533Y-87032216D01*
X183327179Y-86868284D01*
X183385674Y-86688256D01*
X183405460Y-86500000D01*
X183385674Y-86311744D01*
X183327179Y-86131716D01*
X183286927Y-86061999D01*
X183270454Y-85994101D01*
X183286927Y-85938001D01*
X183327179Y-85868284D01*
X183382069Y-85699351D01*
X183421506Y-85641675D01*
X183485865Y-85614477D01*
X183554711Y-85626392D01*
X183606187Y-85673636D01*
X183617931Y-85699351D01*
X183672818Y-85868277D01*
X183672820Y-85868281D01*
X183672821Y-85868284D01*
X183767467Y-86032216D01*
X183857059Y-86131718D01*
X183894129Y-86172888D01*
X184047265Y-86284148D01*
X184047270Y-86284151D01*
X184220192Y-86361142D01*
X184220197Y-86361144D01*
X184405354Y-86400500D01*
X184405355Y-86400500D01*
X184594644Y-86400500D01*
X184594646Y-86400500D01*
X184779803Y-86361144D01*
X184952730Y-86284151D01*
X185105871Y-86172888D01*
X185232533Y-86032216D01*
X185327179Y-85868284D01*
X185385674Y-85688256D01*
X185405460Y-85500000D01*
X185385674Y-85311744D01*
X185327179Y-85131716D01*
X185286927Y-85061999D01*
X185270454Y-84994101D01*
X185286927Y-84938001D01*
X185327179Y-84868284D01*
X185385674Y-84688256D01*
X185405460Y-84500000D01*
X185385674Y-84311744D01*
X185327179Y-84131716D01*
X185286927Y-84061999D01*
X185270454Y-83994101D01*
X185286927Y-83938001D01*
X185327179Y-83868284D01*
X185385674Y-83688256D01*
X185405460Y-83500000D01*
X185385674Y-83311744D01*
X185331112Y-83143823D01*
X185327181Y-83131722D01*
X185327180Y-83131721D01*
X185327179Y-83131716D01*
X185286927Y-83061999D01*
X185270454Y-82994101D01*
X185286927Y-82938001D01*
X185327179Y-82868284D01*
X185385674Y-82688256D01*
X185405460Y-82500000D01*
X185385674Y-82311744D01*
X185327179Y-82131716D01*
X185286927Y-82061999D01*
X185270454Y-81994101D01*
X185286927Y-81938001D01*
X185327179Y-81868284D01*
X185385674Y-81688256D01*
X185405460Y-81500000D01*
X185385674Y-81311744D01*
X185327179Y-81131716D01*
X185286927Y-81061999D01*
X185270454Y-80994101D01*
X185286927Y-80938001D01*
X185327179Y-80868284D01*
X185385674Y-80688256D01*
X185405460Y-80500000D01*
X185385674Y-80311744D01*
X185327179Y-80131716D01*
X185286927Y-80061999D01*
X185270454Y-79994101D01*
X185286927Y-79938001D01*
X185327179Y-79868284D01*
X185385674Y-79688256D01*
X185405460Y-79500000D01*
X185385674Y-79311744D01*
X185327179Y-79131716D01*
X185286927Y-79061999D01*
X185270454Y-78994101D01*
X185286927Y-78938001D01*
X185327179Y-78868284D01*
X185385674Y-78688256D01*
X185405460Y-78500000D01*
X185385674Y-78311744D01*
X185327179Y-78131716D01*
X185286927Y-78061999D01*
X185270454Y-77994101D01*
X185286927Y-77938001D01*
X185327179Y-77868284D01*
X185385674Y-77688256D01*
X185405460Y-77500000D01*
X185385674Y-77311744D01*
X185327179Y-77131716D01*
X185317763Y-77115408D01*
X185314039Y-77108958D01*
X185286927Y-77061999D01*
X185270454Y-76994101D01*
X185286927Y-76938001D01*
X185327179Y-76868284D01*
X185385674Y-76688256D01*
X185405460Y-76500000D01*
X185385674Y-76311744D01*
X185327179Y-76131716D01*
X185286927Y-76061999D01*
X185270454Y-75994101D01*
X185286927Y-75938001D01*
X185327179Y-75868284D01*
X185385674Y-75688256D01*
X185405460Y-75500000D01*
X185385674Y-75311744D01*
X185327179Y-75131716D01*
X185286927Y-75061999D01*
X185270454Y-74994101D01*
X185286927Y-74938001D01*
X185327179Y-74868284D01*
X185385674Y-74688256D01*
X185405460Y-74500000D01*
X185385674Y-74311744D01*
X185327179Y-74131716D01*
X185286927Y-74061999D01*
X185270454Y-73994101D01*
X185286927Y-73938001D01*
X185327179Y-73868284D01*
X185385674Y-73688256D01*
X185405460Y-73500000D01*
X185385674Y-73311744D01*
X185327179Y-73131716D01*
X185318681Y-73116998D01*
X185304537Y-73092500D01*
X185286927Y-73061999D01*
X185270454Y-72994101D01*
X185286927Y-72938001D01*
X185327179Y-72868284D01*
X185385674Y-72688256D01*
X185405460Y-72500000D01*
X185385674Y-72311744D01*
X185327179Y-72131716D01*
X185324271Y-72126680D01*
X185314039Y-72108958D01*
X185286927Y-72061999D01*
X185270454Y-71994101D01*
X185286927Y-71938001D01*
X185327179Y-71868284D01*
X185385674Y-71688256D01*
X185405460Y-71500000D01*
X185385674Y-71311744D01*
X185327179Y-71131716D01*
X185286927Y-71061999D01*
X185270454Y-70994101D01*
X185286927Y-70938001D01*
X185327179Y-70868284D01*
X185385674Y-70688256D01*
X185405460Y-70500000D01*
X185385674Y-70311744D01*
X185327179Y-70131716D01*
X185286927Y-70061999D01*
X185270454Y-69994101D01*
X185286927Y-69938001D01*
X185327179Y-69868284D01*
X185385674Y-69688256D01*
X185405460Y-69500000D01*
X185385674Y-69311744D01*
X185327179Y-69131716D01*
X185286927Y-69061999D01*
X185270454Y-68994101D01*
X185286927Y-68938001D01*
X185327179Y-68868284D01*
X185385674Y-68688256D01*
X185405460Y-68500000D01*
X185385674Y-68311744D01*
X185327179Y-68131716D01*
X185286927Y-68061999D01*
X185270454Y-67994101D01*
X185286927Y-67938001D01*
X185327179Y-67868284D01*
X185385674Y-67688256D01*
X185405460Y-67500000D01*
X185385674Y-67311744D01*
X185327179Y-67131716D01*
X185286927Y-67061999D01*
X185270454Y-66994101D01*
X185286927Y-66938001D01*
X185327179Y-66868284D01*
X185385674Y-66688256D01*
X185405460Y-66500000D01*
X185385674Y-66311744D01*
X185327179Y-66131716D01*
X185232533Y-65967784D01*
X185105871Y-65827112D01*
X185105870Y-65827111D01*
X184952734Y-65715851D01*
X184952729Y-65715848D01*
X184779807Y-65638857D01*
X184779802Y-65638855D01*
X184634001Y-65607865D01*
X184594646Y-65599500D01*
X184405354Y-65599500D01*
X184372897Y-65606398D01*
X184220197Y-65638855D01*
X184220192Y-65638857D01*
X184047270Y-65715848D01*
X184047265Y-65715851D01*
X183894129Y-65827111D01*
X183767466Y-65967785D01*
X183672821Y-66131715D01*
X183672818Y-66131722D01*
X183617931Y-66300648D01*
X183578493Y-66358324D01*
X183514135Y-66385522D01*
X183445288Y-66373607D01*
X183393813Y-66326363D01*
X183382069Y-66300648D01*
X183327181Y-66131722D01*
X183327180Y-66131721D01*
X183327179Y-66131716D01*
X183286927Y-66061999D01*
X183270454Y-65994101D01*
X183286927Y-65938001D01*
X183327179Y-65868284D01*
X183385674Y-65688256D01*
X183405460Y-65500000D01*
X183385674Y-65311744D01*
X183327179Y-65131716D01*
X183232533Y-64967784D01*
X183105871Y-64827112D01*
X183105870Y-64827111D01*
X182952734Y-64715851D01*
X182952729Y-64715848D01*
X182779807Y-64638857D01*
X182779802Y-64638855D01*
X182597840Y-64600179D01*
X182594646Y-64599500D01*
X182405354Y-64599500D01*
X182405349Y-64599500D01*
X182398886Y-64600179D01*
X182398703Y-64598440D01*
X182337586Y-64593763D01*
X182281862Y-64551613D01*
X182274111Y-64539799D01*
X182255344Y-64507294D01*
X182232533Y-64467784D01*
X182105871Y-64327112D01*
X182084719Y-64311744D01*
X181952734Y-64215851D01*
X181952729Y-64215848D01*
X181779807Y-64138857D01*
X181779802Y-64138855D01*
X181597840Y-64100179D01*
X181594646Y-64099500D01*
X181405354Y-64099500D01*
X181405349Y-64099500D01*
X181398886Y-64100179D01*
X181398703Y-64098440D01*
X181337586Y-64093763D01*
X181281862Y-64051613D01*
X181274111Y-64039799D01*
X181269416Y-64031667D01*
X181232533Y-63967784D01*
X181105871Y-63827112D01*
X181066610Y-63798587D01*
X180952734Y-63715851D01*
X180952729Y-63715848D01*
X180779807Y-63638857D01*
X180779802Y-63638855D01*
X180634001Y-63607865D01*
X180594646Y-63599500D01*
X180405354Y-63599500D01*
X180372897Y-63606398D01*
X180220197Y-63638855D01*
X180220192Y-63638857D01*
X180050436Y-63714439D01*
X179981186Y-63723724D01*
X179949564Y-63714439D01*
X179779807Y-63638857D01*
X179779802Y-63638855D01*
X179634001Y-63607865D01*
X179594646Y-63599500D01*
X179405354Y-63599500D01*
X179372897Y-63606398D01*
X179220197Y-63638855D01*
X179220192Y-63638857D01*
X179050436Y-63714439D01*
X178981186Y-63723724D01*
X178949564Y-63714439D01*
X178779807Y-63638857D01*
X178779802Y-63638855D01*
X178634001Y-63607865D01*
X178594646Y-63599500D01*
X178405354Y-63599500D01*
X178372897Y-63606398D01*
X178220197Y-63638855D01*
X178220192Y-63638857D01*
X178050436Y-63714439D01*
X177981186Y-63723724D01*
X177949564Y-63714439D01*
X177779807Y-63638857D01*
X177779802Y-63638855D01*
X177634001Y-63607865D01*
X177594646Y-63599500D01*
X177405354Y-63599500D01*
X177372897Y-63606398D01*
X177220197Y-63638855D01*
X177220192Y-63638857D01*
X177050436Y-63714439D01*
X176981186Y-63723724D01*
X176949564Y-63714439D01*
X176779807Y-63638857D01*
X176779802Y-63638855D01*
X176634001Y-63607865D01*
X176594646Y-63599500D01*
X176405354Y-63599500D01*
X176372897Y-63606398D01*
X176220197Y-63638855D01*
X176220192Y-63638857D01*
X176050436Y-63714439D01*
X175981186Y-63723724D01*
X175949564Y-63714439D01*
X175779807Y-63638857D01*
X175779802Y-63638855D01*
X175634001Y-63607865D01*
X175594646Y-63599500D01*
X175405354Y-63599500D01*
X175372897Y-63606398D01*
X175220197Y-63638855D01*
X175220192Y-63638857D01*
X175050436Y-63714439D01*
X174981186Y-63723724D01*
X174949564Y-63714439D01*
X174779807Y-63638857D01*
X174779802Y-63638855D01*
X174634001Y-63607865D01*
X174594646Y-63599500D01*
X174405354Y-63599500D01*
X174372897Y-63606398D01*
X174220197Y-63638855D01*
X174220192Y-63638857D01*
X174050436Y-63714439D01*
X173981186Y-63723724D01*
X173949564Y-63714439D01*
X173779807Y-63638857D01*
X173779802Y-63638855D01*
X173634001Y-63607865D01*
X173594646Y-63599500D01*
X173405354Y-63599500D01*
X173372897Y-63606398D01*
X173220197Y-63638855D01*
X173220192Y-63638857D01*
X173050436Y-63714439D01*
X172981186Y-63723724D01*
X172949564Y-63714439D01*
X172779807Y-63638857D01*
X172779802Y-63638855D01*
X172634001Y-63607865D01*
X172594646Y-63599500D01*
X172405354Y-63599500D01*
X172372897Y-63606398D01*
X172220197Y-63638855D01*
X172220192Y-63638857D01*
X172050436Y-63714439D01*
X171981186Y-63723724D01*
X171949564Y-63714439D01*
X171779807Y-63638857D01*
X171779802Y-63638855D01*
X171634001Y-63607865D01*
X171594646Y-63599500D01*
X171405354Y-63599500D01*
X171372897Y-63606398D01*
X171220197Y-63638855D01*
X171220192Y-63638857D01*
X171050436Y-63714439D01*
X170981186Y-63723724D01*
X170949564Y-63714439D01*
X170779807Y-63638857D01*
X170779802Y-63638855D01*
X170634001Y-63607865D01*
X170594646Y-63599500D01*
X170405354Y-63599500D01*
X170372897Y-63606398D01*
X170220197Y-63638855D01*
X170220192Y-63638857D01*
X170050436Y-63714439D01*
X169981186Y-63723724D01*
X169949564Y-63714439D01*
X169779807Y-63638857D01*
X169779802Y-63638855D01*
X169634001Y-63607865D01*
X169594646Y-63599500D01*
X169405354Y-63599500D01*
X169372897Y-63606398D01*
X169220197Y-63638855D01*
X169220192Y-63638857D01*
X169047270Y-63715848D01*
X169047265Y-63715851D01*
X168894129Y-63827111D01*
X168767466Y-63967785D01*
X168672821Y-64131715D01*
X168672818Y-64131722D01*
X168620157Y-64293797D01*
X168614326Y-64311744D01*
X168594540Y-64500000D01*
X115237837Y-64500000D01*
X115425787Y-64368396D01*
X115591421Y-64202762D01*
X115725777Y-64010882D01*
X115824772Y-63798586D01*
X115885398Y-63572326D01*
X115905814Y-63338975D01*
X115885398Y-63105624D01*
X115824772Y-62879364D01*
X115764448Y-62749999D01*
X123169364Y-62749999D01*
X123169364Y-62750000D01*
X124066988Y-62750000D01*
X124034075Y-62807007D01*
X124000000Y-62934174D01*
X124000000Y-63065826D01*
X124034075Y-63192993D01*
X124066988Y-63250000D01*
X123169364Y-63250000D01*
X123226567Y-63463486D01*
X123226570Y-63463492D01*
X123326399Y-63677578D01*
X123461894Y-63871082D01*
X123628917Y-64038105D01*
X123822421Y-64173600D01*
X124036507Y-64273429D01*
X124036516Y-64273433D01*
X124250000Y-64330634D01*
X124250000Y-63433012D01*
X124307007Y-63465925D01*
X124434174Y-63500000D01*
X124565826Y-63500000D01*
X124692993Y-63465925D01*
X124750000Y-63433012D01*
X124750000Y-64330633D01*
X124963483Y-64273433D01*
X124963492Y-64273429D01*
X125177578Y-64173600D01*
X125371078Y-64038108D01*
X125493133Y-63916053D01*
X125554456Y-63882568D01*
X125624148Y-63887552D01*
X125680082Y-63929423D01*
X125696997Y-63960401D01*
X125746202Y-64092328D01*
X125746206Y-64092335D01*
X125832452Y-64207544D01*
X125832455Y-64207547D01*
X125947664Y-64293793D01*
X125947671Y-64293797D01*
X126082517Y-64344091D01*
X126082516Y-64344091D01*
X126089444Y-64344835D01*
X126142127Y-64350500D01*
X127937872Y-64350499D01*
X127997483Y-64344091D01*
X128132331Y-64293796D01*
X128247546Y-64207546D01*
X128333796Y-64092331D01*
X128382810Y-63960916D01*
X128424681Y-63904984D01*
X128490145Y-63880566D01*
X128558418Y-63895417D01*
X128586673Y-63916569D01*
X128708599Y-64038495D01*
X128787530Y-64093763D01*
X128902165Y-64174032D01*
X128902167Y-64174033D01*
X128902170Y-64174035D01*
X129116337Y-64273903D01*
X129344592Y-64335063D01*
X129521034Y-64350500D01*
X129579999Y-64355659D01*
X129580000Y-64355659D01*
X129580001Y-64355659D01*
X129638966Y-64350500D01*
X129815408Y-64335063D01*
X130043663Y-64273903D01*
X130257830Y-64174035D01*
X130451401Y-64038495D01*
X130618495Y-63871401D01*
X130748425Y-63685842D01*
X130803002Y-63642217D01*
X130872500Y-63635023D01*
X130934855Y-63666546D01*
X130951575Y-63685842D01*
X131081500Y-63871395D01*
X131081505Y-63871401D01*
X131248599Y-64038495D01*
X131327530Y-64093763D01*
X131442165Y-64174032D01*
X131442167Y-64174033D01*
X131442170Y-64174035D01*
X131656337Y-64273903D01*
X131884592Y-64335063D01*
X132061034Y-64350500D01*
X132119999Y-64355659D01*
X132120000Y-64355659D01*
X132120001Y-64355659D01*
X132178966Y-64350500D01*
X132355408Y-64335063D01*
X132583663Y-64273903D01*
X132797830Y-64174035D01*
X132991401Y-64038495D01*
X133158495Y-63871401D01*
X133288425Y-63685842D01*
X133343002Y-63642217D01*
X133412500Y-63635023D01*
X133474855Y-63666546D01*
X133491575Y-63685842D01*
X133621500Y-63871395D01*
X133621505Y-63871401D01*
X133788599Y-64038495D01*
X133867530Y-64093763D01*
X133982165Y-64174032D01*
X133982167Y-64174033D01*
X133982170Y-64174035D01*
X134196337Y-64273903D01*
X134424592Y-64335063D01*
X134601034Y-64350500D01*
X134659999Y-64355659D01*
X134660000Y-64355659D01*
X134660001Y-64355659D01*
X134718966Y-64350500D01*
X134895408Y-64335063D01*
X135123663Y-64273903D01*
X135337830Y-64174035D01*
X135531401Y-64038495D01*
X135698495Y-63871401D01*
X135828425Y-63685842D01*
X135883002Y-63642217D01*
X135952500Y-63635023D01*
X136014855Y-63666546D01*
X136031575Y-63685842D01*
X136161500Y-63871395D01*
X136161505Y-63871401D01*
X136328599Y-64038495D01*
X136407530Y-64093763D01*
X136522165Y-64174032D01*
X136522167Y-64174033D01*
X136522170Y-64174035D01*
X136736337Y-64273903D01*
X136964592Y-64335063D01*
X137141034Y-64350500D01*
X137199999Y-64355659D01*
X137200000Y-64355659D01*
X137200001Y-64355659D01*
X137258966Y-64350500D01*
X137435408Y-64335063D01*
X137663663Y-64273903D01*
X137877830Y-64174035D01*
X138071401Y-64038495D01*
X138238495Y-63871401D01*
X138368425Y-63685842D01*
X138423002Y-63642217D01*
X138492500Y-63635023D01*
X138554855Y-63666546D01*
X138571575Y-63685842D01*
X138701500Y-63871395D01*
X138701505Y-63871401D01*
X138868599Y-64038495D01*
X138947530Y-64093763D01*
X139062165Y-64174032D01*
X139062167Y-64174033D01*
X139062170Y-64174035D01*
X139276337Y-64273903D01*
X139504592Y-64335063D01*
X139681034Y-64350500D01*
X139739999Y-64355659D01*
X139740000Y-64355659D01*
X139740001Y-64355659D01*
X139798966Y-64350500D01*
X139975408Y-64335063D01*
X140203663Y-64273903D01*
X140417830Y-64174035D01*
X140611401Y-64038495D01*
X140778495Y-63871401D01*
X140908425Y-63685842D01*
X140963002Y-63642217D01*
X141032500Y-63635023D01*
X141094855Y-63666546D01*
X141111575Y-63685842D01*
X141241500Y-63871395D01*
X141241505Y-63871401D01*
X141408599Y-64038495D01*
X141487530Y-64093763D01*
X141602165Y-64174032D01*
X141602167Y-64174033D01*
X141602170Y-64174035D01*
X141816337Y-64273903D01*
X142044592Y-64335063D01*
X142221034Y-64350500D01*
X142279999Y-64355659D01*
X142280000Y-64355659D01*
X142280001Y-64355659D01*
X142338966Y-64350500D01*
X142515408Y-64335063D01*
X142743663Y-64273903D01*
X142957830Y-64174035D01*
X143151401Y-64038495D01*
X143318495Y-63871401D01*
X143454035Y-63677830D01*
X143553903Y-63463663D01*
X143615063Y-63235408D01*
X143635659Y-63000000D01*
X143615063Y-62764592D01*
X143553903Y-62536337D01*
X143454035Y-62322171D01*
X143448425Y-62314158D01*
X143318494Y-62128597D01*
X143292052Y-62102155D01*
X150070000Y-62102155D01*
X150070000Y-62750000D01*
X150986988Y-62750000D01*
X150954075Y-62807007D01*
X150920000Y-62934174D01*
X150920000Y-63065826D01*
X150954075Y-63192993D01*
X150986988Y-63250000D01*
X150070000Y-63250000D01*
X150070000Y-63897844D01*
X150076401Y-63957372D01*
X150076403Y-63957379D01*
X150126645Y-64092086D01*
X150126649Y-64092093D01*
X150212809Y-64207187D01*
X150212812Y-64207190D01*
X150327906Y-64293350D01*
X150327913Y-64293354D01*
X150462620Y-64343596D01*
X150462627Y-64343598D01*
X150522155Y-64349999D01*
X150522172Y-64350000D01*
X151170000Y-64350000D01*
X151170000Y-63433012D01*
X151227007Y-63465925D01*
X151354174Y-63500000D01*
X151485826Y-63500000D01*
X151612993Y-63465925D01*
X151670000Y-63433012D01*
X151670000Y-64350000D01*
X152317828Y-64350000D01*
X152317844Y-64349999D01*
X152377372Y-64343598D01*
X152377379Y-64343596D01*
X152512086Y-64293354D01*
X152512093Y-64293350D01*
X152627187Y-64207190D01*
X152627190Y-64207187D01*
X152713350Y-64092093D01*
X152713354Y-64092086D01*
X152762422Y-63960529D01*
X152804293Y-63904595D01*
X152869757Y-63880178D01*
X152938030Y-63895030D01*
X152966285Y-63916181D01*
X153088599Y-64038495D01*
X153167530Y-64093763D01*
X153282165Y-64174032D01*
X153282167Y-64174033D01*
X153282170Y-64174035D01*
X153496337Y-64273903D01*
X153724592Y-64335063D01*
X153901034Y-64350500D01*
X153959999Y-64355659D01*
X153960000Y-64355659D01*
X153960001Y-64355659D01*
X154018966Y-64350500D01*
X154195408Y-64335063D01*
X154423663Y-64273903D01*
X154637830Y-64174035D01*
X154831401Y-64038495D01*
X154998495Y-63871401D01*
X155128425Y-63685842D01*
X155183002Y-63642217D01*
X155252500Y-63635023D01*
X155314855Y-63666546D01*
X155331575Y-63685842D01*
X155461500Y-63871395D01*
X155461505Y-63871401D01*
X155628599Y-64038495D01*
X155707530Y-64093763D01*
X155822165Y-64174032D01*
X155822167Y-64174033D01*
X155822170Y-64174035D01*
X156036337Y-64273903D01*
X156264592Y-64335063D01*
X156441034Y-64350500D01*
X156499999Y-64355659D01*
X156500000Y-64355659D01*
X156500001Y-64355659D01*
X156558966Y-64350500D01*
X156735408Y-64335063D01*
X156963663Y-64273903D01*
X157177830Y-64174035D01*
X157371401Y-64038495D01*
X157538495Y-63871401D01*
X157668425Y-63685842D01*
X157723002Y-63642217D01*
X157792500Y-63635023D01*
X157854855Y-63666546D01*
X157871575Y-63685842D01*
X158001500Y-63871395D01*
X158001505Y-63871401D01*
X158168599Y-64038495D01*
X158247530Y-64093763D01*
X158362165Y-64174032D01*
X158362167Y-64174033D01*
X158362170Y-64174035D01*
X158576337Y-64273903D01*
X158804592Y-64335063D01*
X158981034Y-64350500D01*
X159039999Y-64355659D01*
X159040000Y-64355659D01*
X159040001Y-64355659D01*
X159098966Y-64350500D01*
X159275408Y-64335063D01*
X159503663Y-64273903D01*
X159717830Y-64174035D01*
X159911401Y-64038495D01*
X160078495Y-63871401D01*
X160214035Y-63677830D01*
X160313903Y-63463663D01*
X160375063Y-63235408D01*
X160395659Y-63000000D01*
X160375063Y-62764592D01*
X160313903Y-62536337D01*
X160214035Y-62322171D01*
X160208425Y-62314158D01*
X160078494Y-62128597D01*
X159911402Y-61961506D01*
X159911395Y-61961501D01*
X159717834Y-61825967D01*
X159717830Y-61825965D01*
X159646727Y-61792809D01*
X159503663Y-61726097D01*
X159503659Y-61726096D01*
X159503655Y-61726094D01*
X159275413Y-61664938D01*
X159275403Y-61664936D01*
X159040001Y-61644341D01*
X159039999Y-61644341D01*
X158804596Y-61664936D01*
X158804586Y-61664938D01*
X158576344Y-61726094D01*
X158576335Y-61726098D01*
X158362171Y-61825964D01*
X158362169Y-61825965D01*
X158168597Y-61961505D01*
X158001505Y-62128597D01*
X157871575Y-62314158D01*
X157816998Y-62357783D01*
X157747500Y-62364977D01*
X157685145Y-62333454D01*
X157668425Y-62314158D01*
X157538494Y-62128597D01*
X157371402Y-61961506D01*
X157371395Y-61961501D01*
X157177834Y-61825967D01*
X157177830Y-61825965D01*
X157106727Y-61792809D01*
X156963663Y-61726097D01*
X156963659Y-61726096D01*
X156963655Y-61726094D01*
X156735413Y-61664938D01*
X156735403Y-61664936D01*
X156500001Y-61644341D01*
X156499999Y-61644341D01*
X156264596Y-61664936D01*
X156264586Y-61664938D01*
X156036344Y-61726094D01*
X156036335Y-61726098D01*
X155822171Y-61825964D01*
X155822169Y-61825965D01*
X155628597Y-61961505D01*
X155461505Y-62128597D01*
X155331575Y-62314158D01*
X155276998Y-62357783D01*
X155207500Y-62364977D01*
X155145145Y-62333454D01*
X155128425Y-62314158D01*
X154998494Y-62128597D01*
X154831402Y-61961506D01*
X154831395Y-61961501D01*
X154637834Y-61825967D01*
X154637830Y-61825965D01*
X154566727Y-61792809D01*
X154423663Y-61726097D01*
X154423659Y-61726096D01*
X154423655Y-61726094D01*
X154195413Y-61664938D01*
X154195403Y-61664936D01*
X153960001Y-61644341D01*
X153959999Y-61644341D01*
X153724596Y-61664936D01*
X153724586Y-61664938D01*
X153496344Y-61726094D01*
X153496335Y-61726098D01*
X153282171Y-61825964D01*
X153282169Y-61825965D01*
X153088600Y-61961503D01*
X152966284Y-62083819D01*
X152904961Y-62117303D01*
X152835269Y-62112319D01*
X152779336Y-62070447D01*
X152762421Y-62039470D01*
X152713354Y-61907913D01*
X152713350Y-61907906D01*
X152627190Y-61792812D01*
X152627187Y-61792809D01*
X152512093Y-61706649D01*
X152512086Y-61706645D01*
X152377379Y-61656403D01*
X152377372Y-61656401D01*
X152317844Y-61650000D01*
X151670000Y-61650000D01*
X151670000Y-62566988D01*
X151612993Y-62534075D01*
X151485826Y-62500000D01*
X151354174Y-62500000D01*
X151227007Y-62534075D01*
X151170000Y-62566988D01*
X151170000Y-61650000D01*
X150522155Y-61650000D01*
X150462627Y-61656401D01*
X150462620Y-61656403D01*
X150327913Y-61706645D01*
X150327906Y-61706649D01*
X150212812Y-61792809D01*
X150212809Y-61792812D01*
X150126649Y-61907906D01*
X150126645Y-61907913D01*
X150076403Y-62042620D01*
X150076401Y-62042627D01*
X150070000Y-62102155D01*
X143292052Y-62102155D01*
X143151402Y-61961506D01*
X143151395Y-61961501D01*
X142957834Y-61825967D01*
X142957830Y-61825965D01*
X142886727Y-61792809D01*
X142743663Y-61726097D01*
X142743659Y-61726096D01*
X142743655Y-61726094D01*
X142515413Y-61664938D01*
X142515403Y-61664936D01*
X142280001Y-61644341D01*
X142279999Y-61644341D01*
X142044596Y-61664936D01*
X142044586Y-61664938D01*
X141816344Y-61726094D01*
X141816335Y-61726098D01*
X141602171Y-61825964D01*
X141602169Y-61825965D01*
X141408597Y-61961505D01*
X141241505Y-62128597D01*
X141111575Y-62314158D01*
X141056998Y-62357783D01*
X140987500Y-62364977D01*
X140925145Y-62333454D01*
X140908425Y-62314158D01*
X140778494Y-62128597D01*
X140611402Y-61961506D01*
X140611395Y-61961501D01*
X140417834Y-61825967D01*
X140417830Y-61825965D01*
X140346727Y-61792809D01*
X140203663Y-61726097D01*
X140203659Y-61726096D01*
X140203655Y-61726094D01*
X139975413Y-61664938D01*
X139975403Y-61664936D01*
X139740001Y-61644341D01*
X139739999Y-61644341D01*
X139504596Y-61664936D01*
X139504586Y-61664938D01*
X139276344Y-61726094D01*
X139276335Y-61726098D01*
X139062171Y-61825964D01*
X139062169Y-61825965D01*
X138868597Y-61961505D01*
X138701505Y-62128597D01*
X138571575Y-62314158D01*
X138516998Y-62357783D01*
X138447500Y-62364977D01*
X138385145Y-62333454D01*
X138368425Y-62314158D01*
X138238494Y-62128597D01*
X138071402Y-61961506D01*
X138071395Y-61961501D01*
X137877834Y-61825967D01*
X137877830Y-61825965D01*
X137806727Y-61792809D01*
X137663663Y-61726097D01*
X137663659Y-61726096D01*
X137663655Y-61726094D01*
X137435413Y-61664938D01*
X137435403Y-61664936D01*
X137200001Y-61644341D01*
X137199999Y-61644341D01*
X136964596Y-61664936D01*
X136964586Y-61664938D01*
X136736344Y-61726094D01*
X136736335Y-61726098D01*
X136522171Y-61825964D01*
X136522169Y-61825965D01*
X136328597Y-61961505D01*
X136161505Y-62128597D01*
X136031575Y-62314158D01*
X135976998Y-62357783D01*
X135907500Y-62364977D01*
X135845145Y-62333454D01*
X135828425Y-62314158D01*
X135698494Y-62128597D01*
X135531402Y-61961506D01*
X135531395Y-61961501D01*
X135337834Y-61825967D01*
X135337830Y-61825965D01*
X135266727Y-61792809D01*
X135123663Y-61726097D01*
X135123659Y-61726096D01*
X135123655Y-61726094D01*
X134895413Y-61664938D01*
X134895403Y-61664936D01*
X134660001Y-61644341D01*
X134659999Y-61644341D01*
X134424596Y-61664936D01*
X134424586Y-61664938D01*
X134196344Y-61726094D01*
X134196335Y-61726098D01*
X133982171Y-61825964D01*
X133982169Y-61825965D01*
X133788597Y-61961505D01*
X133621505Y-62128597D01*
X133491575Y-62314158D01*
X133436998Y-62357783D01*
X133367500Y-62364977D01*
X133305145Y-62333454D01*
X133288425Y-62314158D01*
X133158494Y-62128597D01*
X132991402Y-61961506D01*
X132991395Y-61961501D01*
X132797834Y-61825967D01*
X132797830Y-61825965D01*
X132726727Y-61792809D01*
X132583663Y-61726097D01*
X132583659Y-61726096D01*
X132583655Y-61726094D01*
X132355413Y-61664938D01*
X132355403Y-61664936D01*
X132120001Y-61644341D01*
X132119999Y-61644341D01*
X131884596Y-61664936D01*
X131884586Y-61664938D01*
X131656344Y-61726094D01*
X131656335Y-61726098D01*
X131442171Y-61825964D01*
X131442169Y-61825965D01*
X131248597Y-61961505D01*
X131081505Y-62128597D01*
X130951575Y-62314158D01*
X130896998Y-62357783D01*
X130827500Y-62364977D01*
X130765145Y-62333454D01*
X130748425Y-62314158D01*
X130618494Y-62128597D01*
X130451402Y-61961506D01*
X130451395Y-61961501D01*
X130257834Y-61825967D01*
X130257830Y-61825965D01*
X130186727Y-61792809D01*
X130043663Y-61726097D01*
X130043659Y-61726096D01*
X130043655Y-61726094D01*
X129815413Y-61664938D01*
X129815403Y-61664936D01*
X129580001Y-61644341D01*
X129579999Y-61644341D01*
X129344596Y-61664936D01*
X129344586Y-61664938D01*
X129116344Y-61726094D01*
X129116335Y-61726098D01*
X128902171Y-61825964D01*
X128902169Y-61825965D01*
X128708600Y-61961503D01*
X128586673Y-62083430D01*
X128525350Y-62116914D01*
X128455658Y-62111930D01*
X128399725Y-62070058D01*
X128382810Y-62039081D01*
X128333797Y-61907671D01*
X128333793Y-61907664D01*
X128247547Y-61792455D01*
X128247544Y-61792452D01*
X128132335Y-61706206D01*
X128132328Y-61706202D01*
X127997482Y-61655908D01*
X127997483Y-61655908D01*
X127937883Y-61649501D01*
X127937881Y-61649500D01*
X127937873Y-61649500D01*
X127937864Y-61649500D01*
X126142129Y-61649500D01*
X126142123Y-61649501D01*
X126082516Y-61655908D01*
X125947671Y-61706202D01*
X125947664Y-61706206D01*
X125832455Y-61792452D01*
X125832452Y-61792455D01*
X125746206Y-61907664D01*
X125746202Y-61907671D01*
X125696997Y-62039598D01*
X125655126Y-62095532D01*
X125589661Y-62119949D01*
X125521388Y-62105097D01*
X125493134Y-62083946D01*
X125371082Y-61961894D01*
X125177578Y-61826399D01*
X124963492Y-61726570D01*
X124963486Y-61726567D01*
X124750000Y-61669364D01*
X124750000Y-62566988D01*
X124692993Y-62534075D01*
X124565826Y-62500000D01*
X124434174Y-62500000D01*
X124307007Y-62534075D01*
X124250000Y-62566988D01*
X124250000Y-61669364D01*
X124249999Y-61669364D01*
X124036513Y-61726567D01*
X124036507Y-61726570D01*
X123822422Y-61826399D01*
X123822420Y-61826400D01*
X123628926Y-61961886D01*
X123628920Y-61961891D01*
X123461891Y-62128920D01*
X123461886Y-62128926D01*
X123326400Y-62322420D01*
X123326399Y-62322422D01*
X123226570Y-62536507D01*
X123226567Y-62536513D01*
X123169364Y-62749999D01*
X115764448Y-62749999D01*
X115725777Y-62667068D01*
X115591421Y-62475188D01*
X115425787Y-62309554D01*
X115233907Y-62175198D01*
X115233905Y-62175197D01*
X115229472Y-62172093D01*
X115230481Y-62170651D01*
X115187712Y-62125803D01*
X115174484Y-62057197D01*
X115200447Y-61992330D01*
X115230048Y-61966680D01*
X115229472Y-61965857D01*
X115233905Y-61962752D01*
X115233907Y-61962752D01*
X115425787Y-61828396D01*
X115591421Y-61662762D01*
X115725777Y-61470882D01*
X115824772Y-61258586D01*
X115885398Y-61032326D01*
X115905814Y-60798975D01*
X115885398Y-60565624D01*
X115824772Y-60339364D01*
X115725777Y-60127068D01*
X115591421Y-59935188D01*
X115425787Y-59769554D01*
X115233907Y-59635198D01*
X115233905Y-59635197D01*
X115229472Y-59632093D01*
X115230481Y-59630651D01*
X115187712Y-59585803D01*
X115174484Y-59517197D01*
X115200447Y-59452330D01*
X115230048Y-59426680D01*
X115229472Y-59425857D01*
X115233905Y-59422752D01*
X115233907Y-59422752D01*
X115425787Y-59288396D01*
X115591421Y-59122762D01*
X115725777Y-58930882D01*
X115824772Y-58718586D01*
X115885398Y-58492326D01*
X115905814Y-58258975D01*
X115885398Y-58025624D01*
X115824772Y-57799364D01*
X115725777Y-57587068D01*
X115591421Y-57395188D01*
X115425787Y-57229554D01*
X115233907Y-57095198D01*
X115021611Y-56996203D01*
X115021607Y-56996202D01*
X115021603Y-56996200D01*
X114795356Y-56935578D01*
X114795346Y-56935576D01*
X114562001Y-56915161D01*
X114561999Y-56915161D01*
X114328653Y-56935576D01*
X114328643Y-56935578D01*
X114102396Y-56996200D01*
X114102389Y-56996202D01*
X114102389Y-56996203D01*
X113890093Y-57095198D01*
X113698213Y-57229554D01*
X113698211Y-57229555D01*
X113698208Y-57229558D01*
X113532583Y-57395183D01*
X113398223Y-57587068D01*
X113299229Y-57799362D01*
X113299225Y-57799371D01*
X113238603Y-58025618D01*
X113238601Y-58025628D01*
X113218186Y-58258974D01*
X90505814Y-58258974D01*
X90485398Y-58025624D01*
X90424772Y-57799364D01*
X90325777Y-57587068D01*
X90191421Y-57395188D01*
X90025787Y-57229554D01*
X89833907Y-57095198D01*
X89621611Y-56996203D01*
X89621607Y-56996202D01*
X89621603Y-56996200D01*
X89395356Y-56935578D01*
X89395346Y-56935576D01*
X89162001Y-56915161D01*
X89161999Y-56915161D01*
X88928653Y-56935576D01*
X88928643Y-56935578D01*
X88702396Y-56996200D01*
X88702389Y-56996202D01*
X88702389Y-56996203D01*
X88490093Y-57095198D01*
X88298213Y-57229554D01*
X88298211Y-57229555D01*
X88298208Y-57229558D01*
X88132583Y-57395183D01*
X87998223Y-57587068D01*
X87899229Y-57799362D01*
X87899225Y-57799371D01*
X87838603Y-58025618D01*
X87838601Y-58025628D01*
X87818186Y-58258974D01*
X81000000Y-58258974D01*
X81000000Y-47499999D01*
X123069341Y-47499999D01*
X123069341Y-47500000D01*
X123089936Y-47735403D01*
X123089938Y-47735413D01*
X123151094Y-47963655D01*
X123151096Y-47963659D01*
X123151097Y-47963663D01*
X123155000Y-47972032D01*
X123250965Y-48177830D01*
X123250967Y-48177834D01*
X123322155Y-48279500D01*
X123386505Y-48371401D01*
X123553599Y-48538495D01*
X123650384Y-48606265D01*
X123747165Y-48674032D01*
X123747167Y-48674033D01*
X123747170Y-48674035D01*
X123961337Y-48773903D01*
X124189592Y-48835063D01*
X124366034Y-48850500D01*
X124424999Y-48855659D01*
X124425000Y-48855659D01*
X124425001Y-48855659D01*
X124483966Y-48850500D01*
X124660408Y-48835063D01*
X124888663Y-48773903D01*
X125102830Y-48674035D01*
X125296401Y-48538495D01*
X125463495Y-48371401D01*
X125593425Y-48185842D01*
X125648002Y-48142217D01*
X125717500Y-48135023D01*
X125779855Y-48166546D01*
X125796575Y-48185842D01*
X125926500Y-48371395D01*
X125926505Y-48371401D01*
X126093599Y-48538495D01*
X126190384Y-48606265D01*
X126287165Y-48674032D01*
X126287167Y-48674033D01*
X126287170Y-48674035D01*
X126501337Y-48773903D01*
X126729592Y-48835063D01*
X126906034Y-48850500D01*
X126964999Y-48855659D01*
X126965000Y-48855659D01*
X126965001Y-48855659D01*
X127023966Y-48850500D01*
X127200408Y-48835063D01*
X127428663Y-48773903D01*
X127642830Y-48674035D01*
X127836401Y-48538495D01*
X128003495Y-48371401D01*
X128133425Y-48185842D01*
X128188002Y-48142217D01*
X128257500Y-48135023D01*
X128319855Y-48166546D01*
X128336575Y-48185842D01*
X128466500Y-48371395D01*
X128466505Y-48371401D01*
X128633599Y-48538495D01*
X128730384Y-48606265D01*
X128827165Y-48674032D01*
X128827167Y-48674033D01*
X128827170Y-48674035D01*
X129041337Y-48773903D01*
X129269592Y-48835063D01*
X129446034Y-48850500D01*
X129504999Y-48855659D01*
X129505000Y-48855659D01*
X129505001Y-48855659D01*
X129563966Y-48850500D01*
X129740408Y-48835063D01*
X129968663Y-48773903D01*
X130182830Y-48674035D01*
X130376401Y-48538495D01*
X130543495Y-48371401D01*
X130673425Y-48185842D01*
X130728002Y-48142217D01*
X130797500Y-48135023D01*
X130859855Y-48166546D01*
X130876575Y-48185842D01*
X131006500Y-48371395D01*
X131006505Y-48371401D01*
X131173599Y-48538495D01*
X131270384Y-48606265D01*
X131367165Y-48674032D01*
X131367167Y-48674033D01*
X131367170Y-48674035D01*
X131581337Y-48773903D01*
X131809592Y-48835063D01*
X131986034Y-48850500D01*
X132044999Y-48855659D01*
X132045000Y-48855659D01*
X132045001Y-48855659D01*
X132103966Y-48850500D01*
X132280408Y-48835063D01*
X132508663Y-48773903D01*
X132722830Y-48674035D01*
X132916401Y-48538495D01*
X133038329Y-48416566D01*
X133099648Y-48383084D01*
X133169340Y-48388068D01*
X133225274Y-48429939D01*
X133242189Y-48460917D01*
X133291202Y-48592328D01*
X133291206Y-48592335D01*
X133377452Y-48707544D01*
X133377455Y-48707547D01*
X133492664Y-48793793D01*
X133492671Y-48793797D01*
X133627517Y-48844091D01*
X133627516Y-48844091D01*
X133634444Y-48844835D01*
X133687127Y-48850500D01*
X135482872Y-48850499D01*
X135542483Y-48844091D01*
X135677331Y-48793796D01*
X135759699Y-48732135D01*
X148419500Y-48732135D01*
X148419500Y-51367870D01*
X148419501Y-51367876D01*
X148425908Y-51427483D01*
X148476202Y-51562328D01*
X148476206Y-51562335D01*
X148562452Y-51677544D01*
X148562455Y-51677547D01*
X148677664Y-51763793D01*
X148677671Y-51763797D01*
X148812517Y-51814091D01*
X148812516Y-51814091D01*
X148819444Y-51814835D01*
X148872127Y-51820500D01*
X151507872Y-51820499D01*
X151567483Y-51814091D01*
X151702331Y-51763796D01*
X151817546Y-51677546D01*
X151903796Y-51562331D01*
X151954091Y-51427483D01*
X151960500Y-51367873D01*
X151960499Y-50049995D01*
X156034535Y-50049995D01*
X156034535Y-50050004D01*
X156054363Y-50314609D01*
X156054364Y-50314614D01*
X156113410Y-50573313D01*
X156113412Y-50573322D01*
X156113414Y-50573327D01*
X156210361Y-50820345D01*
X156343042Y-51050155D01*
X156508492Y-51257623D01*
X156703016Y-51438114D01*
X156922268Y-51587598D01*
X156922273Y-51587600D01*
X156922274Y-51587601D01*
X156922276Y-51587602D01*
X157005221Y-51627546D01*
X157161350Y-51702734D01*
X157414922Y-51780950D01*
X157414923Y-51780950D01*
X157414926Y-51780951D01*
X157677311Y-51820499D01*
X157677316Y-51820499D01*
X157677319Y-51820500D01*
X157677320Y-51820500D01*
X157942680Y-51820500D01*
X157942681Y-51820500D01*
X157942688Y-51820499D01*
X158205073Y-51780951D01*
X158205074Y-51780950D01*
X158205078Y-51780950D01*
X158458650Y-51702734D01*
X158697733Y-51587598D01*
X158916984Y-51438114D01*
X159111508Y-51257623D01*
X159276958Y-51050155D01*
X159409639Y-50820345D01*
X159506586Y-50573327D01*
X159565635Y-50314619D01*
X159569382Y-50264619D01*
X159585465Y-50050004D01*
X159585465Y-50049995D01*
X159565636Y-49785390D01*
X159565635Y-49785385D01*
X159565635Y-49785381D01*
X159506586Y-49526673D01*
X159409639Y-49279655D01*
X159276958Y-49049845D01*
X159111508Y-48842377D01*
X158938807Y-48682135D01*
X167729500Y-48682135D01*
X167729500Y-51317870D01*
X167729501Y-51317876D01*
X167735908Y-51377483D01*
X167786202Y-51512328D01*
X167786206Y-51512335D01*
X167872452Y-51627544D01*
X167872455Y-51627547D01*
X167987664Y-51713793D01*
X167987671Y-51713797D01*
X168122517Y-51764091D01*
X168122516Y-51764091D01*
X168129444Y-51764835D01*
X168182127Y-51770500D01*
X170817872Y-51770499D01*
X170877483Y-51764091D01*
X171012331Y-51713796D01*
X171127546Y-51627546D01*
X171213796Y-51512331D01*
X171264091Y-51377483D01*
X171270500Y-51317873D01*
X171270499Y-49999995D01*
X175344535Y-49999995D01*
X175344535Y-50000004D01*
X175364363Y-50264609D01*
X175364364Y-50264614D01*
X175423410Y-50523313D01*
X175423412Y-50523322D01*
X175423414Y-50523327D01*
X175520361Y-50770345D01*
X175653042Y-51000155D01*
X175818492Y-51207623D01*
X176013016Y-51388114D01*
X176232268Y-51537598D01*
X176232273Y-51537600D01*
X176232274Y-51537601D01*
X176232276Y-51537602D01*
X176283635Y-51562335D01*
X176471350Y-51652734D01*
X176724922Y-51730950D01*
X176724923Y-51730950D01*
X176724926Y-51730951D01*
X176987311Y-51770499D01*
X176987316Y-51770499D01*
X176987319Y-51770500D01*
X176987320Y-51770500D01*
X177252680Y-51770500D01*
X177252681Y-51770500D01*
X177252688Y-51770499D01*
X177515073Y-51730951D01*
X177515074Y-51730950D01*
X177515078Y-51730950D01*
X177768650Y-51652734D01*
X178007733Y-51537598D01*
X178226984Y-51388114D01*
X178421508Y-51207623D01*
X178586958Y-51000155D01*
X178719639Y-50770345D01*
X178816586Y-50523327D01*
X178875635Y-50264619D01*
X178891718Y-50050000D01*
X178895465Y-50000004D01*
X178895465Y-49999995D01*
X178875636Y-49735390D01*
X178875635Y-49735385D01*
X178875635Y-49735381D01*
X178816586Y-49476673D01*
X178719639Y-49229655D01*
X178586958Y-48999845D01*
X178421508Y-48792377D01*
X178226984Y-48611886D01*
X178198308Y-48592335D01*
X178007736Y-48462404D01*
X178007725Y-48462397D01*
X177768655Y-48347268D01*
X177768636Y-48347261D01*
X177515083Y-48269051D01*
X177515073Y-48269048D01*
X177252688Y-48229500D01*
X177252681Y-48229500D01*
X176987319Y-48229500D01*
X176987311Y-48229500D01*
X176724926Y-48269048D01*
X176724916Y-48269051D01*
X176471363Y-48347261D01*
X176471344Y-48347268D01*
X176232276Y-48462397D01*
X176232274Y-48462398D01*
X176013015Y-48611886D01*
X175818494Y-48792375D01*
X175818492Y-48792377D01*
X175653042Y-48999845D01*
X175520361Y-49229654D01*
X175423416Y-49476667D01*
X175423410Y-49476686D01*
X175364364Y-49735385D01*
X175364363Y-49735390D01*
X175344535Y-49999995D01*
X171270499Y-49999995D01*
X171270499Y-48682128D01*
X171264091Y-48622517D01*
X171252832Y-48592331D01*
X171213797Y-48487671D01*
X171213793Y-48487664D01*
X171127547Y-48372455D01*
X171127544Y-48372452D01*
X171012335Y-48286206D01*
X171012328Y-48286202D01*
X170877482Y-48235908D01*
X170877483Y-48235908D01*
X170817883Y-48229501D01*
X170817881Y-48229500D01*
X170817873Y-48229500D01*
X170817864Y-48229500D01*
X168182129Y-48229500D01*
X168182123Y-48229501D01*
X168122516Y-48235908D01*
X167987671Y-48286202D01*
X167987664Y-48286206D01*
X167872455Y-48372452D01*
X167872452Y-48372455D01*
X167786206Y-48487664D01*
X167786202Y-48487671D01*
X167735908Y-48622517D01*
X167731676Y-48661886D01*
X167729501Y-48682123D01*
X167729500Y-48682135D01*
X158938807Y-48682135D01*
X158916984Y-48661886D01*
X158859239Y-48622516D01*
X158697736Y-48512404D01*
X158697725Y-48512397D01*
X158458655Y-48397268D01*
X158458636Y-48397261D01*
X158205083Y-48319051D01*
X158205073Y-48319048D01*
X157942688Y-48279500D01*
X157942681Y-48279500D01*
X157677319Y-48279500D01*
X157677311Y-48279500D01*
X157414926Y-48319048D01*
X157414916Y-48319051D01*
X157161363Y-48397261D01*
X157161344Y-48397268D01*
X156922276Y-48512397D01*
X156922274Y-48512398D01*
X156703015Y-48661886D01*
X156508494Y-48842375D01*
X156508492Y-48842377D01*
X156343042Y-49049845D01*
X156210361Y-49279654D01*
X156113416Y-49526667D01*
X156113410Y-49526686D01*
X156054364Y-49785385D01*
X156054363Y-49785390D01*
X156034535Y-50049995D01*
X151960499Y-50049995D01*
X151960499Y-48732128D01*
X151954091Y-48672517D01*
X151935442Y-48622517D01*
X151903797Y-48537671D01*
X151903793Y-48537664D01*
X151817547Y-48422455D01*
X151817544Y-48422452D01*
X151702335Y-48336206D01*
X151702328Y-48336202D01*
X151567482Y-48285908D01*
X151567483Y-48285908D01*
X151507883Y-48279501D01*
X151507881Y-48279500D01*
X151507873Y-48279500D01*
X151507864Y-48279500D01*
X148872129Y-48279500D01*
X148872123Y-48279501D01*
X148812516Y-48285908D01*
X148677671Y-48336202D01*
X148677664Y-48336206D01*
X148562455Y-48422452D01*
X148562452Y-48422455D01*
X148476206Y-48537664D01*
X148476202Y-48537671D01*
X148425908Y-48672517D01*
X148419501Y-48732116D01*
X148419501Y-48732123D01*
X148419500Y-48732135D01*
X135759699Y-48732135D01*
X135792546Y-48707546D01*
X135878796Y-48592331D01*
X135929091Y-48457483D01*
X135935500Y-48397873D01*
X135935499Y-46602128D01*
X135929363Y-46545045D01*
X135929091Y-46542516D01*
X135878797Y-46407671D01*
X135878793Y-46407664D01*
X135792547Y-46292455D01*
X135792544Y-46292452D01*
X135677335Y-46206206D01*
X135677328Y-46206202D01*
X135542482Y-46155908D01*
X135542483Y-46155908D01*
X135482883Y-46149501D01*
X135482881Y-46149500D01*
X135482873Y-46149500D01*
X135482864Y-46149500D01*
X133687129Y-46149500D01*
X133687123Y-46149501D01*
X133627516Y-46155908D01*
X133492671Y-46206202D01*
X133492664Y-46206206D01*
X133377455Y-46292452D01*
X133377452Y-46292455D01*
X133291206Y-46407664D01*
X133291203Y-46407669D01*
X133242189Y-46539083D01*
X133200317Y-46595016D01*
X133134853Y-46619433D01*
X133066580Y-46604581D01*
X133038326Y-46583430D01*
X132916402Y-46461506D01*
X132916395Y-46461501D01*
X132722834Y-46325967D01*
X132722830Y-46325965D01*
X132698488Y-46314614D01*
X132508663Y-46226097D01*
X132508659Y-46226096D01*
X132508655Y-46226094D01*
X132280413Y-46164938D01*
X132280403Y-46164936D01*
X132045001Y-46144341D01*
X132044999Y-46144341D01*
X131809596Y-46164936D01*
X131809586Y-46164938D01*
X131581344Y-46226094D01*
X131581335Y-46226098D01*
X131367171Y-46325964D01*
X131367169Y-46325965D01*
X131173597Y-46461505D01*
X131006505Y-46628597D01*
X130876575Y-46814158D01*
X130821998Y-46857783D01*
X130752500Y-46864977D01*
X130690145Y-46833454D01*
X130673425Y-46814158D01*
X130543494Y-46628597D01*
X130376402Y-46461506D01*
X130376395Y-46461501D01*
X130182834Y-46325967D01*
X130182830Y-46325965D01*
X130158488Y-46314614D01*
X129968663Y-46226097D01*
X129968659Y-46226096D01*
X129968655Y-46226094D01*
X129740413Y-46164938D01*
X129740403Y-46164936D01*
X129505001Y-46144341D01*
X129504999Y-46144341D01*
X129269596Y-46164936D01*
X129269586Y-46164938D01*
X129041344Y-46226094D01*
X129041335Y-46226098D01*
X128827171Y-46325964D01*
X128827169Y-46325965D01*
X128633597Y-46461505D01*
X128466505Y-46628597D01*
X128336575Y-46814158D01*
X128281998Y-46857783D01*
X128212500Y-46864977D01*
X128150145Y-46833454D01*
X128133425Y-46814158D01*
X128003494Y-46628597D01*
X127836402Y-46461506D01*
X127836395Y-46461501D01*
X127642834Y-46325967D01*
X127642830Y-46325965D01*
X127618488Y-46314614D01*
X127428663Y-46226097D01*
X127428659Y-46226096D01*
X127428655Y-46226094D01*
X127200413Y-46164938D01*
X127200403Y-46164936D01*
X126965001Y-46144341D01*
X126964999Y-46144341D01*
X126729596Y-46164936D01*
X126729586Y-46164938D01*
X126501344Y-46226094D01*
X126501335Y-46226098D01*
X126287171Y-46325964D01*
X126287169Y-46325965D01*
X126093597Y-46461505D01*
X125926505Y-46628597D01*
X125796575Y-46814158D01*
X125741998Y-46857783D01*
X125672500Y-46864977D01*
X125610145Y-46833454D01*
X125593425Y-46814158D01*
X125463494Y-46628597D01*
X125296402Y-46461506D01*
X125296395Y-46461501D01*
X125102834Y-46325967D01*
X125102830Y-46325965D01*
X125078488Y-46314614D01*
X124888663Y-46226097D01*
X124888659Y-46226096D01*
X124888655Y-46226094D01*
X124660413Y-46164938D01*
X124660403Y-46164936D01*
X124425001Y-46144341D01*
X124424999Y-46144341D01*
X124189596Y-46164936D01*
X124189586Y-46164938D01*
X123961344Y-46226094D01*
X123961335Y-46226098D01*
X123747171Y-46325964D01*
X123747169Y-46325965D01*
X123553597Y-46461505D01*
X123386505Y-46628597D01*
X123250965Y-46822169D01*
X123250964Y-46822171D01*
X123151098Y-47036335D01*
X123151094Y-47036344D01*
X123089938Y-47264586D01*
X123089936Y-47264596D01*
X123069341Y-47499999D01*
X81000000Y-47499999D01*
X81000000Y-44476386D01*
X82381153Y-44476386D01*
X82381153Y-44766253D01*
X82420623Y-45053419D01*
X82420624Y-45053425D01*
X82498829Y-45332540D01*
X82614310Y-45598403D01*
X82614309Y-45598403D01*
X82764918Y-45846069D01*
X82764920Y-45846071D01*
X82764921Y-45846073D01*
X82947852Y-46070925D01*
X83048513Y-46164936D01*
X83159690Y-46268769D01*
X83159692Y-46268770D01*
X83159696Y-46268774D01*
X83396507Y-46435934D01*
X83396506Y-46435934D01*
X83396508Y-46435935D01*
X83653876Y-46569292D01*
X83794960Y-46619433D01*
X83927000Y-46666360D01*
X83927016Y-46666365D01*
X84128505Y-46708234D01*
X84210807Y-46725336D01*
X84210808Y-46725337D01*
X84229323Y-46726603D01*
X84500000Y-46745119D01*
X84789191Y-46725337D01*
X84916907Y-46698797D01*
X85072983Y-46666365D01*
X85072989Y-46666362D01*
X85072994Y-46666362D01*
X85346124Y-46569292D01*
X85603492Y-46435935D01*
X85840304Y-46268774D01*
X86052148Y-46070925D01*
X86235079Y-45846073D01*
X86385689Y-45598405D01*
X86501172Y-45332537D01*
X86579377Y-45053420D01*
X86618847Y-44766253D01*
X86621320Y-44621320D01*
X86618847Y-44476387D01*
X86602172Y-44355066D01*
X184381153Y-44355066D01*
X184381153Y-44644933D01*
X184420623Y-44932099D01*
X184420624Y-44932105D01*
X184498829Y-45211220D01*
X184614310Y-45477083D01*
X184614309Y-45477083D01*
X184764918Y-45724749D01*
X184764920Y-45724751D01*
X184764921Y-45724753D01*
X184947852Y-45949605D01*
X185077749Y-46070921D01*
X185159690Y-46147449D01*
X185159692Y-46147450D01*
X185159696Y-46147454D01*
X185396507Y-46314614D01*
X185396506Y-46314614D01*
X185396508Y-46314615D01*
X185653876Y-46447972D01*
X185852871Y-46518694D01*
X185927000Y-46545040D01*
X185927016Y-46545045D01*
X186111739Y-46583430D01*
X186210807Y-46604016D01*
X186210808Y-46604017D01*
X186219054Y-46604581D01*
X186500000Y-46623799D01*
X186789191Y-46604017D01*
X186916907Y-46577477D01*
X187072983Y-46545045D01*
X187072989Y-46545042D01*
X187072994Y-46545042D01*
X187346124Y-46447972D01*
X187603492Y-46314615D01*
X187840304Y-46147454D01*
X188052148Y-45949605D01*
X188235079Y-45724753D01*
X188385689Y-45477085D01*
X188501172Y-45211217D01*
X188579377Y-44932100D01*
X188618847Y-44644933D01*
X188621320Y-44500000D01*
X188618847Y-44355067D01*
X188579377Y-44067900D01*
X188501172Y-43788783D01*
X188385689Y-43522916D01*
X188385690Y-43522916D01*
X188235081Y-43275250D01*
X188150852Y-43171718D01*
X188052148Y-43050395D01*
X187919044Y-42926084D01*
X187840309Y-42852550D01*
X187840306Y-42852547D01*
X187840304Y-42852546D01*
X187603492Y-42685385D01*
X187603493Y-42685385D01*
X187346122Y-42552027D01*
X187072999Y-42454959D01*
X187072983Y-42454954D01*
X186789193Y-42395983D01*
X186789191Y-42395982D01*
X186500000Y-42376202D01*
X186210808Y-42395982D01*
X186210806Y-42395983D01*
X185927016Y-42454954D01*
X185927000Y-42454959D01*
X185653877Y-42552027D01*
X185396507Y-42685385D01*
X185254418Y-42785683D01*
X185159696Y-42852546D01*
X185159693Y-42852547D01*
X185159691Y-42852550D01*
X185159690Y-42852550D01*
X184947849Y-43050398D01*
X184764918Y-43275250D01*
X184614309Y-43522916D01*
X184498829Y-43788779D01*
X184420624Y-44067894D01*
X184420623Y-44067900D01*
X184381153Y-44355066D01*
X86602172Y-44355066D01*
X86579377Y-44189220D01*
X86501172Y-43910103D01*
X86385689Y-43644236D01*
X86385690Y-43644236D01*
X86235081Y-43396570D01*
X86136378Y-43275247D01*
X86052148Y-43171715D01*
X85919044Y-43047404D01*
X85840309Y-42973870D01*
X85840306Y-42973867D01*
X85840304Y-42973866D01*
X85603492Y-42806705D01*
X85603493Y-42806705D01*
X85346122Y-42673347D01*
X85072999Y-42576279D01*
X85072983Y-42576274D01*
X84789193Y-42517303D01*
X84789191Y-42517302D01*
X84500000Y-42497522D01*
X84210808Y-42517302D01*
X84210806Y-42517303D01*
X83927016Y-42576274D01*
X83927000Y-42576279D01*
X83653877Y-42673347D01*
X83396507Y-42806705D01*
X83254418Y-42907003D01*
X83159696Y-42973866D01*
X83159693Y-42973867D01*
X83159691Y-42973870D01*
X83159690Y-42973870D01*
X82947849Y-43171718D01*
X82764918Y-43396570D01*
X82614309Y-43644236D01*
X82498829Y-43910099D01*
X82420624Y-44189214D01*
X82420623Y-44189220D01*
X82381153Y-44476386D01*
X81000000Y-44476386D01*
X81000000Y-42501264D01*
X81000027Y-42498697D01*
X81000933Y-42454954D01*
X81002458Y-42381320D01*
X81004198Y-42363038D01*
X81043943Y-42130339D01*
X81049203Y-42110063D01*
X81088463Y-41998488D01*
X81127123Y-41888618D01*
X81135715Y-41869526D01*
X81249818Y-41664341D01*
X81261502Y-41646970D01*
X81408516Y-41463933D01*
X81422955Y-41448780D01*
X81598690Y-41293105D01*
X81615481Y-41280595D01*
X81814913Y-41156733D01*
X81833567Y-41147229D01*
X82051003Y-41058713D01*
X82071003Y-41052483D01*
X82300225Y-41001842D01*
X82320990Y-40999067D01*
X82556797Y-40987678D01*
X82575126Y-40988152D01*
G37*
G04 #@! TD.AperFunction*
M02*
