%TF.GenerationSoftware,KiCad,Pcbnew,8.0.5*%
%TF.CreationDate,2024-10-13T23:26:23-04:00*%
%TF.ProjectId,table-2,7461626c-652d-4322-9e6b-696361645f70,1.2*%
%TF.SameCoordinates,Original*%
%TF.FileFunction,Drillmap*%
%TF.FilePolarity,Positive*%
%FSLAX45Y45*%
G04 Gerber Fmt 4.5, Leading zero omitted, Abs format (unit mm)*
G04 Created by KiCad (PCBNEW 8.0.5) date 2024-10-13 23:26:23*
%MOMM*%
%LPD*%
G01*
G04 APERTURE LIST*
%ADD10C,0.100000*%
%ADD11C,0.200000*%
%ADD12C,0.110000*%
%ADD13C,0.130000*%
%ADD14C,0.160000*%
%ADD15C,0.230000*%
G04 APERTURE END LIST*
D10*
X8400000Y-4100000D02*
X8269326Y-4100000D01*
X8100000Y-4250000D02*
G75*
G02*
X8269326Y-4100000I151103J0D01*
G01*
X18683195Y-12100000D02*
X8200000Y-12100000D01*
X18900000Y-4100000D02*
G75*
G02*
X19000000Y-4200000I0J-100000D01*
G01*
X8674264Y-11750000D02*
G75*
G02*
X8250000Y-11750000I-212132J0D01*
G01*
X8250000Y-11750000D02*
G75*
G02*
X8674264Y-11750000I212132J0D01*
G01*
X8662132Y-4462132D02*
G75*
G02*
X8237868Y-4462132I-212132J0D01*
G01*
X8237868Y-4462132D02*
G75*
G02*
X8662132Y-4462132I212132J0D01*
G01*
X8100000Y-12000000D02*
X8100000Y-4250000D01*
X8200000Y-12100000D02*
G75*
G02*
X8100000Y-12000000I0J100000D01*
G01*
X19000000Y-11950000D02*
G75*
G02*
X18850000Y-12100000I-150000J0D01*
G01*
X18862132Y-11737868D02*
G75*
G02*
X18437868Y-11737868I-212132J0D01*
G01*
X18437868Y-11737868D02*
G75*
G02*
X18862132Y-11737868I212132J0D01*
G01*
X18350000Y-4100000D02*
X8400000Y-4100000D01*
X19000000Y-4200000D02*
X19000000Y-11950000D01*
X18683195Y-4100000D02*
X18900000Y-4100000D01*
X18862132Y-4450000D02*
G75*
G02*
X18437868Y-4450000I-212132J0D01*
G01*
X18437868Y-4450000D02*
G75*
G02*
X18862132Y-4450000I212132J0D01*
G01*
X18350000Y-4100000D02*
X18683195Y-4100000D01*
X18850000Y-12100000D02*
X18683195Y-12100000D01*
D11*
D10*
X8430000Y-10630000D02*
X8470000Y-10670000D01*
X8470000Y-10630000D02*
X8430000Y-10670000D01*
X8430000Y-11380000D02*
X8470000Y-11420000D01*
X8470000Y-11380000D02*
X8430000Y-11420000D01*
X10130000Y-10630000D02*
X10170000Y-10670000D01*
X10170000Y-10630000D02*
X10130000Y-10670000D01*
X10130000Y-11380000D02*
X10170000Y-11420000D01*
X10170000Y-11380000D02*
X10130000Y-11420000D01*
X10680000Y-10630000D02*
X10720000Y-10670000D01*
X10720000Y-10630000D02*
X10680000Y-10670000D01*
X11380000Y-10630000D02*
X11420000Y-10670000D01*
X11420000Y-10630000D02*
X11380000Y-10670000D01*
X11780000Y-10630000D02*
X11820000Y-10670000D01*
X11820000Y-10630000D02*
X11780000Y-10670000D01*
X12480000Y-10630000D02*
X12520000Y-10670000D01*
X12520000Y-10630000D02*
X12480000Y-10670000D01*
X12880000Y-10630000D02*
X12920000Y-10670000D01*
X12920000Y-10630000D02*
X12880000Y-10670000D01*
X13580000Y-10630000D02*
X13620000Y-10670000D01*
X13620000Y-10630000D02*
X13580000Y-10670000D01*
X13930000Y-10630000D02*
X13970000Y-10670000D01*
X13970000Y-10630000D02*
X13930000Y-10670000D01*
X14630000Y-10630000D02*
X14670000Y-10670000D01*
X14670000Y-10630000D02*
X14630000Y-10670000D01*
X16330000Y-10130000D02*
X16370000Y-10170000D01*
X16370000Y-10130000D02*
X16330000Y-10170000D01*
X16530000Y-8130000D02*
X16570000Y-8170000D01*
X16570000Y-8130000D02*
X16530000Y-8170000D01*
X16580000Y-6930000D02*
X16620000Y-6970000D01*
X16620000Y-6930000D02*
X16580000Y-6970000D01*
X16580000Y-7480000D02*
X16620000Y-7520000D01*
X16620000Y-7480000D02*
X16580000Y-7520000D01*
X16580000Y-7580000D02*
X16620000Y-7620000D01*
X16620000Y-7580000D02*
X16580000Y-7620000D01*
X16580000Y-7680000D02*
X16620000Y-7720000D01*
X16620000Y-7680000D02*
X16580000Y-7720000D01*
X16580000Y-7780000D02*
X16620000Y-7820000D01*
X16620000Y-7780000D02*
X16580000Y-7820000D01*
X16680000Y-7580000D02*
X16720000Y-7620000D01*
X16720000Y-7580000D02*
X16680000Y-7620000D01*
X16680000Y-7680000D02*
X16720000Y-7720000D01*
X16720000Y-7680000D02*
X16680000Y-7720000D01*
X16780000Y-7580000D02*
X16820000Y-7620000D01*
X16820000Y-7580000D02*
X16780000Y-7620000D01*
X16780000Y-7680000D02*
X16820000Y-7720000D01*
X16820000Y-7680000D02*
X16780000Y-7720000D01*
X16880000Y-7580000D02*
X16920000Y-7620000D01*
X16920000Y-7580000D02*
X16880000Y-7620000D01*
X16880000Y-7680000D02*
X16920000Y-7720000D01*
X16920000Y-7680000D02*
X16880000Y-7720000D01*
X16930000Y-6430000D02*
X16970000Y-6470000D01*
X16970000Y-6430000D02*
X16930000Y-6470000D01*
X16930000Y-6530000D02*
X16970000Y-6570000D01*
X16970000Y-6530000D02*
X16930000Y-6570000D01*
X16930000Y-6630000D02*
X16970000Y-6670000D01*
X16970000Y-6630000D02*
X16930000Y-6670000D01*
X16930000Y-6730000D02*
X16970000Y-6770000D01*
X16970000Y-6730000D02*
X16930000Y-6770000D01*
X16930000Y-6830000D02*
X16970000Y-6870000D01*
X16970000Y-6830000D02*
X16930000Y-6870000D01*
X16930000Y-8530000D02*
X16970000Y-8570000D01*
X16970000Y-8530000D02*
X16930000Y-8570000D01*
X16930000Y-8630000D02*
X16970000Y-8670000D01*
X16970000Y-8630000D02*
X16930000Y-8670000D01*
X16930000Y-8730000D02*
X16970000Y-8770000D01*
X16970000Y-8730000D02*
X16930000Y-8770000D01*
X17030000Y-6430000D02*
X17070000Y-6470000D01*
X17070000Y-6430000D02*
X17030000Y-6470000D01*
X17030000Y-6530000D02*
X17070000Y-6570000D01*
X17070000Y-6530000D02*
X17030000Y-6570000D01*
X17030000Y-6630000D02*
X17070000Y-6670000D01*
X17070000Y-6630000D02*
X17030000Y-6670000D01*
X17030000Y-6730000D02*
X17070000Y-6770000D01*
X17070000Y-6730000D02*
X17030000Y-6770000D01*
X17030000Y-8530000D02*
X17070000Y-8570000D01*
X17070000Y-8530000D02*
X17030000Y-8570000D01*
X17030000Y-8630000D02*
X17070000Y-8670000D01*
X17070000Y-8630000D02*
X17030000Y-8670000D01*
X17030000Y-8730000D02*
X17070000Y-8770000D01*
X17070000Y-8730000D02*
X17030000Y-8770000D01*
X17130000Y-6430000D02*
X17170000Y-6470000D01*
X17170000Y-6430000D02*
X17130000Y-6470000D01*
X17130000Y-6530000D02*
X17170000Y-6570000D01*
X17170000Y-6530000D02*
X17130000Y-6570000D01*
X17130000Y-6630000D02*
X17170000Y-6670000D01*
X17170000Y-6630000D02*
X17130000Y-6670000D01*
X17130000Y-6730000D02*
X17170000Y-6770000D01*
X17170000Y-6730000D02*
X17130000Y-6770000D01*
X17130000Y-8530000D02*
X17170000Y-8570000D01*
X17170000Y-8530000D02*
X17130000Y-8570000D01*
X17130000Y-8630000D02*
X17170000Y-8670000D01*
X17170000Y-8630000D02*
X17130000Y-8670000D01*
X17130000Y-8730000D02*
X17170000Y-8770000D01*
X17170000Y-8730000D02*
X17130000Y-8770000D01*
X17180000Y-10580000D02*
X17220000Y-10620000D01*
X17220000Y-10580000D02*
X17180000Y-10620000D01*
X17230000Y-6430000D02*
X17270000Y-6470000D01*
X17270000Y-6430000D02*
X17230000Y-6470000D01*
X17230000Y-6530000D02*
X17270000Y-6570000D01*
X17270000Y-6530000D02*
X17230000Y-6570000D01*
X17230000Y-6630000D02*
X17270000Y-6670000D01*
X17270000Y-6630000D02*
X17230000Y-6670000D01*
X17230000Y-6730000D02*
X17270000Y-6770000D01*
X17270000Y-6730000D02*
X17230000Y-6770000D01*
X17230000Y-8530000D02*
X17270000Y-8570000D01*
X17270000Y-8530000D02*
X17230000Y-8570000D01*
X17230000Y-8630000D02*
X17270000Y-8670000D01*
X17270000Y-8630000D02*
X17230000Y-8670000D01*
X17230000Y-8730000D02*
X17270000Y-8770000D01*
X17270000Y-8730000D02*
X17230000Y-8770000D01*
X17330000Y-6430000D02*
X17370000Y-6470000D01*
X17370000Y-6430000D02*
X17330000Y-6470000D01*
X17330000Y-6530000D02*
X17370000Y-6570000D01*
X17370000Y-6530000D02*
X17330000Y-6570000D01*
X17330000Y-6630000D02*
X17370000Y-6670000D01*
X17370000Y-6630000D02*
X17330000Y-6670000D01*
X17330000Y-6730000D02*
X17370000Y-6770000D01*
X17370000Y-6730000D02*
X17330000Y-6770000D01*
X17330000Y-8530000D02*
X17370000Y-8570000D01*
X17370000Y-8530000D02*
X17330000Y-8570000D01*
X17330000Y-8630000D02*
X17370000Y-8670000D01*
X17370000Y-8630000D02*
X17330000Y-8670000D01*
X17330000Y-8730000D02*
X17370000Y-8770000D01*
X17370000Y-8730000D02*
X17330000Y-8770000D01*
X17430000Y-6430000D02*
X17470000Y-6470000D01*
X17470000Y-6430000D02*
X17430000Y-6470000D01*
X17430000Y-6530000D02*
X17470000Y-6570000D01*
X17470000Y-6530000D02*
X17430000Y-6570000D01*
X17430000Y-6630000D02*
X17470000Y-6670000D01*
X17470000Y-6630000D02*
X17430000Y-6670000D01*
X17430000Y-6730000D02*
X17470000Y-6770000D01*
X17470000Y-6730000D02*
X17430000Y-6770000D01*
X17430000Y-8430000D02*
X17470000Y-8470000D01*
X17470000Y-8430000D02*
X17430000Y-8470000D01*
X17430000Y-8530000D02*
X17470000Y-8570000D01*
X17470000Y-8530000D02*
X17430000Y-8570000D01*
X17430000Y-8630000D02*
X17470000Y-8670000D01*
X17470000Y-8630000D02*
X17430000Y-8670000D01*
X17430000Y-8730000D02*
X17470000Y-8770000D01*
X17470000Y-8730000D02*
X17430000Y-8770000D01*
X17530000Y-6430000D02*
X17570000Y-6470000D01*
X17570000Y-6430000D02*
X17530000Y-6470000D01*
X17530000Y-6530000D02*
X17570000Y-6570000D01*
X17570000Y-6530000D02*
X17530000Y-6570000D01*
X17530000Y-6630000D02*
X17570000Y-6670000D01*
X17570000Y-6630000D02*
X17530000Y-6670000D01*
X17530000Y-6730000D02*
X17570000Y-6770000D01*
X17570000Y-6730000D02*
X17530000Y-6770000D01*
X17530000Y-8430000D02*
X17570000Y-8470000D01*
X17570000Y-8430000D02*
X17530000Y-8470000D01*
X17530000Y-8530000D02*
X17570000Y-8570000D01*
X17570000Y-8530000D02*
X17530000Y-8570000D01*
X17530000Y-8630000D02*
X17570000Y-8670000D01*
X17570000Y-8630000D02*
X17530000Y-8670000D01*
X17530000Y-8730000D02*
X17570000Y-8770000D01*
X17570000Y-8730000D02*
X17530000Y-8770000D01*
X17580000Y-10580000D02*
X17620000Y-10620000D01*
X17620000Y-10580000D02*
X17580000Y-10620000D01*
X17630000Y-6430000D02*
X17670000Y-6470000D01*
X17670000Y-6430000D02*
X17630000Y-6470000D01*
X17630000Y-6530000D02*
X17670000Y-6570000D01*
X17670000Y-6530000D02*
X17630000Y-6570000D01*
X17630000Y-6630000D02*
X17670000Y-6670000D01*
X17670000Y-6630000D02*
X17630000Y-6670000D01*
X17630000Y-6730000D02*
X17670000Y-6770000D01*
X17670000Y-6730000D02*
X17630000Y-6770000D01*
X17630000Y-8430000D02*
X17670000Y-8470000D01*
X17670000Y-8430000D02*
X17630000Y-8470000D01*
X17630000Y-8530000D02*
X17670000Y-8570000D01*
X17670000Y-8530000D02*
X17630000Y-8570000D01*
X17630000Y-8630000D02*
X17670000Y-8670000D01*
X17670000Y-8630000D02*
X17630000Y-8670000D01*
X17630000Y-8730000D02*
X17670000Y-8770000D01*
X17670000Y-8730000D02*
X17630000Y-8770000D01*
X17730000Y-6430000D02*
X17770000Y-6470000D01*
X17770000Y-6430000D02*
X17730000Y-6470000D01*
X17730000Y-6530000D02*
X17770000Y-6570000D01*
X17770000Y-6530000D02*
X17730000Y-6570000D01*
X17730000Y-6630000D02*
X17770000Y-6670000D01*
X17770000Y-6630000D02*
X17730000Y-6670000D01*
X17730000Y-6730000D02*
X17770000Y-6770000D01*
X17770000Y-6730000D02*
X17730000Y-6770000D01*
X17730000Y-8430000D02*
X17770000Y-8470000D01*
X17770000Y-8430000D02*
X17730000Y-8470000D01*
X17730000Y-8530000D02*
X17770000Y-8570000D01*
X17770000Y-8530000D02*
X17730000Y-8570000D01*
X17730000Y-8630000D02*
X17770000Y-8670000D01*
X17770000Y-8630000D02*
X17730000Y-8670000D01*
X17730000Y-8730000D02*
X17770000Y-8770000D01*
X17770000Y-8730000D02*
X17730000Y-8770000D01*
X17830000Y-6430000D02*
X17870000Y-6470000D01*
X17870000Y-6430000D02*
X17830000Y-6470000D01*
X17830000Y-6530000D02*
X17870000Y-6570000D01*
X17870000Y-6530000D02*
X17830000Y-6570000D01*
X17830000Y-6630000D02*
X17870000Y-6670000D01*
X17870000Y-6630000D02*
X17830000Y-6670000D01*
X17830000Y-6730000D02*
X17870000Y-6770000D01*
X17870000Y-6730000D02*
X17830000Y-6770000D01*
X17830000Y-8430000D02*
X17870000Y-8470000D01*
X17870000Y-8430000D02*
X17830000Y-8470000D01*
X17830000Y-8530000D02*
X17870000Y-8570000D01*
X17870000Y-8530000D02*
X17830000Y-8570000D01*
X17830000Y-8630000D02*
X17870000Y-8670000D01*
X17870000Y-8630000D02*
X17830000Y-8670000D01*
X17830000Y-8730000D02*
X17870000Y-8770000D01*
X17870000Y-8730000D02*
X17830000Y-8770000D01*
X17930000Y-6430000D02*
X17970000Y-6470000D01*
X17970000Y-6430000D02*
X17930000Y-6470000D01*
X17930000Y-6530000D02*
X17970000Y-6570000D01*
X17970000Y-6530000D02*
X17930000Y-6570000D01*
X17930000Y-6630000D02*
X17970000Y-6670000D01*
X17970000Y-6630000D02*
X17930000Y-6670000D01*
X17930000Y-6730000D02*
X17970000Y-6770000D01*
X17970000Y-6730000D02*
X17930000Y-6770000D01*
X17930000Y-8430000D02*
X17970000Y-8470000D01*
X17970000Y-8430000D02*
X17930000Y-8470000D01*
X17930000Y-8530000D02*
X17970000Y-8570000D01*
X17970000Y-8530000D02*
X17930000Y-8570000D01*
X17930000Y-8630000D02*
X17970000Y-8670000D01*
X17970000Y-8630000D02*
X17930000Y-8670000D01*
X17930000Y-8730000D02*
X17970000Y-8770000D01*
X17970000Y-8730000D02*
X17930000Y-8770000D01*
X18030000Y-6430000D02*
X18070000Y-6470000D01*
X18070000Y-6430000D02*
X18030000Y-6470000D01*
X18030000Y-6530000D02*
X18070000Y-6570000D01*
X18070000Y-6530000D02*
X18030000Y-6570000D01*
X18030000Y-6630000D02*
X18070000Y-6670000D01*
X18070000Y-6630000D02*
X18030000Y-6670000D01*
X18030000Y-6730000D02*
X18070000Y-6770000D01*
X18070000Y-6730000D02*
X18030000Y-6770000D01*
X18030000Y-6830000D02*
X18070000Y-6870000D01*
X18070000Y-6830000D02*
X18030000Y-6870000D01*
X18030000Y-6930000D02*
X18070000Y-6970000D01*
X18070000Y-6930000D02*
X18030000Y-6970000D01*
X18030000Y-7030000D02*
X18070000Y-7070000D01*
X18070000Y-7030000D02*
X18030000Y-7070000D01*
X18030000Y-7130000D02*
X18070000Y-7170000D01*
X18070000Y-7130000D02*
X18030000Y-7170000D01*
X18030000Y-7230000D02*
X18070000Y-7270000D01*
X18070000Y-7230000D02*
X18030000Y-7270000D01*
X18030000Y-7330000D02*
X18070000Y-7370000D01*
X18070000Y-7330000D02*
X18030000Y-7370000D01*
X18030000Y-7430000D02*
X18070000Y-7470000D01*
X18070000Y-7430000D02*
X18030000Y-7470000D01*
X18030000Y-7530000D02*
X18070000Y-7570000D01*
X18070000Y-7530000D02*
X18030000Y-7570000D01*
X18030000Y-7630000D02*
X18070000Y-7670000D01*
X18070000Y-7630000D02*
X18030000Y-7670000D01*
X18030000Y-7730000D02*
X18070000Y-7770000D01*
X18070000Y-7730000D02*
X18030000Y-7770000D01*
X18030000Y-7830000D02*
X18070000Y-7870000D01*
X18070000Y-7830000D02*
X18030000Y-7870000D01*
X18030000Y-7930000D02*
X18070000Y-7970000D01*
X18070000Y-7930000D02*
X18030000Y-7970000D01*
X18030000Y-8030000D02*
X18070000Y-8070000D01*
X18070000Y-8030000D02*
X18030000Y-8070000D01*
X18030000Y-8130000D02*
X18070000Y-8170000D01*
X18070000Y-8130000D02*
X18030000Y-8170000D01*
X18030000Y-8230000D02*
X18070000Y-8270000D01*
X18070000Y-8230000D02*
X18030000Y-8270000D01*
X18030000Y-8330000D02*
X18070000Y-8370000D01*
X18070000Y-8330000D02*
X18030000Y-8370000D01*
X18030000Y-8430000D02*
X18070000Y-8470000D01*
X18070000Y-8430000D02*
X18030000Y-8470000D01*
X18030000Y-8530000D02*
X18070000Y-8570000D01*
X18070000Y-8530000D02*
X18030000Y-8570000D01*
X18030000Y-8630000D02*
X18070000Y-8670000D01*
X18070000Y-8630000D02*
X18030000Y-8670000D01*
X18030000Y-8730000D02*
X18070000Y-8770000D01*
X18070000Y-8730000D02*
X18030000Y-8770000D01*
X18130000Y-6480000D02*
X18170000Y-6520000D01*
X18170000Y-6480000D02*
X18130000Y-6520000D01*
X18130000Y-6580000D02*
X18170000Y-6620000D01*
X18170000Y-6580000D02*
X18130000Y-6620000D01*
X18130000Y-6680000D02*
X18170000Y-6720000D01*
X18170000Y-6680000D02*
X18130000Y-6720000D01*
X18130000Y-6780000D02*
X18170000Y-6820000D01*
X18170000Y-6780000D02*
X18130000Y-6820000D01*
X18130000Y-6880000D02*
X18170000Y-6920000D01*
X18170000Y-6880000D02*
X18130000Y-6920000D01*
X18130000Y-6980000D02*
X18170000Y-7020000D01*
X18170000Y-6980000D02*
X18130000Y-7020000D01*
X18130000Y-7080000D02*
X18170000Y-7120000D01*
X18170000Y-7080000D02*
X18130000Y-7120000D01*
X18130000Y-7180000D02*
X18170000Y-7220000D01*
X18170000Y-7180000D02*
X18130000Y-7220000D01*
X18130000Y-7280000D02*
X18170000Y-7320000D01*
X18170000Y-7280000D02*
X18130000Y-7320000D01*
X18130000Y-7380000D02*
X18170000Y-7420000D01*
X18170000Y-7380000D02*
X18130000Y-7420000D01*
X18130000Y-7480000D02*
X18170000Y-7520000D01*
X18170000Y-7480000D02*
X18130000Y-7520000D01*
X18130000Y-7580000D02*
X18170000Y-7620000D01*
X18170000Y-7580000D02*
X18130000Y-7620000D01*
X18130000Y-7680000D02*
X18170000Y-7720000D01*
X18170000Y-7680000D02*
X18130000Y-7720000D01*
X18130000Y-7780000D02*
X18170000Y-7820000D01*
X18170000Y-7780000D02*
X18130000Y-7820000D01*
X18130000Y-7880000D02*
X18170000Y-7920000D01*
X18170000Y-7880000D02*
X18130000Y-7920000D01*
X18130000Y-7980000D02*
X18170000Y-8020000D01*
X18170000Y-7980000D02*
X18130000Y-8020000D01*
X18130000Y-8080000D02*
X18170000Y-8120000D01*
X18170000Y-8080000D02*
X18130000Y-8120000D01*
X18130000Y-8180000D02*
X18170000Y-8220000D01*
X18170000Y-8180000D02*
X18130000Y-8220000D01*
X18130000Y-8280000D02*
X18170000Y-8320000D01*
X18170000Y-8280000D02*
X18130000Y-8320000D01*
X18130000Y-8380000D02*
X18170000Y-8420000D01*
X18170000Y-8380000D02*
X18130000Y-8420000D01*
X18130000Y-8480000D02*
X18170000Y-8520000D01*
X18170000Y-8480000D02*
X18130000Y-8520000D01*
X18130000Y-8580000D02*
X18170000Y-8620000D01*
X18170000Y-8580000D02*
X18130000Y-8620000D01*
X18130000Y-8680000D02*
X18170000Y-8720000D01*
X18170000Y-8680000D02*
X18130000Y-8720000D01*
X18230000Y-6530000D02*
X18270000Y-6570000D01*
X18270000Y-6530000D02*
X18230000Y-6570000D01*
X18230000Y-6630000D02*
X18270000Y-6670000D01*
X18270000Y-6630000D02*
X18230000Y-6670000D01*
X18230000Y-6730000D02*
X18270000Y-6770000D01*
X18270000Y-6730000D02*
X18230000Y-6770000D01*
X18230000Y-6830000D02*
X18270000Y-6870000D01*
X18270000Y-6830000D02*
X18230000Y-6870000D01*
X18230000Y-6930000D02*
X18270000Y-6970000D01*
X18270000Y-6930000D02*
X18230000Y-6970000D01*
X18230000Y-7030000D02*
X18270000Y-7070000D01*
X18270000Y-7030000D02*
X18230000Y-7070000D01*
X18230000Y-7130000D02*
X18270000Y-7170000D01*
X18270000Y-7130000D02*
X18230000Y-7170000D01*
X18230000Y-7230000D02*
X18270000Y-7270000D01*
X18270000Y-7230000D02*
X18230000Y-7270000D01*
X18230000Y-7330000D02*
X18270000Y-7370000D01*
X18270000Y-7330000D02*
X18230000Y-7370000D01*
X18230000Y-7430000D02*
X18270000Y-7470000D01*
X18270000Y-7430000D02*
X18230000Y-7470000D01*
X18230000Y-7530000D02*
X18270000Y-7570000D01*
X18270000Y-7530000D02*
X18230000Y-7570000D01*
X18230000Y-7630000D02*
X18270000Y-7670000D01*
X18270000Y-7630000D02*
X18230000Y-7670000D01*
X18230000Y-7730000D02*
X18270000Y-7770000D01*
X18270000Y-7730000D02*
X18230000Y-7770000D01*
X18230000Y-7830000D02*
X18270000Y-7870000D01*
X18270000Y-7830000D02*
X18230000Y-7870000D01*
X18230000Y-7930000D02*
X18270000Y-7970000D01*
X18270000Y-7930000D02*
X18230000Y-7970000D01*
X18230000Y-8030000D02*
X18270000Y-8070000D01*
X18270000Y-8030000D02*
X18230000Y-8070000D01*
X18230000Y-8130000D02*
X18270000Y-8170000D01*
X18270000Y-8130000D02*
X18230000Y-8170000D01*
X18230000Y-8230000D02*
X18270000Y-8270000D01*
X18270000Y-8230000D02*
X18230000Y-8270000D01*
X18230000Y-8330000D02*
X18270000Y-8370000D01*
X18270000Y-8330000D02*
X18230000Y-8370000D01*
X18230000Y-8430000D02*
X18270000Y-8470000D01*
X18270000Y-8430000D02*
X18230000Y-8470000D01*
X18230000Y-8530000D02*
X18270000Y-8570000D01*
X18270000Y-8530000D02*
X18230000Y-8570000D01*
X18230000Y-8630000D02*
X18270000Y-8670000D01*
X18270000Y-8630000D02*
X18230000Y-8670000D01*
X18430000Y-6630000D02*
X18470000Y-6670000D01*
X18470000Y-6630000D02*
X18430000Y-6670000D01*
X18430000Y-6730000D02*
X18470000Y-6770000D01*
X18470000Y-6730000D02*
X18430000Y-6770000D01*
X18430000Y-6830000D02*
X18470000Y-6870000D01*
X18470000Y-6830000D02*
X18430000Y-6870000D01*
X18430000Y-6930000D02*
X18470000Y-6970000D01*
X18470000Y-6930000D02*
X18430000Y-6970000D01*
X18430000Y-7030000D02*
X18470000Y-7070000D01*
X18470000Y-7030000D02*
X18430000Y-7070000D01*
X18430000Y-7130000D02*
X18470000Y-7170000D01*
X18470000Y-7130000D02*
X18430000Y-7170000D01*
X18430000Y-7230000D02*
X18470000Y-7270000D01*
X18470000Y-7230000D02*
X18430000Y-7270000D01*
X18430000Y-7330000D02*
X18470000Y-7370000D01*
X18470000Y-7330000D02*
X18430000Y-7370000D01*
X18430000Y-7430000D02*
X18470000Y-7470000D01*
X18470000Y-7430000D02*
X18430000Y-7470000D01*
X18430000Y-7530000D02*
X18470000Y-7570000D01*
X18470000Y-7530000D02*
X18430000Y-7570000D01*
X18430000Y-7630000D02*
X18470000Y-7670000D01*
X18470000Y-7630000D02*
X18430000Y-7670000D01*
X18430000Y-7730000D02*
X18470000Y-7770000D01*
X18470000Y-7730000D02*
X18430000Y-7770000D01*
X18430000Y-7830000D02*
X18470000Y-7870000D01*
X18470000Y-7830000D02*
X18430000Y-7870000D01*
X18430000Y-7930000D02*
X18470000Y-7970000D01*
X18470000Y-7930000D02*
X18430000Y-7970000D01*
X18430000Y-8030000D02*
X18470000Y-8070000D01*
X18470000Y-8030000D02*
X18430000Y-8070000D01*
X18430000Y-8130000D02*
X18470000Y-8170000D01*
X18470000Y-8130000D02*
X18430000Y-8170000D01*
X18430000Y-8230000D02*
X18470000Y-8270000D01*
X18470000Y-8230000D02*
X18430000Y-8270000D01*
X18430000Y-8330000D02*
X18470000Y-8370000D01*
X18470000Y-8330000D02*
X18430000Y-8370000D01*
X18430000Y-8430000D02*
X18470000Y-8470000D01*
X18470000Y-8430000D02*
X18430000Y-8470000D01*
X18430000Y-8530000D02*
X18470000Y-8570000D01*
X18470000Y-8530000D02*
X18430000Y-8570000D01*
X16966000Y-11400000D02*
G75*
G02*
X16906000Y-11400000I-30000J0D01*
G01*
X16906000Y-11400000D02*
G75*
G02*
X16966000Y-11400000I30000J0D01*
G01*
X16906000Y-11370000D02*
X16906000Y-11430000D01*
X16966000Y-11430000D02*
G75*
G02*
X16906000Y-11430000I-30000J0D01*
G01*
X16966000Y-11430000D02*
X16966000Y-11370000D01*
X16966000Y-11370000D02*
G75*
G03*
X16906000Y-11370000I-30000J0D01*
G01*
X16966000Y-11780000D02*
G75*
G02*
X16906000Y-11780000I-30000J0D01*
G01*
X16906000Y-11780000D02*
G75*
G02*
X16966000Y-11780000I30000J0D01*
G01*
X16906000Y-11750000D02*
X16906000Y-11810000D01*
X16966000Y-11810000D02*
G75*
G02*
X16906000Y-11810000I-30000J0D01*
G01*
X16966000Y-11810000D02*
X16966000Y-11750000D01*
X16966000Y-11750000D02*
G75*
G03*
X16906000Y-11750000I-30000J0D01*
G01*
X17830000Y-11400000D02*
G75*
G02*
X17770000Y-11400000I-30000J0D01*
G01*
X17770000Y-11400000D02*
G75*
G02*
X17830000Y-11400000I30000J0D01*
G01*
X17770000Y-11370000D02*
X17770000Y-11430000D01*
X17830000Y-11430000D02*
G75*
G02*
X17770000Y-11430000I-30000J0D01*
G01*
X17830000Y-11430000D02*
X17830000Y-11370000D01*
X17830000Y-11370000D02*
G75*
G03*
X17770000Y-11370000I-30000J0D01*
G01*
X17830000Y-11780000D02*
G75*
G02*
X17770000Y-11780000I-30000J0D01*
G01*
X17770000Y-11780000D02*
G75*
G02*
X17830000Y-11780000I30000J0D01*
G01*
X17770000Y-11750000D02*
X17770000Y-11810000D01*
X17830000Y-11810000D02*
G75*
G02*
X17770000Y-11810000I-30000J0D01*
G01*
X17830000Y-11810000D02*
X17830000Y-11750000D01*
X17830000Y-11750000D02*
G75*
G03*
X17770000Y-11750000I-30000J0D01*
G01*
X15471000Y-10435000D02*
X15471000Y-10527000D01*
X15425000Y-10481000D02*
X15517000Y-10481000D01*
X15471000Y-10697000D02*
X15471000Y-10789000D01*
X15425000Y-10743000D02*
X15517000Y-10743000D01*
X15721000Y-10435000D02*
X15721000Y-10527000D01*
X15675000Y-10481000D02*
X15767000Y-10481000D01*
X15721000Y-10697000D02*
X15721000Y-10789000D01*
X15675000Y-10743000D02*
X15767000Y-10743000D01*
X15921000Y-10435000D02*
X15921000Y-10527000D01*
X15875000Y-10481000D02*
X15967000Y-10481000D01*
X15921000Y-10697000D02*
X15921000Y-10789000D01*
X15875000Y-10743000D02*
X15967000Y-10743000D01*
X16171000Y-10435000D02*
X16171000Y-10527000D01*
X16125000Y-10481000D02*
X16217000Y-10481000D01*
X16171000Y-10697000D02*
X16171000Y-10789000D01*
X16125000Y-10743000D02*
X16217000Y-10743000D01*
X8951223Y-5860921D02*
X8951223Y-5790874D01*
X8881177Y-5790874D01*
X8881177Y-5860921D01*
X8951223Y-5860921D01*
X8951223Y-6114921D02*
X8951223Y-6044874D01*
X8881177Y-6044874D01*
X8881177Y-6114921D01*
X8951223Y-6114921D01*
X8951223Y-6368921D02*
X8951223Y-6298874D01*
X8881177Y-6298874D01*
X8881177Y-6368921D01*
X8951223Y-6368921D01*
X8951223Y-6622921D02*
X8951223Y-6552874D01*
X8881177Y-6552874D01*
X8881177Y-6622921D01*
X8951223Y-6622921D01*
X8951223Y-6876921D02*
X8951223Y-6806874D01*
X8881177Y-6806874D01*
X8881177Y-6876921D01*
X8951223Y-6876921D01*
X8951223Y-7130921D02*
X8951223Y-7060874D01*
X8881177Y-7060874D01*
X8881177Y-7130921D01*
X8951223Y-7130921D01*
X8951223Y-7384921D02*
X8951223Y-7314874D01*
X8881177Y-7314874D01*
X8881177Y-7384921D01*
X8951223Y-7384921D01*
X8951223Y-7638921D02*
X8951223Y-7568874D01*
X8881177Y-7568874D01*
X8881177Y-7638921D01*
X8951223Y-7638921D01*
X8951223Y-7892921D02*
X8951223Y-7822874D01*
X8881177Y-7822874D01*
X8881177Y-7892921D01*
X8951223Y-7892921D01*
X8951223Y-8146921D02*
X8951223Y-8076874D01*
X8881177Y-8076874D01*
X8881177Y-8146921D01*
X8951223Y-8146921D01*
X8951223Y-8400921D02*
X8951223Y-8330874D01*
X8881177Y-8330874D01*
X8881177Y-8400921D01*
X8951223Y-8400921D01*
X8951223Y-8654921D02*
X8951223Y-8584874D01*
X8881177Y-8584874D01*
X8881177Y-8654921D01*
X8951223Y-8654921D01*
X8951223Y-8908921D02*
X8951223Y-8838874D01*
X8881177Y-8838874D01*
X8881177Y-8908921D01*
X8951223Y-8908921D01*
X8951223Y-9162921D02*
X8951223Y-9092874D01*
X8881177Y-9092874D01*
X8881177Y-9162921D01*
X8951223Y-9162921D01*
X8951223Y-9416921D02*
X8951223Y-9346874D01*
X8881177Y-9346874D01*
X8881177Y-9416921D01*
X8951223Y-9416921D01*
X11491223Y-5860921D02*
X11491223Y-5790874D01*
X11421177Y-5790874D01*
X11421177Y-5860921D01*
X11491223Y-5860921D01*
X11491223Y-6114921D02*
X11491223Y-6044874D01*
X11421177Y-6044874D01*
X11421177Y-6114921D01*
X11491223Y-6114921D01*
X11491223Y-6368921D02*
X11491223Y-6298874D01*
X11421177Y-6298874D01*
X11421177Y-6368921D01*
X11491223Y-6368921D01*
X11491223Y-6622921D02*
X11491223Y-6552874D01*
X11421177Y-6552874D01*
X11421177Y-6622921D01*
X11491223Y-6622921D01*
X11491223Y-6876921D02*
X11491223Y-6806874D01*
X11421177Y-6806874D01*
X11421177Y-6876921D01*
X11491223Y-6876921D01*
X11491223Y-7130921D02*
X11491223Y-7060874D01*
X11421177Y-7060874D01*
X11421177Y-7130921D01*
X11491223Y-7130921D01*
X11491223Y-7384921D02*
X11491223Y-7314874D01*
X11421177Y-7314874D01*
X11421177Y-7384921D01*
X11491223Y-7384921D01*
X11491223Y-7638921D02*
X11491223Y-7568874D01*
X11421177Y-7568874D01*
X11421177Y-7638921D01*
X11491223Y-7638921D01*
X11491223Y-7892921D02*
X11491223Y-7822874D01*
X11421177Y-7822874D01*
X11421177Y-7892921D01*
X11491223Y-7892921D01*
X11491223Y-8146921D02*
X11491223Y-8076874D01*
X11421177Y-8076874D01*
X11421177Y-8146921D01*
X11491223Y-8146921D01*
X11491223Y-8400921D02*
X11491223Y-8330874D01*
X11421177Y-8330874D01*
X11421177Y-8400921D01*
X11491223Y-8400921D01*
X11491223Y-8654921D02*
X11491223Y-8584874D01*
X11421177Y-8584874D01*
X11421177Y-8654921D01*
X11491223Y-8654921D01*
X11491223Y-8908921D02*
X11491223Y-8838874D01*
X11421177Y-8838874D01*
X11421177Y-8908921D01*
X11491223Y-8908921D01*
X11491223Y-9162921D02*
X11491223Y-9092874D01*
X11421177Y-9092874D01*
X11421177Y-9162921D01*
X11491223Y-9162921D01*
X11491223Y-9416921D02*
X11491223Y-9346874D01*
X11421177Y-9346874D01*
X11421177Y-9416921D01*
X11491223Y-9416921D01*
X10843000Y-11834500D02*
X10893000Y-11784500D01*
X10843000Y-11734500D01*
X10793000Y-11784500D01*
X10843000Y-11834500D01*
X11293000Y-11834500D02*
X11343000Y-11784500D01*
X11293000Y-11734500D01*
X11243000Y-11784500D01*
X11293000Y-11834500D01*
X11943000Y-11834500D02*
X11993000Y-11784500D01*
X11943000Y-11734500D01*
X11893000Y-11784500D01*
X11943000Y-11834500D01*
X12393000Y-11834500D02*
X12443000Y-11784500D01*
X12393000Y-11734500D01*
X12343000Y-11784500D01*
X12393000Y-11834500D01*
X12442500Y-4800000D02*
X12492500Y-4750000D01*
X12442500Y-4700000D01*
X12392500Y-4750000D01*
X12442500Y-4800000D01*
X12450000Y-6350000D02*
X12500000Y-6300000D01*
X12450000Y-6250000D01*
X12400000Y-6300000D01*
X12450000Y-6350000D01*
X12450000Y-6976000D02*
X12500000Y-6926000D01*
X12450000Y-6876000D01*
X12400000Y-6926000D01*
X12450000Y-6976000D01*
X12450000Y-7230000D02*
X12500000Y-7180000D01*
X12450000Y-7130000D01*
X12400000Y-7180000D01*
X12450000Y-7230000D01*
X12450000Y-7484000D02*
X12500000Y-7434000D01*
X12450000Y-7384000D01*
X12400000Y-7434000D01*
X12450000Y-7484000D01*
X12450000Y-7738000D02*
X12500000Y-7688000D01*
X12450000Y-7638000D01*
X12400000Y-7688000D01*
X12450000Y-7738000D01*
X12450000Y-7992000D02*
X12500000Y-7942000D01*
X12450000Y-7892000D01*
X12400000Y-7942000D01*
X12450000Y-7992000D01*
X12450000Y-8246000D02*
X12500000Y-8196000D01*
X12450000Y-8146000D01*
X12400000Y-8196000D01*
X12450000Y-8246000D01*
X12450000Y-8500000D02*
X12500000Y-8450000D01*
X12450000Y-8400000D01*
X12400000Y-8450000D01*
X12450000Y-8500000D01*
X12450000Y-8754000D02*
X12500000Y-8704000D01*
X12450000Y-8654000D01*
X12400000Y-8704000D01*
X12450000Y-8754000D01*
X12450000Y-9008000D02*
X12500000Y-8958000D01*
X12450000Y-8908000D01*
X12400000Y-8958000D01*
X12450000Y-9008000D01*
X12450000Y-9262000D02*
X12500000Y-9212000D01*
X12450000Y-9162000D01*
X12400000Y-9212000D01*
X12450000Y-9262000D01*
X12696500Y-4800000D02*
X12746500Y-4750000D01*
X12696500Y-4700000D01*
X12646500Y-4750000D01*
X12696500Y-4800000D01*
X12704000Y-6350000D02*
X12754000Y-6300000D01*
X12704000Y-6250000D01*
X12654000Y-6300000D01*
X12704000Y-6350000D01*
X12950500Y-4800000D02*
X13000500Y-4750000D01*
X12950500Y-4700000D01*
X12900500Y-4750000D01*
X12950500Y-4800000D01*
X12958000Y-6350000D02*
X13008000Y-6300000D01*
X12958000Y-6250000D01*
X12908000Y-6300000D01*
X12958000Y-6350000D01*
X13018000Y-11834500D02*
X13068000Y-11784500D01*
X13018000Y-11734500D01*
X12968000Y-11784500D01*
X13018000Y-11834500D01*
X13204500Y-4800000D02*
X13254500Y-4750000D01*
X13204500Y-4700000D01*
X13154500Y-4750000D01*
X13204500Y-4800000D01*
X13212000Y-6350000D02*
X13262000Y-6300000D01*
X13212000Y-6250000D01*
X13162000Y-6300000D01*
X13212000Y-6350000D01*
X13458500Y-4800000D02*
X13508500Y-4750000D01*
X13458500Y-4700000D01*
X13408500Y-4750000D01*
X13458500Y-4800000D01*
X13466000Y-6350000D02*
X13516000Y-6300000D01*
X13466000Y-6250000D01*
X13416000Y-6300000D01*
X13466000Y-6350000D01*
X13468000Y-11834500D02*
X13518000Y-11784500D01*
X13468000Y-11734500D01*
X13418000Y-11784500D01*
X13468000Y-11834500D01*
X13720000Y-6350000D02*
X13770000Y-6300000D01*
X13720000Y-6250000D01*
X13670000Y-6300000D01*
X13720000Y-6350000D01*
X13974000Y-6350000D02*
X14024000Y-6300000D01*
X13974000Y-6250000D01*
X13924000Y-6300000D01*
X13974000Y-6350000D01*
X14093000Y-11834500D02*
X14143000Y-11784500D01*
X14093000Y-11734500D01*
X14043000Y-11784500D01*
X14093000Y-11834500D01*
X14228000Y-6350000D02*
X14278000Y-6300000D01*
X14228000Y-6250000D01*
X14178000Y-6300000D01*
X14228000Y-6350000D01*
X14543000Y-11834500D02*
X14593000Y-11784500D01*
X14543000Y-11734500D01*
X14493000Y-11784500D01*
X14543000Y-11834500D01*
X14888000Y-7800000D02*
X14938000Y-7750000D01*
X14888000Y-7700000D01*
X14838000Y-7750000D01*
X14888000Y-7800000D01*
X15142000Y-6350000D02*
X15192000Y-6300000D01*
X15142000Y-6250000D01*
X15092000Y-6300000D01*
X15142000Y-6350000D01*
X15142000Y-7800000D02*
X15192000Y-7750000D01*
X15142000Y-7700000D01*
X15092000Y-7750000D01*
X15142000Y-7800000D01*
X15396000Y-6350000D02*
X15446000Y-6300000D01*
X15396000Y-6250000D01*
X15346000Y-6300000D01*
X15396000Y-6350000D01*
X15396000Y-7800000D02*
X15446000Y-7750000D01*
X15396000Y-7700000D01*
X15346000Y-7750000D01*
X15396000Y-7800000D01*
X15650000Y-6350000D02*
X15700000Y-6300000D01*
X15650000Y-6250000D01*
X15600000Y-6300000D01*
X15650000Y-6350000D01*
X15904000Y-6350000D02*
X15954000Y-6300000D01*
X15904000Y-6250000D01*
X15854000Y-6300000D01*
X15904000Y-6350000D01*
D12*
X9295000Y-10694500D02*
X9405000Y-10804500D01*
X9405000Y-10694500D02*
X9295000Y-10804500D01*
X9405000Y-10749500D02*
G75*
G02*
X9295000Y-10749500I-55000J0D01*
G01*
X9295000Y-10749500D02*
G75*
G02*
X9405000Y-10749500I55000J0D01*
G01*
X9295000Y-10948500D02*
X9405000Y-11058500D01*
X9405000Y-10948500D02*
X9295000Y-11058500D01*
X9405000Y-11003500D02*
G75*
G02*
X9295000Y-11003500I-55000J0D01*
G01*
X9295000Y-11003500D02*
G75*
G02*
X9405000Y-11003500I55000J0D01*
G01*
X9295000Y-11202500D02*
X9405000Y-11312500D01*
X9405000Y-11202500D02*
X9295000Y-11312500D01*
X9405000Y-11257500D02*
G75*
G02*
X9295000Y-11257500I-55000J0D01*
G01*
X9295000Y-11257500D02*
G75*
G02*
X9405000Y-11257500I55000J0D01*
G01*
D13*
X10653000Y-11469500D02*
X10783000Y-11599500D01*
X10783000Y-11469500D02*
X10653000Y-11599500D01*
X10718000Y-11469500D02*
X10718000Y-11599500D01*
X10653000Y-11534500D02*
X10783000Y-11534500D01*
X11353000Y-11469500D02*
X11483000Y-11599500D01*
X11483000Y-11469500D02*
X11353000Y-11599500D01*
X11418000Y-11469500D02*
X11418000Y-11599500D01*
X11353000Y-11534500D02*
X11483000Y-11534500D01*
X11753000Y-11469500D02*
X11883000Y-11599500D01*
X11883000Y-11469500D02*
X11753000Y-11599500D01*
X11818000Y-11469500D02*
X11818000Y-11599500D01*
X11753000Y-11534500D02*
X11883000Y-11534500D01*
X12453000Y-11469500D02*
X12583000Y-11599500D01*
X12583000Y-11469500D02*
X12453000Y-11599500D01*
X12518000Y-11469500D02*
X12518000Y-11599500D01*
X12453000Y-11534500D02*
X12583000Y-11534500D01*
X12828000Y-11469500D02*
X12958000Y-11599500D01*
X12958000Y-11469500D02*
X12828000Y-11599500D01*
X12893000Y-11469500D02*
X12893000Y-11599500D01*
X12828000Y-11534500D02*
X12958000Y-11534500D01*
X13528000Y-11469500D02*
X13658000Y-11599500D01*
X13658000Y-11469500D02*
X13528000Y-11599500D01*
X13593000Y-11469500D02*
X13593000Y-11599500D01*
X13528000Y-11534500D02*
X13658000Y-11534500D01*
X13903000Y-11469500D02*
X14033000Y-11599500D01*
X14033000Y-11469500D02*
X13903000Y-11599500D01*
X13968000Y-11469500D02*
X13968000Y-11599500D01*
X13903000Y-11534500D02*
X14033000Y-11534500D01*
X14603000Y-11469500D02*
X14733000Y-11599500D01*
X14733000Y-11469500D02*
X14603000Y-11599500D01*
X14668000Y-11469500D02*
X14668000Y-11599500D01*
X14603000Y-11534500D02*
X14733000Y-11534500D01*
D14*
X14939000Y-4925000D02*
X15099000Y-5085000D01*
X15099000Y-4925000D02*
X14939000Y-5085000D01*
X15075569Y-5061569D02*
X15075569Y-4948431D01*
X14962431Y-4948431D01*
X14962431Y-5061569D01*
X15075569Y-5061569D01*
X15701000Y-4925000D02*
X15861000Y-5085000D01*
X15861000Y-4925000D02*
X15701000Y-5085000D01*
X15837569Y-5061569D02*
X15837569Y-4948431D01*
X15724431Y-4948431D01*
X15724431Y-5061569D01*
X15837569Y-5061569D01*
X16870000Y-4920000D02*
X17030000Y-5080000D01*
X17030000Y-4920000D02*
X16870000Y-5080000D01*
X17006569Y-5056569D02*
X17006569Y-4943431D01*
X16893431Y-4943431D01*
X16893431Y-5056569D01*
X17006569Y-5056569D01*
X17632000Y-4920000D02*
X17792000Y-5080000D01*
X17792000Y-4920000D02*
X17632000Y-5080000D01*
X17768569Y-5056569D02*
X17768569Y-4943431D01*
X17655431Y-4943431D01*
X17655431Y-5056569D01*
X17768569Y-5056569D01*
D15*
X15049000Y-10331000D02*
X15279000Y-10561000D01*
X15279000Y-10331000D02*
X15049000Y-10561000D01*
X15164000Y-10561000D02*
X15279000Y-10446000D01*
X15164000Y-10331000D01*
X15049000Y-10446000D01*
X15164000Y-10561000D01*
X15049000Y-10899000D02*
X15279000Y-11129000D01*
X15279000Y-10899000D02*
X15049000Y-11129000D01*
X15164000Y-11129000D02*
X15279000Y-11014000D01*
X15164000Y-10899000D01*
X15049000Y-11014000D01*
X15164000Y-11129000D01*
X16363000Y-10331000D02*
X16593000Y-10561000D01*
X16593000Y-10331000D02*
X16363000Y-10561000D01*
X16478000Y-10561000D02*
X16593000Y-10446000D01*
X16478000Y-10331000D01*
X16363000Y-10446000D01*
X16478000Y-10561000D01*
X16363000Y-10899000D02*
X16593000Y-11129000D01*
X16593000Y-10899000D02*
X16363000Y-11129000D01*
X16478000Y-11129000D02*
X16593000Y-11014000D01*
X16478000Y-10899000D01*
X16363000Y-11014000D01*
X16478000Y-11129000D01*
D11*
X8355777Y-12416484D02*
X8355777Y-12216484D01*
X8355777Y-12216484D02*
X8403396Y-12216484D01*
X8403396Y-12216484D02*
X8431967Y-12226008D01*
X8431967Y-12226008D02*
X8451015Y-12245055D01*
X8451015Y-12245055D02*
X8460539Y-12264103D01*
X8460539Y-12264103D02*
X8470063Y-12302198D01*
X8470063Y-12302198D02*
X8470063Y-12330769D01*
X8470063Y-12330769D02*
X8460539Y-12368865D01*
X8460539Y-12368865D02*
X8451015Y-12387912D01*
X8451015Y-12387912D02*
X8431967Y-12406960D01*
X8431967Y-12406960D02*
X8403396Y-12416484D01*
X8403396Y-12416484D02*
X8355777Y-12416484D01*
X8555777Y-12416484D02*
X8555777Y-12283150D01*
X8555777Y-12321246D02*
X8565301Y-12302198D01*
X8565301Y-12302198D02*
X8574824Y-12292674D01*
X8574824Y-12292674D02*
X8593872Y-12283150D01*
X8593872Y-12283150D02*
X8612920Y-12283150D01*
X8679586Y-12416484D02*
X8679586Y-12283150D01*
X8679586Y-12216484D02*
X8670063Y-12226008D01*
X8670063Y-12226008D02*
X8679586Y-12235531D01*
X8679586Y-12235531D02*
X8689110Y-12226008D01*
X8689110Y-12226008D02*
X8679586Y-12216484D01*
X8679586Y-12216484D02*
X8679586Y-12235531D01*
X8803396Y-12416484D02*
X8784348Y-12406960D01*
X8784348Y-12406960D02*
X8774824Y-12387912D01*
X8774824Y-12387912D02*
X8774824Y-12216484D01*
X8908158Y-12416484D02*
X8889110Y-12406960D01*
X8889110Y-12406960D02*
X8879586Y-12387912D01*
X8879586Y-12387912D02*
X8879586Y-12216484D01*
X9136729Y-12416484D02*
X9136729Y-12216484D01*
X9136729Y-12216484D02*
X9203396Y-12359341D01*
X9203396Y-12359341D02*
X9270063Y-12216484D01*
X9270063Y-12216484D02*
X9270063Y-12416484D01*
X9451015Y-12416484D02*
X9451015Y-12311722D01*
X9451015Y-12311722D02*
X9441491Y-12292674D01*
X9441491Y-12292674D02*
X9422444Y-12283150D01*
X9422444Y-12283150D02*
X9384348Y-12283150D01*
X9384348Y-12283150D02*
X9365301Y-12292674D01*
X9451015Y-12406960D02*
X9431967Y-12416484D01*
X9431967Y-12416484D02*
X9384348Y-12416484D01*
X9384348Y-12416484D02*
X9365301Y-12406960D01*
X9365301Y-12406960D02*
X9355777Y-12387912D01*
X9355777Y-12387912D02*
X9355777Y-12368865D01*
X9355777Y-12368865D02*
X9365301Y-12349817D01*
X9365301Y-12349817D02*
X9384348Y-12340293D01*
X9384348Y-12340293D02*
X9431967Y-12340293D01*
X9431967Y-12340293D02*
X9451015Y-12330769D01*
X9546253Y-12283150D02*
X9546253Y-12483150D01*
X9546253Y-12292674D02*
X9565301Y-12283150D01*
X9565301Y-12283150D02*
X9603396Y-12283150D01*
X9603396Y-12283150D02*
X9622444Y-12292674D01*
X9622444Y-12292674D02*
X9631967Y-12302198D01*
X9631967Y-12302198D02*
X9641491Y-12321246D01*
X9641491Y-12321246D02*
X9641491Y-12378388D01*
X9641491Y-12378388D02*
X9631967Y-12397436D01*
X9631967Y-12397436D02*
X9622444Y-12406960D01*
X9622444Y-12406960D02*
X9603396Y-12416484D01*
X9603396Y-12416484D02*
X9565301Y-12416484D01*
X9565301Y-12416484D02*
X9546253Y-12406960D01*
X9727205Y-12397436D02*
X9736729Y-12406960D01*
X9736729Y-12406960D02*
X9727205Y-12416484D01*
X9727205Y-12416484D02*
X9717682Y-12406960D01*
X9717682Y-12406960D02*
X9727205Y-12397436D01*
X9727205Y-12397436D02*
X9727205Y-12416484D01*
X9727205Y-12292674D02*
X9736729Y-12302198D01*
X9736729Y-12302198D02*
X9727205Y-12311722D01*
X9727205Y-12311722D02*
X9717682Y-12302198D01*
X9717682Y-12302198D02*
X9727205Y-12292674D01*
X9727205Y-12292674D02*
X9727205Y-12311722D01*
D10*
X8055000Y-12725000D02*
X8095000Y-12765000D01*
X8095000Y-12725000D02*
X8055000Y-12765000D01*
D11*
X8393872Y-12636484D02*
X8412920Y-12636484D01*
X8412920Y-12636484D02*
X8431967Y-12646008D01*
X8431967Y-12646008D02*
X8441491Y-12655531D01*
X8441491Y-12655531D02*
X8451015Y-12674579D01*
X8451015Y-12674579D02*
X8460539Y-12712674D01*
X8460539Y-12712674D02*
X8460539Y-12760293D01*
X8460539Y-12760293D02*
X8451015Y-12798388D01*
X8451015Y-12798388D02*
X8441491Y-12817436D01*
X8441491Y-12817436D02*
X8431967Y-12826960D01*
X8431967Y-12826960D02*
X8412920Y-12836484D01*
X8412920Y-12836484D02*
X8393872Y-12836484D01*
X8393872Y-12836484D02*
X8374824Y-12826960D01*
X8374824Y-12826960D02*
X8365301Y-12817436D01*
X8365301Y-12817436D02*
X8355777Y-12798388D01*
X8355777Y-12798388D02*
X8346253Y-12760293D01*
X8346253Y-12760293D02*
X8346253Y-12712674D01*
X8346253Y-12712674D02*
X8355777Y-12674579D01*
X8355777Y-12674579D02*
X8365301Y-12655531D01*
X8365301Y-12655531D02*
X8374824Y-12646008D01*
X8374824Y-12646008D02*
X8393872Y-12636484D01*
X8546253Y-12817436D02*
X8555777Y-12826960D01*
X8555777Y-12826960D02*
X8546253Y-12836484D01*
X8546253Y-12836484D02*
X8536729Y-12826960D01*
X8536729Y-12826960D02*
X8546253Y-12817436D01*
X8546253Y-12817436D02*
X8546253Y-12836484D01*
X8727205Y-12703150D02*
X8727205Y-12836484D01*
X8679586Y-12626960D02*
X8631967Y-12769817D01*
X8631967Y-12769817D02*
X8755777Y-12769817D01*
X8870063Y-12636484D02*
X8889110Y-12636484D01*
X8889110Y-12636484D02*
X8908158Y-12646008D01*
X8908158Y-12646008D02*
X8917682Y-12655531D01*
X8917682Y-12655531D02*
X8927205Y-12674579D01*
X8927205Y-12674579D02*
X8936729Y-12712674D01*
X8936729Y-12712674D02*
X8936729Y-12760293D01*
X8936729Y-12760293D02*
X8927205Y-12798388D01*
X8927205Y-12798388D02*
X8917682Y-12817436D01*
X8917682Y-12817436D02*
X8908158Y-12826960D01*
X8908158Y-12826960D02*
X8889110Y-12836484D01*
X8889110Y-12836484D02*
X8870063Y-12836484D01*
X8870063Y-12836484D02*
X8851015Y-12826960D01*
X8851015Y-12826960D02*
X8841491Y-12817436D01*
X8841491Y-12817436D02*
X8831967Y-12798388D01*
X8831967Y-12798388D02*
X8822444Y-12760293D01*
X8822444Y-12760293D02*
X8822444Y-12712674D01*
X8822444Y-12712674D02*
X8831967Y-12674579D01*
X8831967Y-12674579D02*
X8841491Y-12655531D01*
X8841491Y-12655531D02*
X8851015Y-12646008D01*
X8851015Y-12646008D02*
X8870063Y-12636484D01*
X9060539Y-12636484D02*
X9079586Y-12636484D01*
X9079586Y-12636484D02*
X9098634Y-12646008D01*
X9098634Y-12646008D02*
X9108158Y-12655531D01*
X9108158Y-12655531D02*
X9117682Y-12674579D01*
X9117682Y-12674579D02*
X9127205Y-12712674D01*
X9127205Y-12712674D02*
X9127205Y-12760293D01*
X9127205Y-12760293D02*
X9117682Y-12798388D01*
X9117682Y-12798388D02*
X9108158Y-12817436D01*
X9108158Y-12817436D02*
X9098634Y-12826960D01*
X9098634Y-12826960D02*
X9079586Y-12836484D01*
X9079586Y-12836484D02*
X9060539Y-12836484D01*
X9060539Y-12836484D02*
X9041491Y-12826960D01*
X9041491Y-12826960D02*
X9031967Y-12817436D01*
X9031967Y-12817436D02*
X9022444Y-12798388D01*
X9022444Y-12798388D02*
X9012920Y-12760293D01*
X9012920Y-12760293D02*
X9012920Y-12712674D01*
X9012920Y-12712674D02*
X9022444Y-12674579D01*
X9022444Y-12674579D02*
X9031967Y-12655531D01*
X9031967Y-12655531D02*
X9041491Y-12646008D01*
X9041491Y-12646008D02*
X9060539Y-12636484D01*
X9212920Y-12836484D02*
X9212920Y-12703150D01*
X9212920Y-12722198D02*
X9222444Y-12712674D01*
X9222444Y-12712674D02*
X9241491Y-12703150D01*
X9241491Y-12703150D02*
X9270063Y-12703150D01*
X9270063Y-12703150D02*
X9289110Y-12712674D01*
X9289110Y-12712674D02*
X9298634Y-12731722D01*
X9298634Y-12731722D02*
X9298634Y-12836484D01*
X9298634Y-12731722D02*
X9308158Y-12712674D01*
X9308158Y-12712674D02*
X9327205Y-12703150D01*
X9327205Y-12703150D02*
X9355777Y-12703150D01*
X9355777Y-12703150D02*
X9374825Y-12712674D01*
X9374825Y-12712674D02*
X9384348Y-12731722D01*
X9384348Y-12731722D02*
X9384348Y-12836484D01*
X9479586Y-12836484D02*
X9479586Y-12703150D01*
X9479586Y-12722198D02*
X9489110Y-12712674D01*
X9489110Y-12712674D02*
X9508158Y-12703150D01*
X9508158Y-12703150D02*
X9536729Y-12703150D01*
X9536729Y-12703150D02*
X9555777Y-12712674D01*
X9555777Y-12712674D02*
X9565301Y-12731722D01*
X9565301Y-12731722D02*
X9565301Y-12836484D01*
X9565301Y-12731722D02*
X9574825Y-12712674D01*
X9574825Y-12712674D02*
X9593872Y-12703150D01*
X9593872Y-12703150D02*
X9622444Y-12703150D01*
X9622444Y-12703150D02*
X9641491Y-12712674D01*
X9641491Y-12712674D02*
X9651015Y-12731722D01*
X9651015Y-12731722D02*
X9651015Y-12836484D01*
X10041491Y-12626960D02*
X9870063Y-12884103D01*
X10298634Y-12636484D02*
X10317682Y-12636484D01*
X10317682Y-12636484D02*
X10336729Y-12646008D01*
X10336729Y-12646008D02*
X10346253Y-12655531D01*
X10346253Y-12655531D02*
X10355777Y-12674579D01*
X10355777Y-12674579D02*
X10365301Y-12712674D01*
X10365301Y-12712674D02*
X10365301Y-12760293D01*
X10365301Y-12760293D02*
X10355777Y-12798388D01*
X10355777Y-12798388D02*
X10346253Y-12817436D01*
X10346253Y-12817436D02*
X10336729Y-12826960D01*
X10336729Y-12826960D02*
X10317682Y-12836484D01*
X10317682Y-12836484D02*
X10298634Y-12836484D01*
X10298634Y-12836484D02*
X10279587Y-12826960D01*
X10279587Y-12826960D02*
X10270063Y-12817436D01*
X10270063Y-12817436D02*
X10260539Y-12798388D01*
X10260539Y-12798388D02*
X10251015Y-12760293D01*
X10251015Y-12760293D02*
X10251015Y-12712674D01*
X10251015Y-12712674D02*
X10260539Y-12674579D01*
X10260539Y-12674579D02*
X10270063Y-12655531D01*
X10270063Y-12655531D02*
X10279587Y-12646008D01*
X10279587Y-12646008D02*
X10298634Y-12636484D01*
X10451015Y-12817436D02*
X10460539Y-12826960D01*
X10460539Y-12826960D02*
X10451015Y-12836484D01*
X10451015Y-12836484D02*
X10441491Y-12826960D01*
X10441491Y-12826960D02*
X10451015Y-12817436D01*
X10451015Y-12817436D02*
X10451015Y-12836484D01*
X10584348Y-12636484D02*
X10603396Y-12636484D01*
X10603396Y-12636484D02*
X10622444Y-12646008D01*
X10622444Y-12646008D02*
X10631968Y-12655531D01*
X10631968Y-12655531D02*
X10641491Y-12674579D01*
X10641491Y-12674579D02*
X10651015Y-12712674D01*
X10651015Y-12712674D02*
X10651015Y-12760293D01*
X10651015Y-12760293D02*
X10641491Y-12798388D01*
X10641491Y-12798388D02*
X10631968Y-12817436D01*
X10631968Y-12817436D02*
X10622444Y-12826960D01*
X10622444Y-12826960D02*
X10603396Y-12836484D01*
X10603396Y-12836484D02*
X10584348Y-12836484D01*
X10584348Y-12836484D02*
X10565301Y-12826960D01*
X10565301Y-12826960D02*
X10555777Y-12817436D01*
X10555777Y-12817436D02*
X10546253Y-12798388D01*
X10546253Y-12798388D02*
X10536729Y-12760293D01*
X10536729Y-12760293D02*
X10536729Y-12712674D01*
X10536729Y-12712674D02*
X10546253Y-12674579D01*
X10546253Y-12674579D02*
X10555777Y-12655531D01*
X10555777Y-12655531D02*
X10565301Y-12646008D01*
X10565301Y-12646008D02*
X10584348Y-12636484D01*
X10841491Y-12836484D02*
X10727206Y-12836484D01*
X10784348Y-12836484D02*
X10784348Y-12636484D01*
X10784348Y-12636484D02*
X10765301Y-12665055D01*
X10765301Y-12665055D02*
X10746253Y-12684103D01*
X10746253Y-12684103D02*
X10727206Y-12693627D01*
X11022444Y-12636484D02*
X10927206Y-12636484D01*
X10927206Y-12636484D02*
X10917682Y-12731722D01*
X10917682Y-12731722D02*
X10927206Y-12722198D01*
X10927206Y-12722198D02*
X10946253Y-12712674D01*
X10946253Y-12712674D02*
X10993872Y-12712674D01*
X10993872Y-12712674D02*
X11012920Y-12722198D01*
X11012920Y-12722198D02*
X11022444Y-12731722D01*
X11022444Y-12731722D02*
X11031968Y-12750769D01*
X11031968Y-12750769D02*
X11031968Y-12798388D01*
X11031968Y-12798388D02*
X11022444Y-12817436D01*
X11022444Y-12817436D02*
X11012920Y-12826960D01*
X11012920Y-12826960D02*
X10993872Y-12836484D01*
X10993872Y-12836484D02*
X10946253Y-12836484D01*
X10946253Y-12836484D02*
X10927206Y-12826960D01*
X10927206Y-12826960D02*
X10917682Y-12817436D01*
X11098634Y-12636484D02*
X11231967Y-12636484D01*
X11231967Y-12636484D02*
X11146253Y-12836484D01*
X11298634Y-12636484D02*
X11298634Y-12674579D01*
X11374825Y-12636484D02*
X11374825Y-12674579D01*
X11670063Y-12912674D02*
X11660539Y-12903150D01*
X11660539Y-12903150D02*
X11641491Y-12874579D01*
X11641491Y-12874579D02*
X11631968Y-12855531D01*
X11631968Y-12855531D02*
X11622444Y-12826960D01*
X11622444Y-12826960D02*
X11612920Y-12779341D01*
X11612920Y-12779341D02*
X11612920Y-12741246D01*
X11612920Y-12741246D02*
X11622444Y-12693627D01*
X11622444Y-12693627D02*
X11631968Y-12665055D01*
X11631968Y-12665055D02*
X11641491Y-12646008D01*
X11641491Y-12646008D02*
X11660539Y-12617436D01*
X11660539Y-12617436D02*
X11670063Y-12607912D01*
X11736729Y-12655531D02*
X11746253Y-12646008D01*
X11746253Y-12646008D02*
X11765301Y-12636484D01*
X11765301Y-12636484D02*
X11812920Y-12636484D01*
X11812920Y-12636484D02*
X11831968Y-12646008D01*
X11831968Y-12646008D02*
X11841491Y-12655531D01*
X11841491Y-12655531D02*
X11851015Y-12674579D01*
X11851015Y-12674579D02*
X11851015Y-12693627D01*
X11851015Y-12693627D02*
X11841491Y-12722198D01*
X11841491Y-12722198D02*
X11727206Y-12836484D01*
X11727206Y-12836484D02*
X11851015Y-12836484D01*
X11974825Y-12636484D02*
X11993872Y-12636484D01*
X11993872Y-12636484D02*
X12012920Y-12646008D01*
X12012920Y-12646008D02*
X12022444Y-12655531D01*
X12022444Y-12655531D02*
X12031968Y-12674579D01*
X12031968Y-12674579D02*
X12041491Y-12712674D01*
X12041491Y-12712674D02*
X12041491Y-12760293D01*
X12041491Y-12760293D02*
X12031968Y-12798388D01*
X12031968Y-12798388D02*
X12022444Y-12817436D01*
X12022444Y-12817436D02*
X12012920Y-12826960D01*
X12012920Y-12826960D02*
X11993872Y-12836484D01*
X11993872Y-12836484D02*
X11974825Y-12836484D01*
X11974825Y-12836484D02*
X11955777Y-12826960D01*
X11955777Y-12826960D02*
X11946253Y-12817436D01*
X11946253Y-12817436D02*
X11936729Y-12798388D01*
X11936729Y-12798388D02*
X11927206Y-12760293D01*
X11927206Y-12760293D02*
X11927206Y-12712674D01*
X11927206Y-12712674D02*
X11936729Y-12674579D01*
X11936729Y-12674579D02*
X11946253Y-12655531D01*
X11946253Y-12655531D02*
X11955777Y-12646008D01*
X11955777Y-12646008D02*
X11974825Y-12636484D01*
X12165301Y-12636484D02*
X12184349Y-12636484D01*
X12184349Y-12636484D02*
X12203396Y-12646008D01*
X12203396Y-12646008D02*
X12212920Y-12655531D01*
X12212920Y-12655531D02*
X12222444Y-12674579D01*
X12222444Y-12674579D02*
X12231968Y-12712674D01*
X12231968Y-12712674D02*
X12231968Y-12760293D01*
X12231968Y-12760293D02*
X12222444Y-12798388D01*
X12222444Y-12798388D02*
X12212920Y-12817436D01*
X12212920Y-12817436D02*
X12203396Y-12826960D01*
X12203396Y-12826960D02*
X12184349Y-12836484D01*
X12184349Y-12836484D02*
X12165301Y-12836484D01*
X12165301Y-12836484D02*
X12146253Y-12826960D01*
X12146253Y-12826960D02*
X12136729Y-12817436D01*
X12136729Y-12817436D02*
X12127206Y-12798388D01*
X12127206Y-12798388D02*
X12117682Y-12760293D01*
X12117682Y-12760293D02*
X12117682Y-12712674D01*
X12117682Y-12712674D02*
X12127206Y-12674579D01*
X12127206Y-12674579D02*
X12136729Y-12655531D01*
X12136729Y-12655531D02*
X12146253Y-12646008D01*
X12146253Y-12646008D02*
X12165301Y-12636484D01*
X12470063Y-12836484D02*
X12470063Y-12636484D01*
X12555777Y-12836484D02*
X12555777Y-12731722D01*
X12555777Y-12731722D02*
X12546253Y-12712674D01*
X12546253Y-12712674D02*
X12527206Y-12703150D01*
X12527206Y-12703150D02*
X12498634Y-12703150D01*
X12498634Y-12703150D02*
X12479587Y-12712674D01*
X12479587Y-12712674D02*
X12470063Y-12722198D01*
X12679587Y-12836484D02*
X12660539Y-12826960D01*
X12660539Y-12826960D02*
X12651015Y-12817436D01*
X12651015Y-12817436D02*
X12641491Y-12798388D01*
X12641491Y-12798388D02*
X12641491Y-12741246D01*
X12641491Y-12741246D02*
X12651015Y-12722198D01*
X12651015Y-12722198D02*
X12660539Y-12712674D01*
X12660539Y-12712674D02*
X12679587Y-12703150D01*
X12679587Y-12703150D02*
X12708158Y-12703150D01*
X12708158Y-12703150D02*
X12727206Y-12712674D01*
X12727206Y-12712674D02*
X12736730Y-12722198D01*
X12736730Y-12722198D02*
X12746253Y-12741246D01*
X12746253Y-12741246D02*
X12746253Y-12798388D01*
X12746253Y-12798388D02*
X12736730Y-12817436D01*
X12736730Y-12817436D02*
X12727206Y-12826960D01*
X12727206Y-12826960D02*
X12708158Y-12836484D01*
X12708158Y-12836484D02*
X12679587Y-12836484D01*
X12860539Y-12836484D02*
X12841491Y-12826960D01*
X12841491Y-12826960D02*
X12831968Y-12807912D01*
X12831968Y-12807912D02*
X12831968Y-12636484D01*
X13012920Y-12826960D02*
X12993872Y-12836484D01*
X12993872Y-12836484D02*
X12955777Y-12836484D01*
X12955777Y-12836484D02*
X12936730Y-12826960D01*
X12936730Y-12826960D02*
X12927206Y-12807912D01*
X12927206Y-12807912D02*
X12927206Y-12731722D01*
X12927206Y-12731722D02*
X12936730Y-12712674D01*
X12936730Y-12712674D02*
X12955777Y-12703150D01*
X12955777Y-12703150D02*
X12993872Y-12703150D01*
X12993872Y-12703150D02*
X13012920Y-12712674D01*
X13012920Y-12712674D02*
X13022444Y-12731722D01*
X13022444Y-12731722D02*
X13022444Y-12750769D01*
X13022444Y-12750769D02*
X12927206Y-12769817D01*
X13098634Y-12826960D02*
X13117682Y-12836484D01*
X13117682Y-12836484D02*
X13155777Y-12836484D01*
X13155777Y-12836484D02*
X13174825Y-12826960D01*
X13174825Y-12826960D02*
X13184349Y-12807912D01*
X13184349Y-12807912D02*
X13184349Y-12798388D01*
X13184349Y-12798388D02*
X13174825Y-12779341D01*
X13174825Y-12779341D02*
X13155777Y-12769817D01*
X13155777Y-12769817D02*
X13127206Y-12769817D01*
X13127206Y-12769817D02*
X13108158Y-12760293D01*
X13108158Y-12760293D02*
X13098634Y-12741246D01*
X13098634Y-12741246D02*
X13098634Y-12731722D01*
X13098634Y-12731722D02*
X13108158Y-12712674D01*
X13108158Y-12712674D02*
X13127206Y-12703150D01*
X13127206Y-12703150D02*
X13155777Y-12703150D01*
X13155777Y-12703150D02*
X13174825Y-12712674D01*
X13251015Y-12912674D02*
X13260539Y-12903150D01*
X13260539Y-12903150D02*
X13279587Y-12874579D01*
X13279587Y-12874579D02*
X13289111Y-12855531D01*
X13289111Y-12855531D02*
X13298634Y-12826960D01*
X13298634Y-12826960D02*
X13308158Y-12779341D01*
X13308158Y-12779341D02*
X13308158Y-12741246D01*
X13308158Y-12741246D02*
X13298634Y-12693627D01*
X13298634Y-12693627D02*
X13289111Y-12665055D01*
X13289111Y-12665055D02*
X13279587Y-12646008D01*
X13279587Y-12646008D02*
X13260539Y-12617436D01*
X13260539Y-12617436D02*
X13251015Y-12607912D01*
D10*
X8095000Y-13009000D02*
G75*
G02*
X8035000Y-13009000I-30000J0D01*
G01*
X8035000Y-13009000D02*
G75*
G02*
X8095000Y-13009000I30000J0D01*
G01*
D11*
X8393872Y-12900484D02*
X8412920Y-12900484D01*
X8412920Y-12900484D02*
X8431967Y-12910008D01*
X8431967Y-12910008D02*
X8441491Y-12919531D01*
X8441491Y-12919531D02*
X8451015Y-12938579D01*
X8451015Y-12938579D02*
X8460539Y-12976674D01*
X8460539Y-12976674D02*
X8460539Y-13024293D01*
X8460539Y-13024293D02*
X8451015Y-13062388D01*
X8451015Y-13062388D02*
X8441491Y-13081436D01*
X8441491Y-13081436D02*
X8431967Y-13090960D01*
X8431967Y-13090960D02*
X8412920Y-13100484D01*
X8412920Y-13100484D02*
X8393872Y-13100484D01*
X8393872Y-13100484D02*
X8374824Y-13090960D01*
X8374824Y-13090960D02*
X8365301Y-13081436D01*
X8365301Y-13081436D02*
X8355777Y-13062388D01*
X8355777Y-13062388D02*
X8346253Y-13024293D01*
X8346253Y-13024293D02*
X8346253Y-12976674D01*
X8346253Y-12976674D02*
X8355777Y-12938579D01*
X8355777Y-12938579D02*
X8365301Y-12919531D01*
X8365301Y-12919531D02*
X8374824Y-12910008D01*
X8374824Y-12910008D02*
X8393872Y-12900484D01*
X8546253Y-13081436D02*
X8555777Y-13090960D01*
X8555777Y-13090960D02*
X8546253Y-13100484D01*
X8546253Y-13100484D02*
X8536729Y-13090960D01*
X8536729Y-13090960D02*
X8546253Y-13081436D01*
X8546253Y-13081436D02*
X8546253Y-13100484D01*
X8727205Y-12900484D02*
X8689110Y-12900484D01*
X8689110Y-12900484D02*
X8670063Y-12910008D01*
X8670063Y-12910008D02*
X8660539Y-12919531D01*
X8660539Y-12919531D02*
X8641491Y-12948103D01*
X8641491Y-12948103D02*
X8631967Y-12986198D01*
X8631967Y-12986198D02*
X8631967Y-13062388D01*
X8631967Y-13062388D02*
X8641491Y-13081436D01*
X8641491Y-13081436D02*
X8651015Y-13090960D01*
X8651015Y-13090960D02*
X8670063Y-13100484D01*
X8670063Y-13100484D02*
X8708158Y-13100484D01*
X8708158Y-13100484D02*
X8727205Y-13090960D01*
X8727205Y-13090960D02*
X8736729Y-13081436D01*
X8736729Y-13081436D02*
X8746253Y-13062388D01*
X8746253Y-13062388D02*
X8746253Y-13014769D01*
X8746253Y-13014769D02*
X8736729Y-12995722D01*
X8736729Y-12995722D02*
X8727205Y-12986198D01*
X8727205Y-12986198D02*
X8708158Y-12976674D01*
X8708158Y-12976674D02*
X8670063Y-12976674D01*
X8670063Y-12976674D02*
X8651015Y-12986198D01*
X8651015Y-12986198D02*
X8641491Y-12995722D01*
X8641491Y-12995722D02*
X8631967Y-13014769D01*
X8870063Y-12900484D02*
X8889110Y-12900484D01*
X8889110Y-12900484D02*
X8908158Y-12910008D01*
X8908158Y-12910008D02*
X8917682Y-12919531D01*
X8917682Y-12919531D02*
X8927205Y-12938579D01*
X8927205Y-12938579D02*
X8936729Y-12976674D01*
X8936729Y-12976674D02*
X8936729Y-13024293D01*
X8936729Y-13024293D02*
X8927205Y-13062388D01*
X8927205Y-13062388D02*
X8917682Y-13081436D01*
X8917682Y-13081436D02*
X8908158Y-13090960D01*
X8908158Y-13090960D02*
X8889110Y-13100484D01*
X8889110Y-13100484D02*
X8870063Y-13100484D01*
X8870063Y-13100484D02*
X8851015Y-13090960D01*
X8851015Y-13090960D02*
X8841491Y-13081436D01*
X8841491Y-13081436D02*
X8831967Y-13062388D01*
X8831967Y-13062388D02*
X8822444Y-13024293D01*
X8822444Y-13024293D02*
X8822444Y-12976674D01*
X8822444Y-12976674D02*
X8831967Y-12938579D01*
X8831967Y-12938579D02*
X8841491Y-12919531D01*
X8841491Y-12919531D02*
X8851015Y-12910008D01*
X8851015Y-12910008D02*
X8870063Y-12900484D01*
X9060539Y-12900484D02*
X9079586Y-12900484D01*
X9079586Y-12900484D02*
X9098634Y-12910008D01*
X9098634Y-12910008D02*
X9108158Y-12919531D01*
X9108158Y-12919531D02*
X9117682Y-12938579D01*
X9117682Y-12938579D02*
X9127205Y-12976674D01*
X9127205Y-12976674D02*
X9127205Y-13024293D01*
X9127205Y-13024293D02*
X9117682Y-13062388D01*
X9117682Y-13062388D02*
X9108158Y-13081436D01*
X9108158Y-13081436D02*
X9098634Y-13090960D01*
X9098634Y-13090960D02*
X9079586Y-13100484D01*
X9079586Y-13100484D02*
X9060539Y-13100484D01*
X9060539Y-13100484D02*
X9041491Y-13090960D01*
X9041491Y-13090960D02*
X9031967Y-13081436D01*
X9031967Y-13081436D02*
X9022444Y-13062388D01*
X9022444Y-13062388D02*
X9012920Y-13024293D01*
X9012920Y-13024293D02*
X9012920Y-12976674D01*
X9012920Y-12976674D02*
X9022444Y-12938579D01*
X9022444Y-12938579D02*
X9031967Y-12919531D01*
X9031967Y-12919531D02*
X9041491Y-12910008D01*
X9041491Y-12910008D02*
X9060539Y-12900484D01*
X9212920Y-13100484D02*
X9212920Y-12967150D01*
X9212920Y-12986198D02*
X9222444Y-12976674D01*
X9222444Y-12976674D02*
X9241491Y-12967150D01*
X9241491Y-12967150D02*
X9270063Y-12967150D01*
X9270063Y-12967150D02*
X9289110Y-12976674D01*
X9289110Y-12976674D02*
X9298634Y-12995722D01*
X9298634Y-12995722D02*
X9298634Y-13100484D01*
X9298634Y-12995722D02*
X9308158Y-12976674D01*
X9308158Y-12976674D02*
X9327205Y-12967150D01*
X9327205Y-12967150D02*
X9355777Y-12967150D01*
X9355777Y-12967150D02*
X9374825Y-12976674D01*
X9374825Y-12976674D02*
X9384348Y-12995722D01*
X9384348Y-12995722D02*
X9384348Y-13100484D01*
X9479586Y-13100484D02*
X9479586Y-12967150D01*
X9479586Y-12986198D02*
X9489110Y-12976674D01*
X9489110Y-12976674D02*
X9508158Y-12967150D01*
X9508158Y-12967150D02*
X9536729Y-12967150D01*
X9536729Y-12967150D02*
X9555777Y-12976674D01*
X9555777Y-12976674D02*
X9565301Y-12995722D01*
X9565301Y-12995722D02*
X9565301Y-13100484D01*
X9565301Y-12995722D02*
X9574825Y-12976674D01*
X9574825Y-12976674D02*
X9593872Y-12967150D01*
X9593872Y-12967150D02*
X9622444Y-12967150D01*
X9622444Y-12967150D02*
X9641491Y-12976674D01*
X9641491Y-12976674D02*
X9651015Y-12995722D01*
X9651015Y-12995722D02*
X9651015Y-13100484D01*
X10041491Y-12890960D02*
X9870063Y-13148103D01*
X10298634Y-12900484D02*
X10317682Y-12900484D01*
X10317682Y-12900484D02*
X10336729Y-12910008D01*
X10336729Y-12910008D02*
X10346253Y-12919531D01*
X10346253Y-12919531D02*
X10355777Y-12938579D01*
X10355777Y-12938579D02*
X10365301Y-12976674D01*
X10365301Y-12976674D02*
X10365301Y-13024293D01*
X10365301Y-13024293D02*
X10355777Y-13062388D01*
X10355777Y-13062388D02*
X10346253Y-13081436D01*
X10346253Y-13081436D02*
X10336729Y-13090960D01*
X10336729Y-13090960D02*
X10317682Y-13100484D01*
X10317682Y-13100484D02*
X10298634Y-13100484D01*
X10298634Y-13100484D02*
X10279587Y-13090960D01*
X10279587Y-13090960D02*
X10270063Y-13081436D01*
X10270063Y-13081436D02*
X10260539Y-13062388D01*
X10260539Y-13062388D02*
X10251015Y-13024293D01*
X10251015Y-13024293D02*
X10251015Y-12976674D01*
X10251015Y-12976674D02*
X10260539Y-12938579D01*
X10260539Y-12938579D02*
X10270063Y-12919531D01*
X10270063Y-12919531D02*
X10279587Y-12910008D01*
X10279587Y-12910008D02*
X10298634Y-12900484D01*
X10451015Y-13081436D02*
X10460539Y-13090960D01*
X10460539Y-13090960D02*
X10451015Y-13100484D01*
X10451015Y-13100484D02*
X10441491Y-13090960D01*
X10441491Y-13090960D02*
X10451015Y-13081436D01*
X10451015Y-13081436D02*
X10451015Y-13100484D01*
X10584348Y-12900484D02*
X10603396Y-12900484D01*
X10603396Y-12900484D02*
X10622444Y-12910008D01*
X10622444Y-12910008D02*
X10631968Y-12919531D01*
X10631968Y-12919531D02*
X10641491Y-12938579D01*
X10641491Y-12938579D02*
X10651015Y-12976674D01*
X10651015Y-12976674D02*
X10651015Y-13024293D01*
X10651015Y-13024293D02*
X10641491Y-13062388D01*
X10641491Y-13062388D02*
X10631968Y-13081436D01*
X10631968Y-13081436D02*
X10622444Y-13090960D01*
X10622444Y-13090960D02*
X10603396Y-13100484D01*
X10603396Y-13100484D02*
X10584348Y-13100484D01*
X10584348Y-13100484D02*
X10565301Y-13090960D01*
X10565301Y-13090960D02*
X10555777Y-13081436D01*
X10555777Y-13081436D02*
X10546253Y-13062388D01*
X10546253Y-13062388D02*
X10536729Y-13024293D01*
X10536729Y-13024293D02*
X10536729Y-12976674D01*
X10536729Y-12976674D02*
X10546253Y-12938579D01*
X10546253Y-12938579D02*
X10555777Y-12919531D01*
X10555777Y-12919531D02*
X10565301Y-12910008D01*
X10565301Y-12910008D02*
X10584348Y-12900484D01*
X10727206Y-12919531D02*
X10736729Y-12910008D01*
X10736729Y-12910008D02*
X10755777Y-12900484D01*
X10755777Y-12900484D02*
X10803396Y-12900484D01*
X10803396Y-12900484D02*
X10822444Y-12910008D01*
X10822444Y-12910008D02*
X10831968Y-12919531D01*
X10831968Y-12919531D02*
X10841491Y-12938579D01*
X10841491Y-12938579D02*
X10841491Y-12957627D01*
X10841491Y-12957627D02*
X10831968Y-12986198D01*
X10831968Y-12986198D02*
X10717682Y-13100484D01*
X10717682Y-13100484D02*
X10841491Y-13100484D01*
X10908158Y-12900484D02*
X11031968Y-12900484D01*
X11031968Y-12900484D02*
X10965301Y-12976674D01*
X10965301Y-12976674D02*
X10993872Y-12976674D01*
X10993872Y-12976674D02*
X11012920Y-12986198D01*
X11012920Y-12986198D02*
X11022444Y-12995722D01*
X11022444Y-12995722D02*
X11031968Y-13014769D01*
X11031968Y-13014769D02*
X11031968Y-13062388D01*
X11031968Y-13062388D02*
X11022444Y-13081436D01*
X11022444Y-13081436D02*
X11012920Y-13090960D01*
X11012920Y-13090960D02*
X10993872Y-13100484D01*
X10993872Y-13100484D02*
X10936729Y-13100484D01*
X10936729Y-13100484D02*
X10917682Y-13090960D01*
X10917682Y-13090960D02*
X10908158Y-13081436D01*
X11203396Y-12900484D02*
X11165301Y-12900484D01*
X11165301Y-12900484D02*
X11146253Y-12910008D01*
X11146253Y-12910008D02*
X11136729Y-12919531D01*
X11136729Y-12919531D02*
X11117682Y-12948103D01*
X11117682Y-12948103D02*
X11108158Y-12986198D01*
X11108158Y-12986198D02*
X11108158Y-13062388D01*
X11108158Y-13062388D02*
X11117682Y-13081436D01*
X11117682Y-13081436D02*
X11127206Y-13090960D01*
X11127206Y-13090960D02*
X11146253Y-13100484D01*
X11146253Y-13100484D02*
X11184349Y-13100484D01*
X11184349Y-13100484D02*
X11203396Y-13090960D01*
X11203396Y-13090960D02*
X11212920Y-13081436D01*
X11212920Y-13081436D02*
X11222444Y-13062388D01*
X11222444Y-13062388D02*
X11222444Y-13014769D01*
X11222444Y-13014769D02*
X11212920Y-12995722D01*
X11212920Y-12995722D02*
X11203396Y-12986198D01*
X11203396Y-12986198D02*
X11184349Y-12976674D01*
X11184349Y-12976674D02*
X11146253Y-12976674D01*
X11146253Y-12976674D02*
X11127206Y-12986198D01*
X11127206Y-12986198D02*
X11117682Y-12995722D01*
X11117682Y-12995722D02*
X11108158Y-13014769D01*
X11298634Y-12900484D02*
X11298634Y-12938579D01*
X11374825Y-12900484D02*
X11374825Y-12938579D01*
X11670063Y-13176674D02*
X11660539Y-13167150D01*
X11660539Y-13167150D02*
X11641491Y-13138579D01*
X11641491Y-13138579D02*
X11631968Y-13119531D01*
X11631968Y-13119531D02*
X11622444Y-13090960D01*
X11622444Y-13090960D02*
X11612920Y-13043341D01*
X11612920Y-13043341D02*
X11612920Y-13005246D01*
X11612920Y-13005246D02*
X11622444Y-12957627D01*
X11622444Y-12957627D02*
X11631968Y-12929055D01*
X11631968Y-12929055D02*
X11641491Y-12910008D01*
X11641491Y-12910008D02*
X11660539Y-12881436D01*
X11660539Y-12881436D02*
X11670063Y-12871912D01*
X11784348Y-12900484D02*
X11803396Y-12900484D01*
X11803396Y-12900484D02*
X11822444Y-12910008D01*
X11822444Y-12910008D02*
X11831968Y-12919531D01*
X11831968Y-12919531D02*
X11841491Y-12938579D01*
X11841491Y-12938579D02*
X11851015Y-12976674D01*
X11851015Y-12976674D02*
X11851015Y-13024293D01*
X11851015Y-13024293D02*
X11841491Y-13062388D01*
X11841491Y-13062388D02*
X11831968Y-13081436D01*
X11831968Y-13081436D02*
X11822444Y-13090960D01*
X11822444Y-13090960D02*
X11803396Y-13100484D01*
X11803396Y-13100484D02*
X11784348Y-13100484D01*
X11784348Y-13100484D02*
X11765301Y-13090960D01*
X11765301Y-13090960D02*
X11755777Y-13081436D01*
X11755777Y-13081436D02*
X11746253Y-13062388D01*
X11746253Y-13062388D02*
X11736729Y-13024293D01*
X11736729Y-13024293D02*
X11736729Y-12976674D01*
X11736729Y-12976674D02*
X11746253Y-12938579D01*
X11746253Y-12938579D02*
X11755777Y-12919531D01*
X11755777Y-12919531D02*
X11765301Y-12910008D01*
X11765301Y-12910008D02*
X11784348Y-12900484D01*
X12089110Y-13100484D02*
X12089110Y-12900484D01*
X12174825Y-13100484D02*
X12174825Y-12995722D01*
X12174825Y-12995722D02*
X12165301Y-12976674D01*
X12165301Y-12976674D02*
X12146253Y-12967150D01*
X12146253Y-12967150D02*
X12117682Y-12967150D01*
X12117682Y-12967150D02*
X12098634Y-12976674D01*
X12098634Y-12976674D02*
X12089110Y-12986198D01*
X12298634Y-13100484D02*
X12279587Y-13090960D01*
X12279587Y-13090960D02*
X12270063Y-13081436D01*
X12270063Y-13081436D02*
X12260539Y-13062388D01*
X12260539Y-13062388D02*
X12260539Y-13005246D01*
X12260539Y-13005246D02*
X12270063Y-12986198D01*
X12270063Y-12986198D02*
X12279587Y-12976674D01*
X12279587Y-12976674D02*
X12298634Y-12967150D01*
X12298634Y-12967150D02*
X12327206Y-12967150D01*
X12327206Y-12967150D02*
X12346253Y-12976674D01*
X12346253Y-12976674D02*
X12355777Y-12986198D01*
X12355777Y-12986198D02*
X12365301Y-13005246D01*
X12365301Y-13005246D02*
X12365301Y-13062388D01*
X12365301Y-13062388D02*
X12355777Y-13081436D01*
X12355777Y-13081436D02*
X12346253Y-13090960D01*
X12346253Y-13090960D02*
X12327206Y-13100484D01*
X12327206Y-13100484D02*
X12298634Y-13100484D01*
X12479587Y-13100484D02*
X12460539Y-13090960D01*
X12460539Y-13090960D02*
X12451015Y-13071912D01*
X12451015Y-13071912D02*
X12451015Y-12900484D01*
X12631968Y-13090960D02*
X12612920Y-13100484D01*
X12612920Y-13100484D02*
X12574825Y-13100484D01*
X12574825Y-13100484D02*
X12555777Y-13090960D01*
X12555777Y-13090960D02*
X12546253Y-13071912D01*
X12546253Y-13071912D02*
X12546253Y-12995722D01*
X12546253Y-12995722D02*
X12555777Y-12976674D01*
X12555777Y-12976674D02*
X12574825Y-12967150D01*
X12574825Y-12967150D02*
X12612920Y-12967150D01*
X12612920Y-12967150D02*
X12631968Y-12976674D01*
X12631968Y-12976674D02*
X12641491Y-12995722D01*
X12641491Y-12995722D02*
X12641491Y-13014769D01*
X12641491Y-13014769D02*
X12546253Y-13033817D01*
X12717682Y-13090960D02*
X12736730Y-13100484D01*
X12736730Y-13100484D02*
X12774825Y-13100484D01*
X12774825Y-13100484D02*
X12793872Y-13090960D01*
X12793872Y-13090960D02*
X12803396Y-13071912D01*
X12803396Y-13071912D02*
X12803396Y-13062388D01*
X12803396Y-13062388D02*
X12793872Y-13043341D01*
X12793872Y-13043341D02*
X12774825Y-13033817D01*
X12774825Y-13033817D02*
X12746253Y-13033817D01*
X12746253Y-13033817D02*
X12727206Y-13024293D01*
X12727206Y-13024293D02*
X12717682Y-13005246D01*
X12717682Y-13005246D02*
X12717682Y-12995722D01*
X12717682Y-12995722D02*
X12727206Y-12976674D01*
X12727206Y-12976674D02*
X12746253Y-12967150D01*
X12746253Y-12967150D02*
X12774825Y-12967150D01*
X12774825Y-12967150D02*
X12793872Y-12976674D01*
X13041492Y-13024293D02*
X13193873Y-13024293D01*
X13117682Y-13100484D02*
X13117682Y-12948103D01*
X13527206Y-12967150D02*
X13527206Y-13100484D01*
X13479587Y-12890960D02*
X13431968Y-13033817D01*
X13431968Y-13033817D02*
X13555777Y-13033817D01*
X13774825Y-13090960D02*
X13793873Y-13100484D01*
X13793873Y-13100484D02*
X13831968Y-13100484D01*
X13831968Y-13100484D02*
X13851015Y-13090960D01*
X13851015Y-13090960D02*
X13860539Y-13071912D01*
X13860539Y-13071912D02*
X13860539Y-13062388D01*
X13860539Y-13062388D02*
X13851015Y-13043341D01*
X13851015Y-13043341D02*
X13831968Y-13033817D01*
X13831968Y-13033817D02*
X13803396Y-13033817D01*
X13803396Y-13033817D02*
X13784349Y-13024293D01*
X13784349Y-13024293D02*
X13774825Y-13005246D01*
X13774825Y-13005246D02*
X13774825Y-12995722D01*
X13774825Y-12995722D02*
X13784349Y-12976674D01*
X13784349Y-12976674D02*
X13803396Y-12967150D01*
X13803396Y-12967150D02*
X13831968Y-12967150D01*
X13831968Y-12967150D02*
X13851015Y-12976674D01*
X13974825Y-13100484D02*
X13955777Y-13090960D01*
X13955777Y-13090960D02*
X13946254Y-13071912D01*
X13946254Y-13071912D02*
X13946254Y-12900484D01*
X14079587Y-13100484D02*
X14060539Y-13090960D01*
X14060539Y-13090960D02*
X14051015Y-13081436D01*
X14051015Y-13081436D02*
X14041492Y-13062388D01*
X14041492Y-13062388D02*
X14041492Y-13005246D01*
X14041492Y-13005246D02*
X14051015Y-12986198D01*
X14051015Y-12986198D02*
X14060539Y-12976674D01*
X14060539Y-12976674D02*
X14079587Y-12967150D01*
X14079587Y-12967150D02*
X14108158Y-12967150D01*
X14108158Y-12967150D02*
X14127206Y-12976674D01*
X14127206Y-12976674D02*
X14136730Y-12986198D01*
X14136730Y-12986198D02*
X14146254Y-13005246D01*
X14146254Y-13005246D02*
X14146254Y-13062388D01*
X14146254Y-13062388D02*
X14136730Y-13081436D01*
X14136730Y-13081436D02*
X14127206Y-13090960D01*
X14127206Y-13090960D02*
X14108158Y-13100484D01*
X14108158Y-13100484D02*
X14079587Y-13100484D01*
X14203396Y-12967150D02*
X14279587Y-12967150D01*
X14231968Y-12900484D02*
X14231968Y-13071912D01*
X14231968Y-13071912D02*
X14241492Y-13090960D01*
X14241492Y-13090960D02*
X14260539Y-13100484D01*
X14260539Y-13100484D02*
X14279587Y-13100484D01*
X14336730Y-13090960D02*
X14355777Y-13100484D01*
X14355777Y-13100484D02*
X14393873Y-13100484D01*
X14393873Y-13100484D02*
X14412920Y-13090960D01*
X14412920Y-13090960D02*
X14422444Y-13071912D01*
X14422444Y-13071912D02*
X14422444Y-13062388D01*
X14422444Y-13062388D02*
X14412920Y-13043341D01*
X14412920Y-13043341D02*
X14393873Y-13033817D01*
X14393873Y-13033817D02*
X14365301Y-13033817D01*
X14365301Y-13033817D02*
X14346254Y-13024293D01*
X14346254Y-13024293D02*
X14336730Y-13005246D01*
X14336730Y-13005246D02*
X14336730Y-12995722D01*
X14336730Y-12995722D02*
X14346254Y-12976674D01*
X14346254Y-12976674D02*
X14365301Y-12967150D01*
X14365301Y-12967150D02*
X14393873Y-12967150D01*
X14393873Y-12967150D02*
X14412920Y-12976674D01*
X14489111Y-13176674D02*
X14498635Y-13167150D01*
X14498635Y-13167150D02*
X14517682Y-13138579D01*
X14517682Y-13138579D02*
X14527206Y-13119531D01*
X14527206Y-13119531D02*
X14536730Y-13090960D01*
X14536730Y-13090960D02*
X14546254Y-13043341D01*
X14546254Y-13043341D02*
X14546254Y-13005246D01*
X14546254Y-13005246D02*
X14536730Y-12957627D01*
X14536730Y-12957627D02*
X14527206Y-12929055D01*
X14527206Y-12929055D02*
X14517682Y-12910008D01*
X14517682Y-12910008D02*
X14498635Y-12881436D01*
X14498635Y-12881436D02*
X14489111Y-12871912D01*
D10*
X8049000Y-13227000D02*
X8049000Y-13319000D01*
X8003000Y-13273000D02*
X8095000Y-13273000D01*
D11*
X8393872Y-13164484D02*
X8412920Y-13164484D01*
X8412920Y-13164484D02*
X8431967Y-13174008D01*
X8431967Y-13174008D02*
X8441491Y-13183531D01*
X8441491Y-13183531D02*
X8451015Y-13202579D01*
X8451015Y-13202579D02*
X8460539Y-13240674D01*
X8460539Y-13240674D02*
X8460539Y-13288293D01*
X8460539Y-13288293D02*
X8451015Y-13326388D01*
X8451015Y-13326388D02*
X8441491Y-13345436D01*
X8441491Y-13345436D02*
X8431967Y-13354960D01*
X8431967Y-13354960D02*
X8412920Y-13364484D01*
X8412920Y-13364484D02*
X8393872Y-13364484D01*
X8393872Y-13364484D02*
X8374824Y-13354960D01*
X8374824Y-13354960D02*
X8365301Y-13345436D01*
X8365301Y-13345436D02*
X8355777Y-13326388D01*
X8355777Y-13326388D02*
X8346253Y-13288293D01*
X8346253Y-13288293D02*
X8346253Y-13240674D01*
X8346253Y-13240674D02*
X8355777Y-13202579D01*
X8355777Y-13202579D02*
X8365301Y-13183531D01*
X8365301Y-13183531D02*
X8374824Y-13174008D01*
X8374824Y-13174008D02*
X8393872Y-13164484D01*
X8546253Y-13345436D02*
X8555777Y-13354960D01*
X8555777Y-13354960D02*
X8546253Y-13364484D01*
X8546253Y-13364484D02*
X8536729Y-13354960D01*
X8536729Y-13354960D02*
X8546253Y-13345436D01*
X8546253Y-13345436D02*
X8546253Y-13364484D01*
X8651015Y-13364484D02*
X8689110Y-13364484D01*
X8689110Y-13364484D02*
X8708158Y-13354960D01*
X8708158Y-13354960D02*
X8717682Y-13345436D01*
X8717682Y-13345436D02*
X8736729Y-13316865D01*
X8736729Y-13316865D02*
X8746253Y-13278769D01*
X8746253Y-13278769D02*
X8746253Y-13202579D01*
X8746253Y-13202579D02*
X8736729Y-13183531D01*
X8736729Y-13183531D02*
X8727205Y-13174008D01*
X8727205Y-13174008D02*
X8708158Y-13164484D01*
X8708158Y-13164484D02*
X8670063Y-13164484D01*
X8670063Y-13164484D02*
X8651015Y-13174008D01*
X8651015Y-13174008D02*
X8641491Y-13183531D01*
X8641491Y-13183531D02*
X8631967Y-13202579D01*
X8631967Y-13202579D02*
X8631967Y-13250198D01*
X8631967Y-13250198D02*
X8641491Y-13269246D01*
X8641491Y-13269246D02*
X8651015Y-13278769D01*
X8651015Y-13278769D02*
X8670063Y-13288293D01*
X8670063Y-13288293D02*
X8708158Y-13288293D01*
X8708158Y-13288293D02*
X8727205Y-13278769D01*
X8727205Y-13278769D02*
X8736729Y-13269246D01*
X8736729Y-13269246D02*
X8746253Y-13250198D01*
X8822444Y-13183531D02*
X8831967Y-13174008D01*
X8831967Y-13174008D02*
X8851015Y-13164484D01*
X8851015Y-13164484D02*
X8898634Y-13164484D01*
X8898634Y-13164484D02*
X8917682Y-13174008D01*
X8917682Y-13174008D02*
X8927205Y-13183531D01*
X8927205Y-13183531D02*
X8936729Y-13202579D01*
X8936729Y-13202579D02*
X8936729Y-13221627D01*
X8936729Y-13221627D02*
X8927205Y-13250198D01*
X8927205Y-13250198D02*
X8812920Y-13364484D01*
X8812920Y-13364484D02*
X8936729Y-13364484D01*
X9060539Y-13164484D02*
X9079586Y-13164484D01*
X9079586Y-13164484D02*
X9098634Y-13174008D01*
X9098634Y-13174008D02*
X9108158Y-13183531D01*
X9108158Y-13183531D02*
X9117682Y-13202579D01*
X9117682Y-13202579D02*
X9127205Y-13240674D01*
X9127205Y-13240674D02*
X9127205Y-13288293D01*
X9127205Y-13288293D02*
X9117682Y-13326388D01*
X9117682Y-13326388D02*
X9108158Y-13345436D01*
X9108158Y-13345436D02*
X9098634Y-13354960D01*
X9098634Y-13354960D02*
X9079586Y-13364484D01*
X9079586Y-13364484D02*
X9060539Y-13364484D01*
X9060539Y-13364484D02*
X9041491Y-13354960D01*
X9041491Y-13354960D02*
X9031967Y-13345436D01*
X9031967Y-13345436D02*
X9022444Y-13326388D01*
X9022444Y-13326388D02*
X9012920Y-13288293D01*
X9012920Y-13288293D02*
X9012920Y-13240674D01*
X9012920Y-13240674D02*
X9022444Y-13202579D01*
X9022444Y-13202579D02*
X9031967Y-13183531D01*
X9031967Y-13183531D02*
X9041491Y-13174008D01*
X9041491Y-13174008D02*
X9060539Y-13164484D01*
X9212920Y-13364484D02*
X9212920Y-13231150D01*
X9212920Y-13250198D02*
X9222444Y-13240674D01*
X9222444Y-13240674D02*
X9241491Y-13231150D01*
X9241491Y-13231150D02*
X9270063Y-13231150D01*
X9270063Y-13231150D02*
X9289110Y-13240674D01*
X9289110Y-13240674D02*
X9298634Y-13259722D01*
X9298634Y-13259722D02*
X9298634Y-13364484D01*
X9298634Y-13259722D02*
X9308158Y-13240674D01*
X9308158Y-13240674D02*
X9327205Y-13231150D01*
X9327205Y-13231150D02*
X9355777Y-13231150D01*
X9355777Y-13231150D02*
X9374825Y-13240674D01*
X9374825Y-13240674D02*
X9384348Y-13259722D01*
X9384348Y-13259722D02*
X9384348Y-13364484D01*
X9479586Y-13364484D02*
X9479586Y-13231150D01*
X9479586Y-13250198D02*
X9489110Y-13240674D01*
X9489110Y-13240674D02*
X9508158Y-13231150D01*
X9508158Y-13231150D02*
X9536729Y-13231150D01*
X9536729Y-13231150D02*
X9555777Y-13240674D01*
X9555777Y-13240674D02*
X9565301Y-13259722D01*
X9565301Y-13259722D02*
X9565301Y-13364484D01*
X9565301Y-13259722D02*
X9574825Y-13240674D01*
X9574825Y-13240674D02*
X9593872Y-13231150D01*
X9593872Y-13231150D02*
X9622444Y-13231150D01*
X9622444Y-13231150D02*
X9641491Y-13240674D01*
X9641491Y-13240674D02*
X9651015Y-13259722D01*
X9651015Y-13259722D02*
X9651015Y-13364484D01*
X10041491Y-13154960D02*
X9870063Y-13412103D01*
X10298634Y-13164484D02*
X10317682Y-13164484D01*
X10317682Y-13164484D02*
X10336729Y-13174008D01*
X10336729Y-13174008D02*
X10346253Y-13183531D01*
X10346253Y-13183531D02*
X10355777Y-13202579D01*
X10355777Y-13202579D02*
X10365301Y-13240674D01*
X10365301Y-13240674D02*
X10365301Y-13288293D01*
X10365301Y-13288293D02*
X10355777Y-13326388D01*
X10355777Y-13326388D02*
X10346253Y-13345436D01*
X10346253Y-13345436D02*
X10336729Y-13354960D01*
X10336729Y-13354960D02*
X10317682Y-13364484D01*
X10317682Y-13364484D02*
X10298634Y-13364484D01*
X10298634Y-13364484D02*
X10279587Y-13354960D01*
X10279587Y-13354960D02*
X10270063Y-13345436D01*
X10270063Y-13345436D02*
X10260539Y-13326388D01*
X10260539Y-13326388D02*
X10251015Y-13288293D01*
X10251015Y-13288293D02*
X10251015Y-13240674D01*
X10251015Y-13240674D02*
X10260539Y-13202579D01*
X10260539Y-13202579D02*
X10270063Y-13183531D01*
X10270063Y-13183531D02*
X10279587Y-13174008D01*
X10279587Y-13174008D02*
X10298634Y-13164484D01*
X10451015Y-13345436D02*
X10460539Y-13354960D01*
X10460539Y-13354960D02*
X10451015Y-13364484D01*
X10451015Y-13364484D02*
X10441491Y-13354960D01*
X10441491Y-13354960D02*
X10451015Y-13345436D01*
X10451015Y-13345436D02*
X10451015Y-13364484D01*
X10584348Y-13164484D02*
X10603396Y-13164484D01*
X10603396Y-13164484D02*
X10622444Y-13174008D01*
X10622444Y-13174008D02*
X10631968Y-13183531D01*
X10631968Y-13183531D02*
X10641491Y-13202579D01*
X10641491Y-13202579D02*
X10651015Y-13240674D01*
X10651015Y-13240674D02*
X10651015Y-13288293D01*
X10651015Y-13288293D02*
X10641491Y-13326388D01*
X10641491Y-13326388D02*
X10631968Y-13345436D01*
X10631968Y-13345436D02*
X10622444Y-13354960D01*
X10622444Y-13354960D02*
X10603396Y-13364484D01*
X10603396Y-13364484D02*
X10584348Y-13364484D01*
X10584348Y-13364484D02*
X10565301Y-13354960D01*
X10565301Y-13354960D02*
X10555777Y-13345436D01*
X10555777Y-13345436D02*
X10546253Y-13326388D01*
X10546253Y-13326388D02*
X10536729Y-13288293D01*
X10536729Y-13288293D02*
X10536729Y-13240674D01*
X10536729Y-13240674D02*
X10546253Y-13202579D01*
X10546253Y-13202579D02*
X10555777Y-13183531D01*
X10555777Y-13183531D02*
X10565301Y-13174008D01*
X10565301Y-13174008D02*
X10584348Y-13164484D01*
X10717682Y-13164484D02*
X10841491Y-13164484D01*
X10841491Y-13164484D02*
X10774825Y-13240674D01*
X10774825Y-13240674D02*
X10803396Y-13240674D01*
X10803396Y-13240674D02*
X10822444Y-13250198D01*
X10822444Y-13250198D02*
X10831968Y-13259722D01*
X10831968Y-13259722D02*
X10841491Y-13278769D01*
X10841491Y-13278769D02*
X10841491Y-13326388D01*
X10841491Y-13326388D02*
X10831968Y-13345436D01*
X10831968Y-13345436D02*
X10822444Y-13354960D01*
X10822444Y-13354960D02*
X10803396Y-13364484D01*
X10803396Y-13364484D02*
X10746253Y-13364484D01*
X10746253Y-13364484D02*
X10727206Y-13354960D01*
X10727206Y-13354960D02*
X10717682Y-13345436D01*
X11012920Y-13164484D02*
X10974825Y-13164484D01*
X10974825Y-13164484D02*
X10955777Y-13174008D01*
X10955777Y-13174008D02*
X10946253Y-13183531D01*
X10946253Y-13183531D02*
X10927206Y-13212103D01*
X10927206Y-13212103D02*
X10917682Y-13250198D01*
X10917682Y-13250198D02*
X10917682Y-13326388D01*
X10917682Y-13326388D02*
X10927206Y-13345436D01*
X10927206Y-13345436D02*
X10936729Y-13354960D01*
X10936729Y-13354960D02*
X10955777Y-13364484D01*
X10955777Y-13364484D02*
X10993872Y-13364484D01*
X10993872Y-13364484D02*
X11012920Y-13354960D01*
X11012920Y-13354960D02*
X11022444Y-13345436D01*
X11022444Y-13345436D02*
X11031968Y-13326388D01*
X11031968Y-13326388D02*
X11031968Y-13278769D01*
X11031968Y-13278769D02*
X11022444Y-13259722D01*
X11022444Y-13259722D02*
X11012920Y-13250198D01*
X11012920Y-13250198D02*
X10993872Y-13240674D01*
X10993872Y-13240674D02*
X10955777Y-13240674D01*
X10955777Y-13240674D02*
X10936729Y-13250198D01*
X10936729Y-13250198D02*
X10927206Y-13259722D01*
X10927206Y-13259722D02*
X10917682Y-13278769D01*
X11108158Y-13183531D02*
X11117682Y-13174008D01*
X11117682Y-13174008D02*
X11136729Y-13164484D01*
X11136729Y-13164484D02*
X11184349Y-13164484D01*
X11184349Y-13164484D02*
X11203396Y-13174008D01*
X11203396Y-13174008D02*
X11212920Y-13183531D01*
X11212920Y-13183531D02*
X11222444Y-13202579D01*
X11222444Y-13202579D02*
X11222444Y-13221627D01*
X11222444Y-13221627D02*
X11212920Y-13250198D01*
X11212920Y-13250198D02*
X11098634Y-13364484D01*
X11098634Y-13364484D02*
X11222444Y-13364484D01*
X11298634Y-13164484D02*
X11298634Y-13202579D01*
X11374825Y-13164484D02*
X11374825Y-13202579D01*
X11670063Y-13440674D02*
X11660539Y-13431150D01*
X11660539Y-13431150D02*
X11641491Y-13402579D01*
X11641491Y-13402579D02*
X11631968Y-13383531D01*
X11631968Y-13383531D02*
X11622444Y-13354960D01*
X11622444Y-13354960D02*
X11612920Y-13307341D01*
X11612920Y-13307341D02*
X11612920Y-13269246D01*
X11612920Y-13269246D02*
X11622444Y-13221627D01*
X11622444Y-13221627D02*
X11631968Y-13193055D01*
X11631968Y-13193055D02*
X11641491Y-13174008D01*
X11641491Y-13174008D02*
X11660539Y-13145436D01*
X11660539Y-13145436D02*
X11670063Y-13135912D01*
X11774825Y-13250198D02*
X11755777Y-13240674D01*
X11755777Y-13240674D02*
X11746253Y-13231150D01*
X11746253Y-13231150D02*
X11736729Y-13212103D01*
X11736729Y-13212103D02*
X11736729Y-13202579D01*
X11736729Y-13202579D02*
X11746253Y-13183531D01*
X11746253Y-13183531D02*
X11755777Y-13174008D01*
X11755777Y-13174008D02*
X11774825Y-13164484D01*
X11774825Y-13164484D02*
X11812920Y-13164484D01*
X11812920Y-13164484D02*
X11831968Y-13174008D01*
X11831968Y-13174008D02*
X11841491Y-13183531D01*
X11841491Y-13183531D02*
X11851015Y-13202579D01*
X11851015Y-13202579D02*
X11851015Y-13212103D01*
X11851015Y-13212103D02*
X11841491Y-13231150D01*
X11841491Y-13231150D02*
X11831968Y-13240674D01*
X11831968Y-13240674D02*
X11812920Y-13250198D01*
X11812920Y-13250198D02*
X11774825Y-13250198D01*
X11774825Y-13250198D02*
X11755777Y-13259722D01*
X11755777Y-13259722D02*
X11746253Y-13269246D01*
X11746253Y-13269246D02*
X11736729Y-13288293D01*
X11736729Y-13288293D02*
X11736729Y-13326388D01*
X11736729Y-13326388D02*
X11746253Y-13345436D01*
X11746253Y-13345436D02*
X11755777Y-13354960D01*
X11755777Y-13354960D02*
X11774825Y-13364484D01*
X11774825Y-13364484D02*
X11812920Y-13364484D01*
X11812920Y-13364484D02*
X11831968Y-13354960D01*
X11831968Y-13354960D02*
X11841491Y-13345436D01*
X11841491Y-13345436D02*
X11851015Y-13326388D01*
X11851015Y-13326388D02*
X11851015Y-13288293D01*
X11851015Y-13288293D02*
X11841491Y-13269246D01*
X11841491Y-13269246D02*
X11831968Y-13259722D01*
X11831968Y-13259722D02*
X11812920Y-13250198D01*
X12089110Y-13364484D02*
X12089110Y-13164484D01*
X12174825Y-13364484D02*
X12174825Y-13259722D01*
X12174825Y-13259722D02*
X12165301Y-13240674D01*
X12165301Y-13240674D02*
X12146253Y-13231150D01*
X12146253Y-13231150D02*
X12117682Y-13231150D01*
X12117682Y-13231150D02*
X12098634Y-13240674D01*
X12098634Y-13240674D02*
X12089110Y-13250198D01*
X12298634Y-13364484D02*
X12279587Y-13354960D01*
X12279587Y-13354960D02*
X12270063Y-13345436D01*
X12270063Y-13345436D02*
X12260539Y-13326388D01*
X12260539Y-13326388D02*
X12260539Y-13269246D01*
X12260539Y-13269246D02*
X12270063Y-13250198D01*
X12270063Y-13250198D02*
X12279587Y-13240674D01*
X12279587Y-13240674D02*
X12298634Y-13231150D01*
X12298634Y-13231150D02*
X12327206Y-13231150D01*
X12327206Y-13231150D02*
X12346253Y-13240674D01*
X12346253Y-13240674D02*
X12355777Y-13250198D01*
X12355777Y-13250198D02*
X12365301Y-13269246D01*
X12365301Y-13269246D02*
X12365301Y-13326388D01*
X12365301Y-13326388D02*
X12355777Y-13345436D01*
X12355777Y-13345436D02*
X12346253Y-13354960D01*
X12346253Y-13354960D02*
X12327206Y-13364484D01*
X12327206Y-13364484D02*
X12298634Y-13364484D01*
X12479587Y-13364484D02*
X12460539Y-13354960D01*
X12460539Y-13354960D02*
X12451015Y-13335912D01*
X12451015Y-13335912D02*
X12451015Y-13164484D01*
X12631968Y-13354960D02*
X12612920Y-13364484D01*
X12612920Y-13364484D02*
X12574825Y-13364484D01*
X12574825Y-13364484D02*
X12555777Y-13354960D01*
X12555777Y-13354960D02*
X12546253Y-13335912D01*
X12546253Y-13335912D02*
X12546253Y-13259722D01*
X12546253Y-13259722D02*
X12555777Y-13240674D01*
X12555777Y-13240674D02*
X12574825Y-13231150D01*
X12574825Y-13231150D02*
X12612920Y-13231150D01*
X12612920Y-13231150D02*
X12631968Y-13240674D01*
X12631968Y-13240674D02*
X12641491Y-13259722D01*
X12641491Y-13259722D02*
X12641491Y-13278769D01*
X12641491Y-13278769D02*
X12546253Y-13297817D01*
X12717682Y-13354960D02*
X12736730Y-13364484D01*
X12736730Y-13364484D02*
X12774825Y-13364484D01*
X12774825Y-13364484D02*
X12793872Y-13354960D01*
X12793872Y-13354960D02*
X12803396Y-13335912D01*
X12803396Y-13335912D02*
X12803396Y-13326388D01*
X12803396Y-13326388D02*
X12793872Y-13307341D01*
X12793872Y-13307341D02*
X12774825Y-13297817D01*
X12774825Y-13297817D02*
X12746253Y-13297817D01*
X12746253Y-13297817D02*
X12727206Y-13288293D01*
X12727206Y-13288293D02*
X12717682Y-13269246D01*
X12717682Y-13269246D02*
X12717682Y-13259722D01*
X12717682Y-13259722D02*
X12727206Y-13240674D01*
X12727206Y-13240674D02*
X12746253Y-13231150D01*
X12746253Y-13231150D02*
X12774825Y-13231150D01*
X12774825Y-13231150D02*
X12793872Y-13240674D01*
X12870063Y-13440674D02*
X12879587Y-13431150D01*
X12879587Y-13431150D02*
X12898634Y-13402579D01*
X12898634Y-13402579D02*
X12908158Y-13383531D01*
X12908158Y-13383531D02*
X12917682Y-13354960D01*
X12917682Y-13354960D02*
X12927206Y-13307341D01*
X12927206Y-13307341D02*
X12927206Y-13269246D01*
X12927206Y-13269246D02*
X12917682Y-13221627D01*
X12917682Y-13221627D02*
X12908158Y-13193055D01*
X12908158Y-13193055D02*
X12898634Y-13174008D01*
X12898634Y-13174008D02*
X12879587Y-13145436D01*
X12879587Y-13145436D02*
X12870063Y-13135912D01*
D10*
X8080493Y-13572023D02*
X8080493Y-13501977D01*
X8010447Y-13501977D01*
X8010447Y-13572023D01*
X8080493Y-13572023D01*
D11*
X8393872Y-13428484D02*
X8412920Y-13428484D01*
X8412920Y-13428484D02*
X8431967Y-13438008D01*
X8431967Y-13438008D02*
X8441491Y-13447531D01*
X8441491Y-13447531D02*
X8451015Y-13466579D01*
X8451015Y-13466579D02*
X8460539Y-13504674D01*
X8460539Y-13504674D02*
X8460539Y-13552293D01*
X8460539Y-13552293D02*
X8451015Y-13590388D01*
X8451015Y-13590388D02*
X8441491Y-13609436D01*
X8441491Y-13609436D02*
X8431967Y-13618960D01*
X8431967Y-13618960D02*
X8412920Y-13628484D01*
X8412920Y-13628484D02*
X8393872Y-13628484D01*
X8393872Y-13628484D02*
X8374824Y-13618960D01*
X8374824Y-13618960D02*
X8365301Y-13609436D01*
X8365301Y-13609436D02*
X8355777Y-13590388D01*
X8355777Y-13590388D02*
X8346253Y-13552293D01*
X8346253Y-13552293D02*
X8346253Y-13504674D01*
X8346253Y-13504674D02*
X8355777Y-13466579D01*
X8355777Y-13466579D02*
X8365301Y-13447531D01*
X8365301Y-13447531D02*
X8374824Y-13438008D01*
X8374824Y-13438008D02*
X8393872Y-13428484D01*
X8546253Y-13609436D02*
X8555777Y-13618960D01*
X8555777Y-13618960D02*
X8546253Y-13628484D01*
X8546253Y-13628484D02*
X8536729Y-13618960D01*
X8536729Y-13618960D02*
X8546253Y-13609436D01*
X8546253Y-13609436D02*
X8546253Y-13628484D01*
X8651015Y-13628484D02*
X8689110Y-13628484D01*
X8689110Y-13628484D02*
X8708158Y-13618960D01*
X8708158Y-13618960D02*
X8717682Y-13609436D01*
X8717682Y-13609436D02*
X8736729Y-13580865D01*
X8736729Y-13580865D02*
X8746253Y-13542769D01*
X8746253Y-13542769D02*
X8746253Y-13466579D01*
X8746253Y-13466579D02*
X8736729Y-13447531D01*
X8736729Y-13447531D02*
X8727205Y-13438008D01*
X8727205Y-13438008D02*
X8708158Y-13428484D01*
X8708158Y-13428484D02*
X8670063Y-13428484D01*
X8670063Y-13428484D02*
X8651015Y-13438008D01*
X8651015Y-13438008D02*
X8641491Y-13447531D01*
X8641491Y-13447531D02*
X8631967Y-13466579D01*
X8631967Y-13466579D02*
X8631967Y-13514198D01*
X8631967Y-13514198D02*
X8641491Y-13533246D01*
X8641491Y-13533246D02*
X8651015Y-13542769D01*
X8651015Y-13542769D02*
X8670063Y-13552293D01*
X8670063Y-13552293D02*
X8708158Y-13552293D01*
X8708158Y-13552293D02*
X8727205Y-13542769D01*
X8727205Y-13542769D02*
X8736729Y-13533246D01*
X8736729Y-13533246D02*
X8746253Y-13514198D01*
X8841491Y-13628484D02*
X8879586Y-13628484D01*
X8879586Y-13628484D02*
X8898634Y-13618960D01*
X8898634Y-13618960D02*
X8908158Y-13609436D01*
X8908158Y-13609436D02*
X8927205Y-13580865D01*
X8927205Y-13580865D02*
X8936729Y-13542769D01*
X8936729Y-13542769D02*
X8936729Y-13466579D01*
X8936729Y-13466579D02*
X8927205Y-13447531D01*
X8927205Y-13447531D02*
X8917682Y-13438008D01*
X8917682Y-13438008D02*
X8898634Y-13428484D01*
X8898634Y-13428484D02*
X8860539Y-13428484D01*
X8860539Y-13428484D02*
X8841491Y-13438008D01*
X8841491Y-13438008D02*
X8831967Y-13447531D01*
X8831967Y-13447531D02*
X8822444Y-13466579D01*
X8822444Y-13466579D02*
X8822444Y-13514198D01*
X8822444Y-13514198D02*
X8831967Y-13533246D01*
X8831967Y-13533246D02*
X8841491Y-13542769D01*
X8841491Y-13542769D02*
X8860539Y-13552293D01*
X8860539Y-13552293D02*
X8898634Y-13552293D01*
X8898634Y-13552293D02*
X8917682Y-13542769D01*
X8917682Y-13542769D02*
X8927205Y-13533246D01*
X8927205Y-13533246D02*
X8936729Y-13514198D01*
X9127205Y-13628484D02*
X9012920Y-13628484D01*
X9070063Y-13628484D02*
X9070063Y-13428484D01*
X9070063Y-13428484D02*
X9051015Y-13457055D01*
X9051015Y-13457055D02*
X9031967Y-13476103D01*
X9031967Y-13476103D02*
X9012920Y-13485627D01*
X9212920Y-13628484D02*
X9212920Y-13495150D01*
X9212920Y-13514198D02*
X9222444Y-13504674D01*
X9222444Y-13504674D02*
X9241491Y-13495150D01*
X9241491Y-13495150D02*
X9270063Y-13495150D01*
X9270063Y-13495150D02*
X9289110Y-13504674D01*
X9289110Y-13504674D02*
X9298634Y-13523722D01*
X9298634Y-13523722D02*
X9298634Y-13628484D01*
X9298634Y-13523722D02*
X9308158Y-13504674D01*
X9308158Y-13504674D02*
X9327205Y-13495150D01*
X9327205Y-13495150D02*
X9355777Y-13495150D01*
X9355777Y-13495150D02*
X9374825Y-13504674D01*
X9374825Y-13504674D02*
X9384348Y-13523722D01*
X9384348Y-13523722D02*
X9384348Y-13628484D01*
X9479586Y-13628484D02*
X9479586Y-13495150D01*
X9479586Y-13514198D02*
X9489110Y-13504674D01*
X9489110Y-13504674D02*
X9508158Y-13495150D01*
X9508158Y-13495150D02*
X9536729Y-13495150D01*
X9536729Y-13495150D02*
X9555777Y-13504674D01*
X9555777Y-13504674D02*
X9565301Y-13523722D01*
X9565301Y-13523722D02*
X9565301Y-13628484D01*
X9565301Y-13523722D02*
X9574825Y-13504674D01*
X9574825Y-13504674D02*
X9593872Y-13495150D01*
X9593872Y-13495150D02*
X9622444Y-13495150D01*
X9622444Y-13495150D02*
X9641491Y-13504674D01*
X9641491Y-13504674D02*
X9651015Y-13523722D01*
X9651015Y-13523722D02*
X9651015Y-13628484D01*
X10041491Y-13418960D02*
X9870063Y-13676103D01*
X10298634Y-13428484D02*
X10317682Y-13428484D01*
X10317682Y-13428484D02*
X10336729Y-13438008D01*
X10336729Y-13438008D02*
X10346253Y-13447531D01*
X10346253Y-13447531D02*
X10355777Y-13466579D01*
X10355777Y-13466579D02*
X10365301Y-13504674D01*
X10365301Y-13504674D02*
X10365301Y-13552293D01*
X10365301Y-13552293D02*
X10355777Y-13590388D01*
X10355777Y-13590388D02*
X10346253Y-13609436D01*
X10346253Y-13609436D02*
X10336729Y-13618960D01*
X10336729Y-13618960D02*
X10317682Y-13628484D01*
X10317682Y-13628484D02*
X10298634Y-13628484D01*
X10298634Y-13628484D02*
X10279587Y-13618960D01*
X10279587Y-13618960D02*
X10270063Y-13609436D01*
X10270063Y-13609436D02*
X10260539Y-13590388D01*
X10260539Y-13590388D02*
X10251015Y-13552293D01*
X10251015Y-13552293D02*
X10251015Y-13504674D01*
X10251015Y-13504674D02*
X10260539Y-13466579D01*
X10260539Y-13466579D02*
X10270063Y-13447531D01*
X10270063Y-13447531D02*
X10279587Y-13438008D01*
X10279587Y-13438008D02*
X10298634Y-13428484D01*
X10451015Y-13609436D02*
X10460539Y-13618960D01*
X10460539Y-13618960D02*
X10451015Y-13628484D01*
X10451015Y-13628484D02*
X10441491Y-13618960D01*
X10441491Y-13618960D02*
X10451015Y-13609436D01*
X10451015Y-13609436D02*
X10451015Y-13628484D01*
X10584348Y-13428484D02*
X10603396Y-13428484D01*
X10603396Y-13428484D02*
X10622444Y-13438008D01*
X10622444Y-13438008D02*
X10631968Y-13447531D01*
X10631968Y-13447531D02*
X10641491Y-13466579D01*
X10641491Y-13466579D02*
X10651015Y-13504674D01*
X10651015Y-13504674D02*
X10651015Y-13552293D01*
X10651015Y-13552293D02*
X10641491Y-13590388D01*
X10641491Y-13590388D02*
X10631968Y-13609436D01*
X10631968Y-13609436D02*
X10622444Y-13618960D01*
X10622444Y-13618960D02*
X10603396Y-13628484D01*
X10603396Y-13628484D02*
X10584348Y-13628484D01*
X10584348Y-13628484D02*
X10565301Y-13618960D01*
X10565301Y-13618960D02*
X10555777Y-13609436D01*
X10555777Y-13609436D02*
X10546253Y-13590388D01*
X10546253Y-13590388D02*
X10536729Y-13552293D01*
X10536729Y-13552293D02*
X10536729Y-13504674D01*
X10536729Y-13504674D02*
X10546253Y-13466579D01*
X10546253Y-13466579D02*
X10555777Y-13447531D01*
X10555777Y-13447531D02*
X10565301Y-13438008D01*
X10565301Y-13438008D02*
X10584348Y-13428484D01*
X10717682Y-13428484D02*
X10841491Y-13428484D01*
X10841491Y-13428484D02*
X10774825Y-13504674D01*
X10774825Y-13504674D02*
X10803396Y-13504674D01*
X10803396Y-13504674D02*
X10822444Y-13514198D01*
X10822444Y-13514198D02*
X10831968Y-13523722D01*
X10831968Y-13523722D02*
X10841491Y-13542769D01*
X10841491Y-13542769D02*
X10841491Y-13590388D01*
X10841491Y-13590388D02*
X10831968Y-13609436D01*
X10831968Y-13609436D02*
X10822444Y-13618960D01*
X10822444Y-13618960D02*
X10803396Y-13628484D01*
X10803396Y-13628484D02*
X10746253Y-13628484D01*
X10746253Y-13628484D02*
X10727206Y-13618960D01*
X10727206Y-13618960D02*
X10717682Y-13609436D01*
X10936729Y-13628484D02*
X10974825Y-13628484D01*
X10974825Y-13628484D02*
X10993872Y-13618960D01*
X10993872Y-13618960D02*
X11003396Y-13609436D01*
X11003396Y-13609436D02*
X11022444Y-13580865D01*
X11022444Y-13580865D02*
X11031968Y-13542769D01*
X11031968Y-13542769D02*
X11031968Y-13466579D01*
X11031968Y-13466579D02*
X11022444Y-13447531D01*
X11022444Y-13447531D02*
X11012920Y-13438008D01*
X11012920Y-13438008D02*
X10993872Y-13428484D01*
X10993872Y-13428484D02*
X10955777Y-13428484D01*
X10955777Y-13428484D02*
X10936729Y-13438008D01*
X10936729Y-13438008D02*
X10927206Y-13447531D01*
X10927206Y-13447531D02*
X10917682Y-13466579D01*
X10917682Y-13466579D02*
X10917682Y-13514198D01*
X10917682Y-13514198D02*
X10927206Y-13533246D01*
X10927206Y-13533246D02*
X10936729Y-13542769D01*
X10936729Y-13542769D02*
X10955777Y-13552293D01*
X10955777Y-13552293D02*
X10993872Y-13552293D01*
X10993872Y-13552293D02*
X11012920Y-13542769D01*
X11012920Y-13542769D02*
X11022444Y-13533246D01*
X11022444Y-13533246D02*
X11031968Y-13514198D01*
X11155777Y-13428484D02*
X11174825Y-13428484D01*
X11174825Y-13428484D02*
X11193872Y-13438008D01*
X11193872Y-13438008D02*
X11203396Y-13447531D01*
X11203396Y-13447531D02*
X11212920Y-13466579D01*
X11212920Y-13466579D02*
X11222444Y-13504674D01*
X11222444Y-13504674D02*
X11222444Y-13552293D01*
X11222444Y-13552293D02*
X11212920Y-13590388D01*
X11212920Y-13590388D02*
X11203396Y-13609436D01*
X11203396Y-13609436D02*
X11193872Y-13618960D01*
X11193872Y-13618960D02*
X11174825Y-13628484D01*
X11174825Y-13628484D02*
X11155777Y-13628484D01*
X11155777Y-13628484D02*
X11136729Y-13618960D01*
X11136729Y-13618960D02*
X11127206Y-13609436D01*
X11127206Y-13609436D02*
X11117682Y-13590388D01*
X11117682Y-13590388D02*
X11108158Y-13552293D01*
X11108158Y-13552293D02*
X11108158Y-13504674D01*
X11108158Y-13504674D02*
X11117682Y-13466579D01*
X11117682Y-13466579D02*
X11127206Y-13447531D01*
X11127206Y-13447531D02*
X11136729Y-13438008D01*
X11136729Y-13438008D02*
X11155777Y-13428484D01*
X11298634Y-13428484D02*
X11298634Y-13466579D01*
X11374825Y-13428484D02*
X11374825Y-13466579D01*
X11670063Y-13704674D02*
X11660539Y-13695150D01*
X11660539Y-13695150D02*
X11641491Y-13666579D01*
X11641491Y-13666579D02*
X11631968Y-13647531D01*
X11631968Y-13647531D02*
X11622444Y-13618960D01*
X11622444Y-13618960D02*
X11612920Y-13571341D01*
X11612920Y-13571341D02*
X11612920Y-13533246D01*
X11612920Y-13533246D02*
X11622444Y-13485627D01*
X11622444Y-13485627D02*
X11631968Y-13457055D01*
X11631968Y-13457055D02*
X11641491Y-13438008D01*
X11641491Y-13438008D02*
X11660539Y-13409436D01*
X11660539Y-13409436D02*
X11670063Y-13399912D01*
X11727206Y-13428484D02*
X11851015Y-13428484D01*
X11851015Y-13428484D02*
X11784348Y-13504674D01*
X11784348Y-13504674D02*
X11812920Y-13504674D01*
X11812920Y-13504674D02*
X11831968Y-13514198D01*
X11831968Y-13514198D02*
X11841491Y-13523722D01*
X11841491Y-13523722D02*
X11851015Y-13542769D01*
X11851015Y-13542769D02*
X11851015Y-13590388D01*
X11851015Y-13590388D02*
X11841491Y-13609436D01*
X11841491Y-13609436D02*
X11831968Y-13618960D01*
X11831968Y-13618960D02*
X11812920Y-13628484D01*
X11812920Y-13628484D02*
X11755777Y-13628484D01*
X11755777Y-13628484D02*
X11736729Y-13618960D01*
X11736729Y-13618960D02*
X11727206Y-13609436D01*
X11974825Y-13428484D02*
X11993872Y-13428484D01*
X11993872Y-13428484D02*
X12012920Y-13438008D01*
X12012920Y-13438008D02*
X12022444Y-13447531D01*
X12022444Y-13447531D02*
X12031968Y-13466579D01*
X12031968Y-13466579D02*
X12041491Y-13504674D01*
X12041491Y-13504674D02*
X12041491Y-13552293D01*
X12041491Y-13552293D02*
X12031968Y-13590388D01*
X12031968Y-13590388D02*
X12022444Y-13609436D01*
X12022444Y-13609436D02*
X12012920Y-13618960D01*
X12012920Y-13618960D02*
X11993872Y-13628484D01*
X11993872Y-13628484D02*
X11974825Y-13628484D01*
X11974825Y-13628484D02*
X11955777Y-13618960D01*
X11955777Y-13618960D02*
X11946253Y-13609436D01*
X11946253Y-13609436D02*
X11936729Y-13590388D01*
X11936729Y-13590388D02*
X11927206Y-13552293D01*
X11927206Y-13552293D02*
X11927206Y-13504674D01*
X11927206Y-13504674D02*
X11936729Y-13466579D01*
X11936729Y-13466579D02*
X11946253Y-13447531D01*
X11946253Y-13447531D02*
X11955777Y-13438008D01*
X11955777Y-13438008D02*
X11974825Y-13428484D01*
X12279587Y-13628484D02*
X12279587Y-13428484D01*
X12365301Y-13628484D02*
X12365301Y-13523722D01*
X12365301Y-13523722D02*
X12355777Y-13504674D01*
X12355777Y-13504674D02*
X12336730Y-13495150D01*
X12336730Y-13495150D02*
X12308158Y-13495150D01*
X12308158Y-13495150D02*
X12289110Y-13504674D01*
X12289110Y-13504674D02*
X12279587Y-13514198D01*
X12489110Y-13628484D02*
X12470063Y-13618960D01*
X12470063Y-13618960D02*
X12460539Y-13609436D01*
X12460539Y-13609436D02*
X12451015Y-13590388D01*
X12451015Y-13590388D02*
X12451015Y-13533246D01*
X12451015Y-13533246D02*
X12460539Y-13514198D01*
X12460539Y-13514198D02*
X12470063Y-13504674D01*
X12470063Y-13504674D02*
X12489110Y-13495150D01*
X12489110Y-13495150D02*
X12517682Y-13495150D01*
X12517682Y-13495150D02*
X12536730Y-13504674D01*
X12536730Y-13504674D02*
X12546253Y-13514198D01*
X12546253Y-13514198D02*
X12555777Y-13533246D01*
X12555777Y-13533246D02*
X12555777Y-13590388D01*
X12555777Y-13590388D02*
X12546253Y-13609436D01*
X12546253Y-13609436D02*
X12536730Y-13618960D01*
X12536730Y-13618960D02*
X12517682Y-13628484D01*
X12517682Y-13628484D02*
X12489110Y-13628484D01*
X12670063Y-13628484D02*
X12651015Y-13618960D01*
X12651015Y-13618960D02*
X12641491Y-13599912D01*
X12641491Y-13599912D02*
X12641491Y-13428484D01*
X12822444Y-13618960D02*
X12803396Y-13628484D01*
X12803396Y-13628484D02*
X12765301Y-13628484D01*
X12765301Y-13628484D02*
X12746253Y-13618960D01*
X12746253Y-13618960D02*
X12736730Y-13599912D01*
X12736730Y-13599912D02*
X12736730Y-13523722D01*
X12736730Y-13523722D02*
X12746253Y-13504674D01*
X12746253Y-13504674D02*
X12765301Y-13495150D01*
X12765301Y-13495150D02*
X12803396Y-13495150D01*
X12803396Y-13495150D02*
X12822444Y-13504674D01*
X12822444Y-13504674D02*
X12831968Y-13523722D01*
X12831968Y-13523722D02*
X12831968Y-13542769D01*
X12831968Y-13542769D02*
X12736730Y-13561817D01*
X12908158Y-13618960D02*
X12927206Y-13628484D01*
X12927206Y-13628484D02*
X12965301Y-13628484D01*
X12965301Y-13628484D02*
X12984349Y-13618960D01*
X12984349Y-13618960D02*
X12993872Y-13599912D01*
X12993872Y-13599912D02*
X12993872Y-13590388D01*
X12993872Y-13590388D02*
X12984349Y-13571341D01*
X12984349Y-13571341D02*
X12965301Y-13561817D01*
X12965301Y-13561817D02*
X12936730Y-13561817D01*
X12936730Y-13561817D02*
X12917682Y-13552293D01*
X12917682Y-13552293D02*
X12908158Y-13533246D01*
X12908158Y-13533246D02*
X12908158Y-13523722D01*
X12908158Y-13523722D02*
X12917682Y-13504674D01*
X12917682Y-13504674D02*
X12936730Y-13495150D01*
X12936730Y-13495150D02*
X12965301Y-13495150D01*
X12965301Y-13495150D02*
X12984349Y-13504674D01*
X13060539Y-13704674D02*
X13070063Y-13695150D01*
X13070063Y-13695150D02*
X13089111Y-13666579D01*
X13089111Y-13666579D02*
X13098634Y-13647531D01*
X13098634Y-13647531D02*
X13108158Y-13618960D01*
X13108158Y-13618960D02*
X13117682Y-13571341D01*
X13117682Y-13571341D02*
X13117682Y-13533246D01*
X13117682Y-13533246D02*
X13108158Y-13485627D01*
X13108158Y-13485627D02*
X13098634Y-13457055D01*
X13098634Y-13457055D02*
X13089111Y-13438008D01*
X13089111Y-13438008D02*
X13070063Y-13409436D01*
X13070063Y-13409436D02*
X13060539Y-13399912D01*
D10*
X8045000Y-13851000D02*
X8095000Y-13801000D01*
X8045000Y-13751000D01*
X7995000Y-13801000D01*
X8045000Y-13851000D01*
D11*
X8460539Y-13892484D02*
X8346253Y-13892484D01*
X8403396Y-13892484D02*
X8403396Y-13692484D01*
X8403396Y-13692484D02*
X8384348Y-13721055D01*
X8384348Y-13721055D02*
X8365301Y-13740103D01*
X8365301Y-13740103D02*
X8346253Y-13749627D01*
X8546253Y-13873436D02*
X8555777Y-13882960D01*
X8555777Y-13882960D02*
X8546253Y-13892484D01*
X8546253Y-13892484D02*
X8536729Y-13882960D01*
X8536729Y-13882960D02*
X8546253Y-13873436D01*
X8546253Y-13873436D02*
X8546253Y-13892484D01*
X8679586Y-13692484D02*
X8698634Y-13692484D01*
X8698634Y-13692484D02*
X8717682Y-13702008D01*
X8717682Y-13702008D02*
X8727205Y-13711531D01*
X8727205Y-13711531D02*
X8736729Y-13730579D01*
X8736729Y-13730579D02*
X8746253Y-13768674D01*
X8746253Y-13768674D02*
X8746253Y-13816293D01*
X8746253Y-13816293D02*
X8736729Y-13854388D01*
X8736729Y-13854388D02*
X8727205Y-13873436D01*
X8727205Y-13873436D02*
X8717682Y-13882960D01*
X8717682Y-13882960D02*
X8698634Y-13892484D01*
X8698634Y-13892484D02*
X8679586Y-13892484D01*
X8679586Y-13892484D02*
X8660539Y-13882960D01*
X8660539Y-13882960D02*
X8651015Y-13873436D01*
X8651015Y-13873436D02*
X8641491Y-13854388D01*
X8641491Y-13854388D02*
X8631967Y-13816293D01*
X8631967Y-13816293D02*
X8631967Y-13768674D01*
X8631967Y-13768674D02*
X8641491Y-13730579D01*
X8641491Y-13730579D02*
X8651015Y-13711531D01*
X8651015Y-13711531D02*
X8660539Y-13702008D01*
X8660539Y-13702008D02*
X8679586Y-13692484D01*
X8870063Y-13692484D02*
X8889110Y-13692484D01*
X8889110Y-13692484D02*
X8908158Y-13702008D01*
X8908158Y-13702008D02*
X8917682Y-13711531D01*
X8917682Y-13711531D02*
X8927205Y-13730579D01*
X8927205Y-13730579D02*
X8936729Y-13768674D01*
X8936729Y-13768674D02*
X8936729Y-13816293D01*
X8936729Y-13816293D02*
X8927205Y-13854388D01*
X8927205Y-13854388D02*
X8917682Y-13873436D01*
X8917682Y-13873436D02*
X8908158Y-13882960D01*
X8908158Y-13882960D02*
X8889110Y-13892484D01*
X8889110Y-13892484D02*
X8870063Y-13892484D01*
X8870063Y-13892484D02*
X8851015Y-13882960D01*
X8851015Y-13882960D02*
X8841491Y-13873436D01*
X8841491Y-13873436D02*
X8831967Y-13854388D01*
X8831967Y-13854388D02*
X8822444Y-13816293D01*
X8822444Y-13816293D02*
X8822444Y-13768674D01*
X8822444Y-13768674D02*
X8831967Y-13730579D01*
X8831967Y-13730579D02*
X8841491Y-13711531D01*
X8841491Y-13711531D02*
X8851015Y-13702008D01*
X8851015Y-13702008D02*
X8870063Y-13692484D01*
X9060539Y-13692484D02*
X9079586Y-13692484D01*
X9079586Y-13692484D02*
X9098634Y-13702008D01*
X9098634Y-13702008D02*
X9108158Y-13711531D01*
X9108158Y-13711531D02*
X9117682Y-13730579D01*
X9117682Y-13730579D02*
X9127205Y-13768674D01*
X9127205Y-13768674D02*
X9127205Y-13816293D01*
X9127205Y-13816293D02*
X9117682Y-13854388D01*
X9117682Y-13854388D02*
X9108158Y-13873436D01*
X9108158Y-13873436D02*
X9098634Y-13882960D01*
X9098634Y-13882960D02*
X9079586Y-13892484D01*
X9079586Y-13892484D02*
X9060539Y-13892484D01*
X9060539Y-13892484D02*
X9041491Y-13882960D01*
X9041491Y-13882960D02*
X9031967Y-13873436D01*
X9031967Y-13873436D02*
X9022444Y-13854388D01*
X9022444Y-13854388D02*
X9012920Y-13816293D01*
X9012920Y-13816293D02*
X9012920Y-13768674D01*
X9012920Y-13768674D02*
X9022444Y-13730579D01*
X9022444Y-13730579D02*
X9031967Y-13711531D01*
X9031967Y-13711531D02*
X9041491Y-13702008D01*
X9041491Y-13702008D02*
X9060539Y-13692484D01*
X9212920Y-13892484D02*
X9212920Y-13759150D01*
X9212920Y-13778198D02*
X9222444Y-13768674D01*
X9222444Y-13768674D02*
X9241491Y-13759150D01*
X9241491Y-13759150D02*
X9270063Y-13759150D01*
X9270063Y-13759150D02*
X9289110Y-13768674D01*
X9289110Y-13768674D02*
X9298634Y-13787722D01*
X9298634Y-13787722D02*
X9298634Y-13892484D01*
X9298634Y-13787722D02*
X9308158Y-13768674D01*
X9308158Y-13768674D02*
X9327205Y-13759150D01*
X9327205Y-13759150D02*
X9355777Y-13759150D01*
X9355777Y-13759150D02*
X9374825Y-13768674D01*
X9374825Y-13768674D02*
X9384348Y-13787722D01*
X9384348Y-13787722D02*
X9384348Y-13892484D01*
X9479586Y-13892484D02*
X9479586Y-13759150D01*
X9479586Y-13778198D02*
X9489110Y-13768674D01*
X9489110Y-13768674D02*
X9508158Y-13759150D01*
X9508158Y-13759150D02*
X9536729Y-13759150D01*
X9536729Y-13759150D02*
X9555777Y-13768674D01*
X9555777Y-13768674D02*
X9565301Y-13787722D01*
X9565301Y-13787722D02*
X9565301Y-13892484D01*
X9565301Y-13787722D02*
X9574825Y-13768674D01*
X9574825Y-13768674D02*
X9593872Y-13759150D01*
X9593872Y-13759150D02*
X9622444Y-13759150D01*
X9622444Y-13759150D02*
X9641491Y-13768674D01*
X9641491Y-13768674D02*
X9651015Y-13787722D01*
X9651015Y-13787722D02*
X9651015Y-13892484D01*
X10041491Y-13682960D02*
X9870063Y-13940103D01*
X10298634Y-13692484D02*
X10317682Y-13692484D01*
X10317682Y-13692484D02*
X10336729Y-13702008D01*
X10336729Y-13702008D02*
X10346253Y-13711531D01*
X10346253Y-13711531D02*
X10355777Y-13730579D01*
X10355777Y-13730579D02*
X10365301Y-13768674D01*
X10365301Y-13768674D02*
X10365301Y-13816293D01*
X10365301Y-13816293D02*
X10355777Y-13854388D01*
X10355777Y-13854388D02*
X10346253Y-13873436D01*
X10346253Y-13873436D02*
X10336729Y-13882960D01*
X10336729Y-13882960D02*
X10317682Y-13892484D01*
X10317682Y-13892484D02*
X10298634Y-13892484D01*
X10298634Y-13892484D02*
X10279587Y-13882960D01*
X10279587Y-13882960D02*
X10270063Y-13873436D01*
X10270063Y-13873436D02*
X10260539Y-13854388D01*
X10260539Y-13854388D02*
X10251015Y-13816293D01*
X10251015Y-13816293D02*
X10251015Y-13768674D01*
X10251015Y-13768674D02*
X10260539Y-13730579D01*
X10260539Y-13730579D02*
X10270063Y-13711531D01*
X10270063Y-13711531D02*
X10279587Y-13702008D01*
X10279587Y-13702008D02*
X10298634Y-13692484D01*
X10451015Y-13873436D02*
X10460539Y-13882960D01*
X10460539Y-13882960D02*
X10451015Y-13892484D01*
X10451015Y-13892484D02*
X10441491Y-13882960D01*
X10441491Y-13882960D02*
X10451015Y-13873436D01*
X10451015Y-13873436D02*
X10451015Y-13892484D01*
X10584348Y-13692484D02*
X10603396Y-13692484D01*
X10603396Y-13692484D02*
X10622444Y-13702008D01*
X10622444Y-13702008D02*
X10631968Y-13711531D01*
X10631968Y-13711531D02*
X10641491Y-13730579D01*
X10641491Y-13730579D02*
X10651015Y-13768674D01*
X10651015Y-13768674D02*
X10651015Y-13816293D01*
X10651015Y-13816293D02*
X10641491Y-13854388D01*
X10641491Y-13854388D02*
X10631968Y-13873436D01*
X10631968Y-13873436D02*
X10622444Y-13882960D01*
X10622444Y-13882960D02*
X10603396Y-13892484D01*
X10603396Y-13892484D02*
X10584348Y-13892484D01*
X10584348Y-13892484D02*
X10565301Y-13882960D01*
X10565301Y-13882960D02*
X10555777Y-13873436D01*
X10555777Y-13873436D02*
X10546253Y-13854388D01*
X10546253Y-13854388D02*
X10536729Y-13816293D01*
X10536729Y-13816293D02*
X10536729Y-13768674D01*
X10536729Y-13768674D02*
X10546253Y-13730579D01*
X10546253Y-13730579D02*
X10555777Y-13711531D01*
X10555777Y-13711531D02*
X10565301Y-13702008D01*
X10565301Y-13702008D02*
X10584348Y-13692484D01*
X10717682Y-13692484D02*
X10841491Y-13692484D01*
X10841491Y-13692484D02*
X10774825Y-13768674D01*
X10774825Y-13768674D02*
X10803396Y-13768674D01*
X10803396Y-13768674D02*
X10822444Y-13778198D01*
X10822444Y-13778198D02*
X10831968Y-13787722D01*
X10831968Y-13787722D02*
X10841491Y-13806769D01*
X10841491Y-13806769D02*
X10841491Y-13854388D01*
X10841491Y-13854388D02*
X10831968Y-13873436D01*
X10831968Y-13873436D02*
X10822444Y-13882960D01*
X10822444Y-13882960D02*
X10803396Y-13892484D01*
X10803396Y-13892484D02*
X10746253Y-13892484D01*
X10746253Y-13892484D02*
X10727206Y-13882960D01*
X10727206Y-13882960D02*
X10717682Y-13873436D01*
X10936729Y-13892484D02*
X10974825Y-13892484D01*
X10974825Y-13892484D02*
X10993872Y-13882960D01*
X10993872Y-13882960D02*
X11003396Y-13873436D01*
X11003396Y-13873436D02*
X11022444Y-13844865D01*
X11022444Y-13844865D02*
X11031968Y-13806769D01*
X11031968Y-13806769D02*
X11031968Y-13730579D01*
X11031968Y-13730579D02*
X11022444Y-13711531D01*
X11022444Y-13711531D02*
X11012920Y-13702008D01*
X11012920Y-13702008D02*
X10993872Y-13692484D01*
X10993872Y-13692484D02*
X10955777Y-13692484D01*
X10955777Y-13692484D02*
X10936729Y-13702008D01*
X10936729Y-13702008D02*
X10927206Y-13711531D01*
X10927206Y-13711531D02*
X10917682Y-13730579D01*
X10917682Y-13730579D02*
X10917682Y-13778198D01*
X10917682Y-13778198D02*
X10927206Y-13797246D01*
X10927206Y-13797246D02*
X10936729Y-13806769D01*
X10936729Y-13806769D02*
X10955777Y-13816293D01*
X10955777Y-13816293D02*
X10993872Y-13816293D01*
X10993872Y-13816293D02*
X11012920Y-13806769D01*
X11012920Y-13806769D02*
X11022444Y-13797246D01*
X11022444Y-13797246D02*
X11031968Y-13778198D01*
X11203396Y-13759150D02*
X11203396Y-13892484D01*
X11155777Y-13682960D02*
X11108158Y-13825817D01*
X11108158Y-13825817D02*
X11231967Y-13825817D01*
X11298634Y-13692484D02*
X11298634Y-13730579D01*
X11374825Y-13692484D02*
X11374825Y-13730579D01*
X11670063Y-13968674D02*
X11660539Y-13959150D01*
X11660539Y-13959150D02*
X11641491Y-13930579D01*
X11641491Y-13930579D02*
X11631968Y-13911531D01*
X11631968Y-13911531D02*
X11622444Y-13882960D01*
X11622444Y-13882960D02*
X11612920Y-13835341D01*
X11612920Y-13835341D02*
X11612920Y-13797246D01*
X11612920Y-13797246D02*
X11622444Y-13749627D01*
X11622444Y-13749627D02*
X11631968Y-13721055D01*
X11631968Y-13721055D02*
X11641491Y-13702008D01*
X11641491Y-13702008D02*
X11660539Y-13673436D01*
X11660539Y-13673436D02*
X11670063Y-13663912D01*
X11727206Y-13692484D02*
X11851015Y-13692484D01*
X11851015Y-13692484D02*
X11784348Y-13768674D01*
X11784348Y-13768674D02*
X11812920Y-13768674D01*
X11812920Y-13768674D02*
X11831968Y-13778198D01*
X11831968Y-13778198D02*
X11841491Y-13787722D01*
X11841491Y-13787722D02*
X11851015Y-13806769D01*
X11851015Y-13806769D02*
X11851015Y-13854388D01*
X11851015Y-13854388D02*
X11841491Y-13873436D01*
X11841491Y-13873436D02*
X11831968Y-13882960D01*
X11831968Y-13882960D02*
X11812920Y-13892484D01*
X11812920Y-13892484D02*
X11755777Y-13892484D01*
X11755777Y-13892484D02*
X11736729Y-13882960D01*
X11736729Y-13882960D02*
X11727206Y-13873436D01*
X11965301Y-13778198D02*
X11946253Y-13768674D01*
X11946253Y-13768674D02*
X11936729Y-13759150D01*
X11936729Y-13759150D02*
X11927206Y-13740103D01*
X11927206Y-13740103D02*
X11927206Y-13730579D01*
X11927206Y-13730579D02*
X11936729Y-13711531D01*
X11936729Y-13711531D02*
X11946253Y-13702008D01*
X11946253Y-13702008D02*
X11965301Y-13692484D01*
X11965301Y-13692484D02*
X12003396Y-13692484D01*
X12003396Y-13692484D02*
X12022444Y-13702008D01*
X12022444Y-13702008D02*
X12031968Y-13711531D01*
X12031968Y-13711531D02*
X12041491Y-13730579D01*
X12041491Y-13730579D02*
X12041491Y-13740103D01*
X12041491Y-13740103D02*
X12031968Y-13759150D01*
X12031968Y-13759150D02*
X12022444Y-13768674D01*
X12022444Y-13768674D02*
X12003396Y-13778198D01*
X12003396Y-13778198D02*
X11965301Y-13778198D01*
X11965301Y-13778198D02*
X11946253Y-13787722D01*
X11946253Y-13787722D02*
X11936729Y-13797246D01*
X11936729Y-13797246D02*
X11927206Y-13816293D01*
X11927206Y-13816293D02*
X11927206Y-13854388D01*
X11927206Y-13854388D02*
X11936729Y-13873436D01*
X11936729Y-13873436D02*
X11946253Y-13882960D01*
X11946253Y-13882960D02*
X11965301Y-13892484D01*
X11965301Y-13892484D02*
X12003396Y-13892484D01*
X12003396Y-13892484D02*
X12022444Y-13882960D01*
X12022444Y-13882960D02*
X12031968Y-13873436D01*
X12031968Y-13873436D02*
X12041491Y-13854388D01*
X12041491Y-13854388D02*
X12041491Y-13816293D01*
X12041491Y-13816293D02*
X12031968Y-13797246D01*
X12031968Y-13797246D02*
X12022444Y-13787722D01*
X12022444Y-13787722D02*
X12003396Y-13778198D01*
X12279587Y-13892484D02*
X12279587Y-13692484D01*
X12365301Y-13892484D02*
X12365301Y-13787722D01*
X12365301Y-13787722D02*
X12355777Y-13768674D01*
X12355777Y-13768674D02*
X12336730Y-13759150D01*
X12336730Y-13759150D02*
X12308158Y-13759150D01*
X12308158Y-13759150D02*
X12289110Y-13768674D01*
X12289110Y-13768674D02*
X12279587Y-13778198D01*
X12489110Y-13892484D02*
X12470063Y-13882960D01*
X12470063Y-13882960D02*
X12460539Y-13873436D01*
X12460539Y-13873436D02*
X12451015Y-13854388D01*
X12451015Y-13854388D02*
X12451015Y-13797246D01*
X12451015Y-13797246D02*
X12460539Y-13778198D01*
X12460539Y-13778198D02*
X12470063Y-13768674D01*
X12470063Y-13768674D02*
X12489110Y-13759150D01*
X12489110Y-13759150D02*
X12517682Y-13759150D01*
X12517682Y-13759150D02*
X12536730Y-13768674D01*
X12536730Y-13768674D02*
X12546253Y-13778198D01*
X12546253Y-13778198D02*
X12555777Y-13797246D01*
X12555777Y-13797246D02*
X12555777Y-13854388D01*
X12555777Y-13854388D02*
X12546253Y-13873436D01*
X12546253Y-13873436D02*
X12536730Y-13882960D01*
X12536730Y-13882960D02*
X12517682Y-13892484D01*
X12517682Y-13892484D02*
X12489110Y-13892484D01*
X12670063Y-13892484D02*
X12651015Y-13882960D01*
X12651015Y-13882960D02*
X12641491Y-13863912D01*
X12641491Y-13863912D02*
X12641491Y-13692484D01*
X12822444Y-13882960D02*
X12803396Y-13892484D01*
X12803396Y-13892484D02*
X12765301Y-13892484D01*
X12765301Y-13892484D02*
X12746253Y-13882960D01*
X12746253Y-13882960D02*
X12736730Y-13863912D01*
X12736730Y-13863912D02*
X12736730Y-13787722D01*
X12736730Y-13787722D02*
X12746253Y-13768674D01*
X12746253Y-13768674D02*
X12765301Y-13759150D01*
X12765301Y-13759150D02*
X12803396Y-13759150D01*
X12803396Y-13759150D02*
X12822444Y-13768674D01*
X12822444Y-13768674D02*
X12831968Y-13787722D01*
X12831968Y-13787722D02*
X12831968Y-13806769D01*
X12831968Y-13806769D02*
X12736730Y-13825817D01*
X12908158Y-13882960D02*
X12927206Y-13892484D01*
X12927206Y-13892484D02*
X12965301Y-13892484D01*
X12965301Y-13892484D02*
X12984349Y-13882960D01*
X12984349Y-13882960D02*
X12993872Y-13863912D01*
X12993872Y-13863912D02*
X12993872Y-13854388D01*
X12993872Y-13854388D02*
X12984349Y-13835341D01*
X12984349Y-13835341D02*
X12965301Y-13825817D01*
X12965301Y-13825817D02*
X12936730Y-13825817D01*
X12936730Y-13825817D02*
X12917682Y-13816293D01*
X12917682Y-13816293D02*
X12908158Y-13797246D01*
X12908158Y-13797246D02*
X12908158Y-13787722D01*
X12908158Y-13787722D02*
X12917682Y-13768674D01*
X12917682Y-13768674D02*
X12936730Y-13759150D01*
X12936730Y-13759150D02*
X12965301Y-13759150D01*
X12965301Y-13759150D02*
X12984349Y-13768674D01*
X13060539Y-13968674D02*
X13070063Y-13959150D01*
X13070063Y-13959150D02*
X13089111Y-13930579D01*
X13089111Y-13930579D02*
X13098634Y-13911531D01*
X13098634Y-13911531D02*
X13108158Y-13882960D01*
X13108158Y-13882960D02*
X13117682Y-13835341D01*
X13117682Y-13835341D02*
X13117682Y-13797246D01*
X13117682Y-13797246D02*
X13108158Y-13749627D01*
X13108158Y-13749627D02*
X13098634Y-13721055D01*
X13098634Y-13721055D02*
X13089111Y-13702008D01*
X13089111Y-13702008D02*
X13070063Y-13673436D01*
X13070063Y-13673436D02*
X13060539Y-13663912D01*
D12*
X7985000Y-14010000D02*
X8095000Y-14120000D01*
X8095000Y-14010000D02*
X7985000Y-14120000D01*
X8095000Y-14065000D02*
G75*
G02*
X7985000Y-14065000I-55000J0D01*
G01*
X7985000Y-14065000D02*
G75*
G02*
X8095000Y-14065000I55000J0D01*
G01*
D11*
X8460539Y-14156484D02*
X8346253Y-14156484D01*
X8403396Y-14156484D02*
X8403396Y-13956484D01*
X8403396Y-13956484D02*
X8384348Y-13985055D01*
X8384348Y-13985055D02*
X8365301Y-14004103D01*
X8365301Y-14004103D02*
X8346253Y-14013627D01*
X8546253Y-14137436D02*
X8555777Y-14146960D01*
X8555777Y-14146960D02*
X8546253Y-14156484D01*
X8546253Y-14156484D02*
X8536729Y-14146960D01*
X8536729Y-14146960D02*
X8546253Y-14137436D01*
X8546253Y-14137436D02*
X8546253Y-14156484D01*
X8746253Y-14156484D02*
X8631967Y-14156484D01*
X8689110Y-14156484D02*
X8689110Y-13956484D01*
X8689110Y-13956484D02*
X8670063Y-13985055D01*
X8670063Y-13985055D02*
X8651015Y-14004103D01*
X8651015Y-14004103D02*
X8631967Y-14013627D01*
X8870063Y-13956484D02*
X8889110Y-13956484D01*
X8889110Y-13956484D02*
X8908158Y-13966008D01*
X8908158Y-13966008D02*
X8917682Y-13975531D01*
X8917682Y-13975531D02*
X8927205Y-13994579D01*
X8927205Y-13994579D02*
X8936729Y-14032674D01*
X8936729Y-14032674D02*
X8936729Y-14080293D01*
X8936729Y-14080293D02*
X8927205Y-14118388D01*
X8927205Y-14118388D02*
X8917682Y-14137436D01*
X8917682Y-14137436D02*
X8908158Y-14146960D01*
X8908158Y-14146960D02*
X8889110Y-14156484D01*
X8889110Y-14156484D02*
X8870063Y-14156484D01*
X8870063Y-14156484D02*
X8851015Y-14146960D01*
X8851015Y-14146960D02*
X8841491Y-14137436D01*
X8841491Y-14137436D02*
X8831967Y-14118388D01*
X8831967Y-14118388D02*
X8822444Y-14080293D01*
X8822444Y-14080293D02*
X8822444Y-14032674D01*
X8822444Y-14032674D02*
X8831967Y-13994579D01*
X8831967Y-13994579D02*
X8841491Y-13975531D01*
X8841491Y-13975531D02*
X8851015Y-13966008D01*
X8851015Y-13966008D02*
X8870063Y-13956484D01*
X9060539Y-13956484D02*
X9079586Y-13956484D01*
X9079586Y-13956484D02*
X9098634Y-13966008D01*
X9098634Y-13966008D02*
X9108158Y-13975531D01*
X9108158Y-13975531D02*
X9117682Y-13994579D01*
X9117682Y-13994579D02*
X9127205Y-14032674D01*
X9127205Y-14032674D02*
X9127205Y-14080293D01*
X9127205Y-14080293D02*
X9117682Y-14118388D01*
X9117682Y-14118388D02*
X9108158Y-14137436D01*
X9108158Y-14137436D02*
X9098634Y-14146960D01*
X9098634Y-14146960D02*
X9079586Y-14156484D01*
X9079586Y-14156484D02*
X9060539Y-14156484D01*
X9060539Y-14156484D02*
X9041491Y-14146960D01*
X9041491Y-14146960D02*
X9031967Y-14137436D01*
X9031967Y-14137436D02*
X9022444Y-14118388D01*
X9022444Y-14118388D02*
X9012920Y-14080293D01*
X9012920Y-14080293D02*
X9012920Y-14032674D01*
X9012920Y-14032674D02*
X9022444Y-13994579D01*
X9022444Y-13994579D02*
X9031967Y-13975531D01*
X9031967Y-13975531D02*
X9041491Y-13966008D01*
X9041491Y-13966008D02*
X9060539Y-13956484D01*
X9212920Y-14156484D02*
X9212920Y-14023150D01*
X9212920Y-14042198D02*
X9222444Y-14032674D01*
X9222444Y-14032674D02*
X9241491Y-14023150D01*
X9241491Y-14023150D02*
X9270063Y-14023150D01*
X9270063Y-14023150D02*
X9289110Y-14032674D01*
X9289110Y-14032674D02*
X9298634Y-14051722D01*
X9298634Y-14051722D02*
X9298634Y-14156484D01*
X9298634Y-14051722D02*
X9308158Y-14032674D01*
X9308158Y-14032674D02*
X9327205Y-14023150D01*
X9327205Y-14023150D02*
X9355777Y-14023150D01*
X9355777Y-14023150D02*
X9374825Y-14032674D01*
X9374825Y-14032674D02*
X9384348Y-14051722D01*
X9384348Y-14051722D02*
X9384348Y-14156484D01*
X9479586Y-14156484D02*
X9479586Y-14023150D01*
X9479586Y-14042198D02*
X9489110Y-14032674D01*
X9489110Y-14032674D02*
X9508158Y-14023150D01*
X9508158Y-14023150D02*
X9536729Y-14023150D01*
X9536729Y-14023150D02*
X9555777Y-14032674D01*
X9555777Y-14032674D02*
X9565301Y-14051722D01*
X9565301Y-14051722D02*
X9565301Y-14156484D01*
X9565301Y-14051722D02*
X9574825Y-14032674D01*
X9574825Y-14032674D02*
X9593872Y-14023150D01*
X9593872Y-14023150D02*
X9622444Y-14023150D01*
X9622444Y-14023150D02*
X9641491Y-14032674D01*
X9641491Y-14032674D02*
X9651015Y-14051722D01*
X9651015Y-14051722D02*
X9651015Y-14156484D01*
X10041491Y-13946960D02*
X9870063Y-14204103D01*
X10298634Y-13956484D02*
X10317682Y-13956484D01*
X10317682Y-13956484D02*
X10336729Y-13966008D01*
X10336729Y-13966008D02*
X10346253Y-13975531D01*
X10346253Y-13975531D02*
X10355777Y-13994579D01*
X10355777Y-13994579D02*
X10365301Y-14032674D01*
X10365301Y-14032674D02*
X10365301Y-14080293D01*
X10365301Y-14080293D02*
X10355777Y-14118388D01*
X10355777Y-14118388D02*
X10346253Y-14137436D01*
X10346253Y-14137436D02*
X10336729Y-14146960D01*
X10336729Y-14146960D02*
X10317682Y-14156484D01*
X10317682Y-14156484D02*
X10298634Y-14156484D01*
X10298634Y-14156484D02*
X10279587Y-14146960D01*
X10279587Y-14146960D02*
X10270063Y-14137436D01*
X10270063Y-14137436D02*
X10260539Y-14118388D01*
X10260539Y-14118388D02*
X10251015Y-14080293D01*
X10251015Y-14080293D02*
X10251015Y-14032674D01*
X10251015Y-14032674D02*
X10260539Y-13994579D01*
X10260539Y-13994579D02*
X10270063Y-13975531D01*
X10270063Y-13975531D02*
X10279587Y-13966008D01*
X10279587Y-13966008D02*
X10298634Y-13956484D01*
X10451015Y-14137436D02*
X10460539Y-14146960D01*
X10460539Y-14146960D02*
X10451015Y-14156484D01*
X10451015Y-14156484D02*
X10441491Y-14146960D01*
X10441491Y-14146960D02*
X10451015Y-14137436D01*
X10451015Y-14137436D02*
X10451015Y-14156484D01*
X10584348Y-13956484D02*
X10603396Y-13956484D01*
X10603396Y-13956484D02*
X10622444Y-13966008D01*
X10622444Y-13966008D02*
X10631968Y-13975531D01*
X10631968Y-13975531D02*
X10641491Y-13994579D01*
X10641491Y-13994579D02*
X10651015Y-14032674D01*
X10651015Y-14032674D02*
X10651015Y-14080293D01*
X10651015Y-14080293D02*
X10641491Y-14118388D01*
X10641491Y-14118388D02*
X10631968Y-14137436D01*
X10631968Y-14137436D02*
X10622444Y-14146960D01*
X10622444Y-14146960D02*
X10603396Y-14156484D01*
X10603396Y-14156484D02*
X10584348Y-14156484D01*
X10584348Y-14156484D02*
X10565301Y-14146960D01*
X10565301Y-14146960D02*
X10555777Y-14137436D01*
X10555777Y-14137436D02*
X10546253Y-14118388D01*
X10546253Y-14118388D02*
X10536729Y-14080293D01*
X10536729Y-14080293D02*
X10536729Y-14032674D01*
X10536729Y-14032674D02*
X10546253Y-13994579D01*
X10546253Y-13994579D02*
X10555777Y-13975531D01*
X10555777Y-13975531D02*
X10565301Y-13966008D01*
X10565301Y-13966008D02*
X10584348Y-13956484D01*
X10822444Y-14023150D02*
X10822444Y-14156484D01*
X10774825Y-13946960D02*
X10727206Y-14089817D01*
X10727206Y-14089817D02*
X10851015Y-14089817D01*
X10908158Y-13956484D02*
X11031968Y-13956484D01*
X11031968Y-13956484D02*
X10965301Y-14032674D01*
X10965301Y-14032674D02*
X10993872Y-14032674D01*
X10993872Y-14032674D02*
X11012920Y-14042198D01*
X11012920Y-14042198D02*
X11022444Y-14051722D01*
X11022444Y-14051722D02*
X11031968Y-14070769D01*
X11031968Y-14070769D02*
X11031968Y-14118388D01*
X11031968Y-14118388D02*
X11022444Y-14137436D01*
X11022444Y-14137436D02*
X11012920Y-14146960D01*
X11012920Y-14146960D02*
X10993872Y-14156484D01*
X10993872Y-14156484D02*
X10936729Y-14156484D01*
X10936729Y-14156484D02*
X10917682Y-14146960D01*
X10917682Y-14146960D02*
X10908158Y-14137436D01*
X11098634Y-13956484D02*
X11222444Y-13956484D01*
X11222444Y-13956484D02*
X11155777Y-14032674D01*
X11155777Y-14032674D02*
X11184349Y-14032674D01*
X11184349Y-14032674D02*
X11203396Y-14042198D01*
X11203396Y-14042198D02*
X11212920Y-14051722D01*
X11212920Y-14051722D02*
X11222444Y-14070769D01*
X11222444Y-14070769D02*
X11222444Y-14118388D01*
X11222444Y-14118388D02*
X11212920Y-14137436D01*
X11212920Y-14137436D02*
X11203396Y-14146960D01*
X11203396Y-14146960D02*
X11184349Y-14156484D01*
X11184349Y-14156484D02*
X11127206Y-14156484D01*
X11127206Y-14156484D02*
X11108158Y-14146960D01*
X11108158Y-14146960D02*
X11098634Y-14137436D01*
X11298634Y-13956484D02*
X11298634Y-13994579D01*
X11374825Y-13956484D02*
X11374825Y-13994579D01*
X11670063Y-14232674D02*
X11660539Y-14223150D01*
X11660539Y-14223150D02*
X11641491Y-14194579D01*
X11641491Y-14194579D02*
X11631968Y-14175531D01*
X11631968Y-14175531D02*
X11622444Y-14146960D01*
X11622444Y-14146960D02*
X11612920Y-14099341D01*
X11612920Y-14099341D02*
X11612920Y-14061246D01*
X11612920Y-14061246D02*
X11622444Y-14013627D01*
X11622444Y-14013627D02*
X11631968Y-13985055D01*
X11631968Y-13985055D02*
X11641491Y-13966008D01*
X11641491Y-13966008D02*
X11660539Y-13937436D01*
X11660539Y-13937436D02*
X11670063Y-13927912D01*
X11727206Y-13956484D02*
X11851015Y-13956484D01*
X11851015Y-13956484D02*
X11784348Y-14032674D01*
X11784348Y-14032674D02*
X11812920Y-14032674D01*
X11812920Y-14032674D02*
X11831968Y-14042198D01*
X11831968Y-14042198D02*
X11841491Y-14051722D01*
X11841491Y-14051722D02*
X11851015Y-14070769D01*
X11851015Y-14070769D02*
X11851015Y-14118388D01*
X11851015Y-14118388D02*
X11841491Y-14137436D01*
X11841491Y-14137436D02*
X11831968Y-14146960D01*
X11831968Y-14146960D02*
X11812920Y-14156484D01*
X11812920Y-14156484D02*
X11755777Y-14156484D01*
X11755777Y-14156484D02*
X11736729Y-14146960D01*
X11736729Y-14146960D02*
X11727206Y-14137436D01*
X12089110Y-14156484D02*
X12089110Y-13956484D01*
X12174825Y-14156484D02*
X12174825Y-14051722D01*
X12174825Y-14051722D02*
X12165301Y-14032674D01*
X12165301Y-14032674D02*
X12146253Y-14023150D01*
X12146253Y-14023150D02*
X12117682Y-14023150D01*
X12117682Y-14023150D02*
X12098634Y-14032674D01*
X12098634Y-14032674D02*
X12089110Y-14042198D01*
X12298634Y-14156484D02*
X12279587Y-14146960D01*
X12279587Y-14146960D02*
X12270063Y-14137436D01*
X12270063Y-14137436D02*
X12260539Y-14118388D01*
X12260539Y-14118388D02*
X12260539Y-14061246D01*
X12260539Y-14061246D02*
X12270063Y-14042198D01*
X12270063Y-14042198D02*
X12279587Y-14032674D01*
X12279587Y-14032674D02*
X12298634Y-14023150D01*
X12298634Y-14023150D02*
X12327206Y-14023150D01*
X12327206Y-14023150D02*
X12346253Y-14032674D01*
X12346253Y-14032674D02*
X12355777Y-14042198D01*
X12355777Y-14042198D02*
X12365301Y-14061246D01*
X12365301Y-14061246D02*
X12365301Y-14118388D01*
X12365301Y-14118388D02*
X12355777Y-14137436D01*
X12355777Y-14137436D02*
X12346253Y-14146960D01*
X12346253Y-14146960D02*
X12327206Y-14156484D01*
X12327206Y-14156484D02*
X12298634Y-14156484D01*
X12479587Y-14156484D02*
X12460539Y-14146960D01*
X12460539Y-14146960D02*
X12451015Y-14127912D01*
X12451015Y-14127912D02*
X12451015Y-13956484D01*
X12631968Y-14146960D02*
X12612920Y-14156484D01*
X12612920Y-14156484D02*
X12574825Y-14156484D01*
X12574825Y-14156484D02*
X12555777Y-14146960D01*
X12555777Y-14146960D02*
X12546253Y-14127912D01*
X12546253Y-14127912D02*
X12546253Y-14051722D01*
X12546253Y-14051722D02*
X12555777Y-14032674D01*
X12555777Y-14032674D02*
X12574825Y-14023150D01*
X12574825Y-14023150D02*
X12612920Y-14023150D01*
X12612920Y-14023150D02*
X12631968Y-14032674D01*
X12631968Y-14032674D02*
X12641491Y-14051722D01*
X12641491Y-14051722D02*
X12641491Y-14070769D01*
X12641491Y-14070769D02*
X12546253Y-14089817D01*
X12717682Y-14146960D02*
X12736730Y-14156484D01*
X12736730Y-14156484D02*
X12774825Y-14156484D01*
X12774825Y-14156484D02*
X12793872Y-14146960D01*
X12793872Y-14146960D02*
X12803396Y-14127912D01*
X12803396Y-14127912D02*
X12803396Y-14118388D01*
X12803396Y-14118388D02*
X12793872Y-14099341D01*
X12793872Y-14099341D02*
X12774825Y-14089817D01*
X12774825Y-14089817D02*
X12746253Y-14089817D01*
X12746253Y-14089817D02*
X12727206Y-14080293D01*
X12727206Y-14080293D02*
X12717682Y-14061246D01*
X12717682Y-14061246D02*
X12717682Y-14051722D01*
X12717682Y-14051722D02*
X12727206Y-14032674D01*
X12727206Y-14032674D02*
X12746253Y-14023150D01*
X12746253Y-14023150D02*
X12774825Y-14023150D01*
X12774825Y-14023150D02*
X12793872Y-14032674D01*
X12870063Y-14232674D02*
X12879587Y-14223150D01*
X12879587Y-14223150D02*
X12898634Y-14194579D01*
X12898634Y-14194579D02*
X12908158Y-14175531D01*
X12908158Y-14175531D02*
X12917682Y-14146960D01*
X12917682Y-14146960D02*
X12927206Y-14099341D01*
X12927206Y-14099341D02*
X12927206Y-14061246D01*
X12927206Y-14061246D02*
X12917682Y-14013627D01*
X12917682Y-14013627D02*
X12908158Y-13985055D01*
X12908158Y-13985055D02*
X12898634Y-13966008D01*
X12898634Y-13966008D02*
X12879587Y-13937436D01*
X12879587Y-13937436D02*
X12870063Y-13927912D01*
D13*
X7965000Y-14264000D02*
X8095000Y-14394000D01*
X8095000Y-14264000D02*
X7965000Y-14394000D01*
X8030000Y-14264000D02*
X8030000Y-14394000D01*
X7965000Y-14329000D02*
X8095000Y-14329000D01*
D11*
X8460539Y-14420484D02*
X8346253Y-14420484D01*
X8403396Y-14420484D02*
X8403396Y-14220484D01*
X8403396Y-14220484D02*
X8384348Y-14249055D01*
X8384348Y-14249055D02*
X8365301Y-14268103D01*
X8365301Y-14268103D02*
X8346253Y-14277627D01*
X8546253Y-14401436D02*
X8555777Y-14410960D01*
X8555777Y-14410960D02*
X8546253Y-14420484D01*
X8546253Y-14420484D02*
X8536729Y-14410960D01*
X8536729Y-14410960D02*
X8546253Y-14401436D01*
X8546253Y-14401436D02*
X8546253Y-14420484D01*
X8622444Y-14220484D02*
X8746253Y-14220484D01*
X8746253Y-14220484D02*
X8679586Y-14296674D01*
X8679586Y-14296674D02*
X8708158Y-14296674D01*
X8708158Y-14296674D02*
X8727205Y-14306198D01*
X8727205Y-14306198D02*
X8736729Y-14315722D01*
X8736729Y-14315722D02*
X8746253Y-14334769D01*
X8746253Y-14334769D02*
X8746253Y-14382388D01*
X8746253Y-14382388D02*
X8736729Y-14401436D01*
X8736729Y-14401436D02*
X8727205Y-14410960D01*
X8727205Y-14410960D02*
X8708158Y-14420484D01*
X8708158Y-14420484D02*
X8651015Y-14420484D01*
X8651015Y-14420484D02*
X8631967Y-14410960D01*
X8631967Y-14410960D02*
X8622444Y-14401436D01*
X8870063Y-14220484D02*
X8889110Y-14220484D01*
X8889110Y-14220484D02*
X8908158Y-14230008D01*
X8908158Y-14230008D02*
X8917682Y-14239531D01*
X8917682Y-14239531D02*
X8927205Y-14258579D01*
X8927205Y-14258579D02*
X8936729Y-14296674D01*
X8936729Y-14296674D02*
X8936729Y-14344293D01*
X8936729Y-14344293D02*
X8927205Y-14382388D01*
X8927205Y-14382388D02*
X8917682Y-14401436D01*
X8917682Y-14401436D02*
X8908158Y-14410960D01*
X8908158Y-14410960D02*
X8889110Y-14420484D01*
X8889110Y-14420484D02*
X8870063Y-14420484D01*
X8870063Y-14420484D02*
X8851015Y-14410960D01*
X8851015Y-14410960D02*
X8841491Y-14401436D01*
X8841491Y-14401436D02*
X8831967Y-14382388D01*
X8831967Y-14382388D02*
X8822444Y-14344293D01*
X8822444Y-14344293D02*
X8822444Y-14296674D01*
X8822444Y-14296674D02*
X8831967Y-14258579D01*
X8831967Y-14258579D02*
X8841491Y-14239531D01*
X8841491Y-14239531D02*
X8851015Y-14230008D01*
X8851015Y-14230008D02*
X8870063Y-14220484D01*
X9060539Y-14220484D02*
X9079586Y-14220484D01*
X9079586Y-14220484D02*
X9098634Y-14230008D01*
X9098634Y-14230008D02*
X9108158Y-14239531D01*
X9108158Y-14239531D02*
X9117682Y-14258579D01*
X9117682Y-14258579D02*
X9127205Y-14296674D01*
X9127205Y-14296674D02*
X9127205Y-14344293D01*
X9127205Y-14344293D02*
X9117682Y-14382388D01*
X9117682Y-14382388D02*
X9108158Y-14401436D01*
X9108158Y-14401436D02*
X9098634Y-14410960D01*
X9098634Y-14410960D02*
X9079586Y-14420484D01*
X9079586Y-14420484D02*
X9060539Y-14420484D01*
X9060539Y-14420484D02*
X9041491Y-14410960D01*
X9041491Y-14410960D02*
X9031967Y-14401436D01*
X9031967Y-14401436D02*
X9022444Y-14382388D01*
X9022444Y-14382388D02*
X9012920Y-14344293D01*
X9012920Y-14344293D02*
X9012920Y-14296674D01*
X9012920Y-14296674D02*
X9022444Y-14258579D01*
X9022444Y-14258579D02*
X9031967Y-14239531D01*
X9031967Y-14239531D02*
X9041491Y-14230008D01*
X9041491Y-14230008D02*
X9060539Y-14220484D01*
X9212920Y-14420484D02*
X9212920Y-14287150D01*
X9212920Y-14306198D02*
X9222444Y-14296674D01*
X9222444Y-14296674D02*
X9241491Y-14287150D01*
X9241491Y-14287150D02*
X9270063Y-14287150D01*
X9270063Y-14287150D02*
X9289110Y-14296674D01*
X9289110Y-14296674D02*
X9298634Y-14315722D01*
X9298634Y-14315722D02*
X9298634Y-14420484D01*
X9298634Y-14315722D02*
X9308158Y-14296674D01*
X9308158Y-14296674D02*
X9327205Y-14287150D01*
X9327205Y-14287150D02*
X9355777Y-14287150D01*
X9355777Y-14287150D02*
X9374825Y-14296674D01*
X9374825Y-14296674D02*
X9384348Y-14315722D01*
X9384348Y-14315722D02*
X9384348Y-14420484D01*
X9479586Y-14420484D02*
X9479586Y-14287150D01*
X9479586Y-14306198D02*
X9489110Y-14296674D01*
X9489110Y-14296674D02*
X9508158Y-14287150D01*
X9508158Y-14287150D02*
X9536729Y-14287150D01*
X9536729Y-14287150D02*
X9555777Y-14296674D01*
X9555777Y-14296674D02*
X9565301Y-14315722D01*
X9565301Y-14315722D02*
X9565301Y-14420484D01*
X9565301Y-14315722D02*
X9574825Y-14296674D01*
X9574825Y-14296674D02*
X9593872Y-14287150D01*
X9593872Y-14287150D02*
X9622444Y-14287150D01*
X9622444Y-14287150D02*
X9641491Y-14296674D01*
X9641491Y-14296674D02*
X9651015Y-14315722D01*
X9651015Y-14315722D02*
X9651015Y-14420484D01*
X10041491Y-14210960D02*
X9870063Y-14468103D01*
X10298634Y-14220484D02*
X10317682Y-14220484D01*
X10317682Y-14220484D02*
X10336729Y-14230008D01*
X10336729Y-14230008D02*
X10346253Y-14239531D01*
X10346253Y-14239531D02*
X10355777Y-14258579D01*
X10355777Y-14258579D02*
X10365301Y-14296674D01*
X10365301Y-14296674D02*
X10365301Y-14344293D01*
X10365301Y-14344293D02*
X10355777Y-14382388D01*
X10355777Y-14382388D02*
X10346253Y-14401436D01*
X10346253Y-14401436D02*
X10336729Y-14410960D01*
X10336729Y-14410960D02*
X10317682Y-14420484D01*
X10317682Y-14420484D02*
X10298634Y-14420484D01*
X10298634Y-14420484D02*
X10279587Y-14410960D01*
X10279587Y-14410960D02*
X10270063Y-14401436D01*
X10270063Y-14401436D02*
X10260539Y-14382388D01*
X10260539Y-14382388D02*
X10251015Y-14344293D01*
X10251015Y-14344293D02*
X10251015Y-14296674D01*
X10251015Y-14296674D02*
X10260539Y-14258579D01*
X10260539Y-14258579D02*
X10270063Y-14239531D01*
X10270063Y-14239531D02*
X10279587Y-14230008D01*
X10279587Y-14230008D02*
X10298634Y-14220484D01*
X10451015Y-14401436D02*
X10460539Y-14410960D01*
X10460539Y-14410960D02*
X10451015Y-14420484D01*
X10451015Y-14420484D02*
X10441491Y-14410960D01*
X10441491Y-14410960D02*
X10451015Y-14401436D01*
X10451015Y-14401436D02*
X10451015Y-14420484D01*
X10584348Y-14220484D02*
X10603396Y-14220484D01*
X10603396Y-14220484D02*
X10622444Y-14230008D01*
X10622444Y-14230008D02*
X10631968Y-14239531D01*
X10631968Y-14239531D02*
X10641491Y-14258579D01*
X10641491Y-14258579D02*
X10651015Y-14296674D01*
X10651015Y-14296674D02*
X10651015Y-14344293D01*
X10651015Y-14344293D02*
X10641491Y-14382388D01*
X10641491Y-14382388D02*
X10631968Y-14401436D01*
X10631968Y-14401436D02*
X10622444Y-14410960D01*
X10622444Y-14410960D02*
X10603396Y-14420484D01*
X10603396Y-14420484D02*
X10584348Y-14420484D01*
X10584348Y-14420484D02*
X10565301Y-14410960D01*
X10565301Y-14410960D02*
X10555777Y-14401436D01*
X10555777Y-14401436D02*
X10546253Y-14382388D01*
X10546253Y-14382388D02*
X10536729Y-14344293D01*
X10536729Y-14344293D02*
X10536729Y-14296674D01*
X10536729Y-14296674D02*
X10546253Y-14258579D01*
X10546253Y-14258579D02*
X10555777Y-14239531D01*
X10555777Y-14239531D02*
X10565301Y-14230008D01*
X10565301Y-14230008D02*
X10584348Y-14220484D01*
X10831968Y-14220484D02*
X10736729Y-14220484D01*
X10736729Y-14220484D02*
X10727206Y-14315722D01*
X10727206Y-14315722D02*
X10736729Y-14306198D01*
X10736729Y-14306198D02*
X10755777Y-14296674D01*
X10755777Y-14296674D02*
X10803396Y-14296674D01*
X10803396Y-14296674D02*
X10822444Y-14306198D01*
X10822444Y-14306198D02*
X10831968Y-14315722D01*
X10831968Y-14315722D02*
X10841491Y-14334769D01*
X10841491Y-14334769D02*
X10841491Y-14382388D01*
X10841491Y-14382388D02*
X10831968Y-14401436D01*
X10831968Y-14401436D02*
X10822444Y-14410960D01*
X10822444Y-14410960D02*
X10803396Y-14420484D01*
X10803396Y-14420484D02*
X10755777Y-14420484D01*
X10755777Y-14420484D02*
X10736729Y-14410960D01*
X10736729Y-14410960D02*
X10727206Y-14401436D01*
X11031968Y-14420484D02*
X10917682Y-14420484D01*
X10974825Y-14420484D02*
X10974825Y-14220484D01*
X10974825Y-14220484D02*
X10955777Y-14249055D01*
X10955777Y-14249055D02*
X10936729Y-14268103D01*
X10936729Y-14268103D02*
X10917682Y-14277627D01*
X11108158Y-14239531D02*
X11117682Y-14230008D01*
X11117682Y-14230008D02*
X11136729Y-14220484D01*
X11136729Y-14220484D02*
X11184349Y-14220484D01*
X11184349Y-14220484D02*
X11203396Y-14230008D01*
X11203396Y-14230008D02*
X11212920Y-14239531D01*
X11212920Y-14239531D02*
X11222444Y-14258579D01*
X11222444Y-14258579D02*
X11222444Y-14277627D01*
X11222444Y-14277627D02*
X11212920Y-14306198D01*
X11212920Y-14306198D02*
X11098634Y-14420484D01*
X11098634Y-14420484D02*
X11222444Y-14420484D01*
X11298634Y-14220484D02*
X11298634Y-14258579D01*
X11374825Y-14220484D02*
X11374825Y-14258579D01*
X11670063Y-14496674D02*
X11660539Y-14487150D01*
X11660539Y-14487150D02*
X11641491Y-14458579D01*
X11641491Y-14458579D02*
X11631968Y-14439531D01*
X11631968Y-14439531D02*
X11622444Y-14410960D01*
X11622444Y-14410960D02*
X11612920Y-14363341D01*
X11612920Y-14363341D02*
X11612920Y-14325246D01*
X11612920Y-14325246D02*
X11622444Y-14277627D01*
X11622444Y-14277627D02*
X11631968Y-14249055D01*
X11631968Y-14249055D02*
X11641491Y-14230008D01*
X11641491Y-14230008D02*
X11660539Y-14201436D01*
X11660539Y-14201436D02*
X11670063Y-14191912D01*
X11774825Y-14306198D02*
X11755777Y-14296674D01*
X11755777Y-14296674D02*
X11746253Y-14287150D01*
X11746253Y-14287150D02*
X11736729Y-14268103D01*
X11736729Y-14268103D02*
X11736729Y-14258579D01*
X11736729Y-14258579D02*
X11746253Y-14239531D01*
X11746253Y-14239531D02*
X11755777Y-14230008D01*
X11755777Y-14230008D02*
X11774825Y-14220484D01*
X11774825Y-14220484D02*
X11812920Y-14220484D01*
X11812920Y-14220484D02*
X11831968Y-14230008D01*
X11831968Y-14230008D02*
X11841491Y-14239531D01*
X11841491Y-14239531D02*
X11851015Y-14258579D01*
X11851015Y-14258579D02*
X11851015Y-14268103D01*
X11851015Y-14268103D02*
X11841491Y-14287150D01*
X11841491Y-14287150D02*
X11831968Y-14296674D01*
X11831968Y-14296674D02*
X11812920Y-14306198D01*
X11812920Y-14306198D02*
X11774825Y-14306198D01*
X11774825Y-14306198D02*
X11755777Y-14315722D01*
X11755777Y-14315722D02*
X11746253Y-14325246D01*
X11746253Y-14325246D02*
X11736729Y-14344293D01*
X11736729Y-14344293D02*
X11736729Y-14382388D01*
X11736729Y-14382388D02*
X11746253Y-14401436D01*
X11746253Y-14401436D02*
X11755777Y-14410960D01*
X11755777Y-14410960D02*
X11774825Y-14420484D01*
X11774825Y-14420484D02*
X11812920Y-14420484D01*
X11812920Y-14420484D02*
X11831968Y-14410960D01*
X11831968Y-14410960D02*
X11841491Y-14401436D01*
X11841491Y-14401436D02*
X11851015Y-14382388D01*
X11851015Y-14382388D02*
X11851015Y-14344293D01*
X11851015Y-14344293D02*
X11841491Y-14325246D01*
X11841491Y-14325246D02*
X11831968Y-14315722D01*
X11831968Y-14315722D02*
X11812920Y-14306198D01*
X12089110Y-14420484D02*
X12089110Y-14220484D01*
X12174825Y-14420484D02*
X12174825Y-14315722D01*
X12174825Y-14315722D02*
X12165301Y-14296674D01*
X12165301Y-14296674D02*
X12146253Y-14287150D01*
X12146253Y-14287150D02*
X12117682Y-14287150D01*
X12117682Y-14287150D02*
X12098634Y-14296674D01*
X12098634Y-14296674D02*
X12089110Y-14306198D01*
X12298634Y-14420484D02*
X12279587Y-14410960D01*
X12279587Y-14410960D02*
X12270063Y-14401436D01*
X12270063Y-14401436D02*
X12260539Y-14382388D01*
X12260539Y-14382388D02*
X12260539Y-14325246D01*
X12260539Y-14325246D02*
X12270063Y-14306198D01*
X12270063Y-14306198D02*
X12279587Y-14296674D01*
X12279587Y-14296674D02*
X12298634Y-14287150D01*
X12298634Y-14287150D02*
X12327206Y-14287150D01*
X12327206Y-14287150D02*
X12346253Y-14296674D01*
X12346253Y-14296674D02*
X12355777Y-14306198D01*
X12355777Y-14306198D02*
X12365301Y-14325246D01*
X12365301Y-14325246D02*
X12365301Y-14382388D01*
X12365301Y-14382388D02*
X12355777Y-14401436D01*
X12355777Y-14401436D02*
X12346253Y-14410960D01*
X12346253Y-14410960D02*
X12327206Y-14420484D01*
X12327206Y-14420484D02*
X12298634Y-14420484D01*
X12479587Y-14420484D02*
X12460539Y-14410960D01*
X12460539Y-14410960D02*
X12451015Y-14391912D01*
X12451015Y-14391912D02*
X12451015Y-14220484D01*
X12631968Y-14410960D02*
X12612920Y-14420484D01*
X12612920Y-14420484D02*
X12574825Y-14420484D01*
X12574825Y-14420484D02*
X12555777Y-14410960D01*
X12555777Y-14410960D02*
X12546253Y-14391912D01*
X12546253Y-14391912D02*
X12546253Y-14315722D01*
X12546253Y-14315722D02*
X12555777Y-14296674D01*
X12555777Y-14296674D02*
X12574825Y-14287150D01*
X12574825Y-14287150D02*
X12612920Y-14287150D01*
X12612920Y-14287150D02*
X12631968Y-14296674D01*
X12631968Y-14296674D02*
X12641491Y-14315722D01*
X12641491Y-14315722D02*
X12641491Y-14334769D01*
X12641491Y-14334769D02*
X12546253Y-14353817D01*
X12717682Y-14410960D02*
X12736730Y-14420484D01*
X12736730Y-14420484D02*
X12774825Y-14420484D01*
X12774825Y-14420484D02*
X12793872Y-14410960D01*
X12793872Y-14410960D02*
X12803396Y-14391912D01*
X12803396Y-14391912D02*
X12803396Y-14382388D01*
X12803396Y-14382388D02*
X12793872Y-14363341D01*
X12793872Y-14363341D02*
X12774825Y-14353817D01*
X12774825Y-14353817D02*
X12746253Y-14353817D01*
X12746253Y-14353817D02*
X12727206Y-14344293D01*
X12727206Y-14344293D02*
X12717682Y-14325246D01*
X12717682Y-14325246D02*
X12717682Y-14315722D01*
X12717682Y-14315722D02*
X12727206Y-14296674D01*
X12727206Y-14296674D02*
X12746253Y-14287150D01*
X12746253Y-14287150D02*
X12774825Y-14287150D01*
X12774825Y-14287150D02*
X12793872Y-14296674D01*
X12870063Y-14496674D02*
X12879587Y-14487150D01*
X12879587Y-14487150D02*
X12898634Y-14458579D01*
X12898634Y-14458579D02*
X12908158Y-14439531D01*
X12908158Y-14439531D02*
X12917682Y-14410960D01*
X12917682Y-14410960D02*
X12927206Y-14363341D01*
X12927206Y-14363341D02*
X12927206Y-14325246D01*
X12927206Y-14325246D02*
X12917682Y-14277627D01*
X12917682Y-14277627D02*
X12908158Y-14249055D01*
X12908158Y-14249055D02*
X12898634Y-14230008D01*
X12898634Y-14230008D02*
X12879587Y-14201436D01*
X12879587Y-14201436D02*
X12870063Y-14191912D01*
D14*
X7935000Y-14513000D02*
X8095000Y-14673000D01*
X8095000Y-14513000D02*
X7935000Y-14673000D01*
X8071569Y-14649569D02*
X8071569Y-14536431D01*
X7958431Y-14536431D01*
X7958431Y-14649569D01*
X8071569Y-14649569D01*
D11*
X8460539Y-14684484D02*
X8346253Y-14684484D01*
X8403396Y-14684484D02*
X8403396Y-14484484D01*
X8403396Y-14484484D02*
X8384348Y-14513055D01*
X8384348Y-14513055D02*
X8365301Y-14532103D01*
X8365301Y-14532103D02*
X8346253Y-14541627D01*
X8546253Y-14665436D02*
X8555777Y-14674960D01*
X8555777Y-14674960D02*
X8546253Y-14684484D01*
X8546253Y-14684484D02*
X8536729Y-14674960D01*
X8536729Y-14674960D02*
X8546253Y-14665436D01*
X8546253Y-14665436D02*
X8546253Y-14684484D01*
X8727205Y-14484484D02*
X8689110Y-14484484D01*
X8689110Y-14484484D02*
X8670063Y-14494008D01*
X8670063Y-14494008D02*
X8660539Y-14503531D01*
X8660539Y-14503531D02*
X8641491Y-14532103D01*
X8641491Y-14532103D02*
X8631967Y-14570198D01*
X8631967Y-14570198D02*
X8631967Y-14646388D01*
X8631967Y-14646388D02*
X8641491Y-14665436D01*
X8641491Y-14665436D02*
X8651015Y-14674960D01*
X8651015Y-14674960D02*
X8670063Y-14684484D01*
X8670063Y-14684484D02*
X8708158Y-14684484D01*
X8708158Y-14684484D02*
X8727205Y-14674960D01*
X8727205Y-14674960D02*
X8736729Y-14665436D01*
X8736729Y-14665436D02*
X8746253Y-14646388D01*
X8746253Y-14646388D02*
X8746253Y-14598769D01*
X8746253Y-14598769D02*
X8736729Y-14579722D01*
X8736729Y-14579722D02*
X8727205Y-14570198D01*
X8727205Y-14570198D02*
X8708158Y-14560674D01*
X8708158Y-14560674D02*
X8670063Y-14560674D01*
X8670063Y-14560674D02*
X8651015Y-14570198D01*
X8651015Y-14570198D02*
X8641491Y-14579722D01*
X8641491Y-14579722D02*
X8631967Y-14598769D01*
X8870063Y-14484484D02*
X8889110Y-14484484D01*
X8889110Y-14484484D02*
X8908158Y-14494008D01*
X8908158Y-14494008D02*
X8917682Y-14503531D01*
X8917682Y-14503531D02*
X8927205Y-14522579D01*
X8927205Y-14522579D02*
X8936729Y-14560674D01*
X8936729Y-14560674D02*
X8936729Y-14608293D01*
X8936729Y-14608293D02*
X8927205Y-14646388D01*
X8927205Y-14646388D02*
X8917682Y-14665436D01*
X8917682Y-14665436D02*
X8908158Y-14674960D01*
X8908158Y-14674960D02*
X8889110Y-14684484D01*
X8889110Y-14684484D02*
X8870063Y-14684484D01*
X8870063Y-14684484D02*
X8851015Y-14674960D01*
X8851015Y-14674960D02*
X8841491Y-14665436D01*
X8841491Y-14665436D02*
X8831967Y-14646388D01*
X8831967Y-14646388D02*
X8822444Y-14608293D01*
X8822444Y-14608293D02*
X8822444Y-14560674D01*
X8822444Y-14560674D02*
X8831967Y-14522579D01*
X8831967Y-14522579D02*
X8841491Y-14503531D01*
X8841491Y-14503531D02*
X8851015Y-14494008D01*
X8851015Y-14494008D02*
X8870063Y-14484484D01*
X9060539Y-14484484D02*
X9079586Y-14484484D01*
X9079586Y-14484484D02*
X9098634Y-14494008D01*
X9098634Y-14494008D02*
X9108158Y-14503531D01*
X9108158Y-14503531D02*
X9117682Y-14522579D01*
X9117682Y-14522579D02*
X9127205Y-14560674D01*
X9127205Y-14560674D02*
X9127205Y-14608293D01*
X9127205Y-14608293D02*
X9117682Y-14646388D01*
X9117682Y-14646388D02*
X9108158Y-14665436D01*
X9108158Y-14665436D02*
X9098634Y-14674960D01*
X9098634Y-14674960D02*
X9079586Y-14684484D01*
X9079586Y-14684484D02*
X9060539Y-14684484D01*
X9060539Y-14684484D02*
X9041491Y-14674960D01*
X9041491Y-14674960D02*
X9031967Y-14665436D01*
X9031967Y-14665436D02*
X9022444Y-14646388D01*
X9022444Y-14646388D02*
X9012920Y-14608293D01*
X9012920Y-14608293D02*
X9012920Y-14560674D01*
X9012920Y-14560674D02*
X9022444Y-14522579D01*
X9022444Y-14522579D02*
X9031967Y-14503531D01*
X9031967Y-14503531D02*
X9041491Y-14494008D01*
X9041491Y-14494008D02*
X9060539Y-14484484D01*
X9212920Y-14684484D02*
X9212920Y-14551150D01*
X9212920Y-14570198D02*
X9222444Y-14560674D01*
X9222444Y-14560674D02*
X9241491Y-14551150D01*
X9241491Y-14551150D02*
X9270063Y-14551150D01*
X9270063Y-14551150D02*
X9289110Y-14560674D01*
X9289110Y-14560674D02*
X9298634Y-14579722D01*
X9298634Y-14579722D02*
X9298634Y-14684484D01*
X9298634Y-14579722D02*
X9308158Y-14560674D01*
X9308158Y-14560674D02*
X9327205Y-14551150D01*
X9327205Y-14551150D02*
X9355777Y-14551150D01*
X9355777Y-14551150D02*
X9374825Y-14560674D01*
X9374825Y-14560674D02*
X9384348Y-14579722D01*
X9384348Y-14579722D02*
X9384348Y-14684484D01*
X9479586Y-14684484D02*
X9479586Y-14551150D01*
X9479586Y-14570198D02*
X9489110Y-14560674D01*
X9489110Y-14560674D02*
X9508158Y-14551150D01*
X9508158Y-14551150D02*
X9536729Y-14551150D01*
X9536729Y-14551150D02*
X9555777Y-14560674D01*
X9555777Y-14560674D02*
X9565301Y-14579722D01*
X9565301Y-14579722D02*
X9565301Y-14684484D01*
X9565301Y-14579722D02*
X9574825Y-14560674D01*
X9574825Y-14560674D02*
X9593872Y-14551150D01*
X9593872Y-14551150D02*
X9622444Y-14551150D01*
X9622444Y-14551150D02*
X9641491Y-14560674D01*
X9641491Y-14560674D02*
X9651015Y-14579722D01*
X9651015Y-14579722D02*
X9651015Y-14684484D01*
X10041491Y-14474960D02*
X9870063Y-14732103D01*
X10298634Y-14484484D02*
X10317682Y-14484484D01*
X10317682Y-14484484D02*
X10336729Y-14494008D01*
X10336729Y-14494008D02*
X10346253Y-14503531D01*
X10346253Y-14503531D02*
X10355777Y-14522579D01*
X10355777Y-14522579D02*
X10365301Y-14560674D01*
X10365301Y-14560674D02*
X10365301Y-14608293D01*
X10365301Y-14608293D02*
X10355777Y-14646388D01*
X10355777Y-14646388D02*
X10346253Y-14665436D01*
X10346253Y-14665436D02*
X10336729Y-14674960D01*
X10336729Y-14674960D02*
X10317682Y-14684484D01*
X10317682Y-14684484D02*
X10298634Y-14684484D01*
X10298634Y-14684484D02*
X10279587Y-14674960D01*
X10279587Y-14674960D02*
X10270063Y-14665436D01*
X10270063Y-14665436D02*
X10260539Y-14646388D01*
X10260539Y-14646388D02*
X10251015Y-14608293D01*
X10251015Y-14608293D02*
X10251015Y-14560674D01*
X10251015Y-14560674D02*
X10260539Y-14522579D01*
X10260539Y-14522579D02*
X10270063Y-14503531D01*
X10270063Y-14503531D02*
X10279587Y-14494008D01*
X10279587Y-14494008D02*
X10298634Y-14484484D01*
X10451015Y-14665436D02*
X10460539Y-14674960D01*
X10460539Y-14674960D02*
X10451015Y-14684484D01*
X10451015Y-14684484D02*
X10441491Y-14674960D01*
X10441491Y-14674960D02*
X10451015Y-14665436D01*
X10451015Y-14665436D02*
X10451015Y-14684484D01*
X10584348Y-14484484D02*
X10603396Y-14484484D01*
X10603396Y-14484484D02*
X10622444Y-14494008D01*
X10622444Y-14494008D02*
X10631968Y-14503531D01*
X10631968Y-14503531D02*
X10641491Y-14522579D01*
X10641491Y-14522579D02*
X10651015Y-14560674D01*
X10651015Y-14560674D02*
X10651015Y-14608293D01*
X10651015Y-14608293D02*
X10641491Y-14646388D01*
X10641491Y-14646388D02*
X10631968Y-14665436D01*
X10631968Y-14665436D02*
X10622444Y-14674960D01*
X10622444Y-14674960D02*
X10603396Y-14684484D01*
X10603396Y-14684484D02*
X10584348Y-14684484D01*
X10584348Y-14684484D02*
X10565301Y-14674960D01*
X10565301Y-14674960D02*
X10555777Y-14665436D01*
X10555777Y-14665436D02*
X10546253Y-14646388D01*
X10546253Y-14646388D02*
X10536729Y-14608293D01*
X10536729Y-14608293D02*
X10536729Y-14560674D01*
X10536729Y-14560674D02*
X10546253Y-14522579D01*
X10546253Y-14522579D02*
X10555777Y-14503531D01*
X10555777Y-14503531D02*
X10565301Y-14494008D01*
X10565301Y-14494008D02*
X10584348Y-14484484D01*
X10822444Y-14484484D02*
X10784348Y-14484484D01*
X10784348Y-14484484D02*
X10765301Y-14494008D01*
X10765301Y-14494008D02*
X10755777Y-14503531D01*
X10755777Y-14503531D02*
X10736729Y-14532103D01*
X10736729Y-14532103D02*
X10727206Y-14570198D01*
X10727206Y-14570198D02*
X10727206Y-14646388D01*
X10727206Y-14646388D02*
X10736729Y-14665436D01*
X10736729Y-14665436D02*
X10746253Y-14674960D01*
X10746253Y-14674960D02*
X10765301Y-14684484D01*
X10765301Y-14684484D02*
X10803396Y-14684484D01*
X10803396Y-14684484D02*
X10822444Y-14674960D01*
X10822444Y-14674960D02*
X10831968Y-14665436D01*
X10831968Y-14665436D02*
X10841491Y-14646388D01*
X10841491Y-14646388D02*
X10841491Y-14598769D01*
X10841491Y-14598769D02*
X10831968Y-14579722D01*
X10831968Y-14579722D02*
X10822444Y-14570198D01*
X10822444Y-14570198D02*
X10803396Y-14560674D01*
X10803396Y-14560674D02*
X10765301Y-14560674D01*
X10765301Y-14560674D02*
X10746253Y-14570198D01*
X10746253Y-14570198D02*
X10736729Y-14579722D01*
X10736729Y-14579722D02*
X10727206Y-14598769D01*
X10908158Y-14484484D02*
X11031968Y-14484484D01*
X11031968Y-14484484D02*
X10965301Y-14560674D01*
X10965301Y-14560674D02*
X10993872Y-14560674D01*
X10993872Y-14560674D02*
X11012920Y-14570198D01*
X11012920Y-14570198D02*
X11022444Y-14579722D01*
X11022444Y-14579722D02*
X11031968Y-14598769D01*
X11031968Y-14598769D02*
X11031968Y-14646388D01*
X11031968Y-14646388D02*
X11022444Y-14665436D01*
X11022444Y-14665436D02*
X11012920Y-14674960D01*
X11012920Y-14674960D02*
X10993872Y-14684484D01*
X10993872Y-14684484D02*
X10936729Y-14684484D01*
X10936729Y-14684484D02*
X10917682Y-14674960D01*
X10917682Y-14674960D02*
X10908158Y-14665436D01*
X11155777Y-14484484D02*
X11174825Y-14484484D01*
X11174825Y-14484484D02*
X11193872Y-14494008D01*
X11193872Y-14494008D02*
X11203396Y-14503531D01*
X11203396Y-14503531D02*
X11212920Y-14522579D01*
X11212920Y-14522579D02*
X11222444Y-14560674D01*
X11222444Y-14560674D02*
X11222444Y-14608293D01*
X11222444Y-14608293D02*
X11212920Y-14646388D01*
X11212920Y-14646388D02*
X11203396Y-14665436D01*
X11203396Y-14665436D02*
X11193872Y-14674960D01*
X11193872Y-14674960D02*
X11174825Y-14684484D01*
X11174825Y-14684484D02*
X11155777Y-14684484D01*
X11155777Y-14684484D02*
X11136729Y-14674960D01*
X11136729Y-14674960D02*
X11127206Y-14665436D01*
X11127206Y-14665436D02*
X11117682Y-14646388D01*
X11117682Y-14646388D02*
X11108158Y-14608293D01*
X11108158Y-14608293D02*
X11108158Y-14560674D01*
X11108158Y-14560674D02*
X11117682Y-14522579D01*
X11117682Y-14522579D02*
X11127206Y-14503531D01*
X11127206Y-14503531D02*
X11136729Y-14494008D01*
X11136729Y-14494008D02*
X11155777Y-14484484D01*
X11298634Y-14484484D02*
X11298634Y-14522579D01*
X11374825Y-14484484D02*
X11374825Y-14522579D01*
X11670063Y-14760674D02*
X11660539Y-14751150D01*
X11660539Y-14751150D02*
X11641491Y-14722579D01*
X11641491Y-14722579D02*
X11631968Y-14703531D01*
X11631968Y-14703531D02*
X11622444Y-14674960D01*
X11622444Y-14674960D02*
X11612920Y-14627341D01*
X11612920Y-14627341D02*
X11612920Y-14589246D01*
X11612920Y-14589246D02*
X11622444Y-14541627D01*
X11622444Y-14541627D02*
X11631968Y-14513055D01*
X11631968Y-14513055D02*
X11641491Y-14494008D01*
X11641491Y-14494008D02*
X11660539Y-14465436D01*
X11660539Y-14465436D02*
X11670063Y-14455912D01*
X11831968Y-14551150D02*
X11831968Y-14684484D01*
X11784348Y-14474960D02*
X11736729Y-14617817D01*
X11736729Y-14617817D02*
X11860539Y-14617817D01*
X12089110Y-14684484D02*
X12089110Y-14484484D01*
X12174825Y-14684484D02*
X12174825Y-14579722D01*
X12174825Y-14579722D02*
X12165301Y-14560674D01*
X12165301Y-14560674D02*
X12146253Y-14551150D01*
X12146253Y-14551150D02*
X12117682Y-14551150D01*
X12117682Y-14551150D02*
X12098634Y-14560674D01*
X12098634Y-14560674D02*
X12089110Y-14570198D01*
X12298634Y-14684484D02*
X12279587Y-14674960D01*
X12279587Y-14674960D02*
X12270063Y-14665436D01*
X12270063Y-14665436D02*
X12260539Y-14646388D01*
X12260539Y-14646388D02*
X12260539Y-14589246D01*
X12260539Y-14589246D02*
X12270063Y-14570198D01*
X12270063Y-14570198D02*
X12279587Y-14560674D01*
X12279587Y-14560674D02*
X12298634Y-14551150D01*
X12298634Y-14551150D02*
X12327206Y-14551150D01*
X12327206Y-14551150D02*
X12346253Y-14560674D01*
X12346253Y-14560674D02*
X12355777Y-14570198D01*
X12355777Y-14570198D02*
X12365301Y-14589246D01*
X12365301Y-14589246D02*
X12365301Y-14646388D01*
X12365301Y-14646388D02*
X12355777Y-14665436D01*
X12355777Y-14665436D02*
X12346253Y-14674960D01*
X12346253Y-14674960D02*
X12327206Y-14684484D01*
X12327206Y-14684484D02*
X12298634Y-14684484D01*
X12479587Y-14684484D02*
X12460539Y-14674960D01*
X12460539Y-14674960D02*
X12451015Y-14655912D01*
X12451015Y-14655912D02*
X12451015Y-14484484D01*
X12631968Y-14674960D02*
X12612920Y-14684484D01*
X12612920Y-14684484D02*
X12574825Y-14684484D01*
X12574825Y-14684484D02*
X12555777Y-14674960D01*
X12555777Y-14674960D02*
X12546253Y-14655912D01*
X12546253Y-14655912D02*
X12546253Y-14579722D01*
X12546253Y-14579722D02*
X12555777Y-14560674D01*
X12555777Y-14560674D02*
X12574825Y-14551150D01*
X12574825Y-14551150D02*
X12612920Y-14551150D01*
X12612920Y-14551150D02*
X12631968Y-14560674D01*
X12631968Y-14560674D02*
X12641491Y-14579722D01*
X12641491Y-14579722D02*
X12641491Y-14598769D01*
X12641491Y-14598769D02*
X12546253Y-14617817D01*
X12717682Y-14674960D02*
X12736730Y-14684484D01*
X12736730Y-14684484D02*
X12774825Y-14684484D01*
X12774825Y-14684484D02*
X12793872Y-14674960D01*
X12793872Y-14674960D02*
X12803396Y-14655912D01*
X12803396Y-14655912D02*
X12803396Y-14646388D01*
X12803396Y-14646388D02*
X12793872Y-14627341D01*
X12793872Y-14627341D02*
X12774825Y-14617817D01*
X12774825Y-14617817D02*
X12746253Y-14617817D01*
X12746253Y-14617817D02*
X12727206Y-14608293D01*
X12727206Y-14608293D02*
X12717682Y-14589246D01*
X12717682Y-14589246D02*
X12717682Y-14579722D01*
X12717682Y-14579722D02*
X12727206Y-14560674D01*
X12727206Y-14560674D02*
X12746253Y-14551150D01*
X12746253Y-14551150D02*
X12774825Y-14551150D01*
X12774825Y-14551150D02*
X12793872Y-14560674D01*
X12870063Y-14760674D02*
X12879587Y-14751150D01*
X12879587Y-14751150D02*
X12898634Y-14722579D01*
X12898634Y-14722579D02*
X12908158Y-14703531D01*
X12908158Y-14703531D02*
X12917682Y-14674960D01*
X12917682Y-14674960D02*
X12927206Y-14627341D01*
X12927206Y-14627341D02*
X12927206Y-14589246D01*
X12927206Y-14589246D02*
X12917682Y-14541627D01*
X12917682Y-14541627D02*
X12908158Y-14513055D01*
X12908158Y-14513055D02*
X12898634Y-14494008D01*
X12898634Y-14494008D02*
X12879587Y-14465436D01*
X12879587Y-14465436D02*
X12870063Y-14455912D01*
X7895000Y-14773000D02*
X8095000Y-14973000D01*
X8095000Y-14773000D02*
X7895000Y-14973000D01*
X7995000Y-14973000D02*
X8095000Y-14873000D01*
X7995000Y-14773000D01*
X7895000Y-14873000D01*
X7995000Y-14973000D01*
X8346253Y-14783531D02*
X8355777Y-14774008D01*
X8355777Y-14774008D02*
X8374824Y-14764484D01*
X8374824Y-14764484D02*
X8422444Y-14764484D01*
X8422444Y-14764484D02*
X8441491Y-14774008D01*
X8441491Y-14774008D02*
X8451015Y-14783531D01*
X8451015Y-14783531D02*
X8460539Y-14802579D01*
X8460539Y-14802579D02*
X8460539Y-14821627D01*
X8460539Y-14821627D02*
X8451015Y-14850198D01*
X8451015Y-14850198D02*
X8336729Y-14964484D01*
X8336729Y-14964484D02*
X8460539Y-14964484D01*
X8546253Y-14945436D02*
X8555777Y-14954960D01*
X8555777Y-14954960D02*
X8546253Y-14964484D01*
X8546253Y-14964484D02*
X8536729Y-14954960D01*
X8536729Y-14954960D02*
X8546253Y-14945436D01*
X8546253Y-14945436D02*
X8546253Y-14964484D01*
X8622444Y-14764484D02*
X8746253Y-14764484D01*
X8746253Y-14764484D02*
X8679586Y-14840674D01*
X8679586Y-14840674D02*
X8708158Y-14840674D01*
X8708158Y-14840674D02*
X8727205Y-14850198D01*
X8727205Y-14850198D02*
X8736729Y-14859722D01*
X8736729Y-14859722D02*
X8746253Y-14878769D01*
X8746253Y-14878769D02*
X8746253Y-14926388D01*
X8746253Y-14926388D02*
X8736729Y-14945436D01*
X8736729Y-14945436D02*
X8727205Y-14954960D01*
X8727205Y-14954960D02*
X8708158Y-14964484D01*
X8708158Y-14964484D02*
X8651015Y-14964484D01*
X8651015Y-14964484D02*
X8631967Y-14954960D01*
X8631967Y-14954960D02*
X8622444Y-14945436D01*
X8870063Y-14764484D02*
X8889110Y-14764484D01*
X8889110Y-14764484D02*
X8908158Y-14774008D01*
X8908158Y-14774008D02*
X8917682Y-14783531D01*
X8917682Y-14783531D02*
X8927205Y-14802579D01*
X8927205Y-14802579D02*
X8936729Y-14840674D01*
X8936729Y-14840674D02*
X8936729Y-14888293D01*
X8936729Y-14888293D02*
X8927205Y-14926388D01*
X8927205Y-14926388D02*
X8917682Y-14945436D01*
X8917682Y-14945436D02*
X8908158Y-14954960D01*
X8908158Y-14954960D02*
X8889110Y-14964484D01*
X8889110Y-14964484D02*
X8870063Y-14964484D01*
X8870063Y-14964484D02*
X8851015Y-14954960D01*
X8851015Y-14954960D02*
X8841491Y-14945436D01*
X8841491Y-14945436D02*
X8831967Y-14926388D01*
X8831967Y-14926388D02*
X8822444Y-14888293D01*
X8822444Y-14888293D02*
X8822444Y-14840674D01*
X8822444Y-14840674D02*
X8831967Y-14802579D01*
X8831967Y-14802579D02*
X8841491Y-14783531D01*
X8841491Y-14783531D02*
X8851015Y-14774008D01*
X8851015Y-14774008D02*
X8870063Y-14764484D01*
X9060539Y-14764484D02*
X9079586Y-14764484D01*
X9079586Y-14764484D02*
X9098634Y-14774008D01*
X9098634Y-14774008D02*
X9108158Y-14783531D01*
X9108158Y-14783531D02*
X9117682Y-14802579D01*
X9117682Y-14802579D02*
X9127205Y-14840674D01*
X9127205Y-14840674D02*
X9127205Y-14888293D01*
X9127205Y-14888293D02*
X9117682Y-14926388D01*
X9117682Y-14926388D02*
X9108158Y-14945436D01*
X9108158Y-14945436D02*
X9098634Y-14954960D01*
X9098634Y-14954960D02*
X9079586Y-14964484D01*
X9079586Y-14964484D02*
X9060539Y-14964484D01*
X9060539Y-14964484D02*
X9041491Y-14954960D01*
X9041491Y-14954960D02*
X9031967Y-14945436D01*
X9031967Y-14945436D02*
X9022444Y-14926388D01*
X9022444Y-14926388D02*
X9012920Y-14888293D01*
X9012920Y-14888293D02*
X9012920Y-14840674D01*
X9012920Y-14840674D02*
X9022444Y-14802579D01*
X9022444Y-14802579D02*
X9031967Y-14783531D01*
X9031967Y-14783531D02*
X9041491Y-14774008D01*
X9041491Y-14774008D02*
X9060539Y-14764484D01*
X9212920Y-14964484D02*
X9212920Y-14831150D01*
X9212920Y-14850198D02*
X9222444Y-14840674D01*
X9222444Y-14840674D02*
X9241491Y-14831150D01*
X9241491Y-14831150D02*
X9270063Y-14831150D01*
X9270063Y-14831150D02*
X9289110Y-14840674D01*
X9289110Y-14840674D02*
X9298634Y-14859722D01*
X9298634Y-14859722D02*
X9298634Y-14964484D01*
X9298634Y-14859722D02*
X9308158Y-14840674D01*
X9308158Y-14840674D02*
X9327205Y-14831150D01*
X9327205Y-14831150D02*
X9355777Y-14831150D01*
X9355777Y-14831150D02*
X9374825Y-14840674D01*
X9374825Y-14840674D02*
X9384348Y-14859722D01*
X9384348Y-14859722D02*
X9384348Y-14964484D01*
X9479586Y-14964484D02*
X9479586Y-14831150D01*
X9479586Y-14850198D02*
X9489110Y-14840674D01*
X9489110Y-14840674D02*
X9508158Y-14831150D01*
X9508158Y-14831150D02*
X9536729Y-14831150D01*
X9536729Y-14831150D02*
X9555777Y-14840674D01*
X9555777Y-14840674D02*
X9565301Y-14859722D01*
X9565301Y-14859722D02*
X9565301Y-14964484D01*
X9565301Y-14859722D02*
X9574825Y-14840674D01*
X9574825Y-14840674D02*
X9593872Y-14831150D01*
X9593872Y-14831150D02*
X9622444Y-14831150D01*
X9622444Y-14831150D02*
X9641491Y-14840674D01*
X9641491Y-14840674D02*
X9651015Y-14859722D01*
X9651015Y-14859722D02*
X9651015Y-14964484D01*
X10041491Y-14754960D02*
X9870063Y-15012103D01*
X10298634Y-14764484D02*
X10317682Y-14764484D01*
X10317682Y-14764484D02*
X10336729Y-14774008D01*
X10336729Y-14774008D02*
X10346253Y-14783531D01*
X10346253Y-14783531D02*
X10355777Y-14802579D01*
X10355777Y-14802579D02*
X10365301Y-14840674D01*
X10365301Y-14840674D02*
X10365301Y-14888293D01*
X10365301Y-14888293D02*
X10355777Y-14926388D01*
X10355777Y-14926388D02*
X10346253Y-14945436D01*
X10346253Y-14945436D02*
X10336729Y-14954960D01*
X10336729Y-14954960D02*
X10317682Y-14964484D01*
X10317682Y-14964484D02*
X10298634Y-14964484D01*
X10298634Y-14964484D02*
X10279587Y-14954960D01*
X10279587Y-14954960D02*
X10270063Y-14945436D01*
X10270063Y-14945436D02*
X10260539Y-14926388D01*
X10260539Y-14926388D02*
X10251015Y-14888293D01*
X10251015Y-14888293D02*
X10251015Y-14840674D01*
X10251015Y-14840674D02*
X10260539Y-14802579D01*
X10260539Y-14802579D02*
X10270063Y-14783531D01*
X10270063Y-14783531D02*
X10279587Y-14774008D01*
X10279587Y-14774008D02*
X10298634Y-14764484D01*
X10451015Y-14945436D02*
X10460539Y-14954960D01*
X10460539Y-14954960D02*
X10451015Y-14964484D01*
X10451015Y-14964484D02*
X10441491Y-14954960D01*
X10441491Y-14954960D02*
X10451015Y-14945436D01*
X10451015Y-14945436D02*
X10451015Y-14964484D01*
X10584348Y-14764484D02*
X10603396Y-14764484D01*
X10603396Y-14764484D02*
X10622444Y-14774008D01*
X10622444Y-14774008D02*
X10631968Y-14783531D01*
X10631968Y-14783531D02*
X10641491Y-14802579D01*
X10641491Y-14802579D02*
X10651015Y-14840674D01*
X10651015Y-14840674D02*
X10651015Y-14888293D01*
X10651015Y-14888293D02*
X10641491Y-14926388D01*
X10641491Y-14926388D02*
X10631968Y-14945436D01*
X10631968Y-14945436D02*
X10622444Y-14954960D01*
X10622444Y-14954960D02*
X10603396Y-14964484D01*
X10603396Y-14964484D02*
X10584348Y-14964484D01*
X10584348Y-14964484D02*
X10565301Y-14954960D01*
X10565301Y-14954960D02*
X10555777Y-14945436D01*
X10555777Y-14945436D02*
X10546253Y-14926388D01*
X10546253Y-14926388D02*
X10536729Y-14888293D01*
X10536729Y-14888293D02*
X10536729Y-14840674D01*
X10536729Y-14840674D02*
X10546253Y-14802579D01*
X10546253Y-14802579D02*
X10555777Y-14783531D01*
X10555777Y-14783531D02*
X10565301Y-14774008D01*
X10565301Y-14774008D02*
X10584348Y-14764484D01*
X10746253Y-14964484D02*
X10784348Y-14964484D01*
X10784348Y-14964484D02*
X10803396Y-14954960D01*
X10803396Y-14954960D02*
X10812920Y-14945436D01*
X10812920Y-14945436D02*
X10831968Y-14916865D01*
X10831968Y-14916865D02*
X10841491Y-14878769D01*
X10841491Y-14878769D02*
X10841491Y-14802579D01*
X10841491Y-14802579D02*
X10831968Y-14783531D01*
X10831968Y-14783531D02*
X10822444Y-14774008D01*
X10822444Y-14774008D02*
X10803396Y-14764484D01*
X10803396Y-14764484D02*
X10765301Y-14764484D01*
X10765301Y-14764484D02*
X10746253Y-14774008D01*
X10746253Y-14774008D02*
X10736729Y-14783531D01*
X10736729Y-14783531D02*
X10727206Y-14802579D01*
X10727206Y-14802579D02*
X10727206Y-14850198D01*
X10727206Y-14850198D02*
X10736729Y-14869246D01*
X10736729Y-14869246D02*
X10746253Y-14878769D01*
X10746253Y-14878769D02*
X10765301Y-14888293D01*
X10765301Y-14888293D02*
X10803396Y-14888293D01*
X10803396Y-14888293D02*
X10822444Y-14878769D01*
X10822444Y-14878769D02*
X10831968Y-14869246D01*
X10831968Y-14869246D02*
X10841491Y-14850198D01*
X10965301Y-14764484D02*
X10984349Y-14764484D01*
X10984349Y-14764484D02*
X11003396Y-14774008D01*
X11003396Y-14774008D02*
X11012920Y-14783531D01*
X11012920Y-14783531D02*
X11022444Y-14802579D01*
X11022444Y-14802579D02*
X11031968Y-14840674D01*
X11031968Y-14840674D02*
X11031968Y-14888293D01*
X11031968Y-14888293D02*
X11022444Y-14926388D01*
X11022444Y-14926388D02*
X11012920Y-14945436D01*
X11012920Y-14945436D02*
X11003396Y-14954960D01*
X11003396Y-14954960D02*
X10984349Y-14964484D01*
X10984349Y-14964484D02*
X10965301Y-14964484D01*
X10965301Y-14964484D02*
X10946253Y-14954960D01*
X10946253Y-14954960D02*
X10936729Y-14945436D01*
X10936729Y-14945436D02*
X10927206Y-14926388D01*
X10927206Y-14926388D02*
X10917682Y-14888293D01*
X10917682Y-14888293D02*
X10917682Y-14840674D01*
X10917682Y-14840674D02*
X10927206Y-14802579D01*
X10927206Y-14802579D02*
X10936729Y-14783531D01*
X10936729Y-14783531D02*
X10946253Y-14774008D01*
X10946253Y-14774008D02*
X10965301Y-14764484D01*
X11203396Y-14764484D02*
X11165301Y-14764484D01*
X11165301Y-14764484D02*
X11146253Y-14774008D01*
X11146253Y-14774008D02*
X11136729Y-14783531D01*
X11136729Y-14783531D02*
X11117682Y-14812103D01*
X11117682Y-14812103D02*
X11108158Y-14850198D01*
X11108158Y-14850198D02*
X11108158Y-14926388D01*
X11108158Y-14926388D02*
X11117682Y-14945436D01*
X11117682Y-14945436D02*
X11127206Y-14954960D01*
X11127206Y-14954960D02*
X11146253Y-14964484D01*
X11146253Y-14964484D02*
X11184349Y-14964484D01*
X11184349Y-14964484D02*
X11203396Y-14954960D01*
X11203396Y-14954960D02*
X11212920Y-14945436D01*
X11212920Y-14945436D02*
X11222444Y-14926388D01*
X11222444Y-14926388D02*
X11222444Y-14878769D01*
X11222444Y-14878769D02*
X11212920Y-14859722D01*
X11212920Y-14859722D02*
X11203396Y-14850198D01*
X11203396Y-14850198D02*
X11184349Y-14840674D01*
X11184349Y-14840674D02*
X11146253Y-14840674D01*
X11146253Y-14840674D02*
X11127206Y-14850198D01*
X11127206Y-14850198D02*
X11117682Y-14859722D01*
X11117682Y-14859722D02*
X11108158Y-14878769D01*
X11298634Y-14764484D02*
X11298634Y-14802579D01*
X11374825Y-14764484D02*
X11374825Y-14802579D01*
X11670063Y-15040674D02*
X11660539Y-15031150D01*
X11660539Y-15031150D02*
X11641491Y-15002579D01*
X11641491Y-15002579D02*
X11631968Y-14983531D01*
X11631968Y-14983531D02*
X11622444Y-14954960D01*
X11622444Y-14954960D02*
X11612920Y-14907341D01*
X11612920Y-14907341D02*
X11612920Y-14869246D01*
X11612920Y-14869246D02*
X11622444Y-14821627D01*
X11622444Y-14821627D02*
X11631968Y-14793055D01*
X11631968Y-14793055D02*
X11641491Y-14774008D01*
X11641491Y-14774008D02*
X11660539Y-14745436D01*
X11660539Y-14745436D02*
X11670063Y-14735912D01*
X11831968Y-14831150D02*
X11831968Y-14964484D01*
X11784348Y-14754960D02*
X11736729Y-14897817D01*
X11736729Y-14897817D02*
X11860539Y-14897817D01*
X12089110Y-14964484D02*
X12089110Y-14764484D01*
X12174825Y-14964484D02*
X12174825Y-14859722D01*
X12174825Y-14859722D02*
X12165301Y-14840674D01*
X12165301Y-14840674D02*
X12146253Y-14831150D01*
X12146253Y-14831150D02*
X12117682Y-14831150D01*
X12117682Y-14831150D02*
X12098634Y-14840674D01*
X12098634Y-14840674D02*
X12089110Y-14850198D01*
X12298634Y-14964484D02*
X12279587Y-14954960D01*
X12279587Y-14954960D02*
X12270063Y-14945436D01*
X12270063Y-14945436D02*
X12260539Y-14926388D01*
X12260539Y-14926388D02*
X12260539Y-14869246D01*
X12260539Y-14869246D02*
X12270063Y-14850198D01*
X12270063Y-14850198D02*
X12279587Y-14840674D01*
X12279587Y-14840674D02*
X12298634Y-14831150D01*
X12298634Y-14831150D02*
X12327206Y-14831150D01*
X12327206Y-14831150D02*
X12346253Y-14840674D01*
X12346253Y-14840674D02*
X12355777Y-14850198D01*
X12355777Y-14850198D02*
X12365301Y-14869246D01*
X12365301Y-14869246D02*
X12365301Y-14926388D01*
X12365301Y-14926388D02*
X12355777Y-14945436D01*
X12355777Y-14945436D02*
X12346253Y-14954960D01*
X12346253Y-14954960D02*
X12327206Y-14964484D01*
X12327206Y-14964484D02*
X12298634Y-14964484D01*
X12479587Y-14964484D02*
X12460539Y-14954960D01*
X12460539Y-14954960D02*
X12451015Y-14935912D01*
X12451015Y-14935912D02*
X12451015Y-14764484D01*
X12631968Y-14954960D02*
X12612920Y-14964484D01*
X12612920Y-14964484D02*
X12574825Y-14964484D01*
X12574825Y-14964484D02*
X12555777Y-14954960D01*
X12555777Y-14954960D02*
X12546253Y-14935912D01*
X12546253Y-14935912D02*
X12546253Y-14859722D01*
X12546253Y-14859722D02*
X12555777Y-14840674D01*
X12555777Y-14840674D02*
X12574825Y-14831150D01*
X12574825Y-14831150D02*
X12612920Y-14831150D01*
X12612920Y-14831150D02*
X12631968Y-14840674D01*
X12631968Y-14840674D02*
X12641491Y-14859722D01*
X12641491Y-14859722D02*
X12641491Y-14878769D01*
X12641491Y-14878769D02*
X12546253Y-14897817D01*
X12717682Y-14954960D02*
X12736730Y-14964484D01*
X12736730Y-14964484D02*
X12774825Y-14964484D01*
X12774825Y-14964484D02*
X12793872Y-14954960D01*
X12793872Y-14954960D02*
X12803396Y-14935912D01*
X12803396Y-14935912D02*
X12803396Y-14926388D01*
X12803396Y-14926388D02*
X12793872Y-14907341D01*
X12793872Y-14907341D02*
X12774825Y-14897817D01*
X12774825Y-14897817D02*
X12746253Y-14897817D01*
X12746253Y-14897817D02*
X12727206Y-14888293D01*
X12727206Y-14888293D02*
X12717682Y-14869246D01*
X12717682Y-14869246D02*
X12717682Y-14859722D01*
X12717682Y-14859722D02*
X12727206Y-14840674D01*
X12727206Y-14840674D02*
X12746253Y-14831150D01*
X12746253Y-14831150D02*
X12774825Y-14831150D01*
X12774825Y-14831150D02*
X12793872Y-14840674D01*
X12870063Y-15040674D02*
X12879587Y-15031150D01*
X12879587Y-15031150D02*
X12898634Y-15002579D01*
X12898634Y-15002579D02*
X12908158Y-14983531D01*
X12908158Y-14983531D02*
X12917682Y-14954960D01*
X12917682Y-14954960D02*
X12927206Y-14907341D01*
X12927206Y-14907341D02*
X12927206Y-14869246D01*
X12927206Y-14869246D02*
X12917682Y-14821627D01*
X12917682Y-14821627D02*
X12908158Y-14793055D01*
X12908158Y-14793055D02*
X12898634Y-14774008D01*
X12898634Y-14774008D02*
X12879587Y-14745436D01*
X12879587Y-14745436D02*
X12870063Y-14735912D01*
M02*
