M48
; DRILL file {KiCad 8.0.5} date 2024-10-13T23:26:11-0400
; FORMAT={-:-/ absolute / metric / decimal}
; #@! TF.CreationDate,2024-10-13T23:26:11-04:00
; #@! TF.GenerationSoftware,Kicad,Pcbnew,8.0.5
; #@! TF.FileFunction,Plated,1,4,PTH
FMAT,2
METRIC
; #@! TA.AperFunction,Plated,PTH,ViaDrill
T1C0.400
; #@! TA.AperFunction,Plated,PTH,ComponentDrill
T2C0.600
; #@! TA.AperFunction,Plated,PTH,ComponentDrill
T3C0.920
; #@! TA.AperFunction,Plated,PTH,ComponentDrill
T4C0.991
; #@! TA.AperFunction,Plated,PTH,ComponentDrill
T5C1.000
; #@! TA.AperFunction,Plated,PTH,ComponentDrill
T6C1.100
; #@! TA.AperFunction,Plated,PTH,ComponentDrill
T7C1.300
; #@! TA.AperFunction,Plated,PTH,ComponentDrill
T8C1.600
; #@! TA.AperFunction,Plated,PTH,ComponentDrill
T9C2.300
%
G90
G05
T1
X84.5Y-106.5
X84.5Y-114.0
X101.5Y-106.5
X101.5Y-114.0
X107.0Y-106.5
X114.0Y-106.5
X118.0Y-106.5
X125.0Y-106.5
X129.0Y-106.5
X136.0Y-106.5
X139.5Y-106.5
X146.5Y-106.5
X163.5Y-101.5
X165.5Y-81.5
X166.0Y-69.5
X166.0Y-75.0
X166.0Y-76.0
X166.0Y-77.0
X166.0Y-78.0
X167.0Y-76.0
X167.0Y-77.0
X168.0Y-76.0
X168.0Y-77.0
X169.0Y-76.0
X169.0Y-77.0
X169.5Y-64.5
X169.5Y-65.5
X169.5Y-66.5
X169.5Y-67.5
X169.5Y-68.5
X169.5Y-85.5
X169.5Y-86.5
X169.5Y-87.5
X170.5Y-64.5
X170.5Y-65.5
X170.5Y-66.5
X170.5Y-67.5
X170.5Y-85.5
X170.5Y-86.5
X170.5Y-87.5
X171.5Y-64.5
X171.5Y-65.5
X171.5Y-66.5
X171.5Y-67.5
X171.5Y-85.5
X171.5Y-86.5
X171.5Y-87.5
X172.0Y-106.0
X172.5Y-64.5
X172.5Y-65.5
X172.5Y-66.5
X172.5Y-67.5
X172.5Y-85.5
X172.5Y-86.5
X172.5Y-87.5
X173.5Y-64.5
X173.5Y-65.5
X173.5Y-66.5
X173.5Y-67.5
X173.5Y-85.5
X173.5Y-86.5
X173.5Y-87.5
X174.5Y-64.5
X174.5Y-65.5
X174.5Y-66.5
X174.5Y-67.5
X174.5Y-84.5
X174.5Y-85.5
X174.5Y-86.5
X174.5Y-87.5
X175.5Y-64.5
X175.5Y-65.5
X175.5Y-66.5
X175.5Y-67.5
X175.5Y-84.5
X175.5Y-85.5
X175.5Y-86.5
X175.5Y-87.5
X176.0Y-106.0
X176.5Y-64.5
X176.5Y-65.5
X176.5Y-66.5
X176.5Y-67.5
X176.5Y-84.5
X176.5Y-85.5
X176.5Y-86.5
X176.5Y-87.5
X177.5Y-64.5
X177.5Y-65.5
X177.5Y-66.5
X177.5Y-67.5
X177.5Y-84.5
X177.5Y-85.5
X177.5Y-86.5
X177.5Y-87.5
X178.5Y-64.5
X178.5Y-65.5
X178.5Y-66.5
X178.5Y-67.5
X178.5Y-84.5
X178.5Y-85.5
X178.5Y-86.5
X178.5Y-87.5
X179.5Y-64.5
X179.5Y-65.5
X179.5Y-66.5
X179.5Y-67.5
X179.5Y-84.5
X179.5Y-85.5
X179.5Y-86.5
X179.5Y-87.5
X180.5Y-64.5
X180.5Y-65.5
X180.5Y-66.5
X180.5Y-67.5
X180.5Y-68.5
X180.5Y-69.5
X180.5Y-70.5
X180.5Y-71.5
X180.5Y-72.5
X180.5Y-73.5
X180.5Y-74.5
X180.5Y-75.5
X180.5Y-76.5
X180.5Y-77.5
X180.5Y-78.5
X180.5Y-79.5
X180.5Y-80.5
X180.5Y-81.5
X180.5Y-82.5
X180.5Y-83.5
X180.5Y-84.5
X180.5Y-85.5
X180.5Y-86.5
X180.5Y-87.5
X181.5Y-65.0
X181.5Y-66.0
X181.5Y-67.0
X181.5Y-68.0
X181.5Y-69.0
X181.5Y-70.0
X181.5Y-71.0
X181.5Y-72.0
X181.5Y-73.0
X181.5Y-74.0
X181.5Y-75.0
X181.5Y-76.0
X181.5Y-77.0
X181.5Y-78.0
X181.5Y-79.0
X181.5Y-80.0
X181.5Y-81.0
X181.5Y-82.0
X181.5Y-83.0
X181.5Y-84.0
X181.5Y-85.0
X181.5Y-86.0
X181.5Y-87.0
X182.5Y-65.5
X182.5Y-66.5
X182.5Y-67.5
X182.5Y-68.5
X182.5Y-69.5
X182.5Y-70.5
X182.5Y-71.5
X182.5Y-72.5
X182.5Y-73.5
X182.5Y-74.5
X182.5Y-75.5
X182.5Y-76.5
X182.5Y-77.5
X182.5Y-78.5
X182.5Y-79.5
X182.5Y-80.5
X182.5Y-81.5
X182.5Y-82.5
X182.5Y-83.5
X182.5Y-84.5
X182.5Y-85.5
X182.5Y-86.5
X184.5Y-66.5
X184.5Y-67.5
X184.5Y-68.5
X184.5Y-69.5
X184.5Y-70.5
X184.5Y-71.5
X184.5Y-72.5
X184.5Y-73.5
X184.5Y-74.5
X184.5Y-75.5
X184.5Y-76.5
X184.5Y-77.5
X184.5Y-78.5
X184.5Y-79.5
X184.5Y-80.5
X184.5Y-81.5
X184.5Y-82.5
X184.5Y-83.5
X184.5Y-84.5
X184.5Y-85.5
T3
X154.71Y-104.81
X154.71Y-107.43
X157.21Y-104.81
X157.21Y-107.43
X159.21Y-104.81
X159.21Y-107.43
X161.71Y-104.81
X161.71Y-107.43
T4
X89.162Y-58.259
X89.162Y-60.799
X89.162Y-63.339
X89.162Y-65.879
X89.162Y-68.419
X89.162Y-70.959
X89.162Y-73.499
X89.162Y-76.039
X89.162Y-78.579
X89.162Y-81.119
X89.162Y-83.659
X89.162Y-86.199
X89.162Y-88.739
X89.162Y-91.279
X89.162Y-93.819
X114.562Y-58.259
X114.562Y-60.799
X114.562Y-63.339
X114.562Y-65.879
X114.562Y-68.419
X114.562Y-70.959
X114.562Y-73.499
X114.562Y-76.039
X114.562Y-78.579
X114.562Y-81.119
X114.562Y-83.659
X114.562Y-86.199
X114.562Y-88.739
X114.562Y-91.279
X114.562Y-93.819
T5
X108.43Y-117.845
X112.93Y-117.845
X119.43Y-117.845
X123.93Y-117.845
X124.425Y-47.5
X124.5Y-63.0
X124.5Y-69.26
X124.5Y-71.8
X124.5Y-74.34
X124.5Y-76.88
X124.5Y-79.42
X124.5Y-81.96
X124.5Y-84.5
X124.5Y-87.04
X124.5Y-89.58
X124.5Y-92.12
X126.965Y-47.5
X127.04Y-63.0
X129.505Y-47.5
X129.58Y-63.0
X130.18Y-117.845
X132.045Y-47.5
X132.12Y-63.0
X134.585Y-47.5
X134.66Y-63.0
X134.68Y-117.845
X137.2Y-63.0
X139.74Y-63.0
X140.93Y-117.845
X142.28Y-63.0
X145.43Y-117.845
X148.88Y-77.5
X151.42Y-63.0
X151.42Y-77.5
X153.96Y-63.0
X153.96Y-77.5
X156.5Y-63.0
X159.04Y-63.0
T6
X93.5Y-107.495
X93.5Y-110.035
X93.5Y-112.575
T7
X107.18Y-115.345
X114.18Y-115.345
X118.18Y-115.345
X125.18Y-115.345
X128.93Y-115.345
X135.93Y-115.345
X139.68Y-115.345
X146.68Y-115.345
T8
X150.19Y-50.05
X157.81Y-50.05
X169.5Y-50.0
X177.12Y-50.0
T9
X151.64Y-104.46
X151.64Y-110.14
X164.78Y-104.46
X164.78Y-110.14
T2
X169.36Y-113.7G85X169.36Y-114.3
G05
X169.36Y-117.5G85X169.36Y-118.1
G05
X178.0Y-113.7G85X178.0Y-114.3
G05
X178.0Y-117.5G85X178.0Y-118.1
G05
M30
