G04 #@! TF.GenerationSoftware,KiCad,Pcbnew,8.0.5*
G04 #@! TF.CreationDate,2024-10-13T23:25:24-04:00*
G04 #@! TF.ProjectId,table-2,7461626c-652d-4322-9e6b-696361645f70,1.2*
G04 #@! TF.SameCoordinates,Original*
G04 #@! TF.FileFunction,Profile,NP*
%FSLAX46Y46*%
G04 Gerber Fmt 4.6, Leading zero omitted, Abs format (unit mm)*
G04 Created by KiCad (PCBNEW 8.0.5) date 2024-10-13 23:25:24*
%MOMM*%
%LPD*%
G01*
G04 APERTURE LIST*
G04 #@! TA.AperFunction,Profile*
%ADD10C,0.100000*%
G04 #@! TD*
G04 APERTURE END LIST*
D10*
X84000000Y-41000000D02*
X82693256Y-41000000D01*
X81000000Y-42500000D02*
G75*
G02*
X82693256Y-41000000I1511028J0D01*
G01*
X186831954Y-121000000D02*
X82000000Y-121000000D01*
X189000000Y-41000000D02*
G75*
G02*
X190000000Y-42000000I0J-1000000D01*
G01*
X86742640Y-117500000D02*
G75*
G02*
X82500000Y-117500000I-2121320J0D01*
G01*
X82500000Y-117500000D02*
G75*
G02*
X86742640Y-117500000I2121320J0D01*
G01*
X86621320Y-44621320D02*
G75*
G02*
X82378680Y-44621320I-2121320J0D01*
G01*
X82378680Y-44621320D02*
G75*
G02*
X86621320Y-44621320I2121320J0D01*
G01*
X81000000Y-120000000D02*
X81000000Y-42500000D01*
X82000000Y-121000000D02*
G75*
G02*
X81000000Y-120000000I0J1000000D01*
G01*
X190000000Y-119500000D02*
G75*
G02*
X188500000Y-121000000I-1500000J0D01*
G01*
X188621320Y-117378680D02*
G75*
G02*
X184378680Y-117378680I-2121320J0D01*
G01*
X184378680Y-117378680D02*
G75*
G02*
X188621320Y-117378680I2121320J0D01*
G01*
X183500000Y-41000000D02*
X84000000Y-41000000D01*
X190000000Y-42000000D02*
X190000000Y-119500000D01*
X186831954Y-41000000D02*
X189000000Y-41000000D01*
X188621320Y-44500000D02*
G75*
G02*
X184378680Y-44500000I-2121320J0D01*
G01*
X184378680Y-44500000D02*
G75*
G02*
X188621320Y-44500000I2121320J0D01*
G01*
X183500000Y-41000000D02*
X186831954Y-41000000D01*
X188500000Y-121000000D02*
X186831954Y-121000000D01*
M02*
