G04 #@! TF.GenerationSoftware,KiCad,Pcbnew,8.0.5*
G04 #@! TF.CreationDate,2024-10-13T23:25:24-04:00*
G04 #@! TF.ProjectId,table-2,7461626c-652d-4322-9e6b-696361645f70,1.2*
G04 #@! TF.SameCoordinates,Original*
G04 #@! TF.FileFunction,Legend,Bot*
G04 #@! TF.FilePolarity,Positive*
%FSLAX46Y46*%
G04 Gerber Fmt 4.6, Leading zero omitted, Abs format (unit mm)*
G04 Created by KiCad (PCBNEW 8.0.5) date 2024-10-13 23:25:24*
%MOMM*%
%LPD*%
G01*
G04 APERTURE LIST*
G04 Aperture macros list*
%AMRoundRect*
0 Rectangle with rounded corners*
0 $1 Rounding radius*
0 $2 $3 $4 $5 $6 $7 $8 $9 X,Y pos of 4 corners*
0 Add a 4 corners polygon primitive as box body*
4,1,4,$2,$3,$4,$5,$6,$7,$8,$9,$2,$3,0*
0 Add four circle primitives for the rounded corners*
1,1,$1+$1,$2,$3*
1,1,$1+$1,$4,$5*
1,1,$1+$1,$6,$7*
1,1,$1+$1,$8,$9*
0 Add four rect primitives between the rounded corners*
20,1,$1+$1,$2,$3,$4,$5,0*
20,1,$1+$1,$4,$5,$6,$7,0*
20,1,$1+$1,$6,$7,$8,$9,0*
20,1,$1+$1,$8,$9,$2,$3,0*%
%AMOutline4P*
0 Free polygon, 4 corners , with rotation*
0 The origin of the aperture is its center*
0 number of corners: always 4*
0 $1 to $8 corner X, Y*
0 $9 Rotation angle, in degrees counterclockwise*
0 create outline with 4 corners*
4,1,4,$1,$2,$3,$4,$5,$6,$7,$8,$1,$2,$9*%
G04 Aperture macros list end*
%ADD10C,0.150000*%
%ADD11C,0.250000*%
%ADD12C,0.060000*%
%ADD13C,0.100000*%
%ADD14C,0.120000*%
%ADD15C,0.130000*%
%ADD16C,0.140000*%
%ADD17C,0.127000*%
%ADD18C,0.010000*%
%ADD19C,1.800000*%
%ADD20R,1.500000X1.500000*%
%ADD21C,1.500000*%
%ADD22C,3.500000*%
%ADD23C,2.200000*%
%ADD24C,1.700000*%
%ADD25O,1.100000X1.700000*%
%ADD26C,1.676400*%
%ADD27Outline4P,-0.838200X-0.838200X0.838200X-0.838200X0.838200X0.838200X-0.838200X0.838200X0.000000*%
%ADD28R,1.676400X1.676400*%
%ADD29R,1.700000X1.700000*%
%ADD30O,1.700000X1.700000*%
%ADD31RoundRect,0.250000X0.475000X-0.337500X0.475000X0.337500X-0.475000X0.337500X-0.475000X-0.337500X0*%
%ADD32R,2.540000X2.540000*%
%ADD33C,2.540000*%
%ADD34R,2.500000X1.500000*%
%ADD35R,7.000000X7.000000*%
G04 APERTURE END LIST*
D10*
X154730180Y-80187030D02*
X154730180Y-80663220D01*
X154730180Y-80663220D02*
X154253990Y-80710839D01*
X154253990Y-80710839D02*
X154301609Y-80663220D01*
X154301609Y-80663220D02*
X154349228Y-80567982D01*
X154349228Y-80567982D02*
X154349228Y-80329887D01*
X154349228Y-80329887D02*
X154301609Y-80234649D01*
X154301609Y-80234649D02*
X154253990Y-80187030D01*
X154253990Y-80187030D02*
X154158752Y-80139411D01*
X154158752Y-80139411D02*
X153920657Y-80139411D01*
X153920657Y-80139411D02*
X153825419Y-80187030D01*
X153825419Y-80187030D02*
X153777800Y-80234649D01*
X153777800Y-80234649D02*
X153730180Y-80329887D01*
X153730180Y-80329887D02*
X153730180Y-80567982D01*
X153730180Y-80567982D02*
X153777800Y-80663220D01*
X153777800Y-80663220D02*
X153825419Y-80710839D01*
X154730180Y-79853696D02*
X153730180Y-79520363D01*
X153730180Y-79520363D02*
X154730180Y-79187030D01*
X150930180Y-82263220D02*
X151930180Y-82263220D01*
X151930180Y-82263220D02*
X151930180Y-82025125D01*
X151930180Y-82025125D02*
X151882561Y-81882268D01*
X151882561Y-81882268D02*
X151787323Y-81787030D01*
X151787323Y-81787030D02*
X151692085Y-81739411D01*
X151692085Y-81739411D02*
X151501609Y-81691792D01*
X151501609Y-81691792D02*
X151358752Y-81691792D01*
X151358752Y-81691792D02*
X151168276Y-81739411D01*
X151168276Y-81739411D02*
X151073038Y-81787030D01*
X151073038Y-81787030D02*
X150977800Y-81882268D01*
X150977800Y-81882268D02*
X150930180Y-82025125D01*
X150930180Y-82025125D02*
X150930180Y-82263220D01*
X151215895Y-81310839D02*
X151215895Y-80834649D01*
X150930180Y-81406077D02*
X151930180Y-81072744D01*
X151930180Y-81072744D02*
X150930180Y-80739411D01*
X151930180Y-80548934D02*
X151930180Y-79977506D01*
X150930180Y-80263220D02*
X151930180Y-80263220D01*
X151215895Y-79691791D02*
X151215895Y-79215601D01*
X150930180Y-79787029D02*
X151930180Y-79453696D01*
X151930180Y-79453696D02*
X150930180Y-79120363D01*
X149082561Y-81339411D02*
X149130180Y-81434649D01*
X149130180Y-81434649D02*
X149130180Y-81577506D01*
X149130180Y-81577506D02*
X149082561Y-81720363D01*
X149082561Y-81720363D02*
X148987323Y-81815601D01*
X148987323Y-81815601D02*
X148892085Y-81863220D01*
X148892085Y-81863220D02*
X148701609Y-81910839D01*
X148701609Y-81910839D02*
X148558752Y-81910839D01*
X148558752Y-81910839D02*
X148368276Y-81863220D01*
X148368276Y-81863220D02*
X148273038Y-81815601D01*
X148273038Y-81815601D02*
X148177800Y-81720363D01*
X148177800Y-81720363D02*
X148130180Y-81577506D01*
X148130180Y-81577506D02*
X148130180Y-81482268D01*
X148130180Y-81482268D02*
X148177800Y-81339411D01*
X148177800Y-81339411D02*
X148225419Y-81291792D01*
X148225419Y-81291792D02*
X148558752Y-81291792D01*
X148558752Y-81291792D02*
X148558752Y-81482268D01*
X148130180Y-80863220D02*
X149130180Y-80863220D01*
X149130180Y-80863220D02*
X148130180Y-80291792D01*
X148130180Y-80291792D02*
X149130180Y-80291792D01*
X148130180Y-79815601D02*
X149130180Y-79815601D01*
X149130180Y-79815601D02*
X149130180Y-79577506D01*
X149130180Y-79577506D02*
X149082561Y-79434649D01*
X149082561Y-79434649D02*
X148987323Y-79339411D01*
X148987323Y-79339411D02*
X148892085Y-79291792D01*
X148892085Y-79291792D02*
X148701609Y-79244173D01*
X148701609Y-79244173D02*
X148558752Y-79244173D01*
X148558752Y-79244173D02*
X148368276Y-79291792D01*
X148368276Y-79291792D02*
X148273038Y-79339411D01*
X148273038Y-79339411D02*
X148177800Y-79434649D01*
X148177800Y-79434649D02*
X148130180Y-79577506D01*
X148130180Y-79577506D02*
X148130180Y-79815601D01*
X156653990Y-68463220D02*
X156653990Y-68129887D01*
X156130180Y-67987030D02*
X156130180Y-68463220D01*
X156130180Y-68463220D02*
X157130180Y-68463220D01*
X157130180Y-68463220D02*
X157130180Y-67987030D01*
X156225419Y-66987030D02*
X156177800Y-67034649D01*
X156177800Y-67034649D02*
X156130180Y-67177506D01*
X156130180Y-67177506D02*
X156130180Y-67272744D01*
X156130180Y-67272744D02*
X156177800Y-67415601D01*
X156177800Y-67415601D02*
X156273038Y-67510839D01*
X156273038Y-67510839D02*
X156368276Y-67558458D01*
X156368276Y-67558458D02*
X156558752Y-67606077D01*
X156558752Y-67606077D02*
X156701609Y-67606077D01*
X156701609Y-67606077D02*
X156892085Y-67558458D01*
X156892085Y-67558458D02*
X156987323Y-67510839D01*
X156987323Y-67510839D02*
X157082561Y-67415601D01*
X157082561Y-67415601D02*
X157130180Y-67272744D01*
X157130180Y-67272744D02*
X157130180Y-67177506D01*
X157130180Y-67177506D02*
X157082561Y-67034649D01*
X157082561Y-67034649D02*
X157034942Y-66987030D01*
X156130180Y-66558458D02*
X157130180Y-66558458D01*
X156653990Y-66558458D02*
X156653990Y-65987030D01*
X156130180Y-65987030D02*
X157130180Y-65987030D01*
X157130180Y-65320363D02*
X157130180Y-65129887D01*
X157130180Y-65129887D02*
X157082561Y-65034649D01*
X157082561Y-65034649D02*
X156987323Y-64939411D01*
X156987323Y-64939411D02*
X156796847Y-64891792D01*
X156796847Y-64891792D02*
X156463514Y-64891792D01*
X156463514Y-64891792D02*
X156273038Y-64939411D01*
X156273038Y-64939411D02*
X156177800Y-65034649D01*
X156177800Y-65034649D02*
X156130180Y-65129887D01*
X156130180Y-65129887D02*
X156130180Y-65320363D01*
X156130180Y-65320363D02*
X156177800Y-65415601D01*
X156177800Y-65415601D02*
X156273038Y-65510839D01*
X156273038Y-65510839D02*
X156463514Y-65558458D01*
X156463514Y-65558458D02*
X156796847Y-65558458D01*
X156796847Y-65558458D02*
X156987323Y-65510839D01*
X156987323Y-65510839D02*
X157082561Y-65415601D01*
X157082561Y-65415601D02*
X157130180Y-65320363D01*
X154330180Y-68006077D02*
X154330180Y-67434649D01*
X153330180Y-67720363D02*
X154330180Y-67720363D01*
X153330180Y-66529887D02*
X153806371Y-66863220D01*
X153330180Y-67101315D02*
X154330180Y-67101315D01*
X154330180Y-67101315D02*
X154330180Y-66720363D01*
X154330180Y-66720363D02*
X154282561Y-66625125D01*
X154282561Y-66625125D02*
X154234942Y-66577506D01*
X154234942Y-66577506D02*
X154139704Y-66529887D01*
X154139704Y-66529887D02*
X153996847Y-66529887D01*
X153996847Y-66529887D02*
X153901609Y-66577506D01*
X153901609Y-66577506D02*
X153853990Y-66625125D01*
X153853990Y-66625125D02*
X153806371Y-66720363D01*
X153806371Y-66720363D02*
X153806371Y-67101315D01*
X153330180Y-66101315D02*
X154330180Y-66101315D01*
X154282561Y-65101316D02*
X154330180Y-65196554D01*
X154330180Y-65196554D02*
X154330180Y-65339411D01*
X154330180Y-65339411D02*
X154282561Y-65482268D01*
X154282561Y-65482268D02*
X154187323Y-65577506D01*
X154187323Y-65577506D02*
X154092085Y-65625125D01*
X154092085Y-65625125D02*
X153901609Y-65672744D01*
X153901609Y-65672744D02*
X153758752Y-65672744D01*
X153758752Y-65672744D02*
X153568276Y-65625125D01*
X153568276Y-65625125D02*
X153473038Y-65577506D01*
X153473038Y-65577506D02*
X153377800Y-65482268D01*
X153377800Y-65482268D02*
X153330180Y-65339411D01*
X153330180Y-65339411D02*
X153330180Y-65244173D01*
X153330180Y-65244173D02*
X153377800Y-65101316D01*
X153377800Y-65101316D02*
X153425419Y-65053697D01*
X153425419Y-65053697D02*
X153758752Y-65053697D01*
X153758752Y-65053697D02*
X153758752Y-65244173D01*
X131577800Y-61310839D02*
X131530180Y-61167982D01*
X131530180Y-61167982D02*
X131530180Y-60929887D01*
X131530180Y-60929887D02*
X131577800Y-60834649D01*
X131577800Y-60834649D02*
X131625419Y-60787030D01*
X131625419Y-60787030D02*
X131720657Y-60739411D01*
X131720657Y-60739411D02*
X131815895Y-60739411D01*
X131815895Y-60739411D02*
X131911133Y-60787030D01*
X131911133Y-60787030D02*
X131958752Y-60834649D01*
X131958752Y-60834649D02*
X132006371Y-60929887D01*
X132006371Y-60929887D02*
X132053990Y-61120363D01*
X132053990Y-61120363D02*
X132101609Y-61215601D01*
X132101609Y-61215601D02*
X132149228Y-61263220D01*
X132149228Y-61263220D02*
X132244466Y-61310839D01*
X132244466Y-61310839D02*
X132339704Y-61310839D01*
X132339704Y-61310839D02*
X132434942Y-61263220D01*
X132434942Y-61263220D02*
X132482561Y-61215601D01*
X132482561Y-61215601D02*
X132530180Y-61120363D01*
X132530180Y-61120363D02*
X132530180Y-60882268D01*
X132530180Y-60882268D02*
X132482561Y-60739411D01*
X131625419Y-59739411D02*
X131577800Y-59787030D01*
X131577800Y-59787030D02*
X131530180Y-59929887D01*
X131530180Y-59929887D02*
X131530180Y-60025125D01*
X131530180Y-60025125D02*
X131577800Y-60167982D01*
X131577800Y-60167982D02*
X131673038Y-60263220D01*
X131673038Y-60263220D02*
X131768276Y-60310839D01*
X131768276Y-60310839D02*
X131958752Y-60358458D01*
X131958752Y-60358458D02*
X132101609Y-60358458D01*
X132101609Y-60358458D02*
X132292085Y-60310839D01*
X132292085Y-60310839D02*
X132387323Y-60263220D01*
X132387323Y-60263220D02*
X132482561Y-60167982D01*
X132482561Y-60167982D02*
X132530180Y-60025125D01*
X132530180Y-60025125D02*
X132530180Y-59929887D01*
X132530180Y-59929887D02*
X132482561Y-59787030D01*
X132482561Y-59787030D02*
X132434942Y-59739411D01*
X131530180Y-58834649D02*
X131530180Y-59310839D01*
X131530180Y-59310839D02*
X132530180Y-59310839D01*
X129177800Y-61210839D02*
X129130180Y-61067982D01*
X129130180Y-61067982D02*
X129130180Y-60829887D01*
X129130180Y-60829887D02*
X129177800Y-60734649D01*
X129177800Y-60734649D02*
X129225419Y-60687030D01*
X129225419Y-60687030D02*
X129320657Y-60639411D01*
X129320657Y-60639411D02*
X129415895Y-60639411D01*
X129415895Y-60639411D02*
X129511133Y-60687030D01*
X129511133Y-60687030D02*
X129558752Y-60734649D01*
X129558752Y-60734649D02*
X129606371Y-60829887D01*
X129606371Y-60829887D02*
X129653990Y-61020363D01*
X129653990Y-61020363D02*
X129701609Y-61115601D01*
X129701609Y-61115601D02*
X129749228Y-61163220D01*
X129749228Y-61163220D02*
X129844466Y-61210839D01*
X129844466Y-61210839D02*
X129939704Y-61210839D01*
X129939704Y-61210839D02*
X130034942Y-61163220D01*
X130034942Y-61163220D02*
X130082561Y-61115601D01*
X130082561Y-61115601D02*
X130130180Y-61020363D01*
X130130180Y-61020363D02*
X130130180Y-60782268D01*
X130130180Y-60782268D02*
X130082561Y-60639411D01*
X129130180Y-60210839D02*
X130130180Y-60210839D01*
X130130180Y-60210839D02*
X130130180Y-59972744D01*
X130130180Y-59972744D02*
X130082561Y-59829887D01*
X130082561Y-59829887D02*
X129987323Y-59734649D01*
X129987323Y-59734649D02*
X129892085Y-59687030D01*
X129892085Y-59687030D02*
X129701609Y-59639411D01*
X129701609Y-59639411D02*
X129558752Y-59639411D01*
X129558752Y-59639411D02*
X129368276Y-59687030D01*
X129368276Y-59687030D02*
X129273038Y-59734649D01*
X129273038Y-59734649D02*
X129177800Y-59829887D01*
X129177800Y-59829887D02*
X129130180Y-59972744D01*
X129130180Y-59972744D02*
X129130180Y-60210839D01*
X129415895Y-59258458D02*
X129415895Y-58782268D01*
X129130180Y-59353696D02*
X130130180Y-59020363D01*
X130130180Y-59020363D02*
X129130180Y-58687030D01*
X127682561Y-60639411D02*
X127730180Y-60734649D01*
X127730180Y-60734649D02*
X127730180Y-60877506D01*
X127730180Y-60877506D02*
X127682561Y-61020363D01*
X127682561Y-61020363D02*
X127587323Y-61115601D01*
X127587323Y-61115601D02*
X127492085Y-61163220D01*
X127492085Y-61163220D02*
X127301609Y-61210839D01*
X127301609Y-61210839D02*
X127158752Y-61210839D01*
X127158752Y-61210839D02*
X126968276Y-61163220D01*
X126968276Y-61163220D02*
X126873038Y-61115601D01*
X126873038Y-61115601D02*
X126777800Y-61020363D01*
X126777800Y-61020363D02*
X126730180Y-60877506D01*
X126730180Y-60877506D02*
X126730180Y-60782268D01*
X126730180Y-60782268D02*
X126777800Y-60639411D01*
X126777800Y-60639411D02*
X126825419Y-60591792D01*
X126825419Y-60591792D02*
X127158752Y-60591792D01*
X127158752Y-60591792D02*
X127158752Y-60782268D01*
X126730180Y-60163220D02*
X127730180Y-60163220D01*
X127730180Y-60163220D02*
X126730180Y-59591792D01*
X126730180Y-59591792D02*
X127730180Y-59591792D01*
X126730180Y-59115601D02*
X127730180Y-59115601D01*
X127730180Y-59115601D02*
X127730180Y-58877506D01*
X127730180Y-58877506D02*
X127682561Y-58734649D01*
X127682561Y-58734649D02*
X127587323Y-58639411D01*
X127587323Y-58639411D02*
X127492085Y-58591792D01*
X127492085Y-58591792D02*
X127301609Y-58544173D01*
X127301609Y-58544173D02*
X127158752Y-58544173D01*
X127158752Y-58544173D02*
X126968276Y-58591792D01*
X126968276Y-58591792D02*
X126873038Y-58639411D01*
X126873038Y-58639411D02*
X126777800Y-58734649D01*
X126777800Y-58734649D02*
X126730180Y-58877506D01*
X126730180Y-58877506D02*
X126730180Y-59115601D01*
X124965180Y-61428458D02*
X124965180Y-60809411D01*
X124965180Y-60809411D02*
X124584228Y-61142744D01*
X124584228Y-61142744D02*
X124584228Y-60999887D01*
X124584228Y-60999887D02*
X124536609Y-60904649D01*
X124536609Y-60904649D02*
X124488990Y-60857030D01*
X124488990Y-60857030D02*
X124393752Y-60809411D01*
X124393752Y-60809411D02*
X124155657Y-60809411D01*
X124155657Y-60809411D02*
X124060419Y-60857030D01*
X124060419Y-60857030D02*
X124012800Y-60904649D01*
X124012800Y-60904649D02*
X123965180Y-60999887D01*
X123965180Y-60999887D02*
X123965180Y-61285601D01*
X123965180Y-61285601D02*
X124012800Y-61380839D01*
X124012800Y-61380839D02*
X124060419Y-61428458D01*
X124631847Y-60476077D02*
X123965180Y-60237982D01*
X123965180Y-60237982D02*
X124631847Y-59999887D01*
X124965180Y-59714172D02*
X124965180Y-59095125D01*
X124965180Y-59095125D02*
X124584228Y-59428458D01*
X124584228Y-59428458D02*
X124584228Y-59285601D01*
X124584228Y-59285601D02*
X124536609Y-59190363D01*
X124536609Y-59190363D02*
X124488990Y-59142744D01*
X124488990Y-59142744D02*
X124393752Y-59095125D01*
X124393752Y-59095125D02*
X124155657Y-59095125D01*
X124155657Y-59095125D02*
X124060419Y-59142744D01*
X124060419Y-59142744D02*
X124012800Y-59190363D01*
X124012800Y-59190363D02*
X123965180Y-59285601D01*
X123965180Y-59285601D02*
X123965180Y-59571315D01*
X123965180Y-59571315D02*
X124012800Y-59666553D01*
X124012800Y-59666553D02*
X124060419Y-59714172D01*
X135082561Y-44639411D02*
X135130180Y-44734649D01*
X135130180Y-44734649D02*
X135130180Y-44877506D01*
X135130180Y-44877506D02*
X135082561Y-45020363D01*
X135082561Y-45020363D02*
X134987323Y-45115601D01*
X134987323Y-45115601D02*
X134892085Y-45163220D01*
X134892085Y-45163220D02*
X134701609Y-45210839D01*
X134701609Y-45210839D02*
X134558752Y-45210839D01*
X134558752Y-45210839D02*
X134368276Y-45163220D01*
X134368276Y-45163220D02*
X134273038Y-45115601D01*
X134273038Y-45115601D02*
X134177800Y-45020363D01*
X134177800Y-45020363D02*
X134130180Y-44877506D01*
X134130180Y-44877506D02*
X134130180Y-44782268D01*
X134130180Y-44782268D02*
X134177800Y-44639411D01*
X134177800Y-44639411D02*
X134225419Y-44591792D01*
X134225419Y-44591792D02*
X134558752Y-44591792D01*
X134558752Y-44591792D02*
X134558752Y-44782268D01*
X134130180Y-44163220D02*
X135130180Y-44163220D01*
X135130180Y-44163220D02*
X134130180Y-43591792D01*
X134130180Y-43591792D02*
X135130180Y-43591792D01*
X134130180Y-43115601D02*
X135130180Y-43115601D01*
X135130180Y-43115601D02*
X135130180Y-42877506D01*
X135130180Y-42877506D02*
X135082561Y-42734649D01*
X135082561Y-42734649D02*
X134987323Y-42639411D01*
X134987323Y-42639411D02*
X134892085Y-42591792D01*
X134892085Y-42591792D02*
X134701609Y-42544173D01*
X134701609Y-42544173D02*
X134558752Y-42544173D01*
X134558752Y-42544173D02*
X134368276Y-42591792D01*
X134368276Y-42591792D02*
X134273038Y-42639411D01*
X134273038Y-42639411D02*
X134177800Y-42734649D01*
X134177800Y-42734649D02*
X134130180Y-42877506D01*
X134130180Y-42877506D02*
X134130180Y-43115601D01*
X131630180Y-45163220D02*
X132630180Y-45163220D01*
X131630180Y-44687030D02*
X132630180Y-44687030D01*
X132630180Y-44687030D02*
X131630180Y-44115602D01*
X131630180Y-44115602D02*
X132630180Y-44115602D01*
X132296847Y-43210840D02*
X131630180Y-43210840D01*
X132677800Y-43448935D02*
X131963514Y-43687030D01*
X131963514Y-43687030D02*
X131963514Y-43067983D01*
X129130180Y-45163220D02*
X130130180Y-45163220D01*
X129130180Y-44687030D02*
X130130180Y-44687030D01*
X130130180Y-44687030D02*
X129130180Y-44115602D01*
X129130180Y-44115602D02*
X130130180Y-44115602D01*
X130130180Y-43734649D02*
X130130180Y-43115602D01*
X130130180Y-43115602D02*
X129749228Y-43448935D01*
X129749228Y-43448935D02*
X129749228Y-43306078D01*
X129749228Y-43306078D02*
X129701609Y-43210840D01*
X129701609Y-43210840D02*
X129653990Y-43163221D01*
X129653990Y-43163221D02*
X129558752Y-43115602D01*
X129558752Y-43115602D02*
X129320657Y-43115602D01*
X129320657Y-43115602D02*
X129225419Y-43163221D01*
X129225419Y-43163221D02*
X129177800Y-43210840D01*
X129177800Y-43210840D02*
X129130180Y-43306078D01*
X129130180Y-43306078D02*
X129130180Y-43591792D01*
X129130180Y-43591792D02*
X129177800Y-43687030D01*
X129177800Y-43687030D02*
X129225419Y-43734649D01*
X126630180Y-45163220D02*
X127630180Y-45163220D01*
X126630180Y-44687030D02*
X127630180Y-44687030D01*
X127630180Y-44687030D02*
X126630180Y-44115602D01*
X126630180Y-44115602D02*
X127630180Y-44115602D01*
X127534942Y-43687030D02*
X127582561Y-43639411D01*
X127582561Y-43639411D02*
X127630180Y-43544173D01*
X127630180Y-43544173D02*
X127630180Y-43306078D01*
X127630180Y-43306078D02*
X127582561Y-43210840D01*
X127582561Y-43210840D02*
X127534942Y-43163221D01*
X127534942Y-43163221D02*
X127439704Y-43115602D01*
X127439704Y-43115602D02*
X127344466Y-43115602D01*
X127344466Y-43115602D02*
X127201609Y-43163221D01*
X127201609Y-43163221D02*
X126630180Y-43734649D01*
X126630180Y-43734649D02*
X126630180Y-43115602D01*
X124130180Y-45163220D02*
X125130180Y-45163220D01*
X124130180Y-44687030D02*
X125130180Y-44687030D01*
X125130180Y-44687030D02*
X124130180Y-44115602D01*
X124130180Y-44115602D02*
X125130180Y-44115602D01*
X124130180Y-43115602D02*
X124130180Y-43687030D01*
X124130180Y-43401316D02*
X125130180Y-43401316D01*
X125130180Y-43401316D02*
X124987323Y-43496554D01*
X124987323Y-43496554D02*
X124892085Y-43591792D01*
X124892085Y-43591792D02*
X124844466Y-43687030D01*
G36*
X151076727Y-54330000D02*
G01*
X151076727Y-53652714D01*
X151307048Y-53652714D01*
X151307048Y-53564054D01*
X151258061Y-53560005D01*
X151208053Y-53552643D01*
X151165875Y-53541584D01*
X151120940Y-53518524D01*
X151091137Y-53490048D01*
X151065858Y-53444314D01*
X151048982Y-53395507D01*
X151043754Y-53376475D01*
X150952407Y-53376475D01*
X150952407Y-54330000D01*
X151076727Y-54330000D01*
G37*
G36*
X150540858Y-54330000D02*
G01*
X150540858Y-54196154D01*
X150500237Y-54161606D01*
X150462517Y-54129278D01*
X150419445Y-54091991D01*
X150380905Y-54058175D01*
X150340640Y-54022177D01*
X150301911Y-53986496D01*
X150297103Y-53981953D01*
X150260894Y-53947057D01*
X150224101Y-53910208D01*
X150188113Y-53872255D01*
X150172051Y-53854459D01*
X150140619Y-53816352D01*
X150112386Y-53775571D01*
X150095359Y-53745526D01*
X150076826Y-53697020D01*
X150068910Y-53648546D01*
X150068248Y-53629023D01*
X150074808Y-53580033D01*
X150096721Y-53535875D01*
X150114898Y-53515938D01*
X150157921Y-53488422D01*
X150206722Y-53475473D01*
X150239218Y-53473440D01*
X150290543Y-53478180D01*
X150337541Y-53494012D01*
X150359141Y-53507145D01*
X150397035Y-53540611D01*
X150429506Y-53582025D01*
X150437787Y-53595317D01*
X150543545Y-53527418D01*
X150513551Y-53481803D01*
X150479076Y-53443878D01*
X150440118Y-53413642D01*
X150416538Y-53400167D01*
X150370685Y-53381158D01*
X150320505Y-53368371D01*
X150265997Y-53361804D01*
X150233845Y-53360844D01*
X150184113Y-53363248D01*
X150131195Y-53372131D01*
X150083769Y-53387558D01*
X150036294Y-53413203D01*
X150015247Y-53429232D01*
X149979878Y-53466845D01*
X149954614Y-53511542D01*
X149939456Y-53563321D01*
X149934482Y-53614439D01*
X149934403Y-53622184D01*
X149937345Y-53672093D01*
X149947096Y-53722957D01*
X149952233Y-53740397D01*
X149971714Y-53787715D01*
X149996752Y-53829894D01*
X150008164Y-53845666D01*
X150040416Y-53885245D01*
X150076437Y-53925086D01*
X150110502Y-53960216D01*
X150146179Y-53994338D01*
X150188814Y-54033167D01*
X150232845Y-54072280D01*
X150273633Y-54107993D01*
X150319368Y-54147637D01*
X150356914Y-54179949D01*
X150397243Y-54214473D01*
X149903384Y-54214473D01*
X149903384Y-54330000D01*
X150540858Y-54330000D01*
G37*
G36*
X149320865Y-54330000D02*
G01*
X149491346Y-54330000D01*
X149789567Y-53376475D01*
X149656943Y-53376475D01*
X149402686Y-54207634D01*
X149147941Y-53376475D01*
X149018004Y-53376475D01*
X149320865Y-54330000D01*
G37*
G36*
X170076727Y-54330000D02*
G01*
X170076727Y-53652714D01*
X170307048Y-53652714D01*
X170307048Y-53564054D01*
X170258061Y-53560005D01*
X170208053Y-53552643D01*
X170165875Y-53541584D01*
X170120940Y-53518524D01*
X170091137Y-53490048D01*
X170065858Y-53444314D01*
X170048982Y-53395507D01*
X170043754Y-53376475D01*
X169952407Y-53376475D01*
X169952407Y-54330000D01*
X170076727Y-54330000D01*
G37*
G36*
X169540858Y-54330000D02*
G01*
X169540858Y-54196154D01*
X169500237Y-54161606D01*
X169462517Y-54129278D01*
X169419445Y-54091991D01*
X169380905Y-54058175D01*
X169340640Y-54022177D01*
X169301911Y-53986496D01*
X169297103Y-53981953D01*
X169260894Y-53947057D01*
X169224101Y-53910208D01*
X169188113Y-53872255D01*
X169172051Y-53854459D01*
X169140619Y-53816352D01*
X169112386Y-53775571D01*
X169095359Y-53745526D01*
X169076826Y-53697020D01*
X169068910Y-53648546D01*
X169068248Y-53629023D01*
X169074808Y-53580033D01*
X169096721Y-53535875D01*
X169114898Y-53515938D01*
X169157921Y-53488422D01*
X169206722Y-53475473D01*
X169239218Y-53473440D01*
X169290543Y-53478180D01*
X169337541Y-53494012D01*
X169359141Y-53507145D01*
X169397035Y-53540611D01*
X169429506Y-53582025D01*
X169437787Y-53595317D01*
X169543545Y-53527418D01*
X169513551Y-53481803D01*
X169479076Y-53443878D01*
X169440118Y-53413642D01*
X169416538Y-53400167D01*
X169370685Y-53381158D01*
X169320505Y-53368371D01*
X169265997Y-53361804D01*
X169233845Y-53360844D01*
X169184113Y-53363248D01*
X169131195Y-53372131D01*
X169083769Y-53387558D01*
X169036294Y-53413203D01*
X169015247Y-53429232D01*
X168979878Y-53466845D01*
X168954614Y-53511542D01*
X168939456Y-53563321D01*
X168934482Y-53614439D01*
X168934403Y-53622184D01*
X168937345Y-53672093D01*
X168947096Y-53722957D01*
X168952233Y-53740397D01*
X168971714Y-53787715D01*
X168996752Y-53829894D01*
X169008164Y-53845666D01*
X169040416Y-53885245D01*
X169076437Y-53925086D01*
X169110502Y-53960216D01*
X169146179Y-53994338D01*
X169188814Y-54033167D01*
X169232845Y-54072280D01*
X169273633Y-54107993D01*
X169319368Y-54147637D01*
X169356914Y-54179949D01*
X169397243Y-54214473D01*
X168903384Y-54214473D01*
X168903384Y-54330000D01*
X169540858Y-54330000D01*
G37*
G36*
X168320865Y-54330000D02*
G01*
X168491346Y-54330000D01*
X168789567Y-53376475D01*
X168656943Y-53376475D01*
X168402686Y-54207634D01*
X168147941Y-53376475D01*
X168018004Y-53376475D01*
X168320865Y-54330000D01*
G37*
G36*
X158761653Y-53610949D02*
G01*
X158790024Y-53567592D01*
X158824576Y-53531310D01*
X158851046Y-53511053D01*
X158898090Y-53488133D01*
X158950808Y-53476415D01*
X159000767Y-53473440D01*
X159051835Y-53476754D01*
X159104598Y-53488999D01*
X159150022Y-53510267D01*
X159192948Y-53545621D01*
X159210816Y-53567718D01*
X159236797Y-53613649D01*
X159253988Y-53660647D01*
X159266490Y-53714685D01*
X159273327Y-53765096D01*
X159276908Y-53820397D01*
X159277494Y-53855924D01*
X159275735Y-53915312D01*
X159270458Y-53969368D01*
X159261663Y-54018094D01*
X159246464Y-54069528D01*
X159222330Y-54119832D01*
X159205443Y-54143886D01*
X159170471Y-54178623D01*
X159128813Y-54204828D01*
X159080471Y-54222501D01*
X159025443Y-54231642D01*
X158990997Y-54233035D01*
X158941248Y-54230566D01*
X158892087Y-54222491D01*
X158889148Y-54221800D01*
X158840055Y-54208061D01*
X158793893Y-54191933D01*
X158787055Y-54189316D01*
X158787055Y-53960216D01*
X159017864Y-53960216D01*
X159017864Y-53845422D01*
X158659804Y-53845422D01*
X158659804Y-54258681D01*
X158708252Y-54282327D01*
X158756509Y-54302587D01*
X158804575Y-54319460D01*
X158814166Y-54322428D01*
X158864283Y-54334664D01*
X158913386Y-54341802D01*
X158966275Y-54345268D01*
X158990997Y-54345631D01*
X159042811Y-54343723D01*
X159102695Y-54335971D01*
X159157152Y-54322256D01*
X159206183Y-54302578D01*
X159249788Y-54276938D01*
X159287966Y-54245334D01*
X159308269Y-54223510D01*
X159337962Y-54182241D01*
X159362622Y-54134914D01*
X159382250Y-54081529D01*
X159396845Y-54022086D01*
X159404897Y-53970169D01*
X159409729Y-53914375D01*
X159411339Y-53854703D01*
X159409725Y-53794180D01*
X159404882Y-53737665D01*
X159396811Y-53685156D01*
X159385511Y-53636655D01*
X159366845Y-53581664D01*
X159343135Y-53532933D01*
X159314381Y-53490464D01*
X159308025Y-53482721D01*
X159273246Y-53447610D01*
X159233483Y-53418450D01*
X159188734Y-53395241D01*
X159139001Y-53377983D01*
X159084282Y-53366676D01*
X159024579Y-53361320D01*
X158999302Y-53360844D01*
X158949755Y-53362831D01*
X158896881Y-53369967D01*
X158848005Y-53382294D01*
X158797801Y-53402365D01*
X158752425Y-53430107D01*
X158711918Y-53466619D01*
X158679998Y-53506438D01*
X158658583Y-53540851D01*
X158761653Y-53610949D01*
G37*
G36*
X157872854Y-54330000D02*
G01*
X158301988Y-53511297D01*
X158301988Y-54330000D01*
X158424354Y-54330000D01*
X158424354Y-53376475D01*
X158238241Y-53376475D01*
X157844521Y-54126057D01*
X157844521Y-53376475D01*
X157722400Y-53376475D01*
X157722400Y-54330000D01*
X157872854Y-54330000D01*
G37*
G36*
X157485973Y-54330000D02*
G01*
X157244173Y-54330000D01*
X157192769Y-54328843D01*
X157136029Y-54324401D01*
X157084681Y-54316627D01*
X157031590Y-54303346D01*
X156979902Y-54282616D01*
X156936060Y-54255322D01*
X156898325Y-54221067D01*
X156866695Y-54179851D01*
X156841172Y-54131674D01*
X156833140Y-54111630D01*
X156817473Y-54059985D01*
X156807466Y-54010286D01*
X156800620Y-53955571D01*
X156797328Y-53906146D01*
X156796231Y-53853237D01*
X156796237Y-53851772D01*
X156930321Y-53851772D01*
X156930351Y-53860412D01*
X156932259Y-53917489D01*
X156937136Y-53968604D01*
X156946345Y-54019724D01*
X156961339Y-54067927D01*
X156984247Y-54111910D01*
X157017930Y-54150814D01*
X157060502Y-54179790D01*
X157098131Y-54194964D01*
X157148966Y-54206852D01*
X157201711Y-54212813D01*
X157253698Y-54214473D01*
X157359455Y-54214473D01*
X157359455Y-53491270D01*
X157253698Y-53491270D01*
X157216190Y-53492122D01*
X157161758Y-53497034D01*
X157108733Y-53507778D01*
X157060013Y-53526196D01*
X157016972Y-53555062D01*
X156983223Y-53593972D01*
X156960607Y-53638060D01*
X156956939Y-53647939D01*
X156943364Y-53698134D01*
X156935319Y-53750635D01*
X156931385Y-53802659D01*
X156930321Y-53851772D01*
X156796237Y-53851772D01*
X156796276Y-53842497D01*
X156797854Y-53790812D01*
X156802723Y-53733230D01*
X156810837Y-53680491D01*
X156824406Y-53625083D01*
X156842393Y-53576266D01*
X156868497Y-53527753D01*
X156900889Y-53486263D01*
X156939571Y-53451794D01*
X156984542Y-53424347D01*
X156990610Y-53421402D01*
X157036933Y-53403403D01*
X157089987Y-53389986D01*
X157140820Y-53382132D01*
X157196599Y-53377644D01*
X157246859Y-53376475D01*
X157485973Y-53376475D01*
X157485973Y-54330000D01*
G37*
G36*
X177761653Y-53610949D02*
G01*
X177790024Y-53567592D01*
X177824576Y-53531310D01*
X177851046Y-53511053D01*
X177898090Y-53488133D01*
X177950808Y-53476415D01*
X178000767Y-53473440D01*
X178051835Y-53476754D01*
X178104598Y-53488999D01*
X178150022Y-53510267D01*
X178192948Y-53545621D01*
X178210816Y-53567718D01*
X178236797Y-53613649D01*
X178253988Y-53660647D01*
X178266490Y-53714685D01*
X178273327Y-53765096D01*
X178276908Y-53820397D01*
X178277494Y-53855924D01*
X178275735Y-53915312D01*
X178270458Y-53969368D01*
X178261663Y-54018094D01*
X178246464Y-54069528D01*
X178222330Y-54119832D01*
X178205443Y-54143886D01*
X178170471Y-54178623D01*
X178128813Y-54204828D01*
X178080471Y-54222501D01*
X178025443Y-54231642D01*
X177990997Y-54233035D01*
X177941248Y-54230566D01*
X177892087Y-54222491D01*
X177889148Y-54221800D01*
X177840055Y-54208061D01*
X177793893Y-54191933D01*
X177787055Y-54189316D01*
X177787055Y-53960216D01*
X178017864Y-53960216D01*
X178017864Y-53845422D01*
X177659804Y-53845422D01*
X177659804Y-54258681D01*
X177708252Y-54282327D01*
X177756509Y-54302587D01*
X177804575Y-54319460D01*
X177814166Y-54322428D01*
X177864283Y-54334664D01*
X177913386Y-54341802D01*
X177966275Y-54345268D01*
X177990997Y-54345631D01*
X178042811Y-54343723D01*
X178102695Y-54335971D01*
X178157152Y-54322256D01*
X178206183Y-54302578D01*
X178249788Y-54276938D01*
X178287966Y-54245334D01*
X178308269Y-54223510D01*
X178337962Y-54182241D01*
X178362622Y-54134914D01*
X178382250Y-54081529D01*
X178396845Y-54022086D01*
X178404897Y-53970169D01*
X178409729Y-53914375D01*
X178411339Y-53854703D01*
X178409725Y-53794180D01*
X178404882Y-53737665D01*
X178396811Y-53685156D01*
X178385511Y-53636655D01*
X178366845Y-53581664D01*
X178343135Y-53532933D01*
X178314381Y-53490464D01*
X178308025Y-53482721D01*
X178273246Y-53447610D01*
X178233483Y-53418450D01*
X178188734Y-53395241D01*
X178139001Y-53377983D01*
X178084282Y-53366676D01*
X178024579Y-53361320D01*
X177999302Y-53360844D01*
X177949755Y-53362831D01*
X177896881Y-53369967D01*
X177848005Y-53382294D01*
X177797801Y-53402365D01*
X177752425Y-53430107D01*
X177711918Y-53466619D01*
X177679998Y-53506438D01*
X177658583Y-53540851D01*
X177761653Y-53610949D01*
G37*
G36*
X176872854Y-54330000D02*
G01*
X177301988Y-53511297D01*
X177301988Y-54330000D01*
X177424354Y-54330000D01*
X177424354Y-53376475D01*
X177238241Y-53376475D01*
X176844521Y-54126057D01*
X176844521Y-53376475D01*
X176722400Y-53376475D01*
X176722400Y-54330000D01*
X176872854Y-54330000D01*
G37*
G36*
X176485973Y-54330000D02*
G01*
X176244173Y-54330000D01*
X176192769Y-54328843D01*
X176136029Y-54324401D01*
X176084681Y-54316627D01*
X176031590Y-54303346D01*
X175979902Y-54282616D01*
X175936060Y-54255322D01*
X175898325Y-54221067D01*
X175866695Y-54179851D01*
X175841172Y-54131674D01*
X175833140Y-54111630D01*
X175817473Y-54059985D01*
X175807466Y-54010286D01*
X175800620Y-53955571D01*
X175797328Y-53906146D01*
X175796231Y-53853237D01*
X175796237Y-53851772D01*
X175930321Y-53851772D01*
X175930351Y-53860412D01*
X175932259Y-53917489D01*
X175937136Y-53968604D01*
X175946345Y-54019724D01*
X175961339Y-54067927D01*
X175984247Y-54111910D01*
X176017930Y-54150814D01*
X176060502Y-54179790D01*
X176098131Y-54194964D01*
X176148966Y-54206852D01*
X176201711Y-54212813D01*
X176253698Y-54214473D01*
X176359455Y-54214473D01*
X176359455Y-53491270D01*
X176253698Y-53491270D01*
X176216190Y-53492122D01*
X176161758Y-53497034D01*
X176108733Y-53507778D01*
X176060013Y-53526196D01*
X176016972Y-53555062D01*
X175983223Y-53593972D01*
X175960607Y-53638060D01*
X175956939Y-53647939D01*
X175943364Y-53698134D01*
X175935319Y-53750635D01*
X175931385Y-53802659D01*
X175930321Y-53851772D01*
X175796237Y-53851772D01*
X175796276Y-53842497D01*
X175797854Y-53790812D01*
X175802723Y-53733230D01*
X175810837Y-53680491D01*
X175824406Y-53625083D01*
X175842393Y-53576266D01*
X175868497Y-53527753D01*
X175900889Y-53486263D01*
X175939571Y-53451794D01*
X175984542Y-53424347D01*
X175990610Y-53421402D01*
X176036933Y-53403403D01*
X176089987Y-53389986D01*
X176140820Y-53382132D01*
X176196599Y-53377644D01*
X176246859Y-53376475D01*
X176485973Y-53376475D01*
X176485973Y-54330000D01*
G37*
X179210839Y-90584104D02*
X178734649Y-90584104D01*
X179306077Y-90869819D02*
X178972744Y-89869819D01*
X178972744Y-89869819D02*
X178639411Y-90869819D01*
X178401315Y-89869819D02*
X177734649Y-89869819D01*
X177734649Y-89869819D02*
X178401315Y-90869819D01*
X178401315Y-90869819D02*
X177734649Y-90869819D01*
X176829887Y-90869819D02*
X177401315Y-90869819D01*
X177115601Y-90869819D02*
X177115601Y-89869819D01*
X177115601Y-89869819D02*
X177210839Y-90012676D01*
X177210839Y-90012676D02*
X177306077Y-90107914D01*
X177306077Y-90107914D02*
X177401315Y-90155533D01*
X176210839Y-89869819D02*
X176115601Y-89869819D01*
X176115601Y-89869819D02*
X176020363Y-89917438D01*
X176020363Y-89917438D02*
X175972744Y-89965057D01*
X175972744Y-89965057D02*
X175925125Y-90060295D01*
X175925125Y-90060295D02*
X175877506Y-90250771D01*
X175877506Y-90250771D02*
X175877506Y-90488866D01*
X175877506Y-90488866D02*
X175925125Y-90679342D01*
X175925125Y-90679342D02*
X175972744Y-90774580D01*
X175972744Y-90774580D02*
X176020363Y-90822200D01*
X176020363Y-90822200D02*
X176115601Y-90869819D01*
X176115601Y-90869819D02*
X176210839Y-90869819D01*
X176210839Y-90869819D02*
X176306077Y-90822200D01*
X176306077Y-90822200D02*
X176353696Y-90774580D01*
X176353696Y-90774580D02*
X176401315Y-90679342D01*
X176401315Y-90679342D02*
X176448934Y-90488866D01*
X176448934Y-90488866D02*
X176448934Y-90250771D01*
X176448934Y-90250771D02*
X176401315Y-90060295D01*
X176401315Y-90060295D02*
X176353696Y-89965057D01*
X176353696Y-89965057D02*
X176306077Y-89917438D01*
X176306077Y-89917438D02*
X176210839Y-89869819D01*
X175306077Y-90298390D02*
X175401315Y-90250771D01*
X175401315Y-90250771D02*
X175448934Y-90203152D01*
X175448934Y-90203152D02*
X175496553Y-90107914D01*
X175496553Y-90107914D02*
X175496553Y-90060295D01*
X175496553Y-90060295D02*
X175448934Y-89965057D01*
X175448934Y-89965057D02*
X175401315Y-89917438D01*
X175401315Y-89917438D02*
X175306077Y-89869819D01*
X175306077Y-89869819D02*
X175115601Y-89869819D01*
X175115601Y-89869819D02*
X175020363Y-89917438D01*
X175020363Y-89917438D02*
X174972744Y-89965057D01*
X174972744Y-89965057D02*
X174925125Y-90060295D01*
X174925125Y-90060295D02*
X174925125Y-90107914D01*
X174925125Y-90107914D02*
X174972744Y-90203152D01*
X174972744Y-90203152D02*
X175020363Y-90250771D01*
X175020363Y-90250771D02*
X175115601Y-90298390D01*
X175115601Y-90298390D02*
X175306077Y-90298390D01*
X175306077Y-90298390D02*
X175401315Y-90346009D01*
X175401315Y-90346009D02*
X175448934Y-90393628D01*
X175448934Y-90393628D02*
X175496553Y-90488866D01*
X175496553Y-90488866D02*
X175496553Y-90679342D01*
X175496553Y-90679342D02*
X175448934Y-90774580D01*
X175448934Y-90774580D02*
X175401315Y-90822200D01*
X175401315Y-90822200D02*
X175306077Y-90869819D01*
X175306077Y-90869819D02*
X175115601Y-90869819D01*
X175115601Y-90869819D02*
X175020363Y-90822200D01*
X175020363Y-90822200D02*
X174972744Y-90774580D01*
X174972744Y-90774580D02*
X174925125Y-90679342D01*
X174925125Y-90679342D02*
X174925125Y-90488866D01*
X174925125Y-90488866D02*
X174972744Y-90393628D01*
X174972744Y-90393628D02*
X175020363Y-90346009D01*
X175020363Y-90346009D02*
X175115601Y-90298390D01*
X174067982Y-90203152D02*
X174067982Y-90869819D01*
X174306077Y-89822200D02*
X174544172Y-90536485D01*
X174544172Y-90536485D02*
X173925125Y-90536485D01*
X172972744Y-90774580D02*
X173020363Y-90822200D01*
X173020363Y-90822200D02*
X173163220Y-90869819D01*
X173163220Y-90869819D02*
X173258458Y-90869819D01*
X173258458Y-90869819D02*
X173401315Y-90822200D01*
X173401315Y-90822200D02*
X173496553Y-90726961D01*
X173496553Y-90726961D02*
X173544172Y-90631723D01*
X173544172Y-90631723D02*
X173591791Y-90441247D01*
X173591791Y-90441247D02*
X173591791Y-90298390D01*
X173591791Y-90298390D02*
X173544172Y-90107914D01*
X173544172Y-90107914D02*
X173496553Y-90012676D01*
X173496553Y-90012676D02*
X173401315Y-89917438D01*
X173401315Y-89917438D02*
X173258458Y-89869819D01*
X173258458Y-89869819D02*
X173163220Y-89869819D01*
X173163220Y-89869819D02*
X173020363Y-89917438D01*
X173020363Y-89917438D02*
X172972744Y-89965057D01*
X172544172Y-90869819D02*
X172544172Y-89869819D01*
X172544172Y-89869819D02*
X172306077Y-89869819D01*
X172306077Y-89869819D02*
X172163220Y-89917438D01*
X172163220Y-89917438D02*
X172067982Y-90012676D01*
X172067982Y-90012676D02*
X172020363Y-90107914D01*
X172020363Y-90107914D02*
X171972744Y-90298390D01*
X171972744Y-90298390D02*
X171972744Y-90441247D01*
X171972744Y-90441247D02*
X172020363Y-90631723D01*
X172020363Y-90631723D02*
X172067982Y-90726961D01*
X172067982Y-90726961D02*
X172163220Y-90822200D01*
X172163220Y-90822200D02*
X172306077Y-90869819D01*
X172306077Y-90869819D02*
X172544172Y-90869819D01*
X171544172Y-90488866D02*
X170782268Y-90488866D01*
X169829887Y-89869819D02*
X170306077Y-89869819D01*
X170306077Y-89869819D02*
X170353696Y-90346009D01*
X170353696Y-90346009D02*
X170306077Y-90298390D01*
X170306077Y-90298390D02*
X170210839Y-90250771D01*
X170210839Y-90250771D02*
X169972744Y-90250771D01*
X169972744Y-90250771D02*
X169877506Y-90298390D01*
X169877506Y-90298390D02*
X169829887Y-90346009D01*
X169829887Y-90346009D02*
X169782268Y-90441247D01*
X169782268Y-90441247D02*
X169782268Y-90679342D01*
X169782268Y-90679342D02*
X169829887Y-90774580D01*
X169829887Y-90774580D02*
X169877506Y-90822200D01*
X169877506Y-90822200D02*
X169972744Y-90869819D01*
X169972744Y-90869819D02*
X170210839Y-90869819D01*
X170210839Y-90869819D02*
X170306077Y-90822200D01*
X170306077Y-90822200D02*
X170353696Y-90774580D01*
X169353696Y-90774580D02*
X169306077Y-90822200D01*
X169306077Y-90822200D02*
X169353696Y-90869819D01*
X169353696Y-90869819D02*
X169401315Y-90822200D01*
X169401315Y-90822200D02*
X169353696Y-90774580D01*
X169353696Y-90774580D02*
X169353696Y-90869819D01*
X168687030Y-89869819D02*
X168591792Y-89869819D01*
X168591792Y-89869819D02*
X168496554Y-89917438D01*
X168496554Y-89917438D02*
X168448935Y-89965057D01*
X168448935Y-89965057D02*
X168401316Y-90060295D01*
X168401316Y-90060295D02*
X168353697Y-90250771D01*
X168353697Y-90250771D02*
X168353697Y-90488866D01*
X168353697Y-90488866D02*
X168401316Y-90679342D01*
X168401316Y-90679342D02*
X168448935Y-90774580D01*
X168448935Y-90774580D02*
X168496554Y-90822200D01*
X168496554Y-90822200D02*
X168591792Y-90869819D01*
X168591792Y-90869819D02*
X168687030Y-90869819D01*
X168687030Y-90869819D02*
X168782268Y-90822200D01*
X168782268Y-90822200D02*
X168829887Y-90774580D01*
X168829887Y-90774580D02*
X168877506Y-90679342D01*
X168877506Y-90679342D02*
X168925125Y-90488866D01*
X168925125Y-90488866D02*
X168925125Y-90250771D01*
X168925125Y-90250771D02*
X168877506Y-90060295D01*
X168877506Y-90060295D02*
X168829887Y-89965057D01*
X168829887Y-89965057D02*
X168782268Y-89917438D01*
X168782268Y-89917438D02*
X168687030Y-89869819D01*
X178925125Y-61747438D02*
X178925125Y-59747438D01*
X178925125Y-59747438D02*
X178163220Y-59747438D01*
X178163220Y-59747438D02*
X177972744Y-59842676D01*
X177972744Y-59842676D02*
X177877506Y-59937914D01*
X177877506Y-59937914D02*
X177782268Y-60128390D01*
X177782268Y-60128390D02*
X177782268Y-60414104D01*
X177782268Y-60414104D02*
X177877506Y-60604580D01*
X177877506Y-60604580D02*
X177972744Y-60699819D01*
X177972744Y-60699819D02*
X178163220Y-60795057D01*
X178163220Y-60795057D02*
X178925125Y-60795057D01*
X176544173Y-59747438D02*
X176163220Y-59747438D01*
X176163220Y-59747438D02*
X175972744Y-59842676D01*
X175972744Y-59842676D02*
X175782268Y-60033152D01*
X175782268Y-60033152D02*
X175687030Y-60414104D01*
X175687030Y-60414104D02*
X175687030Y-61080771D01*
X175687030Y-61080771D02*
X175782268Y-61461723D01*
X175782268Y-61461723D02*
X175972744Y-61652200D01*
X175972744Y-61652200D02*
X176163220Y-61747438D01*
X176163220Y-61747438D02*
X176544173Y-61747438D01*
X176544173Y-61747438D02*
X176734649Y-61652200D01*
X176734649Y-61652200D02*
X176925125Y-61461723D01*
X176925125Y-61461723D02*
X177020363Y-61080771D01*
X177020363Y-61080771D02*
X177020363Y-60414104D01*
X177020363Y-60414104D02*
X176925125Y-60033152D01*
X176925125Y-60033152D02*
X176734649Y-59842676D01*
X176734649Y-59842676D02*
X176544173Y-59747438D01*
X175020363Y-59747438D02*
X174544173Y-61747438D01*
X174544173Y-61747438D02*
X174163220Y-60318866D01*
X174163220Y-60318866D02*
X173782268Y-61747438D01*
X173782268Y-61747438D02*
X173306078Y-59747438D01*
X172544173Y-60699819D02*
X171877506Y-60699819D01*
X171591792Y-61747438D02*
X172544173Y-61747438D01*
X172544173Y-61747438D02*
X172544173Y-59747438D01*
X172544173Y-59747438D02*
X171591792Y-59747438D01*
X169591792Y-61747438D02*
X170258459Y-60795057D01*
X170734649Y-61747438D02*
X170734649Y-59747438D01*
X170734649Y-59747438D02*
X169972744Y-59747438D01*
X169972744Y-59747438D02*
X169782268Y-59842676D01*
X169782268Y-59842676D02*
X169687030Y-59937914D01*
X169687030Y-59937914D02*
X169591792Y-60128390D01*
X169591792Y-60128390D02*
X169591792Y-60414104D01*
X169591792Y-60414104D02*
X169687030Y-60604580D01*
X169687030Y-60604580D02*
X169782268Y-60699819D01*
X169782268Y-60699819D02*
X169972744Y-60795057D01*
X169972744Y-60795057D02*
X170734649Y-60795057D01*
X120074874Y-49752561D02*
X120074874Y-51752561D01*
X120074874Y-51752561D02*
X120551064Y-51752561D01*
X120551064Y-51752561D02*
X120836779Y-51657323D01*
X120836779Y-51657323D02*
X121027255Y-51466847D01*
X121027255Y-51466847D02*
X121122493Y-51276371D01*
X121122493Y-51276371D02*
X121217731Y-50895419D01*
X121217731Y-50895419D02*
X121217731Y-50609704D01*
X121217731Y-50609704D02*
X121122493Y-50228752D01*
X121122493Y-50228752D02*
X121027255Y-50038276D01*
X121027255Y-50038276D02*
X120836779Y-49847800D01*
X120836779Y-49847800D02*
X120551064Y-49752561D01*
X120551064Y-49752561D02*
X120074874Y-49752561D01*
X122360588Y-49752561D02*
X122170112Y-49847800D01*
X122170112Y-49847800D02*
X122074874Y-49943038D01*
X122074874Y-49943038D02*
X121979636Y-50133514D01*
X121979636Y-50133514D02*
X121979636Y-50704942D01*
X121979636Y-50704942D02*
X122074874Y-50895419D01*
X122074874Y-50895419D02*
X122170112Y-50990657D01*
X122170112Y-50990657D02*
X122360588Y-51085895D01*
X122360588Y-51085895D02*
X122646303Y-51085895D01*
X122646303Y-51085895D02*
X122836779Y-50990657D01*
X122836779Y-50990657D02*
X122932017Y-50895419D01*
X122932017Y-50895419D02*
X123027255Y-50704942D01*
X123027255Y-50704942D02*
X123027255Y-50133514D01*
X123027255Y-50133514D02*
X122932017Y-49943038D01*
X122932017Y-49943038D02*
X122836779Y-49847800D01*
X122836779Y-49847800D02*
X122646303Y-49752561D01*
X122646303Y-49752561D02*
X122360588Y-49752561D01*
X124741541Y-51085895D02*
X124741541Y-49752561D01*
X123884398Y-51085895D02*
X123884398Y-50038276D01*
X123884398Y-50038276D02*
X123979636Y-49847800D01*
X123979636Y-49847800D02*
X124170112Y-49752561D01*
X124170112Y-49752561D02*
X124455827Y-49752561D01*
X124455827Y-49752561D02*
X124646303Y-49847800D01*
X124646303Y-49847800D02*
X124741541Y-49943038D01*
X125693922Y-49752561D02*
X125693922Y-51752561D01*
X125693922Y-50990657D02*
X125884398Y-51085895D01*
X125884398Y-51085895D02*
X126265351Y-51085895D01*
X126265351Y-51085895D02*
X126455827Y-50990657D01*
X126455827Y-50990657D02*
X126551065Y-50895419D01*
X126551065Y-50895419D02*
X126646303Y-50704942D01*
X126646303Y-50704942D02*
X126646303Y-50133514D01*
X126646303Y-50133514D02*
X126551065Y-49943038D01*
X126551065Y-49943038D02*
X126455827Y-49847800D01*
X126455827Y-49847800D02*
X126265351Y-49752561D01*
X126265351Y-49752561D02*
X125884398Y-49752561D01*
X125884398Y-49752561D02*
X125693922Y-49847800D01*
X127789160Y-49752561D02*
X127598684Y-49847800D01*
X127598684Y-49847800D02*
X127503446Y-50038276D01*
X127503446Y-50038276D02*
X127503446Y-51752561D01*
X129312970Y-49847800D02*
X129122494Y-49752561D01*
X129122494Y-49752561D02*
X128741541Y-49752561D01*
X128741541Y-49752561D02*
X128551065Y-49847800D01*
X128551065Y-49847800D02*
X128455827Y-50038276D01*
X128455827Y-50038276D02*
X128455827Y-50800180D01*
X128455827Y-50800180D02*
X128551065Y-50990657D01*
X128551065Y-50990657D02*
X128741541Y-51085895D01*
X128741541Y-51085895D02*
X129122494Y-51085895D01*
X129122494Y-51085895D02*
X129312970Y-50990657D01*
X129312970Y-50990657D02*
X129408208Y-50800180D01*
X129408208Y-50800180D02*
X129408208Y-50609704D01*
X129408208Y-50609704D02*
X128455827Y-50419228D01*
X131789161Y-49752561D02*
X131789161Y-51752561D01*
X131789161Y-50800180D02*
X132932018Y-50800180D01*
X132932018Y-49752561D02*
X132932018Y-51752561D01*
X133884399Y-50514466D02*
X135408209Y-50514466D01*
X137027256Y-50800180D02*
X137312970Y-50704942D01*
X137312970Y-50704942D02*
X137408208Y-50609704D01*
X137408208Y-50609704D02*
X137503446Y-50419228D01*
X137503446Y-50419228D02*
X137503446Y-50133514D01*
X137503446Y-50133514D02*
X137408208Y-49943038D01*
X137408208Y-49943038D02*
X137312970Y-49847800D01*
X137312970Y-49847800D02*
X137122494Y-49752561D01*
X137122494Y-49752561D02*
X136360589Y-49752561D01*
X136360589Y-49752561D02*
X136360589Y-51752561D01*
X136360589Y-51752561D02*
X137027256Y-51752561D01*
X137027256Y-51752561D02*
X137217732Y-51657323D01*
X137217732Y-51657323D02*
X137312970Y-51562085D01*
X137312970Y-51562085D02*
X137408208Y-51371609D01*
X137408208Y-51371609D02*
X137408208Y-51181133D01*
X137408208Y-51181133D02*
X137312970Y-50990657D01*
X137312970Y-50990657D02*
X137217732Y-50895419D01*
X137217732Y-50895419D02*
X137027256Y-50800180D01*
X137027256Y-50800180D02*
X136360589Y-50800180D01*
X138360589Y-49752561D02*
X138360589Y-51085895D01*
X138360589Y-50704942D02*
X138455827Y-50895419D01*
X138455827Y-50895419D02*
X138551065Y-50990657D01*
X138551065Y-50990657D02*
X138741541Y-51085895D01*
X138741541Y-51085895D02*
X138932018Y-51085895D01*
X139598684Y-49752561D02*
X139598684Y-51085895D01*
X139598684Y-51752561D02*
X139503446Y-51657323D01*
X139503446Y-51657323D02*
X139598684Y-51562085D01*
X139598684Y-51562085D02*
X139693922Y-51657323D01*
X139693922Y-51657323D02*
X139598684Y-51752561D01*
X139598684Y-51752561D02*
X139598684Y-51562085D01*
X141408208Y-49752561D02*
X141408208Y-51752561D01*
X141408208Y-49847800D02*
X141217732Y-49752561D01*
X141217732Y-49752561D02*
X140836779Y-49752561D01*
X140836779Y-49752561D02*
X140646303Y-49847800D01*
X140646303Y-49847800D02*
X140551065Y-49943038D01*
X140551065Y-49943038D02*
X140455827Y-50133514D01*
X140455827Y-50133514D02*
X140455827Y-50704942D01*
X140455827Y-50704942D02*
X140551065Y-50895419D01*
X140551065Y-50895419D02*
X140646303Y-50990657D01*
X140646303Y-50990657D02*
X140836779Y-51085895D01*
X140836779Y-51085895D02*
X141217732Y-51085895D01*
X141217732Y-51085895D02*
X141408208Y-50990657D01*
X143217732Y-51085895D02*
X143217732Y-49466847D01*
X143217732Y-49466847D02*
X143122494Y-49276371D01*
X143122494Y-49276371D02*
X143027256Y-49181133D01*
X143027256Y-49181133D02*
X142836779Y-49085895D01*
X142836779Y-49085895D02*
X142551065Y-49085895D01*
X142551065Y-49085895D02*
X142360589Y-49181133D01*
X143217732Y-49847800D02*
X143027256Y-49752561D01*
X143027256Y-49752561D02*
X142646303Y-49752561D01*
X142646303Y-49752561D02*
X142455827Y-49847800D01*
X142455827Y-49847800D02*
X142360589Y-49943038D01*
X142360589Y-49943038D02*
X142265351Y-50133514D01*
X142265351Y-50133514D02*
X142265351Y-50704942D01*
X142265351Y-50704942D02*
X142360589Y-50895419D01*
X142360589Y-50895419D02*
X142455827Y-50990657D01*
X142455827Y-50990657D02*
X142646303Y-51085895D01*
X142646303Y-51085895D02*
X143027256Y-51085895D01*
X143027256Y-51085895D02*
X143217732Y-50990657D01*
X144932018Y-49847800D02*
X144741542Y-49752561D01*
X144741542Y-49752561D02*
X144360589Y-49752561D01*
X144360589Y-49752561D02*
X144170113Y-49847800D01*
X144170113Y-49847800D02*
X144074875Y-50038276D01*
X144074875Y-50038276D02*
X144074875Y-50800180D01*
X144074875Y-50800180D02*
X144170113Y-50990657D01*
X144170113Y-50990657D02*
X144360589Y-51085895D01*
X144360589Y-51085895D02*
X144741542Y-51085895D01*
X144741542Y-51085895D02*
X144932018Y-50990657D01*
X144932018Y-50990657D02*
X145027256Y-50800180D01*
X145027256Y-50800180D02*
X145027256Y-50609704D01*
X145027256Y-50609704D02*
X144074875Y-50419228D01*
D11*
X157906955Y-74742238D02*
X158859336Y-74742238D01*
X158859336Y-74742238D02*
X158859336Y-72742238D01*
X157240288Y-73694619D02*
X156573621Y-73694619D01*
X156287907Y-74742238D02*
X157240288Y-74742238D01*
X157240288Y-74742238D02*
X157240288Y-72742238D01*
X157240288Y-72742238D02*
X156287907Y-72742238D01*
X155430764Y-74742238D02*
X155430764Y-72742238D01*
X155430764Y-72742238D02*
X154954574Y-72742238D01*
X154954574Y-72742238D02*
X154668859Y-72837476D01*
X154668859Y-72837476D02*
X154478383Y-73027952D01*
X154478383Y-73027952D02*
X154383145Y-73218428D01*
X154383145Y-73218428D02*
X154287907Y-73599380D01*
X154287907Y-73599380D02*
X154287907Y-73885095D01*
X154287907Y-73885095D02*
X154383145Y-74266047D01*
X154383145Y-74266047D02*
X154478383Y-74456523D01*
X154478383Y-74456523D02*
X154668859Y-74647000D01*
X154668859Y-74647000D02*
X154954574Y-74742238D01*
X154954574Y-74742238D02*
X155430764Y-74742238D01*
X152002192Y-74647000D02*
X151716478Y-74742238D01*
X151716478Y-74742238D02*
X151240287Y-74742238D01*
X151240287Y-74742238D02*
X151049811Y-74647000D01*
X151049811Y-74647000D02*
X150954573Y-74551761D01*
X150954573Y-74551761D02*
X150859335Y-74361285D01*
X150859335Y-74361285D02*
X150859335Y-74170809D01*
X150859335Y-74170809D02*
X150954573Y-73980333D01*
X150954573Y-73980333D02*
X151049811Y-73885095D01*
X151049811Y-73885095D02*
X151240287Y-73789857D01*
X151240287Y-73789857D02*
X151621240Y-73694619D01*
X151621240Y-73694619D02*
X151811716Y-73599380D01*
X151811716Y-73599380D02*
X151906954Y-73504142D01*
X151906954Y-73504142D02*
X152002192Y-73313666D01*
X152002192Y-73313666D02*
X152002192Y-73123190D01*
X152002192Y-73123190D02*
X151906954Y-72932714D01*
X151906954Y-72932714D02*
X151811716Y-72837476D01*
X151811716Y-72837476D02*
X151621240Y-72742238D01*
X151621240Y-72742238D02*
X151145049Y-72742238D01*
X151145049Y-72742238D02*
X150859335Y-72837476D01*
X150287906Y-72742238D02*
X149145049Y-72742238D01*
X149716478Y-74742238D02*
X149716478Y-72742238D01*
X147335525Y-74742238D02*
X148002192Y-73789857D01*
X148478382Y-74742238D02*
X148478382Y-72742238D01*
X148478382Y-72742238D02*
X147716477Y-72742238D01*
X147716477Y-72742238D02*
X147526001Y-72837476D01*
X147526001Y-72837476D02*
X147430763Y-72932714D01*
X147430763Y-72932714D02*
X147335525Y-73123190D01*
X147335525Y-73123190D02*
X147335525Y-73408904D01*
X147335525Y-73408904D02*
X147430763Y-73599380D01*
X147430763Y-73599380D02*
X147526001Y-73694619D01*
X147526001Y-73694619D02*
X147716477Y-73789857D01*
X147716477Y-73789857D02*
X148478382Y-73789857D01*
X146478382Y-74742238D02*
X146478382Y-72742238D01*
X145526001Y-74742238D02*
X145526001Y-72742238D01*
X145526001Y-72742238D02*
X144764096Y-72742238D01*
X144764096Y-72742238D02*
X144573620Y-72837476D01*
X144573620Y-72837476D02*
X144478382Y-72932714D01*
X144478382Y-72932714D02*
X144383144Y-73123190D01*
X144383144Y-73123190D02*
X144383144Y-73408904D01*
X144383144Y-73408904D02*
X144478382Y-73599380D01*
X144478382Y-73599380D02*
X144573620Y-73694619D01*
X144573620Y-73694619D02*
X144764096Y-73789857D01*
X144764096Y-73789857D02*
X145526001Y-73789857D01*
D10*
X160033220Y-58929875D02*
X160033220Y-59739398D01*
X160033220Y-59739398D02*
X159985601Y-59834636D01*
X159985601Y-59834636D02*
X159937982Y-59882256D01*
X159937982Y-59882256D02*
X159842744Y-59929875D01*
X159842744Y-59929875D02*
X159652268Y-59929875D01*
X159652268Y-59929875D02*
X159557030Y-59882256D01*
X159557030Y-59882256D02*
X159509411Y-59834636D01*
X159509411Y-59834636D02*
X159461792Y-59739398D01*
X159461792Y-59739398D02*
X159461792Y-58929875D01*
X158842744Y-59929875D02*
X158937982Y-59882256D01*
X158937982Y-59882256D02*
X158985601Y-59787017D01*
X158985601Y-59787017D02*
X158985601Y-58929875D01*
X158604648Y-59263208D02*
X158223696Y-59263208D01*
X158461791Y-58929875D02*
X158461791Y-59787017D01*
X158461791Y-59787017D02*
X158414172Y-59882256D01*
X158414172Y-59882256D02*
X158318934Y-59929875D01*
X158318934Y-59929875D02*
X158223696Y-59929875D01*
X157890362Y-59929875D02*
X157890362Y-59263208D01*
X157890362Y-59453684D02*
X157842743Y-59358446D01*
X157842743Y-59358446D02*
X157795124Y-59310827D01*
X157795124Y-59310827D02*
X157699886Y-59263208D01*
X157699886Y-59263208D02*
X157604648Y-59263208D01*
X156842743Y-59929875D02*
X156842743Y-59406065D01*
X156842743Y-59406065D02*
X156890362Y-59310827D01*
X156890362Y-59310827D02*
X156985600Y-59263208D01*
X156985600Y-59263208D02*
X157176076Y-59263208D01*
X157176076Y-59263208D02*
X157271314Y-59310827D01*
X156842743Y-59882256D02*
X156937981Y-59929875D01*
X156937981Y-59929875D02*
X157176076Y-59929875D01*
X157176076Y-59929875D02*
X157271314Y-59882256D01*
X157271314Y-59882256D02*
X157318933Y-59787017D01*
X157318933Y-59787017D02*
X157318933Y-59691779D01*
X157318933Y-59691779D02*
X157271314Y-59596541D01*
X157271314Y-59596541D02*
X157176076Y-59548922D01*
X157176076Y-59548922D02*
X156937981Y-59548922D01*
X156937981Y-59548922D02*
X156842743Y-59501303D01*
X156414171Y-59882256D02*
X156318933Y-59929875D01*
X156318933Y-59929875D02*
X156128457Y-59929875D01*
X156128457Y-59929875D02*
X156033219Y-59882256D01*
X156033219Y-59882256D02*
X155985600Y-59787017D01*
X155985600Y-59787017D02*
X155985600Y-59739398D01*
X155985600Y-59739398D02*
X156033219Y-59644160D01*
X156033219Y-59644160D02*
X156128457Y-59596541D01*
X156128457Y-59596541D02*
X156271314Y-59596541D01*
X156271314Y-59596541D02*
X156366552Y-59548922D01*
X156366552Y-59548922D02*
X156414171Y-59453684D01*
X156414171Y-59453684D02*
X156414171Y-59406065D01*
X156414171Y-59406065D02*
X156366552Y-59310827D01*
X156366552Y-59310827D02*
X156271314Y-59263208D01*
X156271314Y-59263208D02*
X156128457Y-59263208D01*
X156128457Y-59263208D02*
X156033219Y-59310827D01*
X155414171Y-59929875D02*
X155509409Y-59882256D01*
X155509409Y-59882256D02*
X155557028Y-59834636D01*
X155557028Y-59834636D02*
X155604647Y-59739398D01*
X155604647Y-59739398D02*
X155604647Y-59453684D01*
X155604647Y-59453684D02*
X155557028Y-59358446D01*
X155557028Y-59358446D02*
X155509409Y-59310827D01*
X155509409Y-59310827D02*
X155414171Y-59263208D01*
X155414171Y-59263208D02*
X155271314Y-59263208D01*
X155271314Y-59263208D02*
X155176076Y-59310827D01*
X155176076Y-59310827D02*
X155128457Y-59358446D01*
X155128457Y-59358446D02*
X155080838Y-59453684D01*
X155080838Y-59453684D02*
X155080838Y-59739398D01*
X155080838Y-59739398D02*
X155128457Y-59834636D01*
X155128457Y-59834636D02*
X155176076Y-59882256D01*
X155176076Y-59882256D02*
X155271314Y-59929875D01*
X155271314Y-59929875D02*
X155414171Y-59929875D01*
X154652266Y-59263208D02*
X154652266Y-59929875D01*
X154652266Y-59358446D02*
X154604647Y-59310827D01*
X154604647Y-59310827D02*
X154509409Y-59263208D01*
X154509409Y-59263208D02*
X154366552Y-59263208D01*
X154366552Y-59263208D02*
X154271314Y-59310827D01*
X154271314Y-59310827D02*
X154223695Y-59406065D01*
X154223695Y-59406065D02*
X154223695Y-59929875D01*
X153747504Y-59929875D02*
X153747504Y-59263208D01*
X153747504Y-58929875D02*
X153795123Y-58977494D01*
X153795123Y-58977494D02*
X153747504Y-59025113D01*
X153747504Y-59025113D02*
X153699885Y-58977494D01*
X153699885Y-58977494D02*
X153747504Y-58929875D01*
X153747504Y-58929875D02*
X153747504Y-59025113D01*
X152842743Y-59882256D02*
X152937981Y-59929875D01*
X152937981Y-59929875D02*
X153128457Y-59929875D01*
X153128457Y-59929875D02*
X153223695Y-59882256D01*
X153223695Y-59882256D02*
X153271314Y-59834636D01*
X153271314Y-59834636D02*
X153318933Y-59739398D01*
X153318933Y-59739398D02*
X153318933Y-59453684D01*
X153318933Y-59453684D02*
X153271314Y-59358446D01*
X153271314Y-59358446D02*
X153223695Y-59310827D01*
X153223695Y-59310827D02*
X153128457Y-59263208D01*
X153128457Y-59263208D02*
X152937981Y-59263208D01*
X152937981Y-59263208D02*
X152842743Y-59310827D01*
X160080839Y-61492200D02*
X159937982Y-61539819D01*
X159937982Y-61539819D02*
X159699887Y-61539819D01*
X159699887Y-61539819D02*
X159604649Y-61492200D01*
X159604649Y-61492200D02*
X159557030Y-61444580D01*
X159557030Y-61444580D02*
X159509411Y-61349342D01*
X159509411Y-61349342D02*
X159509411Y-61254104D01*
X159509411Y-61254104D02*
X159557030Y-61158866D01*
X159557030Y-61158866D02*
X159604649Y-61111247D01*
X159604649Y-61111247D02*
X159699887Y-61063628D01*
X159699887Y-61063628D02*
X159890363Y-61016009D01*
X159890363Y-61016009D02*
X159985601Y-60968390D01*
X159985601Y-60968390D02*
X160033220Y-60920771D01*
X160033220Y-60920771D02*
X160080839Y-60825533D01*
X160080839Y-60825533D02*
X160080839Y-60730295D01*
X160080839Y-60730295D02*
X160033220Y-60635057D01*
X160033220Y-60635057D02*
X159985601Y-60587438D01*
X159985601Y-60587438D02*
X159890363Y-60539819D01*
X159890363Y-60539819D02*
X159652268Y-60539819D01*
X159652268Y-60539819D02*
X159509411Y-60587438D01*
X158699887Y-61492200D02*
X158795125Y-61539819D01*
X158795125Y-61539819D02*
X158985601Y-61539819D01*
X158985601Y-61539819D02*
X159080839Y-61492200D01*
X159080839Y-61492200D02*
X159128458Y-61396961D01*
X159128458Y-61396961D02*
X159128458Y-61016009D01*
X159128458Y-61016009D02*
X159080839Y-60920771D01*
X159080839Y-60920771D02*
X158985601Y-60873152D01*
X158985601Y-60873152D02*
X158795125Y-60873152D01*
X158795125Y-60873152D02*
X158699887Y-60920771D01*
X158699887Y-60920771D02*
X158652268Y-61016009D01*
X158652268Y-61016009D02*
X158652268Y-61111247D01*
X158652268Y-61111247D02*
X159128458Y-61206485D01*
X158223696Y-60873152D02*
X158223696Y-61539819D01*
X158223696Y-60968390D02*
X158176077Y-60920771D01*
X158176077Y-60920771D02*
X158080839Y-60873152D01*
X158080839Y-60873152D02*
X157937982Y-60873152D01*
X157937982Y-60873152D02*
X157842744Y-60920771D01*
X157842744Y-60920771D02*
X157795125Y-61016009D01*
X157795125Y-61016009D02*
X157795125Y-61539819D01*
X157366553Y-61492200D02*
X157271315Y-61539819D01*
X157271315Y-61539819D02*
X157080839Y-61539819D01*
X157080839Y-61539819D02*
X156985601Y-61492200D01*
X156985601Y-61492200D02*
X156937982Y-61396961D01*
X156937982Y-61396961D02*
X156937982Y-61349342D01*
X156937982Y-61349342D02*
X156985601Y-61254104D01*
X156985601Y-61254104D02*
X157080839Y-61206485D01*
X157080839Y-61206485D02*
X157223696Y-61206485D01*
X157223696Y-61206485D02*
X157318934Y-61158866D01*
X157318934Y-61158866D02*
X157366553Y-61063628D01*
X157366553Y-61063628D02*
X157366553Y-61016009D01*
X157366553Y-61016009D02*
X157318934Y-60920771D01*
X157318934Y-60920771D02*
X157223696Y-60873152D01*
X157223696Y-60873152D02*
X157080839Y-60873152D01*
X157080839Y-60873152D02*
X156985601Y-60920771D01*
X156366553Y-61539819D02*
X156461791Y-61492200D01*
X156461791Y-61492200D02*
X156509410Y-61444580D01*
X156509410Y-61444580D02*
X156557029Y-61349342D01*
X156557029Y-61349342D02*
X156557029Y-61063628D01*
X156557029Y-61063628D02*
X156509410Y-60968390D01*
X156509410Y-60968390D02*
X156461791Y-60920771D01*
X156461791Y-60920771D02*
X156366553Y-60873152D01*
X156366553Y-60873152D02*
X156223696Y-60873152D01*
X156223696Y-60873152D02*
X156128458Y-60920771D01*
X156128458Y-60920771D02*
X156080839Y-60968390D01*
X156080839Y-60968390D02*
X156033220Y-61063628D01*
X156033220Y-61063628D02*
X156033220Y-61349342D01*
X156033220Y-61349342D02*
X156080839Y-61444580D01*
X156080839Y-61444580D02*
X156128458Y-61492200D01*
X156128458Y-61492200D02*
X156223696Y-61539819D01*
X156223696Y-61539819D02*
X156366553Y-61539819D01*
X155604648Y-61539819D02*
X155604648Y-60873152D01*
X155604648Y-61063628D02*
X155557029Y-60968390D01*
X155557029Y-60968390D02*
X155509410Y-60920771D01*
X155509410Y-60920771D02*
X155414172Y-60873152D01*
X155414172Y-60873152D02*
X155318934Y-60873152D01*
D11*
X135359336Y-57242238D02*
X135359336Y-55242238D01*
X135359336Y-55242238D02*
X134692669Y-56670809D01*
X134692669Y-56670809D02*
X134026003Y-55242238D01*
X134026003Y-55242238D02*
X134026003Y-57242238D01*
X133073622Y-57242238D02*
X133073622Y-55242238D01*
X133073622Y-55242238D02*
X132311717Y-55242238D01*
X132311717Y-55242238D02*
X132121241Y-55337476D01*
X132121241Y-55337476D02*
X132026003Y-55432714D01*
X132026003Y-55432714D02*
X131930765Y-55623190D01*
X131930765Y-55623190D02*
X131930765Y-55908904D01*
X131930765Y-55908904D02*
X132026003Y-56099380D01*
X132026003Y-56099380D02*
X132121241Y-56194619D01*
X132121241Y-56194619D02*
X132311717Y-56289857D01*
X132311717Y-56289857D02*
X133073622Y-56289857D01*
X131073622Y-55242238D02*
X131073622Y-56861285D01*
X131073622Y-56861285D02*
X130978384Y-57051761D01*
X130978384Y-57051761D02*
X130883146Y-57147000D01*
X130883146Y-57147000D02*
X130692670Y-57242238D01*
X130692670Y-57242238D02*
X130311717Y-57242238D01*
X130311717Y-57242238D02*
X130121241Y-57147000D01*
X130121241Y-57147000D02*
X130026003Y-57051761D01*
X130026003Y-57051761D02*
X129930765Y-56861285D01*
X129930765Y-56861285D02*
X129930765Y-55242238D01*
X128121241Y-55242238D02*
X128502194Y-55242238D01*
X128502194Y-55242238D02*
X128692670Y-55337476D01*
X128692670Y-55337476D02*
X128787908Y-55432714D01*
X128787908Y-55432714D02*
X128978384Y-55718428D01*
X128978384Y-55718428D02*
X129073622Y-56099380D01*
X129073622Y-56099380D02*
X129073622Y-56861285D01*
X129073622Y-56861285D02*
X128978384Y-57051761D01*
X128978384Y-57051761D02*
X128883146Y-57147000D01*
X128883146Y-57147000D02*
X128692670Y-57242238D01*
X128692670Y-57242238D02*
X128311717Y-57242238D01*
X128311717Y-57242238D02*
X128121241Y-57147000D01*
X128121241Y-57147000D02*
X128026003Y-57051761D01*
X128026003Y-57051761D02*
X127930765Y-56861285D01*
X127930765Y-56861285D02*
X127930765Y-56385095D01*
X127930765Y-56385095D02*
X128026003Y-56194619D01*
X128026003Y-56194619D02*
X128121241Y-56099380D01*
X128121241Y-56099380D02*
X128311717Y-56004142D01*
X128311717Y-56004142D02*
X128692670Y-56004142D01*
X128692670Y-56004142D02*
X128883146Y-56099380D01*
X128883146Y-56099380D02*
X128978384Y-56194619D01*
X128978384Y-56194619D02*
X129073622Y-56385095D01*
X126692670Y-55242238D02*
X126502193Y-55242238D01*
X126502193Y-55242238D02*
X126311717Y-55337476D01*
X126311717Y-55337476D02*
X126216479Y-55432714D01*
X126216479Y-55432714D02*
X126121241Y-55623190D01*
X126121241Y-55623190D02*
X126026003Y-56004142D01*
X126026003Y-56004142D02*
X126026003Y-56480333D01*
X126026003Y-56480333D02*
X126121241Y-56861285D01*
X126121241Y-56861285D02*
X126216479Y-57051761D01*
X126216479Y-57051761D02*
X126311717Y-57147000D01*
X126311717Y-57147000D02*
X126502193Y-57242238D01*
X126502193Y-57242238D02*
X126692670Y-57242238D01*
X126692670Y-57242238D02*
X126883146Y-57147000D01*
X126883146Y-57147000D02*
X126978384Y-57051761D01*
X126978384Y-57051761D02*
X127073622Y-56861285D01*
X127073622Y-56861285D02*
X127168860Y-56480333D01*
X127168860Y-56480333D02*
X127168860Y-56004142D01*
X127168860Y-56004142D02*
X127073622Y-55623190D01*
X127073622Y-55623190D02*
X126978384Y-55432714D01*
X126978384Y-55432714D02*
X126883146Y-55337476D01*
X126883146Y-55337476D02*
X126692670Y-55242238D01*
X124216479Y-55242238D02*
X125168860Y-55242238D01*
X125168860Y-55242238D02*
X125264098Y-56194619D01*
X125264098Y-56194619D02*
X125168860Y-56099380D01*
X125168860Y-56099380D02*
X124978384Y-56004142D01*
X124978384Y-56004142D02*
X124502193Y-56004142D01*
X124502193Y-56004142D02*
X124311717Y-56099380D01*
X124311717Y-56099380D02*
X124216479Y-56194619D01*
X124216479Y-56194619D02*
X124121241Y-56385095D01*
X124121241Y-56385095D02*
X124121241Y-56861285D01*
X124121241Y-56861285D02*
X124216479Y-57051761D01*
X124216479Y-57051761D02*
X124311717Y-57147000D01*
X124311717Y-57147000D02*
X124502193Y-57242238D01*
X124502193Y-57242238D02*
X124978384Y-57242238D01*
X124978384Y-57242238D02*
X125168860Y-57147000D01*
X125168860Y-57147000D02*
X125264098Y-57051761D01*
X122883146Y-55242238D02*
X122692669Y-55242238D01*
X122692669Y-55242238D02*
X122502193Y-55337476D01*
X122502193Y-55337476D02*
X122406955Y-55432714D01*
X122406955Y-55432714D02*
X122311717Y-55623190D01*
X122311717Y-55623190D02*
X122216479Y-56004142D01*
X122216479Y-56004142D02*
X122216479Y-56480333D01*
X122216479Y-56480333D02*
X122311717Y-56861285D01*
X122311717Y-56861285D02*
X122406955Y-57051761D01*
X122406955Y-57051761D02*
X122502193Y-57147000D01*
X122502193Y-57147000D02*
X122692669Y-57242238D01*
X122692669Y-57242238D02*
X122883146Y-57242238D01*
X122883146Y-57242238D02*
X123073622Y-57147000D01*
X123073622Y-57147000D02*
X123168860Y-57051761D01*
X123168860Y-57051761D02*
X123264098Y-56861285D01*
X123264098Y-56861285D02*
X123359336Y-56480333D01*
X123359336Y-56480333D02*
X123359336Y-56004142D01*
X123359336Y-56004142D02*
X123264098Y-55623190D01*
X123264098Y-55623190D02*
X123168860Y-55432714D01*
X123168860Y-55432714D02*
X123073622Y-55337476D01*
X123073622Y-55337476D02*
X122883146Y-55242238D01*
D12*
X139240000Y-82330000D02*
X139580000Y-82330000D01*
X139140000Y-82570000D02*
X139570000Y-82570000D01*
X137620000Y-79210000D02*
X137670000Y-79360000D01*
X137550000Y-79100000D02*
X137620000Y-79210000D01*
X137440000Y-78980000D02*
X137550000Y-79100000D01*
X137290000Y-78860000D02*
X137440000Y-78980000D01*
X138940000Y-75450000D02*
X139080000Y-75420000D01*
X138850000Y-75540000D02*
X138940000Y-75450000D01*
X138760000Y-75620000D02*
X138850000Y-75540000D01*
X138710000Y-75790000D02*
X138760000Y-75620000D01*
X138700000Y-75990000D02*
X138710000Y-75790000D01*
X138760000Y-76170000D02*
X138700000Y-75990000D01*
X138870000Y-76300000D02*
X138760000Y-76170000D01*
X139010000Y-76340000D02*
X138870000Y-76300000D01*
X139160000Y-76340000D02*
X139010000Y-76340000D01*
X139280000Y-76270000D02*
X139160000Y-76340000D01*
X139370000Y-76180000D02*
X139280000Y-76270000D01*
X139410000Y-76050000D02*
X139370000Y-76180000D01*
X139420000Y-75870000D02*
X139410000Y-76050000D01*
X139380000Y-75670000D02*
X139420000Y-75870000D01*
X139320000Y-75560000D02*
X139380000Y-75670000D01*
X139210000Y-75460000D02*
X139320000Y-75560000D01*
X139080000Y-75420000D02*
X139210000Y-75460000D01*
X138890000Y-75070000D02*
X138790000Y-75100000D01*
X139010000Y-75060000D02*
X138890000Y-75070000D01*
X139170000Y-75060000D02*
X139010000Y-75060000D01*
X139340000Y-75090000D02*
X139170000Y-75060000D01*
X139470000Y-75160000D02*
X139340000Y-75090000D01*
X139580000Y-75280000D02*
X139470000Y-75160000D01*
X139700000Y-75460000D02*
X139580000Y-75280000D01*
X139750000Y-75650000D02*
X139700000Y-75460000D01*
X139750000Y-75840000D02*
X139750000Y-75650000D01*
X139750000Y-76030000D02*
X139750000Y-75840000D01*
X139720000Y-76210000D02*
X139750000Y-76030000D01*
X139640000Y-76350000D02*
X139720000Y-76210000D01*
X139510000Y-76500000D02*
X139640000Y-76350000D01*
X139380000Y-76610000D02*
X139510000Y-76500000D01*
X139250000Y-76670000D02*
X139380000Y-76610000D01*
X139120000Y-76690000D02*
X139250000Y-76670000D01*
X138930000Y-76680000D02*
X139120000Y-76690000D01*
X138800000Y-76620000D02*
X138930000Y-76680000D01*
X138680000Y-76550000D02*
X138800000Y-76620000D01*
X138560000Y-76410000D02*
X138680000Y-76550000D01*
X138470000Y-76200000D02*
X138560000Y-76410000D01*
X138450000Y-76050000D02*
X138470000Y-76200000D01*
X138440000Y-75820000D02*
X138450000Y-76050000D01*
X138460000Y-75610000D02*
X138440000Y-75820000D01*
X138500000Y-75490000D02*
X138460000Y-75610000D01*
X138550000Y-75390000D02*
X138500000Y-75490000D01*
X138620000Y-75290000D02*
X138550000Y-75390000D01*
X138700000Y-75180000D02*
X138620000Y-75290000D01*
X138790000Y-75100000D02*
X138700000Y-75180000D01*
X137490000Y-74560000D02*
X137500000Y-74510000D01*
X137700000Y-74570000D02*
X137860000Y-74630000D01*
X137560000Y-74560000D02*
X137700000Y-74570000D01*
X137340000Y-74590000D02*
X137560000Y-74560000D01*
X137480000Y-74800000D02*
X137360000Y-74820000D01*
X137610000Y-74830000D02*
X137480000Y-74800000D01*
X137710000Y-74920000D02*
X137610000Y-74830000D01*
X137770000Y-74990000D02*
X137710000Y-74920000D01*
X137810000Y-75100000D02*
X137770000Y-74990000D01*
X137830000Y-75230000D02*
X137810000Y-75100000D01*
X137840000Y-75350000D02*
X137830000Y-75230000D01*
X137830000Y-75490000D02*
X137840000Y-75350000D01*
X137790000Y-75590000D02*
X137830000Y-75490000D01*
X137750000Y-75670000D02*
X137790000Y-75590000D01*
X137680000Y-75760000D02*
X137750000Y-75670000D01*
X137580000Y-75820000D02*
X137680000Y-75760000D01*
X137470000Y-75820000D02*
X137580000Y-75820000D01*
X137380000Y-75800000D02*
X137470000Y-75820000D01*
X137310000Y-75750000D02*
X137380000Y-75800000D01*
X137240000Y-75690000D02*
X137310000Y-75750000D01*
X137180000Y-75590000D02*
X137240000Y-75690000D01*
X137160000Y-75390000D02*
X137180000Y-75590000D01*
X137170000Y-75150000D02*
X137160000Y-75390000D01*
X137250000Y-74980000D02*
X137170000Y-75150000D01*
X137360000Y-74820000D02*
X137250000Y-74980000D01*
X136990000Y-75600000D02*
X137050000Y-75730000D01*
X136950000Y-75450000D02*
X136990000Y-75600000D01*
X136950000Y-75220000D02*
X136950000Y-75450000D01*
X136980000Y-75000000D02*
X136950000Y-75220000D01*
X137090000Y-74840000D02*
X136980000Y-75000000D01*
X137170000Y-74720000D02*
X137090000Y-74840000D01*
X137340000Y-74590000D02*
X137170000Y-74720000D01*
X137810000Y-75980000D02*
X137615000Y-76010000D01*
X137990000Y-75880000D02*
X137810000Y-75980000D01*
X138100000Y-75730000D02*
X137990000Y-75880000D01*
X138160000Y-75550000D02*
X138100000Y-75730000D01*
X138190000Y-75360000D02*
X138160000Y-75550000D01*
X138180000Y-75150000D02*
X138190000Y-75360000D01*
X138100000Y-74920000D02*
X138180000Y-75150000D01*
X138010000Y-74760000D02*
X138100000Y-74920000D01*
X137860000Y-74630000D02*
X138010000Y-74760000D01*
X137850000Y-76170000D02*
X137970000Y-76360000D01*
X137700000Y-76060000D02*
X137850000Y-76170000D01*
X137530000Y-75960000D02*
X137700000Y-76060000D01*
X137390000Y-75860000D02*
X137530000Y-75960000D01*
X137050000Y-75730000D02*
X137390000Y-75860000D01*
X136850000Y-75710000D02*
X137050000Y-75730000D01*
X136570000Y-75710000D02*
X136850000Y-75710000D01*
X136340000Y-75740000D02*
X136570000Y-75710000D01*
X135770000Y-76570000D02*
X135590000Y-76500000D01*
X136000000Y-76590000D02*
X135770000Y-76570000D01*
X136250000Y-76600000D02*
X136000000Y-76590000D01*
X136430000Y-76510000D02*
X136250000Y-76600000D01*
X136530000Y-76430000D02*
X136430000Y-76510000D01*
X136580000Y-76290000D02*
X136530000Y-76430000D01*
X136590000Y-76070000D02*
X136580000Y-76290000D01*
X136490000Y-75870000D02*
X136590000Y-76070000D01*
X136340000Y-75740000D02*
X136490000Y-75870000D01*
X136170000Y-75620000D02*
X136340000Y-75740000D01*
X136010000Y-75580000D02*
X136170000Y-75620000D01*
X135750000Y-75550000D02*
X136010000Y-75580000D01*
X135560000Y-75600000D02*
X135750000Y-75550000D01*
X135380000Y-75730000D02*
X135560000Y-75600000D01*
X135330000Y-75950000D02*
X135380000Y-75730000D01*
X135370000Y-76260000D02*
X135330000Y-75950000D01*
X135590000Y-76500000D02*
X135370000Y-76260000D01*
X137050000Y-80410000D02*
X137410000Y-82440000D01*
X136990000Y-82660000D02*
X136990000Y-80390000D01*
X137420000Y-80470000D02*
X137420000Y-82660000D01*
X137950000Y-82680000D02*
X137950000Y-80700000D01*
X138350000Y-80470000D02*
X138350000Y-82670000D01*
X138970000Y-80420000D02*
X138970000Y-80340000D01*
X138530000Y-82550000D02*
X138530000Y-80370000D01*
X138980000Y-82560000D02*
X138530000Y-82550000D01*
X138970000Y-80420000D02*
X138980000Y-82560000D01*
X139900000Y-82690000D02*
X139900000Y-80320000D01*
X140340000Y-82710000D02*
X139900000Y-82690000D01*
X140340000Y-80350000D02*
X140340000Y-82710000D01*
X141390000Y-82580000D02*
X141490000Y-82660000D01*
X141350000Y-82670000D02*
X141390000Y-82580000D01*
X141200000Y-82680000D02*
X141350000Y-82670000D01*
X141220000Y-82320000D02*
X141200000Y-82680000D01*
X141710000Y-82660000D02*
X141220000Y-82320000D01*
X143060000Y-81720000D02*
X143130000Y-82020000D01*
X142950000Y-81470000D02*
X143060000Y-81720000D01*
X142880000Y-81270000D02*
X142950000Y-81470000D01*
X142820000Y-81810000D02*
X142880000Y-81270000D01*
X142750000Y-81930000D02*
X142820000Y-81810000D01*
X142640000Y-82140000D02*
X142750000Y-81930000D01*
X142490000Y-82450000D02*
X142640000Y-82140000D01*
X142460000Y-82690000D02*
X142490000Y-82450000D01*
X142240000Y-82470000D02*
X142210000Y-82680000D01*
X142330000Y-82250000D02*
X142240000Y-82470000D01*
X142510000Y-81990000D02*
X142330000Y-82250000D01*
X142670000Y-81710000D02*
X142510000Y-81990000D01*
X142740000Y-81370000D02*
X142670000Y-81710000D01*
X142760000Y-80930000D02*
X142740000Y-81370000D01*
X142920000Y-81100000D02*
X142760000Y-80930000D01*
X143070000Y-81330000D02*
X142920000Y-81100000D01*
X141670000Y-81140000D02*
X140750000Y-81140000D01*
X141030000Y-80980000D02*
X141570000Y-80970000D01*
X141470000Y-80420000D02*
X142000000Y-80430000D01*
X142270000Y-80390000D02*
X142710000Y-80380000D01*
X142170000Y-80120000D02*
X142880000Y-80110000D01*
X141920000Y-79910000D02*
X142470000Y-79910000D01*
X142810000Y-79730000D02*
X142960000Y-79670000D01*
X142590000Y-79750000D02*
X142810000Y-79730000D01*
X142390000Y-79730000D02*
X142590000Y-79750000D01*
X142230000Y-79670000D02*
X142390000Y-79730000D01*
X142020000Y-79590000D02*
X142230000Y-79670000D01*
X141860000Y-79510000D02*
X142020000Y-79590000D01*
X141620000Y-79460000D02*
X141860000Y-79510000D01*
X141500000Y-79550000D02*
X141620000Y-79460000D01*
X140580000Y-79190000D02*
X140360000Y-79070000D01*
X140850000Y-79280000D02*
X140580000Y-79190000D01*
X140970000Y-79490000D02*
X140850000Y-79280000D01*
X140990000Y-79690000D02*
X140970000Y-79490000D01*
X141380000Y-79700000D02*
X140990000Y-79690000D01*
X141500000Y-79550000D02*
X141380000Y-79700000D01*
X141640000Y-79130000D02*
X141500000Y-79550000D01*
X141700000Y-78690000D02*
X141640000Y-79130000D01*
X141670000Y-77940000D02*
X141700000Y-78690000D01*
X141650000Y-77560000D02*
X141670000Y-77940000D01*
X141560000Y-77300000D02*
X141650000Y-77560000D01*
X141500000Y-77130000D02*
X141560000Y-77300000D01*
X141280000Y-77040000D02*
X141500000Y-77130000D01*
X140030000Y-75030000D02*
X140150000Y-74830000D01*
X139970000Y-75240000D02*
X140030000Y-75030000D01*
X139970000Y-75600000D02*
X139970000Y-75240000D01*
X139990000Y-75950000D02*
X139970000Y-75600000D01*
X140020000Y-76300000D02*
X139990000Y-75950000D01*
X140030000Y-76550000D02*
X140020000Y-76300000D01*
X140130000Y-76910000D02*
X140030000Y-76550000D01*
X140330000Y-77210000D02*
X140130000Y-76910000D01*
X140600000Y-77340000D02*
X140330000Y-77210000D01*
X140810000Y-77360000D02*
X140600000Y-77340000D01*
X141060000Y-77310000D02*
X140810000Y-77360000D01*
X141280000Y-77040000D02*
X141060000Y-77310000D01*
X141250000Y-76640000D02*
X141280000Y-77040000D01*
X141150000Y-76270000D02*
X141250000Y-76640000D01*
X141010000Y-76030000D02*
X141150000Y-76270000D01*
X140800000Y-75730000D02*
X141010000Y-76030000D01*
X140560000Y-75600000D02*
X140800000Y-75730000D01*
X140400000Y-75410000D02*
X140560000Y-75600000D01*
X140210000Y-75160000D02*
X140400000Y-75410000D01*
X140150000Y-74830000D02*
X140210000Y-75160000D01*
X140420000Y-75070000D02*
X140400000Y-75410000D01*
X140450000Y-74685000D02*
X140420000Y-75070000D01*
X140680000Y-73880000D02*
X140520000Y-74185000D01*
X140820000Y-73670000D02*
X140680000Y-73880000D01*
X140850000Y-74290000D02*
X140820000Y-73670000D01*
X140910000Y-74630000D02*
X140850000Y-74290000D01*
X141140000Y-75440000D02*
X140910000Y-74630000D01*
X141490000Y-76050000D02*
X141140000Y-75440000D01*
X141950000Y-75210000D02*
X141490000Y-76050000D01*
X141990000Y-74610000D02*
X141950000Y-75210000D01*
X142010000Y-74170000D02*
X141990000Y-74610000D01*
X141990000Y-73810000D02*
X142010000Y-74170000D01*
X141830000Y-73440000D02*
X141990000Y-73810000D01*
X141730000Y-73120000D02*
X141830000Y-73440000D01*
X141980000Y-73260000D02*
X141730000Y-73120000D01*
X142300000Y-73470000D02*
X141980000Y-73260000D01*
X142610000Y-73900000D02*
X142300000Y-73470000D01*
X142870000Y-74590000D02*
X142610000Y-73900000D01*
X143070000Y-75230000D02*
X142870000Y-74590000D01*
X142860000Y-73960000D02*
X143070000Y-74460000D01*
X142590000Y-73500000D02*
X142860000Y-73960000D01*
X142280000Y-73190000D02*
X142590000Y-73500000D01*
X141910000Y-72930000D02*
X142280000Y-73190000D01*
X141450000Y-72750000D02*
X141910000Y-72930000D01*
X141590000Y-73120000D02*
X141450000Y-72750000D01*
X141770000Y-73600000D02*
X141590000Y-73120000D01*
X141840000Y-74010000D02*
X141770000Y-73600000D01*
X141800000Y-74530000D02*
X141840000Y-74010000D01*
X141670000Y-75160000D02*
X141800000Y-74530000D01*
X141450000Y-75640000D02*
X141670000Y-75160000D01*
X141290000Y-75390000D02*
X141450000Y-75640000D01*
X141190000Y-75070000D02*
X141290000Y-75390000D01*
X141000000Y-74280000D02*
X141190000Y-75070000D01*
X140930000Y-73920000D02*
X141000000Y-74280000D01*
X140910000Y-73280000D02*
X140930000Y-73920000D01*
X140720000Y-73470000D02*
X140910000Y-73280000D01*
X140550000Y-73660000D02*
X140720000Y-73470000D01*
X140470000Y-73840000D02*
X140550000Y-73660000D01*
X140370000Y-74065000D02*
X140470000Y-73840000D01*
X139220000Y-73410000D02*
X138980000Y-73400000D01*
X139400000Y-73470000D02*
X139220000Y-73410000D01*
X139600000Y-73530000D02*
X139400000Y-73470000D01*
X139790000Y-73620000D02*
X139600000Y-73530000D01*
X139960000Y-73700000D02*
X139790000Y-73620000D01*
X140120000Y-73830000D02*
X139960000Y-73700000D01*
X140270000Y-74040000D02*
X140120000Y-73830000D01*
X140380000Y-73700000D02*
X140270000Y-74040000D01*
X140410000Y-73510000D02*
X140380000Y-73700000D01*
X140430000Y-73220000D02*
X140410000Y-73510000D01*
X140360000Y-73040000D02*
X140430000Y-73220000D01*
X140260000Y-72900000D02*
X140360000Y-73040000D01*
X140060000Y-72830000D02*
X140260000Y-72900000D01*
X139840000Y-72780000D02*
X140060000Y-72830000D01*
X139620000Y-72880000D02*
X139840000Y-72780000D01*
X139410000Y-73020000D02*
X139620000Y-72880000D01*
X139220000Y-73210000D02*
X139410000Y-73020000D01*
X138980000Y-73400000D02*
X139220000Y-73210000D01*
X139840000Y-71820000D02*
X139840000Y-72780000D01*
X143070000Y-71820000D02*
X139840000Y-71820000D01*
X138980000Y-71500000D02*
X138980000Y-73400000D01*
X138980000Y-71500000D02*
X143130000Y-71500000D01*
X134780000Y-72010000D02*
X135080000Y-72910000D01*
X134250000Y-71840000D02*
X134710000Y-72890000D01*
X133690000Y-71470000D02*
X133680000Y-72400000D01*
X133840000Y-71390000D02*
X133690000Y-71470000D01*
X134230000Y-71360000D02*
X133840000Y-71390000D01*
X134680000Y-71340000D02*
X134230000Y-71360000D01*
X135120000Y-71350000D02*
X134680000Y-71340000D01*
X135370000Y-71410000D02*
X135120000Y-71350000D01*
X135430000Y-71870000D02*
X135370000Y-71410000D01*
X135450000Y-72680000D02*
X135430000Y-71870000D01*
X135450000Y-73380000D02*
X135450000Y-72680000D01*
X135410000Y-73760000D02*
X135450000Y-73380000D01*
X135270000Y-73830000D02*
X135410000Y-73760000D01*
X135030000Y-73940000D02*
X135270000Y-73830000D01*
X135030000Y-74230000D02*
X135710000Y-74220000D01*
X135350000Y-74420000D02*
X134840000Y-74410000D01*
X135730000Y-74290000D02*
X135350000Y-74420000D01*
X135760000Y-73400000D02*
X135730000Y-74290000D01*
X135740000Y-72140000D02*
X135760000Y-73400000D01*
X135690000Y-70900000D02*
X135740000Y-72140000D01*
X135550000Y-70860000D02*
X135690000Y-70900000D01*
X135110000Y-70810000D02*
X135550000Y-70860000D01*
X133250000Y-70860000D02*
X135110000Y-70810000D01*
X133280000Y-72350000D02*
X133250000Y-70860000D01*
X133330000Y-74380000D02*
X133490000Y-74370000D01*
X133180000Y-74360000D02*
X133330000Y-74380000D01*
X133580000Y-74490000D02*
X133640000Y-74580000D01*
X133480000Y-74320000D02*
X133580000Y-74490000D01*
X133380000Y-74150000D02*
X133480000Y-74320000D01*
X133240000Y-74140000D02*
X133380000Y-74150000D01*
X133070000Y-74110000D02*
X133240000Y-74140000D01*
X132980000Y-74340000D02*
X133080000Y-74600000D01*
X132880000Y-74110000D02*
X132980000Y-74340000D01*
X132840000Y-74470000D02*
X132900000Y-74610000D01*
X132770000Y-74310000D02*
X132840000Y-74470000D01*
X132670000Y-74140000D02*
X132770000Y-74310000D01*
X132600000Y-74260000D02*
X132670000Y-74140000D01*
X132540000Y-74380000D02*
X132600000Y-74260000D01*
X132470000Y-74590000D02*
X132540000Y-74380000D01*
X132430000Y-74480000D02*
X132470000Y-74590000D01*
X132360000Y-74290000D02*
X132430000Y-74480000D01*
X132260000Y-74090000D02*
X132360000Y-74290000D01*
X131920000Y-74350000D02*
X131810000Y-74320000D01*
X132050000Y-74360000D02*
X131920000Y-74350000D01*
X132190000Y-74360000D02*
X132050000Y-74360000D01*
X131930000Y-74560000D02*
X131840000Y-74550000D01*
X132030000Y-74570000D02*
X131930000Y-74560000D01*
X132140000Y-74600000D02*
X132030000Y-74570000D01*
X132260000Y-74580000D02*
X132140000Y-74600000D01*
X132250000Y-74460000D02*
X132260000Y-74580000D01*
X132190000Y-74360000D02*
X132250000Y-74460000D01*
X132150000Y-74250000D02*
X132190000Y-74360000D01*
X132090000Y-74130000D02*
X132150000Y-74250000D01*
X131960000Y-74120000D02*
X132090000Y-74130000D01*
X131830000Y-74110000D02*
X131960000Y-74120000D01*
X131680000Y-74080000D02*
X131830000Y-74110000D01*
X131560000Y-73670000D02*
X131600000Y-73600000D01*
X131450000Y-73670000D02*
X131560000Y-73670000D01*
X131330000Y-73680000D02*
X131450000Y-73670000D01*
X131220000Y-73670000D02*
X131330000Y-73680000D01*
X131160000Y-73590000D02*
X131220000Y-73670000D01*
X131220000Y-73510000D02*
X131160000Y-73590000D01*
X131330000Y-73510000D02*
X131220000Y-73510000D01*
X131460000Y-73510000D02*
X131330000Y-73510000D01*
X131550000Y-73460000D02*
X131460000Y-73510000D01*
X131550000Y-73350000D02*
X131550000Y-73460000D01*
X131460000Y-73290000D02*
X131550000Y-73350000D01*
X131330000Y-73270000D02*
X131460000Y-73290000D01*
X131190000Y-73280000D02*
X131330000Y-73270000D01*
X131770000Y-73210000D02*
X131770000Y-73710000D01*
X132730000Y-73570000D02*
X132690000Y-73660000D01*
X132510000Y-73680000D02*
X132690000Y-73660000D01*
X132350000Y-73690000D02*
X132510000Y-73680000D01*
X132280000Y-73610000D02*
X132350000Y-73690000D01*
X132310000Y-73510000D02*
X132280000Y-73610000D01*
X132500000Y-73510000D02*
X132310000Y-73510000D01*
X132640000Y-73480000D02*
X132500000Y-73510000D01*
X132640000Y-73340000D02*
X132640000Y-73480000D01*
X132490000Y-73270000D02*
X132640000Y-73340000D01*
X132290000Y-73280000D02*
X132490000Y-73270000D01*
X132860000Y-73200000D02*
X132870000Y-73720000D01*
X133490000Y-73580000D02*
X133140000Y-73570000D01*
X133100000Y-73190000D02*
X133100000Y-73720000D01*
X133450000Y-73230000D02*
X133490000Y-73750000D01*
X133860000Y-73730000D02*
X133815000Y-73150000D01*
X134100000Y-73170000D02*
X133530000Y-73130000D01*
X134290000Y-70330000D02*
X134590000Y-70350000D01*
X134100000Y-70350000D02*
X134290000Y-70330000D01*
X133880000Y-70330000D02*
X134100000Y-70350000D01*
X133640000Y-70280000D02*
X133880000Y-70330000D01*
X133500000Y-70210000D02*
X133640000Y-70280000D01*
X132910000Y-69980000D02*
X132740000Y-69900000D01*
X133110000Y-70050000D02*
X132910000Y-69980000D01*
X133390000Y-70100000D02*
X133110000Y-70050000D01*
X133620000Y-70110000D02*
X133390000Y-70100000D01*
X133910000Y-70110000D02*
X133620000Y-70110000D01*
X134130000Y-70050000D02*
X133910000Y-70110000D01*
X134310000Y-70000000D02*
X134130000Y-70050000D01*
X136930000Y-70310000D02*
X137100000Y-70270000D01*
X136700000Y-70310000D02*
X136930000Y-70310000D01*
X136440000Y-70300000D02*
X136700000Y-70310000D01*
X136120000Y-70250000D02*
X136440000Y-70300000D01*
X135900000Y-70180000D02*
X136120000Y-70250000D01*
X135240000Y-69940000D02*
X135090000Y-69830000D01*
X135470000Y-70000000D02*
X135240000Y-69940000D01*
X135720000Y-70040000D02*
X135470000Y-70000000D01*
X135960000Y-70080000D02*
X135720000Y-70040000D01*
X136250000Y-70080000D02*
X135960000Y-70080000D01*
X136550000Y-70050000D02*
X136250000Y-70080000D01*
X136780000Y-69960000D02*
X136550000Y-70050000D01*
X140970000Y-70580000D02*
X140750000Y-70540000D01*
X141270000Y-70570000D02*
X140970000Y-70580000D01*
X141560000Y-70530000D02*
X141270000Y-70570000D01*
X141810000Y-70470000D02*
X141560000Y-70530000D01*
X142120000Y-70380000D02*
X141810000Y-70470000D01*
X142370000Y-70180000D02*
X142120000Y-70380000D01*
X141920000Y-70610000D02*
X141610000Y-70640000D01*
X142150000Y-70600000D02*
X141920000Y-70610000D01*
X142430000Y-70550000D02*
X142150000Y-70600000D01*
X142690000Y-70490000D02*
X142430000Y-70550000D01*
X142800000Y-70400000D02*
X142690000Y-70490000D01*
X142970000Y-69790000D02*
X143090000Y-69790000D01*
X142740000Y-69710000D02*
X142970000Y-69790000D01*
X142520000Y-69630000D02*
X142740000Y-69710000D01*
X142320000Y-69490000D02*
X142520000Y-69630000D01*
X142110000Y-69420000D02*
X142320000Y-69490000D01*
X141900000Y-69240000D02*
X142110000Y-69420000D01*
X141770000Y-69070000D02*
X141900000Y-69240000D01*
X141660000Y-69200000D02*
X141770000Y-69070000D01*
X141410000Y-69360000D02*
X141660000Y-69200000D01*
X141140000Y-69480000D02*
X141410000Y-69360000D01*
X140750000Y-69540000D02*
X141140000Y-69480000D01*
X140390000Y-69600000D02*
X140750000Y-69540000D01*
X139590000Y-69610000D02*
X140390000Y-69600000D01*
X139230000Y-69590000D02*
X139590000Y-69610000D01*
X138980000Y-69560000D02*
X139230000Y-69590000D01*
X138750000Y-69510000D02*
X138980000Y-69560000D01*
X138500000Y-69430000D02*
X138750000Y-69510000D01*
X138320000Y-69360000D02*
X138500000Y-69430000D01*
X138200000Y-69500000D02*
X138320000Y-69360000D01*
X138070000Y-69640000D02*
X138200000Y-69500000D01*
X137810000Y-69770000D02*
X138070000Y-69640000D01*
X137430000Y-69810000D02*
X137810000Y-69770000D01*
X137070000Y-69850000D02*
X137430000Y-69810000D01*
X136710000Y-69830000D02*
X137070000Y-69850000D01*
X136330000Y-69780000D02*
X136710000Y-69830000D01*
X135950000Y-69640000D02*
X136330000Y-69780000D01*
X135560000Y-69480000D02*
X135950000Y-69640000D01*
X135330000Y-69250000D02*
X135560000Y-69480000D01*
X135120000Y-69050000D02*
X135330000Y-69250000D01*
X134950000Y-69330000D02*
X134650000Y-69610000D01*
X135120000Y-69050000D02*
X134950000Y-69330000D01*
X134210000Y-69760000D02*
X134650000Y-69610000D01*
X133680000Y-69850000D02*
X134210000Y-69760000D01*
X133320000Y-69880000D02*
X133680000Y-69850000D01*
X132860000Y-69860000D02*
X133320000Y-69880000D01*
X132370000Y-69830000D02*
X132860000Y-69860000D01*
X132300000Y-70820000D02*
X132520000Y-70820000D01*
X132090000Y-70800000D02*
X132300000Y-70820000D01*
X131850000Y-70780000D02*
X132090000Y-70800000D01*
X131680000Y-70720000D02*
X131850000Y-70780000D01*
X131600000Y-70570000D02*
X131680000Y-70720000D01*
X132070000Y-70590000D02*
X132220000Y-70590000D01*
X131850000Y-70600000D02*
X132070000Y-70590000D01*
X131600000Y-70570000D02*
X131850000Y-70600000D01*
X131310000Y-70480000D02*
X131600000Y-70570000D01*
X131100000Y-70350000D02*
X131310000Y-70480000D01*
X133020000Y-70830000D02*
X133210000Y-70600000D01*
X132890000Y-70980000D02*
X133020000Y-70830000D01*
X132650000Y-71070000D02*
X132890000Y-70980000D01*
X132130000Y-71090000D02*
X132650000Y-71070000D01*
X131770000Y-71100000D02*
X132130000Y-71090000D01*
X131520000Y-71020000D02*
X131770000Y-71100000D01*
X131260000Y-70890000D02*
X131520000Y-71020000D01*
X131000000Y-70660000D02*
X131260000Y-70890000D01*
X130740000Y-70290000D02*
X131000000Y-70660000D01*
X130630000Y-70020000D02*
X130740000Y-70290000D01*
X130720000Y-70780000D02*
X130900000Y-70610000D01*
X130480000Y-70910000D02*
X130720000Y-70780000D01*
X130150000Y-71020000D02*
X130480000Y-70910000D01*
X129710000Y-71070000D02*
X130150000Y-71020000D01*
X129290000Y-71080000D02*
X129710000Y-71070000D01*
X128900000Y-71030000D02*
X129290000Y-71080000D01*
X128380000Y-70820000D02*
X128900000Y-71030000D01*
X127990000Y-70480000D02*
X128380000Y-70820000D01*
X129820000Y-70710000D02*
X130140000Y-70640000D01*
X129560000Y-70750000D02*
X129820000Y-70710000D01*
X129220000Y-70720000D02*
X129560000Y-70750000D01*
X128980000Y-70610000D02*
X129220000Y-70720000D01*
X129690000Y-70490000D02*
X129910000Y-70390000D01*
X129260000Y-70480000D02*
X129690000Y-70490000D01*
X128620000Y-70440000D02*
X129260000Y-70480000D01*
X128260000Y-70350000D02*
X128620000Y-70440000D01*
X128130000Y-75030000D02*
X127990000Y-74480000D01*
X132280000Y-75440000D02*
X132340000Y-75210000D01*
X131720000Y-75990000D02*
X132280000Y-75440000D01*
X131250000Y-76440000D02*
X131720000Y-75990000D01*
X131020000Y-76710000D02*
X131250000Y-76440000D01*
X130920000Y-76280000D02*
X131020000Y-76710000D01*
X130810000Y-75920000D02*
X130920000Y-76280000D01*
X130720000Y-75460000D02*
X130810000Y-75920000D01*
X130560000Y-75150000D02*
X130720000Y-75460000D01*
X130370000Y-74740000D02*
X130560000Y-75150000D01*
X130140000Y-74330000D02*
X130370000Y-74740000D01*
X129960000Y-74180000D02*
X130140000Y-74330000D01*
X129870000Y-73950000D02*
X129960000Y-74180000D01*
X129800000Y-73520000D02*
X129870000Y-73950000D01*
X129730000Y-72980000D02*
X129800000Y-73520000D01*
X129750000Y-72650000D02*
X129730000Y-72980000D01*
X129780000Y-72270000D02*
X129750000Y-72650000D01*
X129830000Y-71850000D02*
X129780000Y-72270000D01*
X129920000Y-71370000D02*
X129830000Y-71850000D01*
X129640000Y-71430000D02*
X129920000Y-71370000D01*
X129480000Y-71550000D02*
X129640000Y-71430000D01*
X129250000Y-71890000D02*
X129480000Y-71550000D01*
X129050000Y-72390000D02*
X129250000Y-71890000D01*
X128960000Y-72800000D02*
X129050000Y-72390000D01*
X128950000Y-73310000D02*
X128960000Y-72800000D01*
X128970000Y-74290000D02*
X128950000Y-73310000D01*
X128850000Y-74080000D02*
X128970000Y-74290000D01*
X128730000Y-73720000D02*
X128850000Y-74080000D01*
X128520000Y-73300000D02*
X128730000Y-73720000D01*
X128280000Y-72930000D02*
X128520000Y-73300000D01*
X127960000Y-72590000D02*
X128280000Y-72930000D01*
X128300000Y-73260000D02*
X127970000Y-72930000D01*
X128560000Y-73830000D02*
X128300000Y-73260000D01*
X128800000Y-74310000D02*
X128560000Y-73830000D01*
X129150000Y-75090000D02*
X128800000Y-74310000D01*
X129160000Y-74210000D02*
X129150000Y-75090000D01*
X129150000Y-73480000D02*
X129160000Y-74210000D01*
X129190000Y-72680000D02*
X129150000Y-73480000D01*
X129350000Y-72320000D02*
X129190000Y-72680000D01*
X129520000Y-71920000D02*
X129350000Y-72320000D01*
X129760000Y-71500000D02*
X129520000Y-71920000D01*
X129720000Y-71720000D02*
X129760000Y-71500000D01*
X129650000Y-72000000D02*
X129720000Y-71720000D01*
X129590000Y-72300000D02*
X129650000Y-72000000D01*
X129550000Y-72920000D02*
X129590000Y-72300000D01*
X129610000Y-73590000D02*
X129550000Y-72920000D01*
X129730000Y-74120000D02*
X129610000Y-73590000D01*
X129860000Y-74290000D02*
X129730000Y-74120000D01*
X130130000Y-74650000D02*
X129860000Y-74290000D01*
X130490000Y-75470000D02*
X130130000Y-74650000D01*
X130650000Y-76170000D02*
X130490000Y-75470000D01*
X130940000Y-77080000D02*
X130650000Y-76170000D01*
X131340000Y-76710000D02*
X130940000Y-77080000D01*
X131790000Y-76230000D02*
X131340000Y-76710000D01*
X132300000Y-75760000D02*
X131790000Y-76230000D01*
X132580000Y-75450000D02*
X132300000Y-75760000D01*
X132630000Y-75230000D02*
X132580000Y-75450000D01*
X135410000Y-77890000D02*
X135420000Y-79970000D01*
X135380000Y-77240000D02*
X135410000Y-77890000D01*
X135330000Y-76840000D02*
X135380000Y-77240000D01*
X135180000Y-76440000D02*
X135330000Y-76840000D01*
X134540000Y-78020000D02*
X134390000Y-78130000D01*
X134690000Y-77790000D02*
X134540000Y-78020000D01*
X134840000Y-77530000D02*
X134690000Y-77790000D01*
X135010000Y-77270000D02*
X134840000Y-77530000D01*
X135100000Y-76920000D02*
X135010000Y-77270000D01*
X135180000Y-76440000D02*
X135100000Y-76920000D01*
X134390000Y-78130000D02*
X134395000Y-78365000D01*
X134350000Y-77690000D02*
X134390000Y-78130000D01*
X134320000Y-77120000D02*
X134350000Y-77690000D01*
X134220000Y-76770000D02*
X134320000Y-77120000D01*
X134040000Y-76450000D02*
X134220000Y-76770000D01*
X133870000Y-76140000D02*
X134040000Y-76450000D01*
X133570000Y-75660000D02*
X133870000Y-76140000D01*
X133320000Y-75200000D02*
X133570000Y-75660000D01*
X133770000Y-75490000D02*
X133510000Y-75160000D01*
X133980000Y-75830000D02*
X133770000Y-75490000D01*
X134310000Y-76410000D02*
X133980000Y-75830000D01*
X134520000Y-76860000D02*
X134310000Y-76410000D01*
X134560000Y-77560000D02*
X134520000Y-76860000D01*
X134700000Y-77370000D02*
X134560000Y-77560000D01*
X134830000Y-77100000D02*
X134700000Y-77370000D01*
X134910000Y-76780000D02*
X134830000Y-77100000D01*
X135000000Y-76440000D02*
X134910000Y-76780000D01*
X134970000Y-75930000D02*
X135000000Y-76440000D01*
X135170000Y-76170000D02*
X134970000Y-75930000D01*
X135370000Y-76440000D02*
X135170000Y-76170000D01*
X135520000Y-76760000D02*
X135370000Y-76440000D01*
X135620000Y-77310000D02*
X135520000Y-76760000D01*
X135620000Y-79810000D02*
X135620000Y-77310000D01*
X135620000Y-80010000D02*
X135620000Y-79810000D01*
X135700000Y-80270000D02*
X135620000Y-80010000D01*
X135680000Y-80150000D02*
X136280000Y-80150000D01*
X135700000Y-80270000D02*
X136520000Y-80270000D01*
X135730000Y-80430000D02*
X135700000Y-80270000D01*
X135790000Y-80570000D02*
X135730000Y-80430000D01*
X135900000Y-80710000D02*
X135790000Y-80570000D01*
X136010000Y-80840000D02*
X135900000Y-80710000D01*
X136180000Y-80960000D02*
X136010000Y-80840000D01*
X135800000Y-80890000D02*
X135960000Y-80950000D01*
X135630000Y-80810000D02*
X135800000Y-80890000D01*
X135450000Y-80680000D02*
X135630000Y-80810000D01*
X135260000Y-80580000D02*
X135450000Y-80680000D01*
X135060000Y-80440000D02*
X135260000Y-80580000D01*
X135280000Y-80870000D02*
X135500000Y-80950000D01*
X135070000Y-80780000D02*
X135280000Y-80870000D01*
X134720000Y-80590000D02*
X135070000Y-80780000D01*
X134550000Y-80480000D02*
X134720000Y-80590000D01*
X134290000Y-80270000D02*
X134550000Y-80480000D01*
X132790000Y-80770000D02*
X132970000Y-80795000D01*
X132560000Y-80800000D02*
X132790000Y-80770000D01*
X132340000Y-80820000D02*
X132560000Y-80800000D01*
X132150000Y-80860000D02*
X132340000Y-80820000D01*
X133740000Y-80970000D02*
X133560000Y-80932500D01*
X133880000Y-81020000D02*
X133740000Y-80970000D01*
X134000000Y-81070000D02*
X133880000Y-81020000D01*
X134120000Y-81080000D02*
X134000000Y-81070000D01*
X134280000Y-81150000D02*
X134120000Y-81080000D01*
X134390000Y-81220000D02*
X134280000Y-81150000D01*
X134592500Y-81325000D02*
X134390000Y-81220000D01*
X134640000Y-81420000D02*
X134545000Y-81230000D01*
X134580000Y-81300000D02*
X134640000Y-81420000D01*
X134510000Y-81160000D02*
X134580000Y-81300000D01*
X134380000Y-80990000D02*
X134510000Y-81160000D01*
X134270000Y-80840000D02*
X134380000Y-80990000D01*
X134120000Y-80640000D02*
X134270000Y-80840000D01*
X134010000Y-80260000D02*
X134120000Y-80640000D01*
X133960000Y-80090000D02*
X134010000Y-80260000D01*
X133950000Y-79810000D02*
X133960000Y-80090000D01*
X134100000Y-80040000D02*
X133950000Y-79810000D01*
X134290000Y-80270000D02*
X134100000Y-80040000D01*
X134010000Y-80260000D02*
X134290000Y-80270000D01*
X133510000Y-80290000D02*
X132990000Y-80090000D01*
X133570000Y-82060000D02*
X133550000Y-79805000D01*
X133430000Y-82630000D02*
X133600000Y-82690000D01*
X133320000Y-82510000D02*
X133430000Y-82630000D01*
X133900000Y-82540000D02*
X134000000Y-82690000D01*
X133650000Y-82420000D02*
X133900000Y-82540000D01*
X133370000Y-82270000D02*
X133650000Y-82420000D01*
X133010000Y-82070000D02*
X133370000Y-82270000D01*
X132760000Y-81850000D02*
X133010000Y-82070000D01*
X132480000Y-81670000D02*
X132760000Y-81850000D01*
X132280000Y-81510000D02*
X132480000Y-81670000D01*
X131990000Y-81220000D02*
X132280000Y-81510000D01*
X131870000Y-81000000D02*
X131990000Y-81220000D01*
X131720000Y-80660000D02*
X131870000Y-81000000D01*
X131710000Y-80830000D02*
X131720000Y-80660000D01*
X131680000Y-81180000D02*
X131710000Y-80830000D01*
X131730000Y-81600000D02*
X131680000Y-81180000D01*
X131770000Y-81870000D02*
X131730000Y-81600000D01*
X131820000Y-82200000D02*
X131770000Y-81870000D01*
X131820000Y-82660000D02*
X131820000Y-82200000D01*
X131600000Y-82410000D02*
X131590000Y-82750000D01*
X131590000Y-82160000D02*
X131600000Y-82410000D01*
X131560000Y-81480000D02*
X131590000Y-82160000D01*
X131560000Y-81220000D02*
X131560000Y-81480000D01*
X131590000Y-80960000D02*
X131560000Y-81220000D01*
X131610000Y-80710000D02*
X131590000Y-80960000D01*
X131620000Y-80050000D02*
X131610000Y-80710000D01*
X131670000Y-80150000D02*
X131570000Y-79950000D01*
X131900000Y-80590000D02*
X131670000Y-80150000D01*
X132180000Y-80960000D02*
X131900000Y-80590000D01*
X132350000Y-81190000D02*
X132180000Y-80960000D01*
X132720000Y-81500000D02*
X132350000Y-81190000D01*
X132970000Y-81660000D02*
X132720000Y-81500000D01*
X133290000Y-81910000D02*
X132970000Y-81660000D01*
X133570000Y-82060000D02*
X133290000Y-81910000D01*
X133830000Y-82220000D02*
X133570000Y-82060000D01*
X134120000Y-82380000D02*
X133830000Y-82220000D01*
X134430000Y-82670000D02*
X134120000Y-82380000D01*
X132970000Y-81660000D02*
X132970000Y-79930000D01*
D10*
X137470000Y-77020000D02*
X137245000Y-77150000D01*
X137560000Y-76950000D02*
X137470000Y-77020000D01*
X137670000Y-76850000D02*
X137560000Y-76950000D01*
X137540000Y-76700000D02*
X137510000Y-76530000D01*
X137670000Y-76850000D02*
X137540000Y-76700000D01*
X137800000Y-76920000D02*
X137670000Y-76850000D01*
X138040000Y-76940000D02*
X137800000Y-76920000D01*
X137120000Y-77170000D02*
X137370000Y-77130000D01*
X136830000Y-77190000D02*
X137120000Y-77170000D01*
X136480000Y-77170000D02*
X136830000Y-77190000D01*
X136260000Y-77130000D02*
X136480000Y-77170000D01*
X135990000Y-77010000D02*
X136260000Y-77130000D01*
X135810000Y-76860000D02*
X135990000Y-77010000D01*
X135650000Y-76670000D02*
X135810000Y-76860000D01*
X135590000Y-76500000D02*
X135650000Y-76670000D01*
X138720000Y-74130000D02*
X138510000Y-73960000D01*
X138860000Y-74280000D02*
X138720000Y-74130000D01*
X138980000Y-74430000D02*
X138860000Y-74280000D01*
X139160000Y-74560000D02*
X138980000Y-74430000D01*
X139330000Y-74660000D02*
X139160000Y-74560000D01*
X139540000Y-74750000D02*
X139330000Y-74660000D01*
X139820000Y-74800000D02*
X139540000Y-74750000D01*
X140150000Y-74830000D02*
X139820000Y-74800000D01*
X140360000Y-74720000D02*
X140150000Y-74830000D01*
X140540000Y-74650000D02*
X140360000Y-74720000D01*
X140610000Y-74490000D02*
X140540000Y-74650000D01*
X140570000Y-74280000D02*
X140610000Y-74490000D01*
X140470000Y-74090000D02*
X140570000Y-74280000D01*
X140270000Y-74040000D02*
X140470000Y-74090000D01*
X140080000Y-74040000D02*
X140270000Y-74040000D01*
X139820000Y-74020000D02*
X140080000Y-74040000D01*
X139650000Y-73960000D02*
X139820000Y-74020000D01*
X139490000Y-73840000D02*
X139650000Y-73960000D01*
X139330000Y-73780000D02*
X139490000Y-73840000D01*
X139200000Y-73680000D02*
X139330000Y-73780000D01*
X139060000Y-73580000D02*
X139200000Y-73680000D01*
X138980000Y-73400000D02*
X139060000Y-73580000D01*
X138790000Y-73250000D02*
X138980000Y-73400000D01*
X138610000Y-73240000D02*
X138790000Y-73250000D01*
X138490000Y-73360000D02*
X138610000Y-73240000D01*
X138460000Y-73530000D02*
X138490000Y-73360000D01*
X138460000Y-73750000D02*
X138460000Y-73530000D01*
X138510000Y-73960000D02*
X138460000Y-73750000D01*
X138250000Y-73980000D02*
X138510000Y-73960000D01*
X138040000Y-74040000D02*
X138250000Y-73980000D01*
X137850000Y-74170000D02*
X138040000Y-74040000D01*
X137700000Y-74280000D02*
X137850000Y-74170000D01*
X137550000Y-74510000D02*
X137700000Y-74280000D01*
X140550000Y-80290000D02*
X138450000Y-80310000D01*
X140880000Y-80270000D02*
X140550000Y-80290000D01*
X141000000Y-80070000D02*
X140880000Y-80270000D01*
X140990000Y-79690000D02*
X141000000Y-80070000D01*
X141070000Y-79080000D02*
X140850000Y-79280000D01*
D13*
X141060000Y-77330000D02*
X141070000Y-79080000D01*
D10*
X137320000Y-77590000D02*
X137370000Y-77130000D01*
X137280000Y-77990000D02*
X137320000Y-77590000D01*
X137280000Y-77990000D02*
X137290000Y-78860000D01*
X137140000Y-78130000D02*
X137280000Y-77990000D01*
X137050000Y-78380000D02*
X137140000Y-78130000D01*
X137030000Y-78720000D02*
X137050000Y-78380000D01*
X137030000Y-79060000D02*
X137030000Y-78720000D01*
X137540000Y-79410000D02*
X137330000Y-79340000D01*
X137670000Y-79360000D02*
X137540000Y-79410000D01*
X136720000Y-79370000D02*
X136700000Y-79740000D01*
X136830000Y-79210000D02*
X136720000Y-79370000D01*
X137010000Y-79150000D02*
X136830000Y-79210000D01*
X137220000Y-79210000D02*
X137010000Y-79150000D01*
X137330000Y-79340000D02*
X137220000Y-79210000D01*
X136800000Y-79810000D02*
X136910000Y-79940000D01*
X136700000Y-79740000D02*
X136800000Y-79810000D01*
X136630000Y-79690000D02*
X136700000Y-79740000D01*
X136480000Y-79640000D02*
X136630000Y-79690000D01*
X136320000Y-79630000D02*
X136480000Y-79640000D01*
X136230000Y-79720000D02*
X136320000Y-79630000D01*
X136230000Y-79930000D02*
X136230000Y-79720000D01*
X136280000Y-80080000D02*
X136230000Y-79930000D01*
X136390000Y-80190000D02*
X136280000Y-80080000D01*
X136520000Y-80270000D02*
X136390000Y-80190000D01*
X136680000Y-80340000D02*
X136520000Y-80270000D01*
X136840000Y-80360000D02*
X136680000Y-80340000D01*
X137010000Y-80370000D02*
X136840000Y-80360000D01*
X137130000Y-80310000D02*
X137010000Y-80370000D01*
X137200000Y-80170000D02*
X137130000Y-80310000D01*
X137210000Y-79830000D02*
X137200000Y-80170000D01*
X137210000Y-79630000D02*
X137210000Y-79830000D01*
X137260000Y-79440000D02*
X137210000Y-79630000D01*
X137330000Y-79340000D02*
X137260000Y-79440000D01*
D13*
X139300000Y-78050000D02*
X139400000Y-78360000D01*
X139230000Y-77920000D02*
X139300000Y-78050000D01*
X139100000Y-79010000D02*
X138745000Y-79195000D01*
X139240000Y-78880000D02*
X139100000Y-79010000D01*
X139350000Y-78650000D02*
X139240000Y-78880000D01*
X139430000Y-78290000D02*
X139350000Y-78650000D01*
X139440000Y-77920000D02*
X139430000Y-78290000D01*
X139760000Y-78390000D02*
X139780000Y-77850000D01*
X139720000Y-78650000D02*
X139760000Y-78390000D01*
X139640000Y-78890000D02*
X139720000Y-78650000D01*
X139530000Y-79070000D02*
X139640000Y-78890000D01*
X139420000Y-79230000D02*
X139530000Y-79070000D01*
X139240000Y-79330000D02*
X139420000Y-79230000D01*
D14*
X139020000Y-79340000D02*
X139240000Y-79329998D01*
D15*
X138840000Y-79220000D02*
X139020000Y-79340000D01*
D10*
X138650000Y-79170000D02*
X138840000Y-79220000D01*
X138390000Y-79130000D02*
X138650000Y-79170000D01*
X138150000Y-79130000D02*
X138390000Y-79130000D01*
X137950000Y-79190000D02*
X138150000Y-79130000D01*
X137760000Y-79340000D02*
X137950000Y-79190000D01*
X137710000Y-79590000D02*
X137760000Y-79340000D01*
X137690000Y-79830000D02*
X137710000Y-79590000D01*
X137690000Y-80055000D02*
X137690000Y-79830000D01*
X137780000Y-80110000D02*
X137900000Y-80210000D01*
X137600000Y-80000000D02*
X137780000Y-80110000D01*
X137400000Y-79960000D02*
X137600000Y-80000000D01*
X137280000Y-80080000D02*
X137400000Y-79960000D01*
X137350000Y-80350000D02*
X137280000Y-80080000D01*
X137530000Y-80490000D02*
X137350000Y-80350000D01*
X137770000Y-80620000D02*
X137530000Y-80490000D01*
X138080000Y-80640000D02*
X137770000Y-80620000D01*
X138290000Y-80500000D02*
X138080000Y-80640000D01*
X138360000Y-80240000D02*
X138290000Y-80500000D01*
X138450000Y-79600000D02*
X138360000Y-80240000D01*
X138650000Y-79640000D02*
X138450000Y-79600000D01*
X138970000Y-79730000D02*
X138650000Y-79640000D01*
X139280000Y-79760000D02*
X138970000Y-79730000D01*
X139660000Y-79680000D02*
X139280000Y-79760000D01*
X139970000Y-79530000D02*
X139660000Y-79680000D01*
X140160000Y-79330000D02*
X139970000Y-79530000D01*
X140360000Y-79070000D02*
X140160000Y-79330000D01*
D16*
X140560000Y-78680000D02*
X140360000Y-79070000D01*
D15*
X140610000Y-78300000D02*
X140560000Y-78680000D01*
D14*
X140610000Y-77740000D02*
X140610000Y-78300000D01*
D13*
X140600000Y-77360000D02*
X140610000Y-77740000D01*
D10*
X134220000Y-75260000D02*
X133980000Y-75020000D01*
X134430000Y-75400000D02*
X134220000Y-75260000D01*
X134630000Y-75480000D02*
X134430000Y-75400000D01*
X135030000Y-75620000D02*
X134630000Y-75480000D01*
X134880000Y-75520000D02*
X135030000Y-75620000D01*
X134710000Y-75200000D02*
X134880000Y-75520000D01*
X134590000Y-74690000D02*
X134710000Y-75200000D01*
X134740000Y-74590000D02*
X134590000Y-74690000D01*
X134840000Y-74390000D02*
X134740000Y-74590000D01*
X135010000Y-74160000D02*
X134840000Y-74390000D01*
X135030000Y-73940000D02*
X135010000Y-74160000D01*
X135050000Y-73730000D02*
X135030000Y-73940000D01*
X135000000Y-73470000D02*
X135050000Y-73730000D01*
X134880000Y-73250000D02*
X135000000Y-73470000D01*
X134760000Y-73070000D02*
X134880000Y-73250000D01*
X134580000Y-72900000D02*
X134760000Y-73070000D01*
X134320000Y-72700000D02*
X134580000Y-72900000D01*
X134030000Y-72550000D02*
X134320000Y-72700000D01*
X133490000Y-72400000D02*
X134030000Y-72550000D01*
X133280000Y-72350000D02*
X133490000Y-72400000D01*
X132960000Y-72320000D02*
X133280000Y-72350000D01*
X132720000Y-72290000D02*
X132960000Y-72320000D01*
X132450000Y-72280000D02*
X132720000Y-72290000D01*
X132180000Y-72320000D02*
X132450000Y-72280000D01*
X131990000Y-72340000D02*
X132180000Y-72320000D01*
X131790000Y-72390000D02*
X131990000Y-72340000D01*
X131540000Y-72450000D02*
X131790000Y-72390000D01*
X131350000Y-72560000D02*
X131540000Y-72450000D01*
X131170000Y-72640000D02*
X131350000Y-72560000D01*
X130970000Y-72800000D02*
X131170000Y-72640000D01*
X130760000Y-72980000D02*
X130970000Y-72800000D01*
X130590000Y-73160000D02*
X130760000Y-72980000D01*
X130470000Y-73480000D02*
X130590000Y-73160000D01*
X130460000Y-73660000D02*
X130470000Y-73480000D01*
X130450000Y-73900000D02*
X130460000Y-73660000D01*
X130550000Y-74180000D02*
X130450000Y-73900000D01*
X130810000Y-74460000D02*
X130550000Y-74180000D01*
X131060000Y-74710000D02*
X130810000Y-74460000D01*
X131280000Y-74860000D02*
X131060000Y-74710000D01*
X131550000Y-75010000D02*
X131280000Y-74860000D01*
X131920000Y-75130000D02*
X131550000Y-75010000D01*
X132340000Y-75210000D02*
X131920000Y-75130000D01*
X132630000Y-75230000D02*
X132340000Y-75210000D01*
X132970000Y-75230000D02*
X132630000Y-75230000D01*
X133320000Y-75200000D02*
X132970000Y-75230000D01*
X133700000Y-75120000D02*
X133320000Y-75200000D01*
X133980000Y-75020000D02*
X133700000Y-75120000D01*
X142860000Y-71090000D02*
X142610000Y-70940000D01*
X143100000Y-71120000D02*
X142860000Y-71090000D01*
X142690000Y-70870000D02*
X143110000Y-70710000D01*
X142360000Y-71020000D02*
X142690000Y-70870000D01*
X142050000Y-71070000D02*
X142360000Y-71020000D01*
X141690000Y-71060000D02*
X142050000Y-71070000D01*
X141300000Y-71050000D02*
X141690000Y-71060000D01*
X140920000Y-70930000D02*
X141300000Y-71050000D01*
X140640000Y-70830000D02*
X140920000Y-70930000D01*
X140430000Y-70670000D02*
X140640000Y-70830000D01*
X140180000Y-70310000D02*
X140430000Y-70670000D01*
X139910000Y-70420000D02*
X140450000Y-70200000D01*
X139470000Y-70430000D02*
X139910000Y-70420000D01*
X138970000Y-70450000D02*
X139470000Y-70430000D01*
X138530000Y-70390000D02*
X138970000Y-70450000D01*
X138220000Y-70300000D02*
X138530000Y-70390000D01*
X137940000Y-70160000D02*
X138220000Y-70300000D01*
X137820000Y-70290000D02*
X137940000Y-70160000D01*
X137690000Y-70470000D02*
X137820000Y-70290000D01*
X137440000Y-70610000D02*
X137690000Y-70470000D01*
X137140000Y-70670000D02*
X137440000Y-70610000D01*
X136850000Y-70710000D02*
X137140000Y-70670000D01*
X136240000Y-70700000D02*
X136850000Y-70710000D01*
X135970000Y-70670000D02*
X136240000Y-70700000D01*
X135670000Y-70590000D02*
X135970000Y-70670000D01*
X135370000Y-70480000D02*
X135670000Y-70590000D01*
X134900000Y-70110000D02*
X135370000Y-70480000D01*
X134650000Y-69610000D02*
X134900000Y-70110000D01*
X135120000Y-70590000D02*
X135280000Y-70510000D01*
X134820000Y-70680000D02*
X135120000Y-70590000D01*
X134360000Y-70720000D02*
X134820000Y-70680000D01*
X134000000Y-70740000D02*
X134360000Y-70720000D01*
X133610000Y-70720000D02*
X134000000Y-70740000D01*
X133210000Y-70600000D02*
X133610000Y-70720000D01*
X132780000Y-70430000D02*
X133210000Y-70600000D01*
X132550000Y-70240000D02*
X132780000Y-70430000D01*
X132390000Y-70030000D02*
X132550000Y-70240000D01*
X132220000Y-69830000D02*
X132390000Y-70030000D01*
X131660000Y-69690000D02*
X132220000Y-69830000D01*
X131320000Y-69570000D02*
X131660000Y-69690000D01*
X131060000Y-69450000D02*
X131320000Y-69570000D01*
X130740000Y-69250000D02*
X131060000Y-69450000D01*
X130560000Y-69060000D02*
X130740000Y-69250000D01*
X130440000Y-69210000D02*
X130560000Y-69060000D01*
X130280000Y-69360000D02*
X130440000Y-69210000D01*
X130110000Y-69530000D02*
X130280000Y-69360000D01*
X129750000Y-69660000D02*
X130110000Y-69530000D01*
X129280000Y-69750000D02*
X129750000Y-69660000D01*
X128680000Y-69770000D02*
X129280000Y-69750000D01*
X127980000Y-69760000D02*
X128680000Y-69770000D01*
X143140000Y-82730000D02*
X127890000Y-82720000D01*
X143130000Y-68260000D02*
X143140000Y-82730000D01*
X127900000Y-68270000D02*
X143130000Y-68260000D01*
X127890000Y-82720000D02*
X127900000Y-68270000D01*
X131340000Y-79940000D02*
X131380000Y-82710000D01*
X130910000Y-80140000D02*
X131350000Y-80230000D01*
X130920000Y-80400000D02*
X131360000Y-80500000D01*
X130920000Y-80680000D02*
X131340000Y-80760000D01*
X130880000Y-81020000D02*
X131320000Y-81030000D01*
X129780000Y-81360000D02*
X130830000Y-81360000D01*
X130850000Y-80010000D02*
X130870000Y-82410000D01*
X127980000Y-80920000D02*
X127950000Y-81260000D01*
X127980000Y-80550000D02*
X127980000Y-80920000D01*
X127970000Y-79800000D02*
X127940000Y-79940000D01*
X128000000Y-79340000D02*
X127970000Y-79800000D01*
X128130000Y-79560000D02*
X128000000Y-79340000D01*
X128250000Y-79760000D02*
X128130000Y-79560000D01*
X128580000Y-80350000D02*
X128250000Y-79760000D01*
X128750000Y-80660000D02*
X128580000Y-80350000D01*
X128930000Y-80970000D02*
X128750000Y-80660000D01*
X129080000Y-81160000D02*
X128930000Y-80970000D01*
X129270000Y-81360000D02*
X129080000Y-81160000D01*
X129500000Y-81610000D02*
X129270000Y-81360000D01*
X129670000Y-81770000D02*
X129500000Y-81610000D01*
X129830000Y-81920000D02*
X129670000Y-81770000D01*
X130040000Y-82060000D02*
X129830000Y-81920000D01*
X130190000Y-82210000D02*
X130040000Y-82060000D01*
X130390000Y-82340000D02*
X130190000Y-82210000D01*
X130600000Y-82510000D02*
X130390000Y-82340000D01*
X130790000Y-82630000D02*
X130600000Y-82510000D01*
X130820000Y-82720000D02*
X130790000Y-82630000D01*
X131020000Y-82550000D02*
X131130000Y-82720000D01*
X130870000Y-82410000D02*
X131020000Y-82550000D01*
X130660000Y-82210000D02*
X130870000Y-82410000D01*
X130480000Y-82060000D02*
X130660000Y-82210000D01*
X130270000Y-81950000D02*
X130480000Y-82060000D01*
X130020000Y-81720000D02*
X130270000Y-81950000D01*
X129640000Y-81370000D02*
X130020000Y-81720000D01*
X129090000Y-80760000D02*
X129640000Y-81370000D01*
X127900000Y-78770000D02*
X128160000Y-79270000D01*
X128160000Y-79270000D02*
X128460000Y-79660000D01*
X129090000Y-80760000D02*
X128460000Y-79660000D01*
X129070000Y-79980000D02*
X129090000Y-80760000D01*
X129650000Y-79910000D02*
X129640000Y-81370000D01*
X128160000Y-79270000D02*
X128160000Y-78340000D01*
X128680000Y-79770000D02*
X128460000Y-79660000D01*
X129030000Y-79840000D02*
X128680000Y-79770000D01*
X129650000Y-79910000D02*
X129030000Y-79840000D01*
X130990000Y-79950000D02*
X129650000Y-79910000D01*
X131340000Y-79940000D02*
X130990000Y-79950000D01*
X131800000Y-79960000D02*
X131340000Y-79940000D01*
X132170000Y-79970000D02*
X131800000Y-79960000D01*
X132440000Y-79940000D02*
X132170000Y-79970000D01*
X132770000Y-79930000D02*
X132440000Y-79940000D01*
X132970000Y-79930000D02*
X132770000Y-79930000D01*
X133180000Y-79870000D02*
X132970000Y-79930000D01*
X133430000Y-79830000D02*
X133180000Y-79870000D01*
X133670000Y-79780000D02*
X133430000Y-79830000D01*
X133990000Y-79710000D02*
X133670000Y-79780000D01*
X134240000Y-79670000D02*
X133990000Y-79710000D01*
X134430000Y-79560000D02*
X134240000Y-79670000D01*
X134610000Y-79450000D02*
X134430000Y-79560000D01*
X134610000Y-79450000D02*
X134600000Y-78540000D01*
X134290000Y-78230000D02*
X134500000Y-78500000D01*
X134090000Y-78090000D02*
X134290000Y-78230000D01*
X133880000Y-78000000D02*
X134090000Y-78090000D01*
X133700000Y-77930000D02*
X133880000Y-78000000D01*
X133400000Y-77160000D02*
X133520000Y-77070000D01*
X133300000Y-77210000D02*
X133400000Y-77160000D01*
X133180000Y-77250000D02*
X133300000Y-77210000D01*
X133070000Y-77270000D02*
X133180000Y-77250000D01*
X132950000Y-77270000D02*
X133070000Y-77270000D01*
X132860000Y-77310000D02*
X132950000Y-77270000D01*
X132720000Y-77280000D02*
X132860000Y-77310000D01*
X132610000Y-77280000D02*
X132720000Y-77280000D01*
X132470000Y-77240000D02*
X132610000Y-77280000D01*
X132350000Y-77140000D02*
X132470000Y-77240000D01*
X132290000Y-77070000D02*
X132350000Y-77140000D01*
X132090000Y-77370000D02*
X132190000Y-77310000D01*
X131970000Y-77480000D02*
X132090000Y-77370000D01*
X131990000Y-77650000D02*
X131970000Y-77480000D01*
X132080000Y-77730000D02*
X131990000Y-77650000D01*
X132160000Y-77770000D02*
X132080000Y-77730000D01*
X132110000Y-78040000D02*
X132230000Y-78190000D01*
X131920000Y-77960000D02*
X132110000Y-78040000D01*
X131670000Y-77690000D02*
X131920000Y-77960000D01*
X132190000Y-77310000D02*
X132190000Y-77070000D01*
X132190000Y-77560000D02*
X132190000Y-77310000D01*
X132230000Y-78190000D02*
X132190000Y-77560000D01*
X132310000Y-78430000D02*
X132230000Y-78190000D01*
X132560000Y-78430000D02*
X132310000Y-78430000D01*
X132840000Y-78420000D02*
X132560000Y-78430000D01*
X133100000Y-78400000D02*
X132840000Y-78420000D01*
X133440000Y-78400000D02*
X133100000Y-78400000D01*
X133500000Y-78250000D02*
X133440000Y-78400000D01*
X133560000Y-77920000D02*
X133500000Y-78250000D01*
X133590000Y-77600000D02*
X133560000Y-77920000D01*
X133570000Y-76890000D02*
X133590000Y-77600000D01*
X132200000Y-76890000D02*
X133570000Y-76890000D01*
X132190000Y-77070000D02*
X132200000Y-76890000D01*
X132090000Y-77080000D02*
X132190000Y-77070000D01*
X131930000Y-77140000D02*
X132090000Y-77080000D01*
X131800000Y-77290000D02*
X131930000Y-77140000D01*
X131730000Y-77390000D02*
X131800000Y-77290000D01*
X131700000Y-77540000D02*
X131730000Y-77390000D01*
X131670000Y-77690000D02*
X131700000Y-77540000D01*
X131310000Y-77700000D02*
X131670000Y-77690000D01*
X130810000Y-77700000D02*
X131310000Y-77700000D01*
X130310000Y-77700000D02*
X130810000Y-77700000D01*
X129850000Y-77760000D02*
X130310000Y-77700000D01*
X129380000Y-77810000D02*
X129850000Y-77760000D01*
X128970000Y-77900000D02*
X129380000Y-77810000D01*
X128460000Y-78100000D02*
X128970000Y-77900000D01*
X128160000Y-78340000D02*
X128460000Y-78100000D01*
X128350000Y-78670000D02*
X128160000Y-78340000D01*
X128790000Y-78900000D02*
X128350000Y-78670000D01*
X129410000Y-79060000D02*
X128790000Y-78900000D01*
X129940000Y-79110000D02*
X129410000Y-79060000D01*
X130420000Y-79110000D02*
X129940000Y-79110000D01*
X130990000Y-79160000D02*
X130420000Y-79110000D01*
X131390000Y-79150000D02*
X130990000Y-79160000D01*
X131850000Y-79140000D02*
X131390000Y-79150000D01*
X132240000Y-79110000D02*
X131850000Y-79140000D01*
X132650000Y-79080000D02*
X132240000Y-79110000D01*
X133200000Y-79040000D02*
X132650000Y-79080000D01*
X133540000Y-78990000D02*
X133200000Y-79040000D01*
X133880000Y-78910000D02*
X133540000Y-78990000D01*
X134190000Y-78850000D02*
X133880000Y-78910000D01*
X134430000Y-78660000D02*
X134190000Y-78850000D01*
X134500000Y-78500000D02*
X134430000Y-78660000D01*
X170039580Y-70370833D02*
X170087200Y-70323214D01*
X170087200Y-70323214D02*
X170134819Y-70180357D01*
X170134819Y-70180357D02*
X170134819Y-70085119D01*
X170134819Y-70085119D02*
X170087200Y-69942262D01*
X170087200Y-69942262D02*
X169991961Y-69847024D01*
X169991961Y-69847024D02*
X169896723Y-69799405D01*
X169896723Y-69799405D02*
X169706247Y-69751786D01*
X169706247Y-69751786D02*
X169563390Y-69751786D01*
X169563390Y-69751786D02*
X169372914Y-69799405D01*
X169372914Y-69799405D02*
X169277676Y-69847024D01*
X169277676Y-69847024D02*
X169182438Y-69942262D01*
X169182438Y-69942262D02*
X169134819Y-70085119D01*
X169134819Y-70085119D02*
X169134819Y-70180357D01*
X169134819Y-70180357D02*
X169182438Y-70323214D01*
X169182438Y-70323214D02*
X169230057Y-70370833D01*
X169134819Y-70704167D02*
X169134819Y-71370833D01*
X169134819Y-71370833D02*
X170134819Y-70942262D01*
X121624819Y-62666666D02*
X122339104Y-62666666D01*
X122339104Y-62666666D02*
X122481961Y-62619047D01*
X122481961Y-62619047D02*
X122577200Y-62523809D01*
X122577200Y-62523809D02*
X122624819Y-62380952D01*
X122624819Y-62380952D02*
X122624819Y-62285714D01*
X121624819Y-63047619D02*
X121624819Y-63666666D01*
X121624819Y-63666666D02*
X122005771Y-63333333D01*
X122005771Y-63333333D02*
X122005771Y-63476190D01*
X122005771Y-63476190D02*
X122053390Y-63571428D01*
X122053390Y-63571428D02*
X122101009Y-63619047D01*
X122101009Y-63619047D02*
X122196247Y-63666666D01*
X122196247Y-63666666D02*
X122434342Y-63666666D01*
X122434342Y-63666666D02*
X122529580Y-63619047D01*
X122529580Y-63619047D02*
X122577200Y-63571428D01*
X122577200Y-63571428D02*
X122624819Y-63476190D01*
X122624819Y-63476190D02*
X122624819Y-63190476D01*
X122624819Y-63190476D02*
X122577200Y-63095238D01*
X122577200Y-63095238D02*
X122529580Y-63047619D01*
X181329819Y-83086905D02*
X180329819Y-83086905D01*
X180806009Y-83086905D02*
X180806009Y-83658333D01*
X181329819Y-83658333D02*
X180329819Y-83658333D01*
X181282200Y-84086905D02*
X181329819Y-84229762D01*
X181329819Y-84229762D02*
X181329819Y-84467857D01*
X181329819Y-84467857D02*
X181282200Y-84563095D01*
X181282200Y-84563095D02*
X181234580Y-84610714D01*
X181234580Y-84610714D02*
X181139342Y-84658333D01*
X181139342Y-84658333D02*
X181044104Y-84658333D01*
X181044104Y-84658333D02*
X180948866Y-84610714D01*
X180948866Y-84610714D02*
X180901247Y-84563095D01*
X180901247Y-84563095D02*
X180853628Y-84467857D01*
X180853628Y-84467857D02*
X180806009Y-84277381D01*
X180806009Y-84277381D02*
X180758390Y-84182143D01*
X180758390Y-84182143D02*
X180710771Y-84134524D01*
X180710771Y-84134524D02*
X180615533Y-84086905D01*
X180615533Y-84086905D02*
X180520295Y-84086905D01*
X180520295Y-84086905D02*
X180425057Y-84134524D01*
X180425057Y-84134524D02*
X180377438Y-84182143D01*
X180377438Y-84182143D02*
X180329819Y-84277381D01*
X180329819Y-84277381D02*
X180329819Y-84515476D01*
X180329819Y-84515476D02*
X180377438Y-84658333D01*
X181329819Y-85610714D02*
X181329819Y-85039286D01*
X181329819Y-85325000D02*
X180329819Y-85325000D01*
X180329819Y-85325000D02*
X180472676Y-85229762D01*
X180472676Y-85229762D02*
X180567914Y-85134524D01*
X180567914Y-85134524D02*
X180615533Y-85039286D01*
X121549819Y-47166666D02*
X122264104Y-47166666D01*
X122264104Y-47166666D02*
X122406961Y-47119047D01*
X122406961Y-47119047D02*
X122502200Y-47023809D01*
X122502200Y-47023809D02*
X122549819Y-46880952D01*
X122549819Y-46880952D02*
X122549819Y-46785714D01*
X121549819Y-47547619D02*
X121549819Y-48214285D01*
X121549819Y-48214285D02*
X122549819Y-47785714D01*
X155744819Y-76690476D02*
X156459104Y-76690476D01*
X156459104Y-76690476D02*
X156601961Y-76642857D01*
X156601961Y-76642857D02*
X156697200Y-76547619D01*
X156697200Y-76547619D02*
X156744819Y-76404762D01*
X156744819Y-76404762D02*
X156744819Y-76309524D01*
X156744819Y-77690476D02*
X156744819Y-77119048D01*
X156744819Y-77404762D02*
X155744819Y-77404762D01*
X155744819Y-77404762D02*
X155887676Y-77309524D01*
X155887676Y-77309524D02*
X155982914Y-77214286D01*
X155982914Y-77214286D02*
X156030533Y-77119048D01*
X155744819Y-78309524D02*
X155744819Y-78404762D01*
X155744819Y-78404762D02*
X155792438Y-78500000D01*
X155792438Y-78500000D02*
X155840057Y-78547619D01*
X155840057Y-78547619D02*
X155935295Y-78595238D01*
X155935295Y-78595238D02*
X156125771Y-78642857D01*
X156125771Y-78642857D02*
X156363866Y-78642857D01*
X156363866Y-78642857D02*
X156554342Y-78595238D01*
X156554342Y-78595238D02*
X156649580Y-78547619D01*
X156649580Y-78547619D02*
X156697200Y-78500000D01*
X156697200Y-78500000D02*
X156744819Y-78404762D01*
X156744819Y-78404762D02*
X156744819Y-78309524D01*
X156744819Y-78309524D02*
X156697200Y-78214286D01*
X156697200Y-78214286D02*
X156649580Y-78166667D01*
X156649580Y-78166667D02*
X156554342Y-78119048D01*
X156554342Y-78119048D02*
X156363866Y-78071429D01*
X156363866Y-78071429D02*
X156125771Y-78071429D01*
X156125771Y-78071429D02*
X155935295Y-78119048D01*
X155935295Y-78119048D02*
X155840057Y-78166667D01*
X155840057Y-78166667D02*
X155792438Y-78214286D01*
X155792438Y-78214286D02*
X155744819Y-78309524D01*
X154333333Y-55504819D02*
X154333333Y-56219104D01*
X154333333Y-56219104D02*
X154380952Y-56361961D01*
X154380952Y-56361961D02*
X154476190Y-56457200D01*
X154476190Y-56457200D02*
X154619047Y-56504819D01*
X154619047Y-56504819D02*
X154714285Y-56504819D01*
X153809523Y-56504819D02*
X153619047Y-56504819D01*
X153619047Y-56504819D02*
X153523809Y-56457200D01*
X153523809Y-56457200D02*
X153476190Y-56409580D01*
X153476190Y-56409580D02*
X153380952Y-56266723D01*
X153380952Y-56266723D02*
X153333333Y-56076247D01*
X153333333Y-56076247D02*
X153333333Y-55695295D01*
X153333333Y-55695295D02*
X153380952Y-55600057D01*
X153380952Y-55600057D02*
X153428571Y-55552438D01*
X153428571Y-55552438D02*
X153523809Y-55504819D01*
X153523809Y-55504819D02*
X153714285Y-55504819D01*
X153714285Y-55504819D02*
X153809523Y-55552438D01*
X153809523Y-55552438D02*
X153857142Y-55600057D01*
X153857142Y-55600057D02*
X153904761Y-55695295D01*
X153904761Y-55695295D02*
X153904761Y-55933390D01*
X153904761Y-55933390D02*
X153857142Y-56028628D01*
X153857142Y-56028628D02*
X153809523Y-56076247D01*
X153809523Y-56076247D02*
X153714285Y-56123866D01*
X153714285Y-56123866D02*
X153523809Y-56123866D01*
X153523809Y-56123866D02*
X153428571Y-56076247D01*
X153428571Y-56076247D02*
X153380952Y-56028628D01*
X153380952Y-56028628D02*
X153333333Y-55933390D01*
D13*
X184042580Y-77261904D02*
X183233057Y-77261904D01*
X183233057Y-77261904D02*
X183137819Y-77214285D01*
X183137819Y-77214285D02*
X183090200Y-77166666D01*
X183090200Y-77166666D02*
X183042580Y-77071428D01*
X183042580Y-77071428D02*
X183042580Y-76880952D01*
X183042580Y-76880952D02*
X183090200Y-76785714D01*
X183090200Y-76785714D02*
X183137819Y-76738095D01*
X183137819Y-76738095D02*
X183233057Y-76690476D01*
X183233057Y-76690476D02*
X184042580Y-76690476D01*
X183947342Y-76261904D02*
X183994961Y-76214285D01*
X183994961Y-76214285D02*
X184042580Y-76119047D01*
X184042580Y-76119047D02*
X184042580Y-75880952D01*
X184042580Y-75880952D02*
X183994961Y-75785714D01*
X183994961Y-75785714D02*
X183947342Y-75738095D01*
X183947342Y-75738095D02*
X183852104Y-75690476D01*
X183852104Y-75690476D02*
X183756866Y-75690476D01*
X183756866Y-75690476D02*
X183614009Y-75738095D01*
X183614009Y-75738095D02*
X183042580Y-76309523D01*
X183042580Y-76309523D02*
X183042580Y-75690476D01*
D10*
X174119523Y-55454819D02*
X174119523Y-56169104D01*
X174119523Y-56169104D02*
X174167142Y-56311961D01*
X174167142Y-56311961D02*
X174262380Y-56407200D01*
X174262380Y-56407200D02*
X174405237Y-56454819D01*
X174405237Y-56454819D02*
X174500475Y-56454819D01*
X173119523Y-56454819D02*
X173690951Y-56454819D01*
X173405237Y-56454819D02*
X173405237Y-55454819D01*
X173405237Y-55454819D02*
X173500475Y-55597676D01*
X173500475Y-55597676D02*
X173595713Y-55692914D01*
X173595713Y-55692914D02*
X173690951Y-55740533D01*
X172167142Y-56454819D02*
X172738570Y-56454819D01*
X172452856Y-56454819D02*
X172452856Y-55454819D01*
X172452856Y-55454819D02*
X172548094Y-55597676D01*
X172548094Y-55597676D02*
X172643332Y-55692914D01*
X172643332Y-55692914D02*
X172738570Y-55740533D01*
X170039580Y-82370833D02*
X170087200Y-82323214D01*
X170087200Y-82323214D02*
X170134819Y-82180357D01*
X170134819Y-82180357D02*
X170134819Y-82085119D01*
X170134819Y-82085119D02*
X170087200Y-81942262D01*
X170087200Y-81942262D02*
X169991961Y-81847024D01*
X169991961Y-81847024D02*
X169896723Y-81799405D01*
X169896723Y-81799405D02*
X169706247Y-81751786D01*
X169706247Y-81751786D02*
X169563390Y-81751786D01*
X169563390Y-81751786D02*
X169372914Y-81799405D01*
X169372914Y-81799405D02*
X169277676Y-81847024D01*
X169277676Y-81847024D02*
X169182438Y-81942262D01*
X169182438Y-81942262D02*
X169134819Y-82085119D01*
X169134819Y-82085119D02*
X169134819Y-82180357D01*
X169134819Y-82180357D02*
X169182438Y-82323214D01*
X169182438Y-82323214D02*
X169230057Y-82370833D01*
X169563390Y-82942262D02*
X169515771Y-82847024D01*
X169515771Y-82847024D02*
X169468152Y-82799405D01*
X169468152Y-82799405D02*
X169372914Y-82751786D01*
X169372914Y-82751786D02*
X169325295Y-82751786D01*
X169325295Y-82751786D02*
X169230057Y-82799405D01*
X169230057Y-82799405D02*
X169182438Y-82847024D01*
X169182438Y-82847024D02*
X169134819Y-82942262D01*
X169134819Y-82942262D02*
X169134819Y-83132738D01*
X169134819Y-83132738D02*
X169182438Y-83227976D01*
X169182438Y-83227976D02*
X169230057Y-83275595D01*
X169230057Y-83275595D02*
X169325295Y-83323214D01*
X169325295Y-83323214D02*
X169372914Y-83323214D01*
X169372914Y-83323214D02*
X169468152Y-83275595D01*
X169468152Y-83275595D02*
X169515771Y-83227976D01*
X169515771Y-83227976D02*
X169563390Y-83132738D01*
X169563390Y-83132738D02*
X169563390Y-82942262D01*
X169563390Y-82942262D02*
X169611009Y-82847024D01*
X169611009Y-82847024D02*
X169658628Y-82799405D01*
X169658628Y-82799405D02*
X169753866Y-82751786D01*
X169753866Y-82751786D02*
X169944342Y-82751786D01*
X169944342Y-82751786D02*
X170039580Y-82799405D01*
X170039580Y-82799405D02*
X170087200Y-82847024D01*
X170087200Y-82847024D02*
X170134819Y-82942262D01*
X170134819Y-82942262D02*
X170134819Y-83132738D01*
X170134819Y-83132738D02*
X170087200Y-83227976D01*
X170087200Y-83227976D02*
X170039580Y-83275595D01*
X170039580Y-83275595D02*
X169944342Y-83323214D01*
X169944342Y-83323214D02*
X169753866Y-83323214D01*
X169753866Y-83323214D02*
X169658628Y-83275595D01*
X169658628Y-83275595D02*
X169611009Y-83227976D01*
X169611009Y-83227976D02*
X169563390Y-83132738D01*
X148544819Y-62666666D02*
X149259104Y-62666666D01*
X149259104Y-62666666D02*
X149401961Y-62619047D01*
X149401961Y-62619047D02*
X149497200Y-62523809D01*
X149497200Y-62523809D02*
X149544819Y-62380952D01*
X149544819Y-62380952D02*
X149544819Y-62285714D01*
X148878152Y-63571428D02*
X149544819Y-63571428D01*
X148497200Y-63333333D02*
X149211485Y-63095238D01*
X149211485Y-63095238D02*
X149211485Y-63714285D01*
D14*
X167265000Y-70276248D02*
X167265000Y-70798752D01*
X168735000Y-70276248D02*
X168735000Y-70798752D01*
X123170000Y-61670000D02*
X124500000Y-61670000D01*
X123170000Y-63000000D02*
X123170000Y-61670000D01*
X125770000Y-64330000D02*
X125770000Y-61670000D01*
X143610000Y-61670000D02*
X125770000Y-61670000D01*
X143610000Y-64330000D02*
X125770000Y-64330000D01*
X143610000Y-64330000D02*
X143610000Y-61670000D01*
D17*
X179000000Y-87430000D02*
X171000000Y-87430000D01*
X179000000Y-83400000D02*
X179000000Y-87430000D01*
X179000000Y-68600000D02*
X179000000Y-64570000D01*
X171000000Y-83400000D02*
X171000000Y-87430000D01*
X171000000Y-68600000D02*
X171000000Y-64570000D01*
X171000000Y-64570000D02*
X179000000Y-64570000D01*
D14*
X123095000Y-46170000D02*
X124425000Y-46170000D01*
X123095000Y-47500000D02*
X123095000Y-46170000D01*
X125695000Y-48830000D02*
X125695000Y-46170000D01*
X135915000Y-46170000D02*
X125695000Y-46170000D01*
X135915000Y-48830000D02*
X125695000Y-48830000D01*
X135915000Y-48830000D02*
X135915000Y-46170000D01*
X147550000Y-76170000D02*
X147550000Y-78830000D01*
X147550000Y-76170000D02*
X152690000Y-76170000D01*
X147550000Y-78830000D02*
X152690000Y-78830000D01*
X152690000Y-76170000D02*
X152690000Y-78830000D01*
X155290000Y-77500000D02*
X155290000Y-78830000D01*
X155290000Y-78830000D02*
X153960000Y-78830000D01*
X146020000Y-54120000D02*
X146020000Y-55120000D01*
X146320000Y-46180000D02*
X161680000Y-46180000D01*
X146320000Y-54820000D02*
X146320000Y-46180000D01*
X147020000Y-55120000D02*
X146020000Y-55120000D01*
X147300000Y-47950000D02*
X147300000Y-53250000D01*
X147300000Y-53250000D02*
X160720000Y-53250000D01*
X148050000Y-47950000D02*
X147300000Y-47950000D01*
X155650000Y-47950000D02*
X152330000Y-47950000D01*
X160720000Y-47950000D02*
X159970000Y-47950000D01*
X160720000Y-53250000D02*
X160720000Y-47950000D01*
X161680000Y-46180000D02*
X161680000Y-54820000D01*
X161680000Y-54820000D02*
X146330000Y-54820000D01*
X148050000Y-47950000D02*
G75*
G02*
X152330696Y-47950709I2140000J-2100000D01*
G01*
X155650000Y-47950000D02*
G75*
G02*
X159969492Y-47949478I2160000J-2100000D01*
G01*
X165330000Y-54070000D02*
X165330000Y-55070000D01*
X165630000Y-46130000D02*
X180990000Y-46130000D01*
X165630000Y-54770000D02*
X165630000Y-46130000D01*
X166330000Y-55070000D02*
X165330000Y-55070000D01*
X166610000Y-47900000D02*
X166610000Y-53200000D01*
X166610000Y-53200000D02*
X180030000Y-53200000D01*
X167360000Y-47900000D02*
X166610000Y-47900000D01*
X174960000Y-47900000D02*
X171640000Y-47900000D01*
X180030000Y-47900000D02*
X179280000Y-47900000D01*
X180030000Y-53200000D02*
X180030000Y-47900000D01*
X180990000Y-46130000D02*
X180990000Y-54770000D01*
X180990000Y-54770000D02*
X165640000Y-54770000D01*
X167360000Y-47900000D02*
G75*
G02*
X171640696Y-47900709I2140000J-2100000D01*
G01*
X174960000Y-47900000D02*
G75*
G02*
X179279492Y-47899478I2160000J-2100000D01*
G01*
X167265000Y-82276248D02*
X167265000Y-82798752D01*
X168735000Y-82276248D02*
X168735000Y-82798752D01*
X150090000Y-61670000D02*
X151420000Y-61670000D01*
X150090000Y-63000000D02*
X150090000Y-61670000D01*
X152690000Y-64330000D02*
X152690000Y-61670000D01*
X160370000Y-61670000D02*
X152690000Y-61670000D01*
X160370000Y-64330000D02*
X152690000Y-64330000D01*
X160370000Y-64330000D02*
X160370000Y-61670000D01*
%LPC*%
D18*
X179500000Y-82650000D02*
X170500000Y-82650000D01*
X170500000Y-81250000D01*
X179500000Y-81250000D01*
X179500000Y-82650000D01*
G36*
X179500000Y-82650000D02*
G01*
X170500000Y-82650000D01*
X170500000Y-81250000D01*
X179500000Y-81250000D01*
X179500000Y-82650000D01*
G37*
X179500000Y-80450000D02*
X170500000Y-80450000D01*
X170500000Y-71550000D01*
X179500000Y-71550000D01*
X179500000Y-80450000D01*
G36*
X179500000Y-80450000D02*
G01*
X170500000Y-80450000D01*
X170500000Y-71550000D01*
X179500000Y-71550000D01*
X179500000Y-80450000D01*
G37*
X179500000Y-70750000D02*
X170500000Y-70750000D01*
X170500000Y-69350000D01*
X179500000Y-69350000D01*
X179500000Y-70750000D01*
G36*
X179500000Y-70750000D02*
G01*
X170500000Y-70750000D01*
X170500000Y-69350000D01*
X179500000Y-69350000D01*
X179500000Y-70750000D01*
G37*
D19*
X93500000Y-117655000D03*
X93500000Y-112575000D03*
X93500000Y-110035000D03*
X93500000Y-107495000D03*
D20*
X154710000Y-107430000D03*
D21*
X157210000Y-107430000D03*
X159210000Y-107430000D03*
X161710000Y-107430000D03*
X154710000Y-104810000D03*
X157210000Y-104810000D03*
X159210000Y-104810000D03*
X161710000Y-104810000D03*
D22*
X151640000Y-110140000D03*
X164780000Y-110140000D03*
X151640000Y-104460000D03*
X164780000Y-104460000D03*
D23*
X146680000Y-115345000D03*
X139680000Y-115345000D03*
D24*
X145430000Y-117845000D03*
X140930000Y-117845000D03*
D25*
X169360000Y-114000000D03*
X169360000Y-117800000D03*
X178000000Y-114000000D03*
X178000000Y-117800000D03*
D23*
X125180000Y-115345000D03*
X118180000Y-115345000D03*
D24*
X123930000Y-117845000D03*
X119430000Y-117845000D03*
D23*
X114180000Y-115345000D03*
X107180000Y-115345000D03*
D24*
X112930000Y-117845000D03*
X108430000Y-117845000D03*
D26*
X89162000Y-58258975D03*
X89162000Y-60798975D03*
X89162000Y-63338975D03*
X89162000Y-65878975D03*
X89162000Y-68418975D03*
X89162000Y-70958975D03*
X89162000Y-73498975D03*
X89162000Y-76038975D03*
X89162000Y-78578975D03*
X89162000Y-81118975D03*
X89162000Y-83658975D03*
X89162000Y-86198975D03*
X89162000Y-88738975D03*
D27*
X89162000Y-91278975D03*
D26*
X89162000Y-93818975D03*
X114562000Y-58258975D03*
X114562000Y-60798975D03*
X114562000Y-63338975D03*
X114562000Y-65878975D03*
X114562000Y-68418975D03*
X114562000Y-70958975D03*
X114562000Y-73498975D03*
X114562000Y-76038975D03*
X114562000Y-78578975D03*
X114562000Y-81118975D03*
X114562000Y-83658975D03*
X114562000Y-86198975D03*
X114562000Y-88738975D03*
D28*
X114562000Y-91278975D03*
D26*
X114562000Y-93818975D03*
D23*
X135930000Y-115345000D03*
X128930000Y-115345000D03*
D24*
X134680000Y-117845000D03*
X130180000Y-117845000D03*
D29*
X124500000Y-69260000D03*
D30*
X124500000Y-71800000D03*
X124500000Y-74340000D03*
X124500000Y-76880000D03*
X124500000Y-79420000D03*
X124500000Y-81960000D03*
X124500000Y-84500000D03*
X124500000Y-87040000D03*
X124500000Y-89580000D03*
X124500000Y-92120000D03*
D31*
X168000000Y-71575000D03*
X168000000Y-69500000D03*
D30*
X124500000Y-63000000D03*
D29*
X127040000Y-63000000D03*
D30*
X129580000Y-63000000D03*
X132120000Y-63000000D03*
X134660000Y-63000000D03*
X137200000Y-63000000D03*
X139740000Y-63000000D03*
X142280000Y-63000000D03*
X124425000Y-47500000D03*
X126965000Y-47500000D03*
X129505000Y-47500000D03*
X132045000Y-47500000D03*
D29*
X134585000Y-47500000D03*
D30*
X153960000Y-77500000D03*
X151420000Y-77500000D03*
D29*
X148880000Y-77500000D03*
D32*
X150190000Y-50050000D03*
D33*
X157810000Y-50050000D03*
D34*
X168150000Y-74200000D03*
D35*
X175000000Y-76500000D03*
D34*
X168150000Y-78800000D03*
D32*
X169500000Y-50000000D03*
D33*
X177120000Y-50000000D03*
D31*
X168000000Y-83575000D03*
X168000000Y-81500000D03*
D29*
X151420000Y-63000000D03*
D30*
X153960000Y-63000000D03*
X156500000Y-63000000D03*
X159040000Y-63000000D03*
%LPD*%
M02*
