G04 #@! TF.GenerationSoftware,KiCad,Pcbnew,8.0.5*
G04 #@! TF.CreationDate,2024-10-13T23:25:24-04:00*
G04 #@! TF.ProjectId,table-2,7461626c-652d-4322-9e6b-696361645f70,1.2*
G04 #@! TF.SameCoordinates,Original*
G04 #@! TF.FileFunction,Soldermask,Top*
G04 #@! TF.FilePolarity,Negative*
%FSLAX46Y46*%
G04 Gerber Fmt 4.6, Leading zero omitted, Abs format (unit mm)*
G04 Created by KiCad (PCBNEW 8.0.5) date 2024-10-13 23:25:24*
%MOMM*%
%LPD*%
G01*
G04 APERTURE LIST*
G04 Aperture macros list*
%AMRoundRect*
0 Rectangle with rounded corners*
0 $1 Rounding radius*
0 $2 $3 $4 $5 $6 $7 $8 $9 X,Y pos of 4 corners*
0 Add a 4 corners polygon primitive as box body*
4,1,4,$2,$3,$4,$5,$6,$7,$8,$9,$2,$3,0*
0 Add four circle primitives for the rounded corners*
1,1,$1+$1,$2,$3*
1,1,$1+$1,$4,$5*
1,1,$1+$1,$6,$7*
1,1,$1+$1,$8,$9*
0 Add four rect primitives between the rounded corners*
20,1,$1+$1,$2,$3,$4,$5,0*
20,1,$1+$1,$4,$5,$6,$7,0*
20,1,$1+$1,$6,$7,$8,$9,0*
20,1,$1+$1,$8,$9,$2,$3,0*%
%AMOutline4P*
0 Free polygon, 4 corners , with rotation*
0 The origin of the aperture is its center*
0 number of corners: always 4*
0 $1 to $8 corner X, Y*
0 $9 Rotation angle, in degrees counterclockwise*
0 create outline with 4 corners*
4,1,4,$1,$2,$3,$4,$5,$6,$7,$8,$1,$2,$9*%
G04 Aperture macros list end*
%ADD10C,0.500000*%
%ADD11C,0.600000*%
%ADD12C,1.800000*%
%ADD13R,1.500000X1.500000*%
%ADD14C,1.500000*%
%ADD15C,3.500000*%
%ADD16RoundRect,0.250000X-0.450000X0.350000X-0.450000X-0.350000X0.450000X-0.350000X0.450000X0.350000X0*%
%ADD17C,2.200000*%
%ADD18C,1.700000*%
%ADD19RoundRect,0.175000X-0.175000X-0.425000X0.175000X-0.425000X0.175000X0.425000X-0.175000X0.425000X0*%
%ADD20RoundRect,0.190000X0.190000X0.410000X-0.190000X0.410000X-0.190000X-0.410000X0.190000X-0.410000X0*%
%ADD21RoundRect,0.200000X0.200000X0.400000X-0.200000X0.400000X-0.200000X-0.400000X0.200000X-0.400000X0*%
%ADD22RoundRect,0.175000X0.175000X0.425000X-0.175000X0.425000X-0.175000X-0.425000X0.175000X-0.425000X0*%
%ADD23RoundRect,0.190000X-0.190000X-0.410000X0.190000X-0.410000X0.190000X0.410000X-0.190000X0.410000X0*%
%ADD24RoundRect,0.200000X-0.200000X-0.400000X0.200000X-0.400000X0.200000X0.400000X-0.200000X0.400000X0*%
%ADD25O,1.100000X1.700000*%
%ADD26RoundRect,0.250000X0.450000X-0.350000X0.450000X0.350000X-0.450000X0.350000X-0.450000X-0.350000X0*%
%ADD27RoundRect,0.250000X0.350000X0.450000X-0.350000X0.450000X-0.350000X-0.450000X0.350000X-0.450000X0*%
%ADD28C,1.676400*%
%ADD29Outline4P,-0.838200X-0.838200X0.838200X-0.838200X0.838200X0.838200X-0.838200X0.838200X0.000000*%
%ADD30R,1.676400X1.676400*%
%ADD31RoundRect,0.250000X0.337500X0.475000X-0.337500X0.475000X-0.337500X-0.475000X0.337500X-0.475000X0*%
%ADD32RoundRect,0.250000X-0.475000X0.337500X-0.475000X-0.337500X0.475000X-0.337500X0.475000X0.337500X0*%
%ADD33R,1.700000X1.700000*%
%ADD34O,1.700000X1.700000*%
%ADD35R,2.540000X2.540000*%
%ADD36C,2.540000*%
G04 APERTURE END LIST*
D10*
G36*
X82840000Y-58145568D02*
G01*
X83164354Y-58145568D01*
X83234129Y-58228223D01*
X83302771Y-58308028D01*
X83370279Y-58384982D01*
X83436654Y-58459084D01*
X83512659Y-58541935D01*
X83523391Y-58553454D01*
X83595599Y-58630003D01*
X83671253Y-58707642D01*
X83747606Y-58782431D01*
X83807690Y-58837752D01*
X83884391Y-58901624D01*
X83965300Y-58959189D01*
X84024089Y-58994068D01*
X84116666Y-59032135D01*
X84213171Y-59048885D01*
X84241465Y-59049755D01*
X84338513Y-59023423D01*
X84382637Y-58982344D01*
X84424901Y-58890433D01*
X84434905Y-58796720D01*
X84424246Y-58694044D01*
X84385961Y-58598454D01*
X84379218Y-58588136D01*
X84314122Y-58509700D01*
X84246838Y-58453314D01*
X84466657Y-58140195D01*
X84544845Y-58201256D01*
X84618283Y-58276372D01*
X84676341Y-58358288D01*
X84706503Y-58416678D01*
X84741215Y-58513063D01*
X84762533Y-58609249D01*
X84774875Y-58715327D01*
X84778311Y-58816259D01*
X84773485Y-58921990D01*
X84759008Y-59018996D01*
X84729920Y-59121144D01*
X84687695Y-59211417D01*
X84641046Y-59279344D01*
X84565697Y-59353715D01*
X84476427Y-59406838D01*
X84373234Y-59438712D01*
X84271520Y-59449171D01*
X84256120Y-59449337D01*
X84156909Y-59444043D01*
X84055014Y-59425744D01*
X83961897Y-59394374D01*
X83935673Y-59382414D01*
X83841949Y-59330045D01*
X83758448Y-59270816D01*
X83676570Y-59200520D01*
X83668471Y-59192882D01*
X83593531Y-59119083D01*
X83523349Y-59045376D01*
X83449809Y-58964035D01*
X83382707Y-58886601D01*
X83312335Y-58803803D01*
X83246265Y-58725034D01*
X83194640Y-58660921D01*
X83194640Y-59511374D01*
X82840000Y-59511374D01*
X82840000Y-58145568D01*
G37*
G36*
X83914416Y-59785293D02*
G01*
X84028455Y-59793719D01*
X84134174Y-59807763D01*
X84231573Y-59827424D01*
X84341623Y-59859901D01*
X84438674Y-59901155D01*
X84522725Y-59951187D01*
X84537976Y-59962247D01*
X84619652Y-60036882D01*
X84684430Y-60125599D01*
X84732309Y-60228399D01*
X84759300Y-60324822D01*
X84774556Y-60431025D01*
X84778311Y-60523028D01*
X84772479Y-60637887D01*
X84754984Y-60742799D01*
X84725825Y-60837765D01*
X84675438Y-60938595D01*
X84608256Y-61025103D01*
X84539441Y-61086252D01*
X84440637Y-61147509D01*
X84343923Y-61188876D01*
X84234138Y-61221441D01*
X84136898Y-61241156D01*
X84031294Y-61255238D01*
X83917324Y-61263687D01*
X83794989Y-61266503D01*
X83671959Y-61263687D01*
X83557371Y-61255238D01*
X83451225Y-61241156D01*
X83353520Y-61221441D01*
X83243260Y-61188876D01*
X83146190Y-61147509D01*
X83062311Y-61097342D01*
X83047117Y-61086252D01*
X82966105Y-61011680D01*
X82901854Y-60922785D01*
X82854364Y-60819568D01*
X82827593Y-60722612D01*
X82812461Y-60615711D01*
X82808736Y-60523028D01*
X83141395Y-60523028D01*
X83156851Y-60624646D01*
X83209556Y-60715159D01*
X83289927Y-60778109D01*
X83299665Y-60783391D01*
X83402833Y-60823534D01*
X83502630Y-60845673D01*
X83601789Y-60858324D01*
X83713519Y-60865136D01*
X83794989Y-60866434D01*
X83895918Y-60864406D01*
X84005415Y-60856621D01*
X84102238Y-60842997D01*
X84199180Y-60819722D01*
X84288848Y-60783391D01*
X84371538Y-60722283D01*
X84427123Y-60633796D01*
X84445499Y-60534019D01*
X84445652Y-60523028D01*
X84430196Y-60421763D01*
X84377491Y-60331749D01*
X84297120Y-60269352D01*
X84287383Y-60264131D01*
X84184214Y-60224696D01*
X84084417Y-60202948D01*
X83985258Y-60190520D01*
X83873528Y-60183828D01*
X83792058Y-60182554D01*
X83691129Y-60184545D01*
X83581632Y-60192193D01*
X83484809Y-60205577D01*
X83387867Y-60228441D01*
X83298199Y-60264131D01*
X83215510Y-60324676D01*
X83159924Y-60412654D01*
X83141548Y-60512069D01*
X83141395Y-60523028D01*
X82808736Y-60523028D01*
X82814556Y-60409002D01*
X82832016Y-60304755D01*
X82861115Y-60210288D01*
X82911399Y-60109835D01*
X82978443Y-60023465D01*
X83047117Y-59962247D01*
X83146087Y-59901155D01*
X83242914Y-59859901D01*
X83352787Y-59827424D01*
X83450080Y-59807763D01*
X83555723Y-59793719D01*
X83669715Y-59785293D01*
X83792058Y-59782484D01*
X83914416Y-59785293D01*
G37*
G36*
X82840000Y-61539567D02*
G01*
X83164354Y-61539567D01*
X83234129Y-61622222D01*
X83302771Y-61702026D01*
X83370279Y-61778980D01*
X83436654Y-61853083D01*
X83512659Y-61935933D01*
X83523391Y-61947452D01*
X83595599Y-62024002D01*
X83671253Y-62101640D01*
X83747606Y-62176430D01*
X83807690Y-62231751D01*
X83884391Y-62295622D01*
X83965300Y-62353187D01*
X84024089Y-62388066D01*
X84116666Y-62426134D01*
X84213171Y-62442884D01*
X84241465Y-62443754D01*
X84338513Y-62417421D01*
X84382637Y-62376343D01*
X84424901Y-62284431D01*
X84434905Y-62190718D01*
X84424246Y-62088043D01*
X84385961Y-61992452D01*
X84379218Y-61982135D01*
X84314122Y-61903699D01*
X84246838Y-61847313D01*
X84466657Y-61534193D01*
X84544845Y-61595254D01*
X84618283Y-61670370D01*
X84676341Y-61752287D01*
X84706503Y-61810676D01*
X84741215Y-61907062D01*
X84762533Y-62003248D01*
X84774875Y-62109325D01*
X84778311Y-62210258D01*
X84773485Y-62315988D01*
X84759008Y-62412995D01*
X84729920Y-62515142D01*
X84687695Y-62605416D01*
X84641046Y-62673342D01*
X84565697Y-62747714D01*
X84476427Y-62800837D01*
X84373234Y-62832711D01*
X84271520Y-62843169D01*
X84256120Y-62843335D01*
X84156909Y-62838041D01*
X84055014Y-62819742D01*
X83961897Y-62788372D01*
X83935673Y-62776413D01*
X83841949Y-62724044D01*
X83758448Y-62664815D01*
X83676570Y-62594518D01*
X83668471Y-62586880D01*
X83593531Y-62513082D01*
X83523349Y-62439374D01*
X83449809Y-62358034D01*
X83382707Y-62280600D01*
X83312335Y-62197801D01*
X83246265Y-62119033D01*
X83194640Y-62054919D01*
X83194640Y-62905373D01*
X82840000Y-62905373D01*
X82840000Y-61539567D01*
G37*
G36*
X84747048Y-64054291D02*
G01*
X84747048Y-64451430D01*
X83496524Y-64451430D01*
X83496524Y-64684926D01*
X83163866Y-64684926D01*
X83163866Y-64451430D01*
X82840000Y-64451430D01*
X82840000Y-64080669D01*
X83163866Y-64080669D01*
X83496524Y-64080669D01*
X84238534Y-64080669D01*
X83496524Y-63503768D01*
X83496524Y-64080669D01*
X83163866Y-64080669D01*
X83163866Y-63125680D01*
X83520949Y-63125680D01*
X84747048Y-64054291D01*
G37*
D11*
G36*
X130587090Y-86158653D02*
G01*
X130579078Y-86318373D01*
X130549481Y-86481988D01*
X130498074Y-86621130D01*
X130412620Y-86750182D01*
X130359211Y-86802721D01*
X130229106Y-86887672D01*
X130088742Y-86942093D01*
X129923624Y-86977932D01*
X129762392Y-86993860D01*
X129644801Y-86996894D01*
X129491185Y-86987853D01*
X129352442Y-86971249D01*
X129200512Y-86945864D01*
X129056760Y-86909639D01*
X129041032Y-86904570D01*
X129218353Y-86387264D01*
X129361784Y-86433288D01*
X129429378Y-86449546D01*
X129580058Y-86476465D01*
X129657257Y-86481786D01*
X129808888Y-86467320D01*
X129877808Y-86440753D01*
X129966766Y-86321822D01*
X129974528Y-86297138D01*
X129999000Y-86143291D01*
X130003838Y-86001116D01*
X130003838Y-84089427D01*
X130587090Y-84089427D01*
X130587090Y-86158653D01*
G37*
G36*
X131755059Y-84219120D02*
G01*
X131728711Y-84365721D01*
X131680321Y-84429413D01*
X131541506Y-84482968D01*
X131453907Y-84488764D01*
X131304674Y-84469119D01*
X131223831Y-84419155D01*
X131166815Y-84280257D01*
X131163014Y-84219120D01*
X131188774Y-84070456D01*
X131228960Y-84011758D01*
X131371830Y-83953728D01*
X131453907Y-83948743D01*
X131606278Y-83967986D01*
X131684717Y-84009560D01*
X131749495Y-84142407D01*
X131755059Y-84219120D01*
G37*
G36*
X131192323Y-86950000D02*
G01*
X131192323Y-84792847D01*
X131723551Y-84792847D01*
X131723551Y-86950000D01*
X131192323Y-86950000D01*
G37*
G36*
X133280554Y-84750227D02*
G01*
X133443494Y-84766645D01*
X133608587Y-84801362D01*
X133746752Y-84852838D01*
X133857990Y-84921074D01*
X133966021Y-85036846D01*
X134032367Y-85169436D01*
X134070778Y-85329960D01*
X134081472Y-85493335D01*
X134081472Y-86950000D01*
X133593475Y-86950000D01*
X133593475Y-86715526D01*
X133473699Y-86811147D01*
X133329859Y-86897701D01*
X133181601Y-86957327D01*
X133028925Y-86990025D01*
X132917166Y-86996894D01*
X132768753Y-86988164D01*
X132619574Y-86956805D01*
X132477804Y-86894266D01*
X132374947Y-86814445D01*
X132278347Y-86690396D01*
X132217525Y-86546312D01*
X132193375Y-86399506D01*
X132191765Y-86346964D01*
X132192691Y-86335973D01*
X132739846Y-86335973D01*
X132775189Y-86478576D01*
X132821912Y-86523551D01*
X132968567Y-86570111D01*
X133040997Y-86574110D01*
X133186245Y-86549812D01*
X133276936Y-86517690D01*
X133414872Y-86449729D01*
X133541858Y-86365054D01*
X133550244Y-86358688D01*
X133550244Y-85975471D01*
X133279867Y-86000383D01*
X133131348Y-86017565D01*
X132984142Y-86050529D01*
X132866608Y-86101500D01*
X132764109Y-86214277D01*
X132739846Y-86335973D01*
X132192691Y-86335973D01*
X132204954Y-86190378D01*
X132249009Y-86045626D01*
X132285554Y-85978401D01*
X132385011Y-85862876D01*
X132508507Y-85777203D01*
X132563991Y-85749790D01*
X132709984Y-85698667D01*
X132857769Y-85665469D01*
X133010543Y-85642480D01*
X133094487Y-85633286D01*
X133550244Y-85590055D01*
X133550244Y-85491137D01*
X133526255Y-85343103D01*
X133441067Y-85237613D01*
X133296529Y-85183870D01*
X133147489Y-85169005D01*
X133121598Y-85168736D01*
X132970107Y-85182099D01*
X132824110Y-85229553D01*
X132698922Y-85319501D01*
X132639462Y-85402477D01*
X132224738Y-85136496D01*
X132314429Y-85017005D01*
X132433385Y-84918467D01*
X132566922Y-84847069D01*
X132705640Y-84798189D01*
X132859659Y-84765306D01*
X133009410Y-84749507D01*
X133129658Y-84745952D01*
X133280554Y-84750227D01*
G37*
G36*
X136917346Y-84097336D02*
G01*
X137075710Y-84121061D01*
X137218566Y-84160602D01*
X137365632Y-84226724D01*
X137491591Y-84314375D01*
X137594373Y-84425793D01*
X137671910Y-84563858D01*
X137718278Y-84703408D01*
X137746099Y-84862536D01*
X137755115Y-85010098D01*
X137755373Y-85041242D01*
X137749452Y-85195068D01*
X137726714Y-85362611D01*
X137686924Y-85511555D01*
X137618948Y-85661817D01*
X137527761Y-85786764D01*
X137512840Y-85802547D01*
X137392606Y-85899048D01*
X137243482Y-85971847D01*
X137092666Y-86015381D01*
X136920623Y-86041502D01*
X136761040Y-86049967D01*
X136727355Y-86050209D01*
X136253279Y-86050209D01*
X136253279Y-86950000D01*
X135672226Y-86950000D01*
X135672226Y-85543161D01*
X136253279Y-85543161D01*
X136489951Y-85543161D01*
X136637366Y-85540413D01*
X136786989Y-85529250D01*
X136931786Y-85499197D01*
X137057323Y-85420772D01*
X137105443Y-85351186D01*
X137146324Y-85203066D01*
X137156001Y-85044905D01*
X137140243Y-84896771D01*
X137080988Y-84761889D01*
X137022644Y-84700523D01*
X136879697Y-84631733D01*
X136721846Y-84602681D01*
X136565580Y-84594381D01*
X136544173Y-84594277D01*
X136253279Y-84594277D01*
X136253279Y-85543161D01*
X135672226Y-85543161D01*
X135672226Y-84089427D01*
X136743475Y-84089427D01*
X136917346Y-84097336D01*
G37*
G36*
X139297549Y-84754942D02*
G01*
X139447472Y-84781913D01*
X139602848Y-84836104D01*
X139737186Y-84914769D01*
X139835589Y-85001674D01*
X139930092Y-85124738D01*
X140001383Y-85270171D01*
X140044016Y-85412632D01*
X140069596Y-85571528D01*
X140078122Y-85746859D01*
X140078122Y-86004047D01*
X138641974Y-86004047D01*
X138658970Y-86149797D01*
X138703512Y-86293933D01*
X138781926Y-86408513D01*
X138908026Y-86487740D01*
X139051753Y-86523231D01*
X139177599Y-86530879D01*
X139324694Y-86521170D01*
X139452372Y-86492044D01*
X139582740Y-86419485D01*
X139659734Y-86340369D01*
X140055408Y-86622470D01*
X139957066Y-86740678D01*
X139840369Y-86836375D01*
X139718353Y-86903838D01*
X139574326Y-86952910D01*
X139419251Y-86981536D01*
X139261164Y-86994622D01*
X139152686Y-86996894D01*
X138992591Y-86990168D01*
X138845699Y-86969989D01*
X138686854Y-86928018D01*
X138547020Y-86866675D01*
X138407908Y-86770624D01*
X138356210Y-86721388D01*
X138253999Y-86587070D01*
X138186370Y-86450508D01*
X138137186Y-86294162D01*
X138110288Y-86148761D01*
X138096199Y-85989621D01*
X138093893Y-85887543D01*
X138103019Y-85683528D01*
X138109951Y-85636950D01*
X138656629Y-85636950D01*
X139550558Y-85636950D01*
X139535411Y-85477831D01*
X139479452Y-85333800D01*
X139365009Y-85224062D01*
X139220693Y-85176052D01*
X139119713Y-85168736D01*
X138969605Y-85185010D01*
X138887438Y-85214898D01*
X138771347Y-85309283D01*
X138741625Y-85351919D01*
X138685503Y-85496235D01*
X138656629Y-85636950D01*
X138109951Y-85636950D01*
X138130395Y-85499581D01*
X138176023Y-85335700D01*
X138239901Y-85191886D01*
X138322030Y-85068139D01*
X138459926Y-84934359D01*
X138630269Y-84836254D01*
X138779318Y-84786086D01*
X138946618Y-84755986D01*
X139132170Y-84745952D01*
X139297549Y-84754942D01*
G37*
G36*
X141937787Y-86950000D02*
G01*
X141937787Y-85771772D01*
X141933986Y-85618586D01*
X141918545Y-85466130D01*
X141876971Y-85325540D01*
X141758589Y-85229198D01*
X141646894Y-85213433D01*
X141489458Y-85243987D01*
X141349804Y-85312428D01*
X141217615Y-85404397D01*
X141096886Y-85507059D01*
X141076099Y-85526308D01*
X141076099Y-86950000D01*
X140544870Y-86950000D01*
X140544870Y-84792847D01*
X141076099Y-84792847D01*
X141076099Y-85087404D01*
X141195063Y-84981238D01*
X141319221Y-84894467D01*
X141436601Y-84832414D01*
X141579346Y-84779726D01*
X141731195Y-84750089D01*
X141811758Y-84745952D01*
X141967142Y-84757218D01*
X142116660Y-84796824D01*
X142251384Y-84874275D01*
X142306350Y-84926203D01*
X142392517Y-85061372D01*
X142438473Y-85202582D01*
X142461929Y-85350259D01*
X142469748Y-85520446D01*
X142469748Y-86950000D01*
X141937787Y-86950000D01*
G37*
G36*
X143992767Y-84758995D02*
G01*
X144142373Y-84798125D01*
X144185066Y-84814096D01*
X144323932Y-84882197D01*
X144449373Y-84975394D01*
X144471563Y-84996545D01*
X144541172Y-84792847D01*
X144947103Y-84792847D01*
X144947103Y-86897976D01*
X144937753Y-87051514D01*
X144903206Y-87211042D01*
X144843205Y-87349462D01*
X144743462Y-87481812D01*
X144681123Y-87537648D01*
X144549399Y-87619303D01*
X144412047Y-87673330D01*
X144252129Y-87712623D01*
X144101626Y-87734111D01*
X143935453Y-87745366D01*
X143828227Y-87747208D01*
X143679842Y-87742933D01*
X143509620Y-87726515D01*
X143347951Y-87697784D01*
X143194833Y-87656740D01*
X143050268Y-87603382D01*
X142981193Y-87572086D01*
X143137997Y-87137578D01*
X143285979Y-87194394D01*
X143435645Y-87237255D01*
X143586993Y-87266161D01*
X143740025Y-87281113D01*
X143828227Y-87283391D01*
X143980543Y-87277621D01*
X144135647Y-87254179D01*
X144278659Y-87196747D01*
X144286915Y-87191067D01*
X144379479Y-87077348D01*
X144413860Y-86933731D01*
X144415875Y-86881123D01*
X144415875Y-86708932D01*
X144295246Y-86802863D01*
X144164169Y-86873724D01*
X144022643Y-86921514D01*
X143870668Y-86946233D01*
X143779134Y-86950000D01*
X143614091Y-86936536D01*
X143465177Y-86896144D01*
X143332392Y-86828825D01*
X143215735Y-86734577D01*
X143156315Y-86668632D01*
X143068093Y-86533397D01*
X143009721Y-86398672D01*
X142967269Y-86246585D01*
X142940736Y-86077136D01*
X142930786Y-85922665D01*
X142929902Y-85857501D01*
X142930265Y-85848709D01*
X143477983Y-85848709D01*
X143485402Y-86000704D01*
X143511484Y-86146190D01*
X143568864Y-86287327D01*
X143596685Y-86328646D01*
X143704739Y-86428272D01*
X143847072Y-86478762D01*
X143904431Y-86482519D01*
X144051533Y-86465710D01*
X144196085Y-86415285D01*
X144338087Y-86331243D01*
X144415875Y-86270027D01*
X144415875Y-85392219D01*
X144289922Y-85305794D01*
X144142632Y-85242939D01*
X143987614Y-85215004D01*
X143939602Y-85213433D01*
X143792227Y-85242335D01*
X143664442Y-85329041D01*
X143612072Y-85388555D01*
X143535730Y-85521608D01*
X143493827Y-85665406D01*
X143478507Y-85813423D01*
X143477983Y-85848709D01*
X142930265Y-85848709D01*
X142936542Y-85696851D01*
X142956463Y-85546092D01*
X142994749Y-85388312D01*
X143036147Y-85274249D01*
X143103677Y-85141154D01*
X143196928Y-85014615D01*
X143309356Y-84910545D01*
X143346824Y-84883705D01*
X143483424Y-84811062D01*
X143636767Y-84765324D01*
X143789093Y-84747163D01*
X143842882Y-84745952D01*
X143992767Y-84758995D01*
G37*
G36*
X146302651Y-86950000D02*
G01*
X147256664Y-85515317D01*
X146326831Y-84089427D01*
X146988485Y-84089427D01*
X147579797Y-85053698D01*
X148192358Y-84089427D01*
X148832763Y-84089427D01*
X147897069Y-85502861D01*
X148829099Y-86950000D01*
X148175505Y-86950000D01*
X147563677Y-85962281D01*
X146943056Y-86950000D01*
X146302651Y-86950000D01*
G37*
G36*
X150386147Y-86950000D02*
G01*
X150386147Y-86654710D01*
X150272220Y-86759742D01*
X150140363Y-86849524D01*
X150042498Y-86900907D01*
X149904777Y-86955556D01*
X149758684Y-86989301D01*
X149651953Y-86996894D01*
X149502188Y-86987287D01*
X149356787Y-86952780D01*
X149226055Y-86883962D01*
X149139043Y-86796127D01*
X149061764Y-86653588D01*
X149016684Y-86496916D01*
X148996076Y-86335074D01*
X148992498Y-86223133D01*
X148992498Y-84792847D01*
X149524459Y-84792847D01*
X149524459Y-85969609D01*
X149528168Y-86124031D01*
X149543238Y-86275328D01*
X149550837Y-86315457D01*
X149610463Y-86454080D01*
X149638764Y-86481786D01*
X149782080Y-86526106D01*
X149817550Y-86527215D01*
X149974772Y-86496804D01*
X150113945Y-86428683D01*
X150245488Y-86337146D01*
X150365495Y-86234964D01*
X150386147Y-86215806D01*
X150386147Y-84792847D01*
X150917376Y-84792847D01*
X150917376Y-86950000D01*
X150386147Y-86950000D01*
G37*
G36*
X130296492Y-89133023D02*
G01*
X130466370Y-89146830D01*
X130621669Y-89170993D01*
X130784422Y-89212271D01*
X130927331Y-89267645D01*
X130946127Y-89276706D01*
X131085482Y-89360283D01*
X131205329Y-89464467D01*
X131305667Y-89589260D01*
X131386496Y-89734661D01*
X131441885Y-89880329D01*
X131483669Y-90045493D01*
X131508656Y-90202577D01*
X131523648Y-90373984D01*
X131528507Y-90527764D01*
X131528646Y-90559713D01*
X131525175Y-90716205D01*
X131514764Y-90862823D01*
X131493108Y-91025729D01*
X131461458Y-91174415D01*
X131411900Y-91329911D01*
X131386496Y-91390628D01*
X131317399Y-91519947D01*
X131221514Y-91647648D01*
X131107587Y-91753916D01*
X130975615Y-91838753D01*
X130957850Y-91847850D01*
X130821358Y-91903238D01*
X130662566Y-91945023D01*
X130508710Y-91970010D01*
X130338471Y-91985002D01*
X130184090Y-91989861D01*
X130151849Y-91990000D01*
X129282100Y-91990000D01*
X129282100Y-91458039D01*
X129865352Y-91458039D01*
X130088101Y-91458039D01*
X130249622Y-91453047D01*
X130405824Y-91435498D01*
X130560059Y-91396890D01*
X130606140Y-91378171D01*
X130731265Y-91295744D01*
X130823254Y-91178248D01*
X130854535Y-91112191D01*
X130897087Y-90962419D01*
X130918764Y-90807421D01*
X130928106Y-90645122D01*
X130929274Y-90555317D01*
X130925768Y-90400763D01*
X130913174Y-90246798D01*
X130884552Y-90088346D01*
X130856001Y-89999909D01*
X130779658Y-89869789D01*
X130659845Y-89767528D01*
X130607606Y-89740523D01*
X130467209Y-89695469D01*
X130304864Y-89670739D01*
X130151185Y-89662084D01*
X130088101Y-89661388D01*
X129865352Y-89661388D01*
X129865352Y-91458039D01*
X129282100Y-91458039D01*
X129282100Y-89129427D01*
X130143789Y-89129427D01*
X130296492Y-89133023D01*
G37*
G36*
X132552267Y-89259120D02*
G01*
X132525919Y-89405721D01*
X132477529Y-89469413D01*
X132338714Y-89522968D01*
X132251116Y-89528764D01*
X132101883Y-89509119D01*
X132021039Y-89459155D01*
X131964024Y-89320257D01*
X131960223Y-89259120D01*
X131985983Y-89110456D01*
X132026168Y-89051758D01*
X132169038Y-88993728D01*
X132251116Y-88988743D01*
X132403486Y-89007986D01*
X132481926Y-89049560D01*
X132546703Y-89182407D01*
X132552267Y-89259120D01*
G37*
G36*
X131989532Y-91990000D02*
G01*
X131989532Y-89832847D01*
X132520760Y-89832847D01*
X132520760Y-91990000D01*
X131989532Y-91990000D01*
G37*
G36*
X134209482Y-89794942D02*
G01*
X134359405Y-89821913D01*
X134514781Y-89876104D01*
X134649119Y-89954769D01*
X134747522Y-90041674D01*
X134842025Y-90164738D01*
X134913316Y-90310171D01*
X134955949Y-90452632D01*
X134981529Y-90611528D01*
X134990055Y-90786859D01*
X134990055Y-91044047D01*
X133553907Y-91044047D01*
X133570903Y-91189797D01*
X133615445Y-91333933D01*
X133693859Y-91448513D01*
X133819959Y-91527740D01*
X133963686Y-91563231D01*
X134089532Y-91570879D01*
X134236627Y-91561170D01*
X134364305Y-91532044D01*
X134494673Y-91459485D01*
X134571667Y-91380369D01*
X134967341Y-91662470D01*
X134868999Y-91780678D01*
X134752302Y-91876375D01*
X134630286Y-91943838D01*
X134486259Y-91992910D01*
X134331184Y-92021536D01*
X134173097Y-92034622D01*
X134064619Y-92036894D01*
X133904524Y-92030168D01*
X133757632Y-92009989D01*
X133598787Y-91968018D01*
X133458953Y-91906675D01*
X133319841Y-91810624D01*
X133268143Y-91761388D01*
X133165932Y-91627070D01*
X133098303Y-91490508D01*
X133049119Y-91334162D01*
X133022221Y-91188761D01*
X133008132Y-91029621D01*
X133005826Y-90927543D01*
X133014952Y-90723528D01*
X133021884Y-90676950D01*
X133568562Y-90676950D01*
X134462491Y-90676950D01*
X134447344Y-90517831D01*
X134391385Y-90373800D01*
X134276942Y-90264062D01*
X134132626Y-90216052D01*
X134031646Y-90208736D01*
X133881538Y-90225010D01*
X133799371Y-90254898D01*
X133683280Y-90349283D01*
X133653558Y-90391919D01*
X133597436Y-90536235D01*
X133568562Y-90676950D01*
X133021884Y-90676950D01*
X133042328Y-90539581D01*
X133087956Y-90375700D01*
X133151834Y-90231886D01*
X133233963Y-90108139D01*
X133371859Y-89974359D01*
X133542202Y-89876254D01*
X133691251Y-89826086D01*
X133858551Y-89795986D01*
X134044103Y-89785952D01*
X134209482Y-89794942D01*
G37*
G36*
X136410493Y-89798995D02*
G01*
X136560098Y-89838125D01*
X136602791Y-89854096D01*
X136741657Y-89922197D01*
X136867098Y-90015394D01*
X136889288Y-90036545D01*
X136958897Y-89832847D01*
X137364829Y-89832847D01*
X137364829Y-91937976D01*
X137355478Y-92091514D01*
X137320931Y-92251042D01*
X137260930Y-92389462D01*
X137161187Y-92521812D01*
X137098848Y-92577648D01*
X136967124Y-92659303D01*
X136829772Y-92713330D01*
X136669854Y-92752623D01*
X136519351Y-92774111D01*
X136353178Y-92785366D01*
X136245952Y-92787208D01*
X136097567Y-92782933D01*
X135927345Y-92766515D01*
X135765676Y-92737784D01*
X135612558Y-92696740D01*
X135467993Y-92643382D01*
X135398918Y-92612086D01*
X135555722Y-92177578D01*
X135703704Y-92234394D01*
X135853370Y-92277255D01*
X136004718Y-92306161D01*
X136157750Y-92321113D01*
X136245952Y-92323391D01*
X136398268Y-92317621D01*
X136553372Y-92294179D01*
X136696384Y-92236747D01*
X136704640Y-92231067D01*
X136797204Y-92117348D01*
X136831585Y-91973731D01*
X136833600Y-91921123D01*
X136833600Y-91748932D01*
X136712971Y-91842863D01*
X136581894Y-91913724D01*
X136440368Y-91961514D01*
X136288393Y-91986233D01*
X136196859Y-91990000D01*
X136031816Y-91976536D01*
X135882902Y-91936144D01*
X135750117Y-91868825D01*
X135633460Y-91774577D01*
X135574040Y-91708632D01*
X135485818Y-91573397D01*
X135427446Y-91438672D01*
X135384994Y-91286585D01*
X135358461Y-91117136D01*
X135348511Y-90962665D01*
X135347627Y-90897501D01*
X135347990Y-90888709D01*
X135895708Y-90888709D01*
X135903127Y-91040704D01*
X135929209Y-91186190D01*
X135986589Y-91327327D01*
X136014410Y-91368646D01*
X136122464Y-91468272D01*
X136264797Y-91518762D01*
X136322156Y-91522519D01*
X136469258Y-91505710D01*
X136613810Y-91455285D01*
X136755812Y-91371243D01*
X136833600Y-91310027D01*
X136833600Y-90432219D01*
X136707647Y-90345794D01*
X136560357Y-90282939D01*
X136405339Y-90255004D01*
X136357327Y-90253433D01*
X136209952Y-90282335D01*
X136082167Y-90369041D01*
X136029797Y-90428555D01*
X135953455Y-90561608D01*
X135911552Y-90705406D01*
X135896232Y-90853423D01*
X135895708Y-90888709D01*
X135347990Y-90888709D01*
X135354267Y-90736851D01*
X135374188Y-90586092D01*
X135412474Y-90428312D01*
X135453872Y-90314249D01*
X135521402Y-90181154D01*
X135614653Y-90054615D01*
X135727081Y-89950545D01*
X135764549Y-89923705D01*
X135901149Y-89851062D01*
X136054492Y-89805324D01*
X136206818Y-89787163D01*
X136260607Y-89785952D01*
X136410493Y-89798995D01*
G37*
G36*
X139040499Y-89793161D02*
G01*
X139186898Y-89814789D01*
X139344112Y-89859774D01*
X139481180Y-89925523D01*
X139615634Y-90028470D01*
X139664863Y-90081242D01*
X139762221Y-90221856D01*
X139826638Y-90361080D01*
X139873487Y-90517564D01*
X139902768Y-90691306D01*
X139913748Y-90849276D01*
X139914724Y-90915819D01*
X139908624Y-91076068D01*
X139890323Y-91224796D01*
X139852259Y-91388063D01*
X139796626Y-91534740D01*
X139723424Y-91664828D01*
X139664863Y-91742337D01*
X139542161Y-91857111D01*
X139415164Y-91933051D01*
X139268023Y-91988281D01*
X139100738Y-92022799D01*
X138945945Y-92035744D01*
X138880111Y-92036894D01*
X138694560Y-92027041D01*
X138527259Y-91997481D01*
X138378210Y-91948215D01*
X138247412Y-91879243D01*
X138101404Y-91756625D01*
X137987842Y-91598974D01*
X137923964Y-91457745D01*
X137878337Y-91296810D01*
X137850960Y-91116168D01*
X137841835Y-90915819D01*
X137841862Y-90915087D01*
X138389916Y-90915087D01*
X138397060Y-91072532D01*
X138422176Y-91223163D01*
X138477431Y-91369172D01*
X138504221Y-91411877D01*
X138621401Y-91514824D01*
X138772716Y-91563270D01*
X138880111Y-91570879D01*
X139027143Y-91555494D01*
X139166179Y-91496418D01*
X139250872Y-91413342D01*
X139320080Y-91269430D01*
X139353354Y-91110147D01*
X139364001Y-90956961D01*
X139364445Y-90915087D01*
X139357484Y-90753520D01*
X139333012Y-90599784D01*
X139279173Y-90452185D01*
X139253070Y-90409504D01*
X139137788Y-90306082D01*
X138987366Y-90257413D01*
X138880111Y-90249769D01*
X138732020Y-90265726D01*
X138591336Y-90327001D01*
X138504954Y-90413168D01*
X138439459Y-90546197D01*
X138403509Y-90703047D01*
X138390927Y-90853153D01*
X138389916Y-90915087D01*
X137841862Y-90915087D01*
X137847917Y-90753056D01*
X137866164Y-90602277D01*
X137904117Y-90437165D01*
X137959587Y-90289311D01*
X138032573Y-90158716D01*
X138090963Y-90081242D01*
X138214126Y-89966183D01*
X138341741Y-89890053D01*
X138489706Y-89834686D01*
X138658022Y-89800082D01*
X138813831Y-89787106D01*
X138880111Y-89785952D01*
X139040499Y-89793161D01*
G37*
G36*
X143728576Y-91530579D02*
G01*
X143631718Y-91652395D01*
X143524328Y-91756992D01*
X143406404Y-91844370D01*
X143277948Y-91914528D01*
X143136943Y-91968063D01*
X142980643Y-92006303D01*
X142831333Y-92027215D01*
X142670313Y-92036416D01*
X142622156Y-92036894D01*
X142461645Y-92031124D01*
X142311490Y-92013813D01*
X142105675Y-91966209D01*
X141923159Y-91892638D01*
X141763943Y-91793102D01*
X141628026Y-91667599D01*
X141515410Y-91516130D01*
X141426094Y-91338695D01*
X141360077Y-91135295D01*
X141329011Y-90985268D01*
X141308300Y-90823702D01*
X141297944Y-90650595D01*
X141296650Y-90559713D01*
X141301893Y-90376852D01*
X141317624Y-90206355D01*
X141343842Y-90048223D01*
X141380547Y-89902456D01*
X141441176Y-89737635D01*
X141518192Y-89592134D01*
X141611593Y-89465953D01*
X141632240Y-89443035D01*
X141744567Y-89339179D01*
X141871349Y-89252926D01*
X142012586Y-89184276D01*
X142168276Y-89133228D01*
X142338421Y-89099783D01*
X142484944Y-89085701D01*
X142600907Y-89082533D01*
X142752367Y-89087324D01*
X142915331Y-89105025D01*
X143063499Y-89135770D01*
X143214716Y-89186878D01*
X143283077Y-89218820D01*
X143421840Y-89302147D01*
X143540548Y-89398805D01*
X143639202Y-89508794D01*
X143685345Y-89575659D01*
X143233984Y-89926636D01*
X143139096Y-89805553D01*
X143052267Y-89723670D01*
X142922185Y-89649363D01*
X142864689Y-89629148D01*
X142717399Y-89602072D01*
X142613363Y-89597641D01*
X142448637Y-89611517D01*
X142304701Y-89653145D01*
X142167626Y-89733149D01*
X142079204Y-89819658D01*
X141999062Y-89948893D01*
X141947721Y-90092477D01*
X141917667Y-90238210D01*
X141900494Y-90404860D01*
X141896022Y-90559713D01*
X141902075Y-90732709D01*
X141920236Y-90888445D01*
X141956726Y-91048324D01*
X142018607Y-91202277D01*
X142068213Y-91282916D01*
X142181299Y-91398386D01*
X142326843Y-91476065D01*
X142483464Y-91513388D01*
X142617759Y-91521786D01*
X142765192Y-91513056D01*
X142913020Y-91479534D01*
X143011967Y-91432393D01*
X143130798Y-91342173D01*
X143239812Y-91229233D01*
X143269155Y-91192791D01*
X143728576Y-91530579D01*
G37*
G36*
X145218866Y-89793161D02*
G01*
X145365265Y-89814789D01*
X145522479Y-89859774D01*
X145659547Y-89925523D01*
X145794001Y-90028470D01*
X145843230Y-90081242D01*
X145940588Y-90221856D01*
X146005005Y-90361080D01*
X146051854Y-90517564D01*
X146081135Y-90691306D01*
X146092115Y-90849276D01*
X146093091Y-90915819D01*
X146086991Y-91076068D01*
X146068690Y-91224796D01*
X146030626Y-91388063D01*
X145974993Y-91534740D01*
X145901792Y-91664828D01*
X145843230Y-91742337D01*
X145720528Y-91857111D01*
X145593531Y-91933051D01*
X145446390Y-91988281D01*
X145279105Y-92022799D01*
X145124312Y-92035744D01*
X145058478Y-92036894D01*
X144872927Y-92027041D01*
X144705626Y-91997481D01*
X144556577Y-91948215D01*
X144425779Y-91879243D01*
X144279771Y-91756625D01*
X144166209Y-91598974D01*
X144102331Y-91457745D01*
X144056704Y-91296810D01*
X144029327Y-91116168D01*
X144020202Y-90915819D01*
X144020229Y-90915087D01*
X144568283Y-90915087D01*
X144575427Y-91072532D01*
X144600543Y-91223163D01*
X144655798Y-91369172D01*
X144682588Y-91411877D01*
X144799769Y-91514824D01*
X144951083Y-91563270D01*
X145058478Y-91570879D01*
X145205511Y-91555494D01*
X145344546Y-91496418D01*
X145429239Y-91413342D01*
X145498447Y-91269430D01*
X145531721Y-91110147D01*
X145542368Y-90956961D01*
X145542812Y-90915087D01*
X145535851Y-90753520D01*
X145511379Y-90599784D01*
X145457540Y-90452185D01*
X145431437Y-90409504D01*
X145316155Y-90306082D01*
X145165734Y-90257413D01*
X145058478Y-90249769D01*
X144910387Y-90265726D01*
X144769703Y-90327001D01*
X144683321Y-90413168D01*
X144617826Y-90546197D01*
X144581876Y-90703047D01*
X144569294Y-90853153D01*
X144568283Y-90915087D01*
X144020229Y-90915087D01*
X144026284Y-90753056D01*
X144044531Y-90602277D01*
X144082484Y-90437165D01*
X144137954Y-90289311D01*
X144210940Y-90158716D01*
X144269330Y-90081242D01*
X144392493Y-89966183D01*
X144520108Y-89890053D01*
X144668073Y-89834686D01*
X144836389Y-89800082D01*
X144992198Y-89787106D01*
X145058478Y-89785952D01*
X145218866Y-89793161D01*
G37*
G36*
X147872156Y-90348688D02*
G01*
X147725879Y-90301454D01*
X147653803Y-90297397D01*
X147500105Y-90317456D01*
X147371702Y-90368471D01*
X147245757Y-90449433D01*
X147125304Y-90550853D01*
X147099127Y-90575833D01*
X147099127Y-91990000D01*
X146567899Y-91990000D01*
X146567899Y-89832847D01*
X147099127Y-89832847D01*
X147099127Y-90128869D01*
X147204228Y-90024627D01*
X147324599Y-89928209D01*
X147392219Y-89883405D01*
X147525668Y-89820308D01*
X147671211Y-89789378D01*
X147742463Y-89785952D01*
X147890954Y-89801048D01*
X147977669Y-89839441D01*
X147872156Y-90348688D01*
G37*
G36*
X149483426Y-91955561D02*
G01*
X149333229Y-92001867D01*
X149177838Y-92028951D01*
X149032065Y-92036894D01*
X148877997Y-92028900D01*
X148726562Y-92000186D01*
X148587619Y-91942922D01*
X148492044Y-91869832D01*
X148405104Y-91745168D01*
X148354389Y-91598342D01*
X148331205Y-91440291D01*
X148327180Y-91328346D01*
X148327180Y-90255631D01*
X148053140Y-90255631D01*
X148053140Y-89832847D01*
X148327180Y-89832847D01*
X148327180Y-89223217D01*
X148859141Y-89223217D01*
X148859141Y-89832847D01*
X149361793Y-89832847D01*
X149361793Y-90255631D01*
X148859141Y-90255631D01*
X148859141Y-91257271D01*
X148871203Y-91406616D01*
X148922156Y-91526915D01*
X149052369Y-91594589D01*
X149100209Y-91597990D01*
X149246205Y-91578756D01*
X149391102Y-91521053D01*
X149483426Y-91955561D01*
G37*
G36*
X150857074Y-89794942D02*
G01*
X151006997Y-89821913D01*
X151162373Y-89876104D01*
X151296711Y-89954769D01*
X151395115Y-90041674D01*
X151489617Y-90164738D01*
X151560909Y-90310171D01*
X151603542Y-90452632D01*
X151629121Y-90611528D01*
X151637648Y-90786859D01*
X151637648Y-91044047D01*
X150201500Y-91044047D01*
X150218495Y-91189797D01*
X150263038Y-91333933D01*
X150341451Y-91448513D01*
X150467552Y-91527740D01*
X150611278Y-91563231D01*
X150737124Y-91570879D01*
X150884220Y-91561170D01*
X151011898Y-91532044D01*
X151142265Y-91459485D01*
X151219260Y-91380369D01*
X151614933Y-91662470D01*
X151516592Y-91780678D01*
X151399895Y-91876375D01*
X151277878Y-91943838D01*
X151133851Y-91992910D01*
X150978776Y-92021536D01*
X150820690Y-92034622D01*
X150712212Y-92036894D01*
X150552117Y-92030168D01*
X150405224Y-92009989D01*
X150246379Y-91968018D01*
X150106546Y-91906675D01*
X149967434Y-91810624D01*
X149915736Y-91761388D01*
X149813524Y-91627070D01*
X149745896Y-91490508D01*
X149696711Y-91334162D01*
X149669814Y-91188761D01*
X149655724Y-91029621D01*
X149653419Y-90927543D01*
X149662544Y-90723528D01*
X149669476Y-90676950D01*
X150216154Y-90676950D01*
X151110083Y-90676950D01*
X151094936Y-90517831D01*
X151038977Y-90373800D01*
X150924534Y-90264062D01*
X150780218Y-90216052D01*
X150679239Y-90208736D01*
X150529130Y-90225010D01*
X150446964Y-90254898D01*
X150330872Y-90349283D01*
X150301151Y-90391919D01*
X150245029Y-90536235D01*
X150216154Y-90676950D01*
X149669476Y-90676950D01*
X149689921Y-90539581D01*
X149735548Y-90375700D01*
X149799427Y-90231886D01*
X149881556Y-90108139D01*
X150019452Y-89974359D01*
X150189794Y-89876254D01*
X150338844Y-89826086D01*
X150506144Y-89795986D01*
X150691695Y-89785952D01*
X150857074Y-89794942D01*
G37*
G36*
X151922679Y-91990000D02*
G01*
X151922679Y-91602386D01*
X152932379Y-90255631D01*
X151949790Y-90255631D01*
X151949790Y-89832847D01*
X153569853Y-89832847D01*
X153569853Y-90218995D01*
X152557955Y-91567215D01*
X153602826Y-91567215D01*
X153602826Y-91990000D01*
X151922679Y-91990000D01*
G37*
D12*
X93500000Y-117655000D03*
X93500000Y-112575000D03*
X93500000Y-110035000D03*
X93500000Y-107495000D03*
D13*
X154710000Y-107430000D03*
D14*
X157210000Y-107430000D03*
X159210000Y-107430000D03*
X161710000Y-107430000D03*
X154710000Y-104810000D03*
X157210000Y-104810000D03*
X159210000Y-104810000D03*
X161710000Y-104810000D03*
D15*
X151640000Y-110140000D03*
X164780000Y-110140000D03*
X151640000Y-104460000D03*
X164780000Y-104460000D03*
D16*
X87500000Y-106500000D03*
X87500000Y-108500000D03*
D17*
X146680000Y-115345000D03*
X139680000Y-115345000D03*
D18*
X145430000Y-117845000D03*
X140930000Y-117845000D03*
D19*
X173180000Y-113920000D03*
D20*
X175200000Y-113920000D03*
D21*
X176430000Y-113920000D03*
D22*
X174180000Y-113920000D03*
D23*
X172160000Y-113920000D03*
D24*
X170930000Y-113920000D03*
D25*
X169360000Y-114000000D03*
X169360000Y-117800000D03*
X178000000Y-114000000D03*
X178000000Y-117800000D03*
D26*
X171680000Y-110000000D03*
X171680000Y-108000000D03*
D17*
X125180000Y-115345000D03*
X118180000Y-115345000D03*
D18*
X123930000Y-117845000D03*
X119430000Y-117845000D03*
D27*
X114180000Y-109500000D03*
X112180000Y-109500000D03*
D17*
X114180000Y-115345000D03*
X107180000Y-115345000D03*
D18*
X112930000Y-117845000D03*
X108430000Y-117845000D03*
D28*
X89162000Y-58258975D03*
X89162000Y-60798975D03*
X89162000Y-63338975D03*
X89162000Y-65878975D03*
X89162000Y-68418975D03*
X89162000Y-70958975D03*
X89162000Y-73498975D03*
X89162000Y-76038975D03*
X89162000Y-78578975D03*
X89162000Y-81118975D03*
X89162000Y-83658975D03*
X89162000Y-86198975D03*
X89162000Y-88738975D03*
D29*
X89162000Y-91278975D03*
D28*
X89162000Y-93818975D03*
X114562000Y-58258975D03*
X114562000Y-60798975D03*
X114562000Y-63338975D03*
X114562000Y-65878975D03*
X114562000Y-68418975D03*
X114562000Y-70958975D03*
X114562000Y-73498975D03*
X114562000Y-76038975D03*
X114562000Y-78578975D03*
X114562000Y-81118975D03*
X114562000Y-83658975D03*
X114562000Y-86198975D03*
X114562000Y-88738975D03*
D30*
X114562000Y-91278975D03*
D28*
X114562000Y-93818975D03*
D31*
X109437500Y-109530000D03*
X107362500Y-109530000D03*
D32*
X99000000Y-111925000D03*
X99000000Y-114000000D03*
D31*
X120180000Y-109500000D03*
X118105000Y-109500000D03*
D27*
X146460000Y-109500000D03*
X144460000Y-109500000D03*
D26*
X176180000Y-110000000D03*
X176180000Y-108000000D03*
D17*
X135930000Y-115345000D03*
X128930000Y-115345000D03*
D18*
X134680000Y-117845000D03*
X130180000Y-117845000D03*
D33*
X124500000Y-69260000D03*
D34*
X124500000Y-71800000D03*
X124500000Y-74340000D03*
X124500000Y-76880000D03*
X124500000Y-79420000D03*
X124500000Y-81960000D03*
X124500000Y-84500000D03*
X124500000Y-87040000D03*
X124500000Y-89580000D03*
X124500000Y-92120000D03*
D27*
X135960000Y-109500000D03*
X133960000Y-109500000D03*
D32*
X87500000Y-111925000D03*
X87500000Y-114000000D03*
D31*
X131217500Y-109500000D03*
X129142500Y-109500000D03*
X141717500Y-109500000D03*
X139642500Y-109500000D03*
D27*
X124922500Y-109500000D03*
X122922500Y-109500000D03*
D16*
X99000000Y-106500000D03*
X99000000Y-108500000D03*
D34*
X124500000Y-63000000D03*
D33*
X127040000Y-63000000D03*
D34*
X129580000Y-63000000D03*
X132120000Y-63000000D03*
X134660000Y-63000000D03*
X137200000Y-63000000D03*
X139740000Y-63000000D03*
X142280000Y-63000000D03*
X124425000Y-47500000D03*
X126965000Y-47500000D03*
X129505000Y-47500000D03*
X132045000Y-47500000D03*
D33*
X134585000Y-47500000D03*
D34*
X153960000Y-77500000D03*
X151420000Y-77500000D03*
D33*
X148880000Y-77500000D03*
D35*
X150190000Y-50050000D03*
D36*
X157810000Y-50050000D03*
D35*
X169500000Y-50000000D03*
D36*
X177120000Y-50000000D03*
D33*
X151420000Y-63000000D03*
D34*
X153960000Y-63000000D03*
X156500000Y-63000000D03*
X159040000Y-63000000D03*
M02*
